<svg xmlns="http://www.w3.org/2000/svg" viewBox="0 0 20 20"><defs><style>.cls-1{fill:#eb8250}</style></defs><g id="Layer_2" data-name="Layer 2"><g id="レイヤー_1" data-name="レイヤー 1"><path class="cls-1" d="M12.35 13.64a.64.64 0 00-.86 0l-1.22 1a.65.65 0 01-.82 0 16.44 16.44 0 01-2.18-1.84 16.44 16.44 0 01-1.84-2.18.65.65 0 010-.82l1-1.22a.63.63 0 00-.05-.86L4 5.32a.66.66 0 00-.88 0L.23 7.73a.66.66 0 00-.15.81s.39.8.75 1.41a29.16 29.16 0 004.09 5.13 29.16 29.16 0 005.13 4.09c.61.36 1.42.75 1.42.75a.65.65 0 00.8-.15l2.45-2.92a.65.65 0 000-.88zm.58-3.12l1-.15a5.19 5.19 0 00-4.3-4.27l-.15 1a4.18 4.18 0 013.45 3.45zm3.9-7.35A11.32 11.32 0 0010.6 0l-.16 1A10.34 10.34 0 0119 9.56l1-.16a11.32 11.32 0 00-3.17-6.23z"/><path class="cls-1" d="M10.11 3.05L10 4a7.23 7.23 0 016 6l1-.15a8.21 8.21 0 00-6.84-6.84z"/></g></g></svg>