<svg xmlns="http://www.w3.org/2000/svg" viewBox="0 0 22.21 20"><defs><style>.cls-1{fill:#fff}</style></defs><g id="Layer_2" data-name="Layer 2"><g id="レイヤー_1" data-name="レイヤー 1"><path class="cls-1" d="M21.11 0h-20A1.11 1.11 0 000 1.11v17.78A1.11 1.11 0 001.11 20h20a1.11 1.11 0 001.1-1.11V1.11A1.11 1.11 0 0021.11 0zm-2.69 2.23a1.25 1.25 0 11-1.24 1.25 1.24 1.24 0 011.24-1.25zm-3.93 0a1.25 1.25 0 11-1.24 1.25 1.24 1.24 0 011.24-1.25zm-3.93 0a1.25 1.25 0 11-1.24 1.25 1.25 1.25 0 011.24-1.25zm9.8 15.92H1.85V6.48h18.51z"/><path class="cls-1" d="M3.79 8.43h9.82v1.98H3.79zm0 3.97h14.63v1.98H3.79z"/></g></g></svg>