<svg xmlns="http://www.w3.org/2000/svg" viewBox="0 0 69.77 70"><defs><style>.cls-2{fill:#455a64}.cls-3{fill:#263238}.cls-4{fill:#eb996e}.cls-5{fill:#aa6550}</style></defs><g id="Layer_2" data-name="Layer 2"><g id="レイヤー_1" data-name="レイヤー 1"><rect width="69.77" height="69.77" rx="31.72" fill="#fff"/><path class="cls-2" d="M8.63 58.79s11.42-4.7 22.49-4.79 29.22 5.62 29.22 5.62-10.09 12.2-29.22 10.15C15.17 68.05 8.63 58.79 8.63 58.79z"/><path class="cls-3" d="M18.21 11.64c-2.59 1.52-3.22 4.93-3.52 7.93S14 26 11.53 27.71c-2 1.45-5.21 1.65-6 4a2.9 2.9 0 00.87 3.14 2.89 2.89 0 003.24.23 4.88 4.88 0 00.36 5.67c1.44 1.46 4.32 1.27 5.2-.58a2.58 2.58 0 001.4 3.33 2.57 2.57 0 003.24-1.56m29.41-4.07a3 3 0 105.83-1.25c-.3-1.22-1.36-2.25-1.24-3.5.13-1.51 1.84-2.28 3.31-2.68s3.19-.94 3.61-2.4-.66-2.76-1.56-3.91-1.67-2.84-.77-4c.46-.59 1.24-.83 1.8-1.32a3.3 3.3 0 000-4.48 6 6 0 00-4.51-1.73 43.39 43.39 0 00-4.94.55 19.83 19.83 0 01-15.13-4.94"/><path class="cls-4" d="M18.23 23.31l1.16 33.9a10.75 10.75 0 0011.18 10.38 10.75 10.75 0 0010.31-10.24c.15-3 .26-5.43.26-5.43s8.59-1 9-9.52c.21-4.12 0-12.65-.36-20.36A15.91 15.91 0 0034.54 6.8h-.82a15.8 15.8 0 00-15.49 16.51z"/><path class="cls-5" d="M41.16 51.8a19.88 19.88 0 01-11-3.61s2.38 6.25 10.93 5.81z"/><path class="cls-3" d="M46.2 27.67a1.23 1.23 0 01-1.2 1.18 1.16 1.16 0 01-1.21-1.15A1.22 1.22 0 0145 26.52a1.17 1.17 0 011.2 1.15zm1.62-1.51c-.16.15-1.06-.57-2.37-.62s-2.3.57-2.43.4.09-.35.52-.64a3.39 3.39 0 012-.52 3.29 3.29 0 011.88.69c.35.32.47.62.4.69zm-14.26 1.15a1.23 1.23 0 01-1.23 1.18 1.16 1.16 0 01-1.21-1.15 1.22 1.22 0 011.22-1.18 1.17 1.17 0 011.22 1.15zm1.35-1.42c-.15.15-1-.57-2.36-.61s-2.3.57-2.44.4.1-.36.53-.64a3.31 3.31 0 012-.52 3.22 3.22 0 011.88.68c.35.33.48.62.39.69zm4.38 9.91a9.29 9.29 0 012.15-.3c.33 0 .65-.07.72-.3a1.68 1.68 0 00-.19-1l-.89-2.59a43.65 43.65 0 01-2-6.76 44 44 0 012.5 6.59l.85 2.6a2 2 0 01.12 1.32.83.83 0 01-.57.47 2.46 2.46 0 01-.57.06 8 8 0 01-2.12-.09zm-3.9.76c.22 0 .16 1.42 1.34 2.48s2.7 1 2.71 1.16-.35.26-1 .25a3.55 3.55 0 01-2.26-.88 3.06 3.06 0 01-1-2.08c-.06-.6.12-.94.21-.93zm.07-15.8c-.15.36-1.45.14-3 .26s-2.8.49-3 .17c-.09-.16.14-.49.66-.81a4.94 4.94 0 012.24-.69 5 5 0 012.32.37c.57.25.84.54.78.7zm12.02 1.58c-.24.29-1.13-.06-2.22-.11s-2 .12-2.21-.2c-.09-.16.07-.45.48-.72a3.15 3.15 0 011.83-.41 3.09 3.09 0 011.75.67c.37.32.48.63.37.77zm-19.62-8.02h-.05a6.7 6.7 0 00-2.66 4.25v.17c-.43 2.42-.47 4.9-.92 7.31a11.08 11.08 0 01-3.26 6.46c-.77.66-2.09 1.09-2.67.25a2 2 0 01-.3-1.09c-.22-5.9-1.62-11.18-1.37-17.32A5.18 5.18 0 0119 10.22c1.32-.88 2.93-1.77 4.33-1s3.15 3.49 4.22 4.67"/><path class="cls-4" d="M21 27.28c-.14-.06-5.79-2-5.84 3.88s5.83 4.68 5.84 4.51 0-8.39 0-8.39z"/><path class="cls-5" d="M19.19 33.45s-.11.07-.28.15a1.08 1.08 0 01-.76 0A2.53 2.53 0 0117 31.34a3.43 3.43 0 01.3-1.46 1.17 1.17 0 01.77-.77.52.52 0 01.6.28c.07.16 0 .28.07.29s.12-.1.08-.34a.73.73 0 00-.23-.37.79.79 0 00-.56-.15 1.44 1.44 0 00-1.07.9 3.44 3.44 0 00-.37 1.63 2.65 2.65 0 001.47 2.53 1.08 1.08 0 00.93-.15c.18-.14.22-.27.2-.28z"/><path class="cls-3" d="M23.06 10.08c-1.34-2.39 2.72-5.59 5.64-6.38s6.65.76 9.48 1.82c1.82.67 3.56 1.58 5.46 1.58a13.09 13.09 0 003.74-.8 9.36 9.36 0 013.76-.59 3.52 3.52 0 013 2.07 2.21 2.21 0 01-1.59 2.92 3 3 0 014.12 2.3 3 3 0 01-3.58 3c.86-.6 2.09.49 1.95 1.52A3 3 0 0153 19.69c-2.47 1-5.29.52-7.78-.42s-4.77-2.36-7.23-3.37-6.58-2.81-9.12-2c-1.87.58-3.24 2.75-4.26 2.22a3.53 3.53 0 01-1.74-2.69 10.31 10.31 0 01.24-3.32"/><path class="cls-2" d="M49.53 9.71A1.56 1.56 0 0151 10a2.94 2.94 0 011.11 1.38 2.89 2.89 0 010 2.34c-.76 1.67-3 2.67-5.29 2.42a14.38 14.38 0 01-6.68-2.9 34.89 34.89 0 00-6-3.85 9.39 9.39 0 00-3-.79 7.42 7.42 0 00-2.64.34 5.41 5.41 0 00-3 2.26 8.64 8.64 0 00-.58 1.32v-.39a3.66 3.66 0 01.36-1 5.57 5.57 0 013.11-2.52 7.42 7.42 0 012.78-.42 9.63 9.63 0 013.14.77 34.28 34.28 0 016.16 3.87 14.1 14.1 0 006.42 2.85c2.13.26 4.19-.64 4.89-2.09a2.57 2.57 0 00.09-2.06 2.64 2.64 0 00-.94-1.31 2.43 2.43 0 00-1.4-.51z"/><path class="cls-2" d="M33.7 6.13c0 .09-.77-.19-2-.28a8.3 8.3 0 00-8 4.33c-.58 1.08-.7 1.82-.84 1.82a4 4 0 01.52-2 7.94 7.94 0 018.35-4.53 4 4 0 011.97.66zM17.59 20.62c-.06 0-.36-.55-.43-1.59a6 6 0 014.39-6.14 2.83 2.83 0 011.65-.1c0 .09-.62.13-1.53.47A6.19 6.19 0 0017.54 19c-.03 1 .13 1.6.05 1.62z"/></g></g></svg>