<svg xmlns="http://www.w3.org/2000/svg" viewBox="0 0 70 70"><defs><style>.cls-2{fill:#e8505b}.cls-4{fill:#263238}.cls-5{fill:#eb996e}</style></defs><g id="Layer_2" data-name="Layer 2"><g id="レイヤー_1" data-name="レイヤー 1"><path d="M50.27 52.3a12.07 12.07 0 01-3.47-.73l.09 6.07a53.55 53.55 0 0111.43 3.46A35.08 35.08 0 0068 46.62q-5.3 2.38-10.81 4.3a18.85 18.85 0 01-6.92 1.38zM35 0A35 35 0 000 35a34.93 34.93 0 0013.59 27.68 46.77 46.77 0 0113.87-4.87V54h-.85c-5.34-.29-10.69-1.41-16-.67a4.08 4.08 0 01-2.5-.13 3.72 3.72 0 01-1.46-2.7c-.49-2.31-.75-5 .9-6.74 1.11-1.13 3-1.69 3.36-3.24s-.91-2.74-1.63-4.05a6.72 6.72 0 01.87-7.68c1.25-1.36 3.07-2.2 4-3.8s.71-3.32.93-5a9.26 9.26 0 014.06-6.82 6.69 6.69 0 014.79-.79c2.37-3.2 7.43-1.37 10-1.48 3.32-.14 6.83-.24 9.75 1.31a5.77 5.77 0 011.17-3.88 6.3 6.3 0 015.62-2.24 4.36 4.36 0 013 1.52 4.55 4.55 0 01.41 4.2 6.14 6.14 0 01-5.12 4.13h-.06v.12a3.83 3.83 0 01.12.77c.56 1 1 2.1 1.54 3.13a6.83 6.83 0 003.18 3.27c1 .41 2.17.42 3.17.88 1.76.8 2.65 2.79 3.08 4.68a15.4 15.4 0 00.68 2.61 3.29 3.29 0 001.79 1.92 24.87 24.87 0 002.47.33 4 4 0 012.34 1.85 11.86 11.86 0 011.13 2.84c.37 1.2.73 2.41 1.1 3.61A35.2 35.2 0 0070 35 35 35 0 0035 0zM23.34 68a41.56 41.56 0 01-9.72-5.3 34.86 34.86 0 009.72 5.3z" fill="#fff"/><path class="cls-2" d="M46.91 58.65a9.73 9.73 0 01-19.45-.19v-.65a46.77 46.77 0 00-13.87 4.87c3.32 2.4 4.36 3.82 9.63 5.48A39.24 39.24 0 0035 70a34.89 34.89 0 0023.32-8.9 53.55 53.55 0 00-11.43-3.46z"/><path d="M37.18 68.18a9.73 9.73 0 009.73-9.53v-1l-.09-6.07a19.2 19.2 0 01-2.7-1.23A8 8 0 0140 43.52v-3.11l1.23-8.07c-3.77-1.37-4.86-7-4.86-7a12.54 12.54 0 01-4.3 1.39 4.27 4.27 0 01-4-1.71c-.79-1.25-.61-2.86-.36-4.31A5 5 0 0027 17a2.75 2.75 0 00-4.36-.39 14.81 14.81 0 00-3.58 8.82c-.38 5.95-.6 13.24.1 17.68 1.42 8.93 8.27 10.07 8.27 10.07a22.69 22.69 0 0012-3.19s-2.9 6.14-11.84 5.3l-.12-2.11v5.33a9.72 9.72 0 009.71 9.67zM33 29.66a3 3 0 011.78-.58 3.22 3.22 0 011.82.56c.39.29.54.56.47.62s-1-.48-2.27-.46-2.1.63-2.24.49.03-.29.44-.63zm3.15 5.1a.25.25 0 11-.47-.19.24.24 0 01.33-.15.25.25 0 01.11.34zm-3.95-7.27a4.88 4.88 0 014.27.47c.47.33.67.64.59.79-.19.3-1.36-.13-2.81-.27s-2.68 0-2.8-.35c-.05-.13.22-.43.75-.64zm-11.2-.3a3 3 0 011.67-.56 2.83 2.83 0 011.69.46c.38.26.52.54.43.69s-1.06 0-2.08.1-1.87.31-2.09 0-.02-.4.38-.69zm1.94 5.29a1.16 1.16 0 01-1.11-1.16 1.09 1.09 0 011.19-1 1.14 1.14 0 011.1 1.16 1.1 1.1 0 01-1.22 1zm2-2.22c-.13.16-1-.48-2.27-.46s-2.1.63-2.24.49.05-.34.43-.63a3.09 3.09 0 011.79-.58 3.22 3.22 0 011.82.56c.37.29.53.56.45.62zm1.36 9.29a2.21 2.21 0 01-.53-.07.82.82 0 01-.52-.46 1.84 1.84 0 01.16-1.24c.29-.77.58-1.57.89-2.41a41.68 41.68 0 012.6-6.09 41.93 41.93 0 01-2.1 6.27q-.48 1.26-.93 2.4a1.67 1.67 0 00-.21.93c.06.22.35.28.67.31a7.36 7.36 0 012 .37 8.11 8.11 0 01-2.05-.01zm6.25 4.05a2.07 2.07 0 01-2 1.23 2.25 2.25 0 01-1.62-.83c-.6 0-.94-.19-.92-.28s.26-.1.64-.16h.07a1.06 1.06 0 01.17-.93 1.11 1.11 0 011.11-.47 1 1 0 01.66-1 1.27 1.27 0 01.9 0c.18-.47.24-.83.34-.82s.24.32.19.88a2.21 2.21 0 01-.05.25 1.89 1.89 0 01.49 2.13zm1.19-12.28a1.09 1.09 0 011.18-1A1.14 1.14 0 0136 31.45a1.1 1.1 0 01-1.18 1 1.14 1.14 0 01-1.1-1.13z" fill="#ffbe9d"/><path class="cls-4" d="M23 30.29a1.09 1.09 0 00-1.19 1 1.16 1.16 0 001.11 1.16 1.1 1.1 0 001.18-1 1.14 1.14 0 00-1.1-1.16z"/><path class="cls-4" d="M24.45 29.64a3.22 3.22 0 00-1.82-.56 3.09 3.09 0 00-1.79.58c-.38.29-.5.56-.43.63s1-.5 2.24-.49 2.14.62 2.27.46-.08-.33-.47-.62zm10.37 2.84a1.1 1.1 0 001.18-1 1.14 1.14 0 00-1.1-1.16 1.09 1.09 0 00-1.18 1 1.14 1.14 0 001.1 1.16z"/><path class="cls-4" d="M32.53 30.29c.14.14 1-.5 2.24-.49s2.14.62 2.27.46-.08-.33-.47-.62a3.22 3.22 0 00-1.82-.56 3 3 0 00-1.78.58c-.38.34-.51.56-.44.63zm-6.22 8.9c-.32 0-.61-.09-.67-.31a1.67 1.67 0 01.21-.93q.45-1.14.93-2.4a41.93 41.93 0 002.1-6.27 41.68 41.68 0 00-2.6 6.09c-.31.84-.6 1.64-.89 2.41a1.84 1.84 0 00-.16 1.22.82.82 0 00.52.46 2.21 2.21 0 00.53.07 8.11 8.11 0 002 0 7.36 7.36 0 00-1.97-.34z"/><path class="cls-5" d="M27.58 55.24c8.94.84 11.84-5.3 11.84-5.3a22.69 22.69 0 01-12 3.19zm4.5-13.7a2.86 2.86 0 01-1 1.66 3.33 3.33 0 01-2.15.75 2.25 2.25 0 001.63.88 2.07 2.07 0 002-1.23 1.89 1.89 0 00-.48-2.06z"/><path class="cls-5" d="M31.6 41.23a1.27 1.27 0 00-.9 0 1 1 0 00-.66 1 1.11 1.11 0 00-1.15.41 1.06 1.06 0 00-.17.93 3.94 3.94 0 001.87-.82 3.4 3.4 0 001.01-1.52zm-2.97 2.25z"/><path class="cls-4" d="M31.08 43.2a2.86 2.86 0 001-1.66 2.21 2.21 0 00.05-.25c0-.56-.1-.89-.19-.88s-.16.35-.34.82a3.4 3.4 0 01-1 1.45 3.94 3.94 0 01-1.87.82h-.07c-.38.06-.63.09-.64.16s.32.26.92.28a3.33 3.33 0 002.14-.74zm3.17-14.72c1.45.14 2.62.57 2.81.27.08-.15-.12-.46-.59-.79a4.88 4.88 0 00-4.27-.47c-.53.21-.8.48-.75.64.12.33 1.35.17 2.8.35zm-11.58-.6c1-.05 1.88.19 2.08-.1s-.05-.43-.43-.69a2.83 2.83 0 00-1.69-.46 3 3 0 00-1.67.56c-.36.29-.48.58-.38.72s1.06-.02 2.09-.03z"/><path class="cls-4" d="M67.08 35.49a4 4 0 00-2.34-1.85 24.87 24.87 0 01-2.47-.33 3.29 3.29 0 01-1.79-1.92 15.4 15.4 0 01-.68-2.61c-.43-1.89-1.32-3.88-3.08-4.68-1-.46-2.16-.47-3.17-.88A6.83 6.83 0 0150.37 20c-.55-1-1-2.11-1.54-3.13v.38c0 .01-.15-.35-.35-.89a1.76 1.76 0 000 .23 6.28 6.28 0 01-1.32 3.39c-1.8 2.6-6.71 4.17-11.16 2.23a5.27 5.27 0 01-2.52-2.41 21.3 21.3 0 01-1-3 6.66 6.66 0 00-3.21-3.93 7.17 7.17 0 00-3.39-.91c-.84 0-1.3.12-1.31.07a1 1 0 01.32-.11 5.38 5.38 0 011-.14 7.08 7.08 0 017 4.88 22 22 0 001 3 4.83 4.83 0 002.31 2.19 8.82 8.82 0 003.19.8 11.12 11.12 0 003.08-.21 7.55 7.55 0 004.41-2.6 6.33 6.33 0 001.4-3.2v-.56a6.67 6.67 0 00-1.29-2 10.48 10.48 0 00-3.07-2.1 2.09 2.09 0 011.13.2 6 6 0 013.6 3.9h.06a6.14 6.14 0 005.12-4.13 4.55 4.55 0 00-.41-4.2 4.36 4.36 0 00-3-1.52 6.3 6.3 0 00-5.62 2.24 5.77 5.77 0 00-1.17 3.88c-2.92-1.55-6.43-1.45-9.75-1.31-2.53.11-7.59-1.72-10 1.48a6.69 6.69 0 00-4.79.79A9.26 9.26 0 0015.07 20c-.22 1.7-.09 3.52-.93 5s-2.74 2.44-4 3.8a6.72 6.72 0 00-.87 7.68c.74 1.31 2 2.6 1.63 4.05s-2.25 2.11-3.36 3.24c-1.65 1.7-1.39 4.43-.9 6.74a3.72 3.72 0 001.48 2.69 4.08 4.08 0 002.5.13c5.29-.74 10.64.38 16 .67h.85v-.89S20.61 52 19.19 43.06c-.7-4.44-.48-11.73-.1-17.68a14.81 14.81 0 013.58-8.82A2.75 2.75 0 0127 17a5 5 0 01.73 3.72c-.25 1.45-.43 3.06.36 4.31a4.27 4.27 0 004 1.71 12.54 12.54 0 004.3-1.39s1.09 5.67 4.86 7L40 40.41c-.07 1.18-.07 2.21 0 3.11a8 8 0 004.14 6.82 19.2 19.2 0 002.7 1.23 12.07 12.07 0 003.47.73 18.85 18.85 0 006.92-1.38Q62.7 49 68 46.62a34.34 34.34 0 001.29-4.68c-.37-1.2-.73-2.41-1.1-3.61a11.86 11.86 0 00-1.11-2.84z"/><path class="cls-4" d="M35.65 34.57a.25.25 0 10.47.19.25.25 0 00-.14-.34.24.24 0 00-.33.15z"/><path class="cls-2" d="M45.07 12a2.09 2.09 0 00-1.13-.2A10.48 10.48 0 0147 13.93a6.67 6.67 0 011.29 2v-.75s0 .11.09.33a5 5 0 01.05.77c.2.54.28.9.35.89s.05-.15 0-.38a3.83 3.83 0 00-.12-.77v-.12a6 6 0 00-3.6-3.9z"/><path d="M48.4 15.54q-.06-.33-.09-.33v1.31a6.33 6.33 0 01-1.4 3.2 7.55 7.55 0 01-4.41 2.6 11.12 11.12 0 01-3.08.21 8.82 8.82 0 01-3.19-.8 4.83 4.83 0 01-2.31-2.19 22 22 0 01-1-3 7.08 7.08 0 00-7-4.88 5.38 5.38 0 00-1 .14 1 1 0 00-.32.11c0 .05.47-.07 1.31-.07a7.17 7.17 0 013.39.91 6.66 6.66 0 013.21 3.93 21.3 21.3 0 001 3A5.27 5.27 0 0036 22.16c4.45 1.94 9.36.37 11.16-2.23a6.28 6.28 0 001.32-3.39 1.76 1.76 0 010-.23 5 5 0 00-.08-.77z" fill="#455a64"/></g></g></svg>