<svg xmlns="http://www.w3.org/2000/svg" viewBox="0 0 66.29 76"><g id="Layer_2" data-name="Layer 2"><g id="レイヤー_1" data-name="レイヤー 1"><path d="M65.45 9.38L36.14.43a10.65 10.65 0 00-6 0L.84 9.38a1 1 0 00-.84.92 1.05 1.05 0 00.84.93l13.57 4.14v11.46a25.16 25.16 0 005.68 16 20 20 0 006 5 14.8 14.8 0 0014.58 0A21.52 21.52 0 0049 39.48a25.48 25.48 0 003.33-12.65V15.22l6.72-2.05v9.53a1.87 1.87 0 00-.32 3.64l-1.42 9.4a.81.81 0 00.18.65.82.82 0 00.62.28h5.38a.82.82 0 00.62-.28.85.85 0 00.19-.65l-1.43-9.4a1.86 1.86 0 001.32-1.78 1.88 1.88 0 00-1.64-1.86V12.1l2.87-.87a1.05 1.05 0 00.84-.93 1 1 0 00-.81-.92zM33.39 44.22A9.87 9.87 0 0128.72 43a16 16 0 01-6.15-6.24 19 19 0 01-1.74-4.07 27 27 0 0017.77-12c1.52 3.09 4.11 6.94 8 8.71a19.39 19.39 0 01-4.24 10 14.62 14.62 0 01-4.31 3.6 9.86 9.86 0 01-4.66 1.22z" fill="#fff"/><path d="M50.63 46.64l-.15-.09L34.07 61l-16.4-14.45-.15.09C12.05 50.06 6.23 59.36 6.23 69.85V70l.13.07A64.88 64.88 0 0034.07 76a64.9 64.9 0 0027.72-5.94l.12-.07v-.14c0-10.49-5.81-19.79-11.28-23.21z" fill="#ffdc64"/></g></g></svg>