<svg xmlns="http://www.w3.org/2000/svg" viewBox="0 0 241.41 140.25"><g id="Layer_2" data-name="Layer 2"><path d="M0 122.68a16.4 16.4 0 012.64-.47 23.2 23.2 0 017.17.39 28.37 28.37 0 019.59 3.89 29.88 29.88 0 014.67 3.72 26.6 26.6 0 012.1 2.26c.37.53.59.54-.19 0l-.33-.17c-.57-.2-.07 0-.15-.06a2.89 2.89 0 00-.6-.13 1.88 1.88 0 00-.4 0 2.52 2.52 0 00-1 .2c-.29.16-.14.11 0-.07l1-1a30.44 30.44 0 012.5-1.92 31.12 31.12 0 015-3 30.74 30.74 0 019.85-2.87 24.45 24.45 0 017.14.15 17.49 17.49 0 012.62.62l-2.45 1c-1.52.62-3.63 1.55-6 2.75a58.07 58.07 0 00-7.5 4.62c-1.27.93-2.54 1.92-3.76 3l-1.78 1.63-1 1A8.29 8.29 0 0127 139.7a5.87 5.87 0 01-2.29.55 6.27 6.27 0 01-.74 0A5.56 5.56 0 0123 140l-.47-.17a3.58 3.58 0 01-.65-.32 7.08 7.08 0 01-2.1-2c-.5-.62-1-1.27-1.51-1.86a48.38 48.38 0 00-3.29-3.41 47.4 47.4 0 00-6.9-5.3 64.22 64.22 0 00-5.72-3.16zM210.89 6.6a37.53 37.53 0 014 1.16 29.15 29.15 0 015 2.33c.85.5 1.69 1.06 2.51 1.65.41.3.79.63 1.19.95a4.67 4.67 0 001.57.94 3.15 3.15 0 00.44.11h.32a4.26 4.26 0 00.61 0l.47-.08a3.72 3.72 0 001.34-.66 5.12 5.12 0 001.13-1.26l.48-.73.87-1.26c.61-.83 1.26-1.62 1.92-2.37a37.06 37.06 0 014-3.89A62.5 62.5 0 01240 1l1.38-1a12 12 0 00-1.71 0 15.26 15.26 0 00-4.43.89 19.72 19.72 0 00-8.4 5.71 17.47 17.47 0 00-1.21 1.52l-.51.73c-.09.14-.18.19 0 .05a1.69 1.69 0 01.57-.26h.25a1.67 1.67 0 01.39 0h.1l.23.06c.56.23.42.25.12 0a17.22 17.22 0 00-1.62-1.11 18 18 0 00-9.86-2.75 14.57 14.57 0 00-4.49.75 10.52 10.52 0 00-1.57.65z" fill="#fffeff" id="レイヤー_1" data-name="レイヤー 1"/></g></svg>