<svg xmlns="http://www.w3.org/2000/svg" viewBox="0 0 477.74 78.64"><g id="Layer_2" data-name="Layer 2"><g id="レイヤー_1" data-name="レイヤー 1"><path d="M129.27 3.18a19.32 19.32 0 00-11.65 4.74c-2.2 2-4.47 4.48-7.41 4.35-3.34-.16-6.3-4-9.26-5.53-7.82-3.94-15.38-5.53-23.07-.26-4.55 3.11-8.24 7.31-12.56 10.72a4.91 4.91 0 01-4.15 1.24c-1.38-.37-2.31-1.62-3.25-2.7a15.61 15.61 0 00-7.14-4 11.59 11.59 0 00-9.21 2.48c-4.48 4.23-5.14 7.71-10.28 11-7.43 4.81-14.57.76-22.57 1.17-3.26.17-12.56 5.52-7 5.53 22.43 0 116.4.11 147.1 0 1.68 0 6.89-10.16 2.4-17.72-4.98-8.43-14.29-11.48-21.95-11.02zm247.48 15.53c-5.13-2.68-10.74-3.3-15.82.18-3 2.06-6.06 4.43-8.92 6.68a3.26 3.26 0 01-2.73.82 4.86 4.86 0 01-2.15-1.78 10.32 10.32 0 00-4.72-2.61 7.63 7.63 0 00-6.08 1.64c-3 2.79-3.4 5.09-6.79 7.28-4.91 3.18-9.62.51-14.91.78-2.15.11-8.29 3.64-4.6 3.65 14.81 0 52.88.07 73.15 0 1.11-.05 4.05-11.17-6.43-16.64zm85.77 14.64a12.4 12.4 0 00-7.47 3c-1.41 1.25-2.86 2.87-4.75 2.78-2.14-.09-4-2.59-5.93-3.54-5-2.52-9.86-3.54-14.79-.17-2.92 2-5.28 4.69-8.05 6.88a3.15 3.15 0 01-2.65.79 4.71 4.71 0 01-2.09-1.73 10.09 10.09 0 00-4.57-2.57 7.44 7.44 0 00-5.91 1.59c-2.87 2.71-3.29 4.94-6.58 7.07-4.76 3.09-9.34.49-14.47.76-2.09.11-8 3.53-4.47 3.54 14.38 0 74.6.07 94.28 0 1.07 0 4.41-6.51 1.53-11.36-3.21-5.39-9.17-7.33-14.08-7.04z" fill="#fffeff"/><path d="M337.68 69.14H199.4a69.14 69.14 0 11138.28 0zm-170.11 3.4h98.46c7.21 0 14.42 0 21.62-.14h2.26a.37.37 0 000-.74q-10.52-.19-21-.19h-101.3a.46.46 0 000 .91zm112.11 2.61h44.76c5.48 0 10.94 0 16.41-.17a.38.38 0 000-.75c-8.49-.31-17-.17-25.49-.16h-35.68a.46.46 0 000 .91zm16.74-2.61h44.76c5.48 0 10.94 0 16.41-.18a.37.37 0 000-.74c-8.49-.31-17-.18-25.49-.16h-35.68a.46.46 0 000 .91zm-76.01 6l25.49.06h19.27c5.47 0 10.93 0 16.41-.18a.37.37 0 000-.74c-8.5-.31-17-.18-25.49-.16h-35.68a.45.45 0 000 .9z" fill="#ffdc64"/></g></g></svg>