<svg xmlns="http://www.w3.org/2000/svg" viewBox="0 0 31.52 11.87"><g id="Layer_2" data-name="Layer 2"><path d="M29.93 1.31a15 15 0 00-4.36-.15 18.88 18.88 0 00-9.14 3.46c-.43.31-.95.7-1.33 1-.16-.17-.31-.36-.48-.52a17.76 17.76 0 00-2.81-2.31A17.16 17.16 0 006 .36 14.17 14.17 0 001.62.05 10.21 10.21 0 000 .31L1.45 1a36.11 36.11 0 013.47 2 31.72 31.72 0 014.16 3.3c3.47 3.25 4.85 5.82 6.1 5.53.85-.19 3-2.66 6.54-5.16a37 37 0 014.62-2.75 46.34 46.34 0 013.68-1.62l1.5-.59a10.93 10.93 0 00-1.59-.4z" fill="#fffeff" id="レイヤー_1" data-name="レイヤー 1"/></g></svg>