<svg xmlns="http://www.w3.org/2000/svg" viewBox="0 0 203.63 33.58"><g id="Layer_2" data-name="Layer 2"><path d="M0 17.07a16.3 16.3 0 012.62-.58 23.14 23.14 0 017.18.09 28.52 28.52 0 019.75 3.47 30.39 30.39 0 014.82 3.52 28 28 0 012.19 2.17c.4.51.62.51-.18 0l-.38-.16c-.58-.18-.06 0-.15 0a2.39 2.39 0 00-.61-.11 2.54 2.54 0 00-.39 0 2.43 2.43 0 00-.95.24c-.29.17-.14.12 0-.07l1-1a27.52 27.52 0 012.3-2A31.36 31.36 0 0141.89 16a24.56 24.56 0 017.11-.14 17.51 17.51 0 012.65.51l-2.4 1.11c-1.5.68-3.57 1.7-5.87 3a58.58 58.58 0 00-7.29 4.93c-1.23 1-2.46 2-3.64 3.16l-1.7 1.71-.94 1a8.2 8.2 0 01-2.11 1.66 6 6 0 01-2.26.65 6 6 0 01-1.7-.16l-.48-.15a6.86 6.86 0 01-.66-.29 7.09 7.09 0 01-2.18-1.9c-.53-.61-1-1.23-1.59-1.8C17.74 28.12 16.6 27 15.42 26a47.14 47.14 0 00-7.13-5 61.52 61.52 0 00-5.85-2.9zm201.18-8.66a24.39 24.39 0 00-6.88-1.23 30.13 30.13 0 00-10 1.28 29.79 29.79 0 00-5.3 2.17c-.75.4-1.66.9-2.35 1.35-.21-.31-.41-.64-.63-.94a29.18 29.18 0 00-4-4.31 28 28 0 00-8.7-5.23 22.44 22.44 0 00-6.86-1.5 14.55 14.55 0 00-2.63.05L156 1.54a62.69 62.69 0 015 3.93 51.8 51.8 0 015.88 6.19c4.77 5.95 6.39 10.34 8.44 10.17 1.39-.11 5.43-3.55 11.56-6.74a58.19 58.19 0 018-3.33c2.46-.8 4.64-1.38 6.22-1.75l2.52-.6a17.24 17.24 0 00-2.44-1z" fill="#fffeff" id="レイヤー_1" data-name="レイヤー 1"/></g></svg>