<svg xmlns="http://www.w3.org/2000/svg" viewBox="0 0 163.95 39.18"><g id="Layer_2" data-name="Layer 2"><path d="M160 4.19a37.74 37.74 0 00-11-.53 46.89 46.89 0 00-15.24 4 47.76 47.76 0 00-7.85 4.44c-1.09.77-2.39 1.73-3.37 2.57-.4-.44-.77-.92-1.18-1.34a46.18 46.18 0 00-7-5.9A43.49 43.49 0 0099.87 1 35.23 35.23 0 0088.9.1a23.47 23.47 0 00-4.08.6l3.63 1.84a96.44 96.44 0 018.64 5.09 80.6 80.6 0 0110.35 8.43c8.59 8.28 12 14.77 15.13 14.09 2.13-.45 7.71-6.58 16.59-12.75a91.25 91.25 0 0111.69-6.76c3.67-1.74 6.94-3.07 9.31-3.95L164 5.26a26.52 26.52 0 00-4-1.07zM29.17 31.7a14.91 14.91 0 00-4.24-1 19 19 0 00-9.65 1.64c-.48.22-1.06.5-1.5.76-.13-.2-.24-.41-.36-.61a18.36 18.36 0 00-2.32-2.81 17.27 17.27 0 00-5.23-3.55A13.93 13.93 0 001.64 25 9.66 9.66 0 000 24.93l1.29 1a39.06 39.06 0 013 2.62 31.72 31.72 0 013.45 4c2.77 3.86 3.63 6.64 4.91 6.61.87 0 3.5-2 7.42-3.8a36.7 36.7 0 015.06-1.81c1.56-.42 2.94-.7 3.93-.88l1.59-.29a10.93 10.93 0 00-1.48-.68z" fill="#fffeff" id="レイヤー_1" data-name="レイヤー 1"/></g></svg>