<svg xmlns="http://www.w3.org/2000/svg" viewBox="0 0 100 123.43"><defs><clipPath id="clip-path"><ellipse cx="49.77" cy="61.72" rx="45.27" ry="57.23" fill="none"/></clipPath><style>.cls-2{fill:#fff}.cls-4{fill:#00aae7}.cls-5{fill:#1ea639}.cls-6{fill:#231815}</style></defs><g id="Layer_2" data-name="Layer 2"><g id="レイヤー_1" data-name="レイヤー 1"><g id="Logo"><path class="cls-2" d="M1.86 61.71c0 33 21.59 59.86 48.14 59.86s48.14-26.85 48.14-59.86S76.55 1.86 50 1.86 1.86 28.71 1.86 61.71z"/><path class="cls-2" d="M0 61.71c0 34 22.43 61.72 50 61.72s50-27.69 50-61.72S77.58 0 50 0 0 27.69 0 61.71zm3.73 0c0-32 20.76-58 46.27-58s46.28 26 46.28 58-20.76 58-46.28 58-46.27-26.02-46.27-58z"/><g clip-path="url(#clip-path)"><path class="cls-4" d="M4.64.55h12.9v122.34H4.64zm25.79 0h12.9v122.34h-12.9z"/><path class="cls-5" d="M17.54.55h12.89v122.34H17.54z"/><path class="cls-4" d="M56.21.55h12.9v122.34h-12.9z"/><path class="cls-5" d="M43.33.55h12.9v122.34h-12.9z"/><path class="cls-4" d="M82 .55h12.9v122.34H82z"/><path class="cls-5" d="M69.11.55H82v122.34H69.11z"/></g><path class="cls-6" d="M.88 61.72c0 33.42 21.94 60.6 48.89 60.6s48.89-27.18 48.89-60.6-21.93-60.6-48.89-60.6S.88 28.31.88 61.72zm1.5 0c0-32.59 21.26-59.1 47.39-59.1s47.39 26.51 47.39 59.1-21.26 59.11-47.39 59.11S2.38 94.31 2.38 61.72z"/><path class="cls-6" d="M95 61.72C95 93.33 74.77 119 49.77 119S4.5 93.34 4.5 61.72 24.77 4.49 49.77 4.49 95 30.12 95 61.72zm-45.27-48c-20 0-36.13 21.5-36.13 48s16.18 48 36.13 48 36.13-21.51 36.13-48-16.14-48.03-36.09-48.03z"/><path class="cls-6" d="M43.42 11.6l.29 1-3.91 1.15-.24-.82c.71-1.86 1.11-3 1.23-3.43a1.9 1.9 0 00.07-.94.48.48 0 00-.2-.31.47.47 0 00-.61.18.94.94 0 00.06.54l.16.53-1.59.5-.06-.2a2.9 2.9 0 01-.16-.8 1.22 1.22 0 01.14-.64 1.58 1.58 0 01.51-.59 3 3 0 01.89-.42 2.73 2.73 0 011.73-.06 1.38 1.38 0 01.86.9 2.27 2.27 0 010 1.13 21.86 21.86 0 01-1.11 2.84z"/><path class="cls-6" d="M39.77 6.64a3.48 3.48 0 00-1.13.53 2.22 2.22 0 00-.74.88 2 2 0 00-.22 1l.2.94.28.93 1.48-.44c-.18.51-.44 1.18-.8 2.17l-.09.23.52 1.8 5.37-1.61-.72-2.43-1.13.36a12.63 12.63 0 00.53-1.49 3.36 3.36 0 00.08-.75 2.57 2.57 0 00-.1-.76A2.1 2.1 0 0042 6.61a3.28 3.28 0 00-2.23.03zM41.34 8h.1a.58.58 0 01.4.4 1.08 1.08 0 010 .32 1.6 1.6 0 01-.05.42 20.44 20.44 0 01-1.06 2.72 1.64 1.64 0 01-.07.15c.45-1.21.72-2 .82-2.34a4 4 0 00.13-.87 1.21 1.21 0 00-.07-.48zm-2.13 1a.65.65 0 01.07-.23 1.87 1.87 0 00.05.3h-.11zm9.34-1l.22 2a3.62 3.62 0 010 1 1.27 1.27 0 01-.31.61 1.71 1.71 0 01-.65.46 3.12 3.12 0 01-.91.21 4.09 4.09 0 01-1.11 0 1.56 1.56 0 01-.74-.3 1.67 1.67 0 01-.43-.51 2.76 2.76 0 01-.21-.9l-.22-2a3.09 3.09 0 010-1.23 1.27 1.27 0 01.62-.73 3 3 0 011.25-.38 3.3 3.3 0 011.1 0 2 2 0 01.84.27 1.37 1.37 0 01.38.52 4.19 4.19 0 01.17.98zm-1.88-.29a2.32 2.32 0 00-.12-.58.29.29 0 00-.29-.13c-.14 0-.23.07-.26.15a1.48 1.48 0 000 .59l.31 2.87a1.72 1.72 0 00.13.61c0 .07.14.1.29.08s.23-.07.26-.15a1.34 1.34 0 000-.56z"/><path class="cls-6" d="M46 5.36a3.59 3.59 0 00-1.56.49 2.12 2.12 0 00-1 1.15 4.11 4.11 0 00-.07 1.54l.22 2.07a3.13 3.13 0 00.41 1.16 2.11 2.11 0 00.63.75 2.25 2.25 0 001.09.46A4.8 4.8 0 0047 13a4.1 4.1 0 001.11-.27 2.53 2.53 0 00.93-.67 2 2 0 00.49-1 4.7 4.7 0 000-1.2l-.2-2a4.63 4.63 0 00-.25-1.18 2.08 2.08 0 00-.6-.82 2.59 2.59 0 00-1.07-.49A4.12 4.12 0 0046 5.36zm-.1 6.12a.79.79 0 01-.38-.15.75.75 0 01-.23-.25 2.09 2.09 0 01-.13-.64L45 8.38a2.56 2.56 0 010-.93.7.7 0 01.3-.29 2.17 2.17 0 01.93-.27 2.38 2.38 0 01.85 0 1 1 0 01.45.18.49.49 0 01.16.2 3 3 0 01.15.78l.21 2a3.22 3.22 0 010 .76.49.49 0 01-.14.25.84.84 0 01-.37.25 2.18 2.18 0 01-.69.17 4.63 4.63 0 01-.92 0z"/><path class="cls-6" d="M46.18 6.26a1 1 0 00-.89.63 2 2 0 00-.06 1l.32 2.88a1.91 1.91 0 00.28 1 1 1 0 001 .38 1 1 0 00.89-.63 2.13 2.13 0 00.06-.93l-.32-2.92a2.29 2.29 0 00-.23-.9 1 1 0 00-1.05-.51zm8.37 2.06l-.16 2a4.2 4.2 0 01-.17 1 1.3 1.3 0 01-.43.55 1.75 1.75 0 01-.73.33 3.08 3.08 0 01-.92 0 4.13 4.13 0 01-1.09-.2 1.67 1.67 0 01-.68-.44 1.53 1.53 0 01-.32-.58A2.58 2.58 0 0150 10l.19-2a2.93 2.93 0 01.28-1.2 1.33 1.33 0 01.75-.6 3.12 3.12 0 011.3-.2 3.29 3.29 0 011.08.26 1.85 1.85 0 01.68.48 1.21 1.21 0 01.28.58 6.52 6.52 0 01-.01 1zm-1.8-.64a2.06 2.06 0 000-.6.29.29 0 00-.27-.14.3.3 0 00-.29.1 1.5 1.5 0 00-.11.58l-.24 2.88a1.63 1.63 0 000 .63.41.41 0 00.56 0 1.55 1.55 0 00.11-.55z"/><path class="cls-6" d="M50.94 5.45a2.07 2.07 0 00-1.16 1 3.94 3.94 0 00-.37 1.5L49.24 10a3.31 3.31 0 00.07 1.2 2.39 2.39 0 00.48.86 2.33 2.33 0 001 .66 5 5 0 001.3.26h1.13a2.41 2.41 0 001-.48 2.07 2.07 0 00.67-.87 4.13 4.13 0 00.22-1.19l.16-2a4.53 4.53 0 000-1.19 2 2 0 00-.44-.92 2.58 2.58 0 00-1-.69 4.26 4.26 0 00-1.32-.32 4 4 0 00-1.57.13zm.36 5.8A.7.7 0 0151 11a1 1 0 01-.18-.3 2.44 2.44 0 010-.64L50.94 8a3 3 0 01.18-.91.62.62 0 01.35-.23 2.23 2.23 0 011-.1 2.89 2.89 0 01.83.2 1.12 1.12 0 01.41.26.64.64 0 01.12.23 1.33 1.33 0 010 .29v.5l-.16 2a3.18 3.18 0 01-.12.76.52.52 0 01-.19.22.87.87 0 01-.4.18h-.71a4 4 0 01-.95-.15z"/><path class="cls-6" d="M51.54 6.63a1.76 1.76 0 00-.24.94l-.24 2.88a1.85 1.85 0 00.1 1A1 1 0 0052 12a1 1 0 001-.45 1.82 1.82 0 00.23-.9l.24-2.93a1.94 1.94 0 00-.06-.93 1 1 0 00-.9-.62 1 1 0 00-.97.46zm9.03 1.12l-.25.91L58.09 8l-.27 1A1.54 1.54 0 0159 8.92a1.67 1.67 0 011 .64 1.7 1.7 0 010 1.38l-.23.82a3.61 3.61 0 01-.33.87 1.15 1.15 0 01-.46.44 1.55 1.55 0 01-.76.19 3.81 3.81 0 01-1.08-.16 3.77 3.77 0 01-1.14-.53 1.4 1.4 0 01-.59-.78 2.55 2.55 0 01.1-1.24l.09-.32 1.78.5-.09.35a4.82 4.82 0 00-.17.8c0 .17.08.28.28.33a.39.39 0 00.24 0 .2.2 0 00.12-.12c0-.05.09-.27.21-.67l.31-1.13a.78.78 0 000-.46.31.31 0 00-.24-.2.45.45 0 00-.23 0 .36.36 0 00-.15.1 3.32 3.32 0 00-.11.32l-1.76-.49.88-2.88z"/><path class="cls-6" d="M56 6.46s-.86 2.79-.87 2.85-.09.34-.15.55a1.87 1.87 0 00-.07.23l-.08.27a4 4 0 00-.18 1.09 2.21 2.21 0 00.07.54 2.16 2.16 0 00.88 1.2 5 5 0 002.7.81 2.39 2.39 0 001.13-.29 2.13 2.13 0 00.74-.72l.39-1 .23-.82a3.71 3.71 0 00.15-1 2.21 2.21 0 00-.08-.59c0-.05.65-2.34.65-2.34l-5.3-1.48zm1.24 1.16h.16c-.01.12-.4 1.38-.4 1.47L56.81 9zm-1.05 4a.32.32 0 010-.15 1.48 1.48 0 010-.26l.31.08c0 .27-.12.56-.12.56-.06-.09-.17-.17-.19-.25zm2.55 0l.31-1.15a1.85 1.85 0 00.09-.54 1 1 0 000-.17.65.65 0 01.28.2.38.38 0 010 .18 2.46 2.46 0 01-.09.58l-.23.81-.25.7a.41.41 0 01-.18.16 1.37 1.37 0 01-.27.06l.12-.13.22-.68z"/><path class="cls-2" d="M43.42 11.6l.29 1-3.91 1.15-.24-.82c.71-1.86 1.11-3 1.23-3.43a1.9 1.9 0 00.07-.94.48.48 0 00-.2-.31.47.47 0 00-.61.18.94.94 0 00.06.54l.16.53-1.59.5-.06-.2a2.9 2.9 0 01-.16-.8 1.22 1.22 0 01.14-.64 1.58 1.58 0 01.51-.59 3 3 0 01.89-.42 2.73 2.73 0 011.73-.06 1.38 1.38 0 01.86.9 2.27 2.27 0 010 1.13 21.86 21.86 0 01-1.11 2.84zM48.55 8l.22 2a3.62 3.62 0 010 1 1.27 1.27 0 01-.31.61 1.71 1.71 0 01-.65.46 3.12 3.12 0 01-.91.21 4.09 4.09 0 01-1.11 0 1.56 1.56 0 01-.74-.3 1.67 1.67 0 01-.43-.51 2.76 2.76 0 01-.21-.9l-.22-2a3.09 3.09 0 010-1.23 1.27 1.27 0 01.62-.73 3 3 0 011.25-.38 3.3 3.3 0 011.1 0 2 2 0 01.84.27 1.37 1.37 0 01.38.52 4.19 4.19 0 01.17.98zm-1.88-.29a2.32 2.32 0 00-.12-.58.29.29 0 00-.29-.13c-.14 0-.23.07-.26.15a1.48 1.48 0 000 .59l.31 2.87a1.72 1.72 0 00.13.61c0 .07.14.1.29.08s.23-.07.26-.15a1.34 1.34 0 000-.56zm7.88.61l-.16 2a4.2 4.2 0 01-.17 1 1.3 1.3 0 01-.43.55 1.75 1.75 0 01-.73.33 3.08 3.08 0 01-.92 0 4.13 4.13 0 01-1.09-.2 1.67 1.67 0 01-.68-.44 1.53 1.53 0 01-.32-.58A2.58 2.58 0 0150 10l.19-2a2.93 2.93 0 01.28-1.2 1.33 1.33 0 01.75-.6 3.12 3.12 0 011.3-.2 3.29 3.29 0 011.08.26 1.85 1.85 0 01.68.48 1.21 1.21 0 01.28.58 6.52 6.52 0 01-.01 1zm-1.8-.64a2.06 2.06 0 000-.6.29.29 0 00-.27-.14.3.3 0 00-.29.1 1.5 1.5 0 00-.11.58l-.24 2.88a1.63 1.63 0 000 .63.41.41 0 00.56 0 1.55 1.55 0 00.11-.55zm7.82.07l-.25.91L58.09 8l-.27 1A1.54 1.54 0 0159 8.92a1.67 1.67 0 011 .64 1.7 1.7 0 010 1.38l-.23.82a3.61 3.61 0 01-.33.87 1.15 1.15 0 01-.46.44 1.55 1.55 0 01-.76.19 3.81 3.81 0 01-1.08-.16 3.77 3.77 0 01-1.14-.53 1.4 1.4 0 01-.59-.78 2.55 2.55 0 01.1-1.24l.09-.32 1.78.5-.09.35a4.82 4.82 0 00-.17.8c0 .17.08.28.28.33a.39.39 0 00.24 0 .2.2 0 00.12-.12c0-.05.09-.27.21-.67l.31-1.13a.78.78 0 000-.46.31.31 0 00-.24-.2.45.45 0 00-.23 0 .36.36 0 00-.15.1 3.32 3.32 0 00-.11.32l-1.76-.49.88-2.88zm24.59 15.34l-.71-1-1.17.4c-.18.06-18.34 6.14-33.52 6.14S17 22.71 16.24 22.47l-1.18-.4-.7 1C6.93 33.8 2.84 47.52 2.84 61.72l.1 4.93 2.13-.74c16.43-5.54 38.82-7.35 44.69-7.35s28.24 1.81 44.7 7.35l2.12.73.1-4.91c0-14.21-4.09-27.93-11.52-38.64z"/><path class="cls-6" d="M83.81 24c-.22.08-18.47 6.24-34.06 6.24S15.93 24.1 15.7 24C8.72 34.1 4.48 47.28 4.48 61.72v2.63c16-5.4 38.25-7.44 45.22-7.44S79 59 95 64.35v-2.63C95 47.28 90.79 34.1 83.81 24z"/><path class="cls-2" d="M46.49 57.77c2.35 1.16 7.12 1.77 8.77.8 2.21-1.3 4.86-2.57 8.39-1.15a7.64 7.64 0 014.42 5.33c5.55 1 8.87 2.86 9.8 5.37a.72.72 0 01.07.25 11.68 11.68 0 01-.69 6.52A5.4 5.4 0 0179.14 82l-.2.43c-1.43 2.91-2.66 5.43 0 10.43a1.35 1.35 0 010 1.32 1.4 1.4 0 01-.47.5 1.49 1.49 0 01-1.92-.35c-4.43-5.42-3.19-9.67-2-11.75 0 0 .12-.2.15-.28.71-1.25 1.28-2.53 1-3.44a1.82 1.82 0 00-.48-.73 13 13 0 01-5.69 3.61 9.37 9.37 0 01-.66 1.57 5.87 5.87 0 01-2.45 2.44 6.27 6.27 0 01-4 .52 10.28 10.28 0 01-1 2.51 12.4 12.4 0 01-2.33 3l-1.6 1.44a11.69 11.69 0 00-3.12 3.63c-.19.35-.39.73-.6 1.18l-1.15 2.56a49.22 49.22 0 01-2.2 4.65c-1.32 2.37-3 4.38-5.34 5.13l-.38.1a11.61 11.61 0 01-7.5 3.38c-6.15.26-10.62-3-11.86-6.36a5.68 5.68 0 01.19-4.7 4.39 4.39 0 01.74-1c.76-.69 2.5-1.68 5.6-.4a18.44 18.44 0 008.12.92l.17-.13a13.82 13.82 0 003.88-4.16 8.24 8.24 0 00.64-6.59l-1.34-4.24v-.08c-1.13-3.37-2.1-6.27-1.87-8.56a8.16 8.16 0 011-3.23 6.09 6.09 0 011.65-1.93 5.35 5.35 0 012.41-1 15.93 15.93 0 01.62-1.73A9.51 9.51 0 0143.29 69a1.48 1.48 0 01-.55-1 1.44 1.44 0 01.16-.8 1.08 1.08 0 01.18-.24c3.74-4.09 8.08-5.12 12.56-3.07a20.2 20.2 0 017.93-1.65A2.62 2.62 0 0062.19 61c-1.26-.62-2.52-.24-4.73.78-3.24 1.49-7.55.94-12.17-1.54h-.06a1.39 1.39 0 111.27-2.47z"/><path class="cls-6" d="M62.79 59.79c-1.93-.95-3.78-.28-6 .75-2.79 1.29-6.64.8-10.91-1.52 2.62 1.29 7.95 2.06 10.16.76s4.31-2.19 7.1-1.07a6.32 6.32 0 013.66 5.21c4 .66 8.72 2 9.7 4.62a10.19 10.19 0 01-1.07 6.83c2.67 1.38 3.59 3.5 2.38 6-1.52 3.13-3.31 6.21-.14 12.12-3.39-4.14-3.32-7.64-1.84-10.24 1.35-2.36 2.59-5.13-.93-7a11.49 11.49 0 01-6.57 4.41c-.79 3-2.77 5.32-7.12 3.9 1.52-.86 2.92-2.15 2.65-3.4a28.33 28.33 0 00-3.63.45 4.43 4.43 0 011 2.64c.12 2.52-1.61 5.09-3.13 6.53l-1.57 1.41a13.34 13.34 0 00-4 5.22L51.31 100c-1.62 3.77-3.46 8-6.72 9.05a4.21 4.21 0 01-.61.16 10.39 10.39 0 01-6.89 3.26c-5.62.23-9.4-2.72-10.39-5.38s.23-6.14 4.67-4.33a19.91 19.91 0 009.24 1c.15-.13.3-.26.47-.39 4.7-3.53 6.34-7.52 5-12.2-.43-1.51-.92-3-1.39-4.39-1.08-3.21-2-6-1.8-8A6 6 0 0145 74.59a4 4 0 012.63-.79 12.32 12.32 0 011.74-4.24 8.31 8.31 0 01-5.2-1.68c2.93-3.21 6.76-5 11.48-2.5 3.91-1.62 6.65-2 9.82-1.65 0-.15 0-.31-.09-.48a4.18 4.18 0 00-2.59-3.46z"/><path class="cls-2" d="M59.78 87.25a6.31 6.31 0 00.7-3 3.79 3.79 0 00-1-2.48 15 15 0 00-1.93.58A8 8 0 0159 88.6a10.05 10.05 0 00.78-1.35zm-10.51 15.49l.09-.21a8.8 8.8 0 00-.09-2 14 14 0 01-.74 2 8.35 8.35 0 01.08 1.46c.23-.39.45-.81.66-1.25zm-1.55 2.73a9 9 0 00.17-1.66 24 24 0 01-2.89 4.28 7.42 7.42 0 002.72-2.62zm1.89-6.24a6.14 6.14 0 01.44 1.81c.2-.45.39-.9.58-1.34l.19-.42a9 9 0 00-.64-3.13c-.18 1.05-.35 2.08-.57 3.08zm1.81-1.3l.36-.79a11.71 11.71 0 00-.78-5.75c-.22 1.14-.4 2.33-.58 3.52a9.11 9.11 0 011 3.02zm-3.01-1.72a8.46 8.46 0 00-2 2.1l-.13.27A5.87 5.87 0 0148 98a13.94 13.94 0 00.41-1.79zm-.65 2.57a6.23 6.23 0 00-2.24 1.09 13.48 13.48 0 01-.93 1.25 7.2 7.2 0 012.2-.34 10.31 10.31 0 00.97-2zm-4.38 3.61c-.4.37-.83.76-1.3 1.12a8.23 8.23 0 004.14-2 7.84 7.84 0 00-2.84.88zm4.1-27.88a3.17 3.17 0 00-2 .65 5.31 5.31 0 00-1.84 3.72 5.73 5.73 0 013.6-2.39 18.15 18.15 0 01.24-1.98zm-.33 2.71a5.67 5.67 0 00-3.52 3 16.27 16.27 0 00.46 2.29 8.48 8.48 0 013-3q0-1.12.06-2.29zm0 3.14a8.22 8.22 0 00-2.78 3.15c.19.63.4 1.28.62 2A7.12 7.12 0 0147.42 83c-.12-.84-.22-1.73-.27-2.64zm.69 4.84c-.11-.45-.2-.93-.29-1.42a6.7 6.7 0 00-2.24 2.63 1.07 1.07 0 00.07.19c.2.62.4 1.23.61 1.86a6.19 6.19 0 012.09-2.18c-.08-.37-.15-.72-.24-1.08zm.37 1.85a5.21 5.21 0 00-1.9 2.43c.16.51.32 1 .46 1.54 0 .15.08.29.11.43a5.7 5.7 0 011.68-1.85 25.17 25.17 0 00-.35-2.55zm.43 3.42a4.53 4.53 0 00-1.5 2.24c0 .36.08.72.1 1.08a5.06 5.06 0 011.47-1.41c0-.63-.03-1.26-.07-1.91zm-1.43 4.72a11.16 11.16 0 01-.2 1.27 8.45 8.45 0 011.54-1.19c.08-.65.13-1.31.15-2a6.27 6.27 0 00-1.49 1.92zM52.28 87a15.78 15.78 0 00-1.08 3.26 12.17 12.17 0 011.37 5.35c.18-.31.35-.59.52-.85.66-2.61 0-5.54-.78-7.83zm.49-.88A18.12 18.12 0 0154 93.54c.34-.39.69-.74 1-1.07a10 10 0 00-.67-8.31 8.64 8.64 0 00-1.56 1.96z"/><path class="cls-2" d="M56.15 91.52l1.41-1.26a.35.35 0 01.11-.1 7.19 7.19 0 00-.82-7.54 9.87 9.87 0 00-1.85 1.1 11.35 11.35 0 011.15 7.8zM12.74 69l.36 2.29a9 9 0 01.14 1.66 1.73 1.73 0 01-.32 1 1.58 1.58 0 01-1.05.52.93.93 0 01-.76-.14 2.14 2.14 0 01-.46-.9 2.11 2.11 0 01-.23 1.14 1.11 1.11 0 01-.81.41l-.54.02a1.5 1.5 0 01-.91-.07 1.11 1.11 0 01-.49-.58 9.65 9.65 0 01-.39-1.82l-.41-2.66zm-2.86 2.75L8.23 72a1.7 1.7 0 00.19.6c.08.08.23.1.47.07l.55-.09c.26 0 .4-.1.45-.19a1.7 1.7 0 00-.01-.64zm2.22-.34l-1.3.2a2.07 2.07 0 000 .23c0 .23.09.36.18.41s.29.06.64 0a.81.81 0 00.38-.14.39.39 0 00.11-.22c.04-.08.02-.24-.01-.48zm1.17 6.19l-4.75 1.11L8 76.49l4.75-1.11zm1-.25l-.74.18-.52-2.22.75-.17zm1.42 8.02l-4.91.69-.78-2.29 2.1-1.18a11.33 11.33 0 01-1.32.16l-1.08.1-.7-2.27 4.33-2.43.6 1.8-2.51 1.36c.19 0 1.12-.17 2.82-.4l.58 1.73L12.27 84a18.51 18.51 0 012.83-.4zm-.63 3.02l-.88-1.89.3-.13a1.45 1.45 0 01.87-.19 1.65 1.65 0 01.83.48A4.43 4.43 0 0117 88a4.28 4.28 0 01.47 1.65 1.15 1.15 0 01-.3.9 6.81 6.81 0 01-1.39.79l-2.22 1-.92-2 .4-.18a1.29 1.29 0 01-.58-.32 2 2 0 01-.44-.64 2.65 2.65 0 01-.25-1.06q0-.54.66-.84l.37-.17a.9.9 0 01.78-.08 4.49 4.49 0 011 1 4.15 4.15 0 00.85.91.84.84 0 00.4-.11.92.92 0 00.41-.29.29.29 0 000-.3Q16.13 88 16 88a1.28 1.28 0 00-.47.16zm-.3.92a1.41 1.41 0 00-.67-.38 1.15 1.15 0 00-.49.14.93.93 0 00-.41.27.35.35 0 000 .31c.06.13.13.21.19.22a1.11 1.11 0 00.44-.14zm6.15 5.82l-2.12.23-1.92 2.51-1.09-1.82 1.47-1.69-1.83 1.09-1.15-1.89 5.09-3.07 1.15 1.9-2.12 1.29 1.61-.14zm2.09 5.63l-.95.73a4.11 4.11 0 01-.82.51 1.34 1.34 0 01-.72 0 2.07 2.07 0 01-.82-.42 5.16 5.16 0 01-.82-.85 7.91 7.91 0 01-.68-1 2 2 0 01-.23-.84 1.25 1.25 0 01.17-.64 2.77 2.77 0 01.67-.67l1-.75a2.13 2.13 0 011-.48 1.47 1.47 0 011 .26 3.75 3.75 0 011.08 1 4.49 4.49 0 01.67 1.11 2.19 2.19 0 01.2.89 1.19 1.19 0 01-.15.61 1.7 1.7 0 01-.6.54zm-1.07-2a1.7 1.7 0 00.34-.34.3.3 0 00-.09-.27A.33.33 0 0022 98a1.09 1.09 0 00-.41.24l-1.76 1.36c-.18.14-.29.25-.31.33a.3.3 0 00.07.27c.09.11.17.16.24.16a.79.79 0 00.37-.2zM16.75 26.9c5.07 1.58 19.84 5.78 33 5.78s27.94-4.2 33-5.78a64.49 64.49 0 019.82 34.16C77.22 56.49 57.2 54.5 49.76 54.5s-27.45 2-42.82 6.56a64.3 64.3 0 019.81-34.16z"/><path class="cls-6" d="M41.38 36.05v16.56l-6.88.54V40.89l-2.76 12.26-4.85.5L24 41.14v12.73l-6.88 1.61v-23.3l10.12 2.46c.27 1.11.58 2.74.94 4.22l1.13 4.62L31.14 35zm15.18-.87v17.5H49v-17.5zm17.07 13.03a6.12 6.12 0 01-.23 2.17c-.15.3-.49.44-1 .41s-.84-.16-1-.42a5.86 5.86 0 01-.22-2.08v-9a3 3 0 01.33-1.8 1.35 1.35 0 01.92-.35c.49 0 .81.07 1 .32a3.81 3.81 0 01.24 1.72v9zm8.47-6.12a26.46 26.46 0 00-.26-4.5 3.77 3.77 0 00-1.58-2.26A7.82 7.82 0 0076.88 34a17.39 17.39 0 00-4.49-.13 16.77 16.77 0 00-4.32.89 7.44 7.44 0 00-2.78 1.7 4 4 0 00-1.19 2.17 27 27 0 00-.18 3.89v3.1a25.69 25.69 0 00.19 3.94 3.87 3.87 0 001.24 2.14 7.18 7.18 0 002.84 1.61 16.85 16.85 0 004.2.75 17.09 17.09 0 004.61-.25 7.79 7.79 0 003.33-1.43 3.88 3.88 0 001.52-2.3 27.78 27.78 0 00.25-4.45v-3.54z"/><path class="cls-2" d="M81.94 91.85l-1.13 1.77-.4-.26a.69.69 0 00-.41-.16.34.34 0 00-.23.18.38.38 0 00-.06.32.63.63 0 00.29.3.74.74 0 00.47.15 2 2 0 00.68-.32 6.84 6.84 0 011.94-1 2 2 0 011.37.41 1.77 1.77 0 01.74.73 1.65 1.65 0 010 1 4.66 4.66 0 01-.59 1.34 4.35 4.35 0 01-1 1.17 1.43 1.43 0 01-1 .35 2.42 2.42 0 01-1-.43l-.36-.23 1.13-1.77.66.42a.83.83 0 00.43.18c.1 0 .17-.09.26-.21a.4.4 0 00.06-.34.53.53 0 00-.27-.31c-.32-.2-.57-.28-.74-.22a6.18 6.18 0 00-1.06.58c-.54.32-.9.52-1.1.62a1.54 1.54 0 01-.68.1 1.75 1.75 0 01-.94-.32 1.78 1.78 0 01-.78-.8 1.59 1.59 0 010-1 4.06 4.06 0 01.57-1.26 4.84 4.84 0 011-1.15 1.55 1.55 0 01.88-.41 2 2 0 011 .42zm.06-4.41l1.32.63a1.83 1.83 0 010-.66 2.11 2.11 0 01.21-.66 2 2 0 01.61-.78 1 1 0 01.66-.22 3.86 3.86 0 011 .37l3.28 1.57-.94 2L84.77 88a1.61 1.61 0 00-.56-.2.32.32 0 00-.23.48 1.36 1.36 0 00.46.3l3.4 1.63-.94 2-5.82-2.79zm2.49-5.95l.79.28-.77 2.11-.79-.29zm1.08.39l5 1.8-.77 2.11-5-1.8zm1.76-6.4l4 1a8.08 8.08 0 011 .31 1 1 0 01.41.47 2.16 2.16 0 01.18.94 6.1 6.1 0 01-.2 1.38 4.32 4.32 0 01-.72 1.54 1 1 0 01-1.15.38l.51-2a.31.31 0 00.43-.25v-.34a.82.82 0 00-.43-.19l-.39-.1a2.38 2.38 0 01.14.63 2.81 2.81 0 01-.06.65 2.54 2.54 0 01-.4.89 1 1 0 01-.57.39 1.73 1.73 0 01-.82-.06l-1.86-.46a1.4 1.4 0 01-1-.61 1.65 1.65 0 010-1.16 2.16 2.16 0 01.3-.69 1.8 1.8 0 01.5-.49l-.36-.26zm.85 2.45a1.42 1.42 0 00-.46-.06c-.08 0-.13.1-.16.22a.3.3 0 000 .28 1 1 0 00.41.18l1.73.44a1.07 1.07 0 00.46.05c.07 0 .12-.1.16-.21s0-.24-.06-.3a1.82 1.82 0 00-.54-.21zm1.68-5.57l-.25 2h-.35a1.87 1.87 0 01-.91-.31 1.61 1.61 0 01-.49-.83 4 4 0 01-.08-1.51 3.74 3.74 0 01.49-1.62 1.17 1.17 0 01.78-.58 8.16 8.16 0 011.74.1l2.63.31-.25 2.08-.48-.06a1.23 1.23 0 01.36.56 2.07 2.07 0 010 .76 2.15 2.15 0 01-.36 1c-.19.3-.56.41-1.09.35h-.43a1 1 0 01-.77-.35 4.14 4.14 0 01-.35-1.3 4.39 4.39 0 00-.28-1.19.9.9 0 00-.43-.13 1.21 1.21 0 00-.54 0 .28.28 0 00-.16.26c0 .15 0 .25.06.29a1.64 1.64 0 00.54.12zm.81-.61a1.36 1.36 0 00.4.67 1.81 1.81 0 00.53.15 1.26 1.26 0 00.54 0 .33.33 0 00.15-.27c0-.14 0-.23-.06-.28a1 1 0 00-.48-.12z"/></g></g></g></svg>