<svg xmlns="http://www.w3.org/2000/svg" viewBox="0 0 23.28 9.98"><g id="Layer_2" data-name="Layer 2"><path d="M1.19 4.77a28.33 28.33 0 012.87.85A21 21 0 017.68 7.3a21 21 0 011.81 1.2c.3.21.58.46.87.69a3.31 3.31 0 001.13.68l.33.08h.67l.33-.06a2.63 2.63 0 001-.48 3.86 3.86 0 00.82-.91L15 8l.63-.91c.44-.6.91-1.17 1.39-1.71a26.17 26.17 0 012.9-2.82c.93-.77 1.78-1.4 2.4-1.83l1-.69A9.27 9.27 0 0022 0a11.37 11.37 0 00-3.21.65 14 14 0 00-4.12 2.26 14.34 14.34 0 00-2 1.87 10.83 10.83 0 00-.87 1.11l-.37.52c-.06.1-.13.14 0 0a1.11 1.11 0 01.41-.19h.7c.4.17.3.19.08 0s-.77-.55-1.16-.8a13.11 13.11 0 00-7.14-2A10.77 10.77 0 001.14 4 7.65 7.65 0 000 4.51z" fill="#fffeff" id="レイヤー_1" data-name="レイヤー 1"/></g></svg>