<svg xmlns="http://www.w3.org/2000/svg" viewBox="0 0 115.61 79.09"><g id="Layer_2" data-name="Layer 2"><path d="M61.66 67.14a11 11 0 011.9-.43 16.51 16.51 0 015.19.07 20.49 20.49 0 017.06 2.51 22.46 22.46 0 013.49 2.54c.54.5 1.09 1 1.59 1.58.29.37.44.37-.14 0l-.25-.11c-.41-.14 0 0-.1 0a1.51 1.51 0 00-.44-.08 1.4 1.4 0 00-.29 0 1.79 1.79 0 00-.69.17c-.21.12-.1.09 0 0l.72-.72a20.38 20.38 0 011.66-1.47A22.51 22.51 0 0192 66.37a17.59 17.59 0 015.17-.11 12.7 12.7 0 011.91.37l-1.74.8c-1.08.49-2.58 1.23-4.24 2.17a42.38 42.38 0 00-5.28 3.57c-.89.72-1.78 1.47-2.63 2.28l-1.24 1.24-.68.72a5.56 5.56 0 01-1.52 1.2 4.2 4.2 0 01-1.64.47 4.86 4.86 0 01-.54 0 4.76 4.76 0 01-.69-.11l-.35-.11c-.17-.06-.33-.14-.48-.21a5.27 5.27 0 01-1.58-1.38c-.38-.43-.74-.89-1.15-1.3-.8-.84-1.63-1.63-2.48-2.36A33.87 33.87 0 0067.66 70a48.15 48.15 0 00-4.23-2.11zM21.67 1a10.63 10.63 0 00-3.16-.16 13.81 13.81 0 00-6.62 2.51 11.76 11.76 0 00-1 .75c-.12-.13-.22-.26-.34-.38a13.2 13.2 0 00-2-1.67A12.39 12.39 0 004.34.26 10 10 0 001.17 0 6.84 6.84 0 000 .23l1.05.52a25.92 25.92 0 012.51 1.43 23.49 23.49 0 013 2.39c2.5 2.35 3.5 4.21 4.41 4 .61-.13 2.2-1.92 4.73-3.74a27.17 27.17 0 013.35-2c1.05-.51 2-.91 2.66-1.17l1.09-.43A8 8 0 0021.67 1zm71.42 24.1a28.41 28.41 0 012.51 1.64 20.45 20.45 0 013 2.66 18.93 18.93 0 011.4 1.67c.22.29.42.6.63.9a3.18 3.18 0 00.89 1 2 2 0 00.29.17l.21.09a2.35 2.35 0 00.42.13h.34a2.68 2.68 0 001.07-.18 3.7 3.7 0 001.05-.64l.48-.4.87-.69c.59-.45 1.21-.86 1.82-1.25a28.8 28.8 0 013.59-1.86c1.12-.47 2.11-.82 2.83-1.05l1.15-.38a8 8 0 00-1.18-.37 11.15 11.15 0 00-3.26-.31 14.15 14.15 0 00-4.6 1 14.75 14.75 0 00-2.41 1.22c-.37.24-.85.56-1.16.81l-.5.4c-.09.08-.16.09 0 0a1 1 0 01.44-.06h.18a1.2 1.2 0 01.28.08s-.19-.08.06 0l.15.08c.34.28.24.27.08 0a10.73 10.73 0 00-.88-1.11 13 13 0 00-6.27-4 10.21 10.21 0 00-3.26-.42 6.93 6.93 0 00-1.31.27z" fill="#fffeff" id="レイヤー_1" data-name="レイヤー 1"/></g></svg>