<svg xmlns="http://www.w3.org/2000/svg" viewBox="0 0 37.39 13.15"><g id="Layer_2" data-name="Layer 2"><path d="M0 .43A10.83 10.83 0 011.91.09 16.75 16.75 0 017.1.37a20.52 20.52 0 017 2.82 21.53 21.53 0 013.37 2.68 18.34 18.34 0 011.52 1.65c.27.37.43.38-.13 0l-.25-.13c-.41-.14 0 0-.1 0a2.24 2.24 0 00-.44-.1 1.43 1.43 0 00-.29 0 1.76 1.76 0 00-.69.15c-.21.11-.1.08 0-.06l.75-.68a21.49 21.49 0 011.73-1.41A22.56 22.56 0 0130.33 1a18 18 0 015.16.1 12.41 12.41 0 011.9.45l-1.77.73a53.92 53.92 0 00-4.34 2 42.45 42.45 0 00-5.42 3.34C24.94 8.25 24 9 23.13 9.74l-1.28 1.19-.71.68a5.85 5.85 0 01-1.58 1.14 4.21 4.21 0 01-1.66.4h-.54a4.48 4.48 0 01-.68-.14l-.34-.12a4.12 4.12 0 01-.47-.23 5.33 5.33 0 01-1.52-1.44c-.36-.46-.71-.92-1.1-1.36a32.61 32.61 0 00-2.38-2.46 34.1 34.1 0 00-5-3.84 44.84 44.84 0 00-4.14-2.31z" fill="#fffeff" id="レイヤー_1" data-name="レイヤー 1"/></g></svg>