<svg xmlns="http://www.w3.org/2000/svg" viewBox="0 0 118.68 28.36"><g id="Layer_2" data-name="Layer 2"><path d="M115.79 3a26.82 26.82 0 00-7.91-.39 33.91 33.91 0 00-11 2.87 34.77 34.77 0 00-5.69 3.21c-.78.55-1.73 1.25-2.44 1.86-.28-.32-.55-.66-.84-1a33.51 33.51 0 00-5.06-4.27A31.39 31.39 0 0072.3.73a25.7 25.7 0 00-8-.66 17.38 17.38 0 00-2.9.44L64 1.84a69.44 69.44 0 016.25 3.69 56.3 56.3 0 017.49 6.09c6.22 6 8.67 10.69 11 10.21 1.54-.33 5.58-4.77 12-9.24a67.89 67.89 0 018.46-4.89c2.66-1.25 5-2.22 6.74-2.86l2.74-1a18.62 18.62 0 00-2.89-.84zM21.12 23a10.74 10.74 0 00-3.07-.72 13.39 13.39 0 00-4.53.33 14.08 14.08 0 00-2.46.85c-.34.16-.76.36-1.09.55-.09-.15-.17-.3-.26-.44a13.47 13.47 0 00-1.67-2 12.62 12.62 0 00-3.79-2.56 9.94 9.94 0 00-3.06-.83 6.7 6.7 0 00-1.19 0l.93.71a28.66 28.66 0 012.19 1.89 23.52 23.52 0 012.49 2.93c2 2.79 2.63 4.81 3.56 4.78.63 0 2.53-1.46 5.36-2.75a27.34 27.34 0 013.67-1.44c1.13-.3 2.13-.51 2.84-.64l1.15-.2a7.49 7.49 0 00-1.07-.46z" fill="#fffeff" id="レイヤー_1" data-name="レイヤー 1"/></g></svg>