<svg xmlns="http://www.w3.org/2000/svg" viewBox="0 0 30.97 20"><defs><style>.cls-1{fill:#ffdc64;}</style></defs><g id="Layer_2" data-name="Layer 2"><g id="レイヤー_1" data-name="レイヤー 1"><path class="cls-1" d="M3.34,0h0A3.33,3.33,0,0,0,1,5.69L4.74,9.44a.81.81,0,0,1,0,1.12L1,14.31A3.33,3.33,0,0,0,3.34,20h0A3.34,3.34,0,0,0,5.7,19l8.46-8.46a.79.79,0,0,0,0-1.12L5.7,1A3.34,3.34,0,0,0,3.34,0Z"/><path class="cls-1" d="M19.91,0h0a3.33,3.33,0,0,0-2.36,5.69l3.76,3.75a.81.81,0,0,1,0,1.12l-3.76,3.75A3.33,3.33,0,0,0,19.91,20h0a3.32,3.32,0,0,0,2.36-1l8.47-8.46a.81.81,0,0,0,0-1.12L22.27,1A3.32,3.32,0,0,0,19.91,0Z"/></g></g></svg>