<svg xmlns="http://www.w3.org/2000/svg" viewBox="0 0 418.11 62.46"><defs><style>.cls-1{fill:none;stroke:#fff;stroke-linecap:round;stroke-linejoin:round;stroke-width:8.29px;}.cls-2{fill:#fff;}</style></defs><g id="Layer_2" data-name="Layer 2"><g id="レイヤー_1" data-name="レイヤー 1"><polyline class="cls-1" points="171.28 52.26 170.23 53.7 168.94 54.95 167.43 55.94 165.81 56.71 164.12 57.27 162.44 57.95 160.66 58.31 158.84 58.15 157.05 58.27 155.26 58.05 153.54 57.88 151.97 57.17 150.85 55.88 150.22 54.27 150.4 52.54 150.5 50.83 151.04 49.18 151.47 47.51 152.08 45.89 152.75 44.28 153.6 42.76 154.56 41.31 155.16 39.66 156.13 38.21 157.11 36.78 157.94 35.25 158.62 33.66 159.24 32.09 159.43 30.4 159.03 28.76 158.27 27.23 156.93 26.15 155.33 25.57 153.73 25.15 152.04 24.94 150.31 24.83 148.6 25.21 147 25.89 145.46 26.71 144.09 27.79 142.88 29.04 141.66 30.26 140.56 31.59 139.56 33 138.54 34.39 137.58 35.83 136.58 37.25 135.82 38.81 134.87 40.26 134.1 41.82 133.48 43.44 132.74 45.01 131.89 46.53 131.37 48.2 130.62 49.77 130.19 51.46 129.52 53.06 129.12 54.75 128.44 56.34 127.92 57.98 128.75 56.38 129.22 54.63 129.9 52.97 130.51 51.28 131.23 49.63 131.72 47.9 132.28 46.2 133.1 44.57 133.59 42.84 133.85 41.04 134.3 39.3 134.84 37.57 135.1 35.78 135.13 33.98 135.37 32.19 135.1 30.4 134.96 28.61 134.06 27.06 132.98 25.69 131.32 25.08 129.62 24.86 127.89 24.98 126.28 25.66 124.82 26.56 123.34 27.47 122.09 28.66 120.93 29.93 119.83 31.25 118.57 32.45 117.75 33.99 116.82 35.44 115.78 36.82 114.84 38.27 114.07 39.82 113.33 41.38 112.47 42.88 111.79 44.47 110.81 45.91 110.16 47.52 109.58 49.16 108.84 50.72 108.16 52.3 107.68 53.97 107.03 55.56 106.31 57.28 107.31 55.57 108.03 53.89 108.87 52.25 109.39 50.48 110 48.75 110.5 46.98 111.05 45.23 111.45 43.42 111.49 41.61 111.42 39.81 110.96 38.05 109.82 36.64 108.43 35.49 106.77 34.82 105.14 34.04 103.35 33.8 101.6 33.38 99.82 33.11 98.02 32.9 96.21 33.12 94.41 33.1 92.6 32.88 90.8 32.91 89.03 33.1 87.27 33.11 85.5 33.01 83.74 33.31 81.97 33.21 80.21 33.15 78.45 33.31 76.68 33.21 74.92 33.13 73.15 33.16 71.38 33.09 69.61 33.38 67.85 33.17 66.08 33.23 64.32 33.18 62.55 33.35 60.78 33.21 59.02 33.1 57.25 33.13 55.48 33.1 53.72 33.26 51.95 33.35 50.18 33.13 48.41 33.12 46.64 33.36 44.86 33.12 43.09 33.12 41.31 33.27 39.53 33.24 37.77 33.32 35.99 33.27 34.23 33.14 32.45 33.16 30.68 33.15 28.91 33.19 27.14 33.02 25.37 33.02 23.6 33.2 21.83 33.06 20.06 33.27 18.29 33.26 16.52 33.03 14.75 33.18 12.97 33.04 11.2 33.03 9.43 32.97 7.67 32.9 5.9 32.95 4.14 32.91"/><polyline class="cls-1" points="203.58 25.92 201.77 25.91 199.99 25.84 198.21 25.54 196.41 25.51 194.62 25.69 192.84 25.92 191.05 26.09 189.31 26.54 187.62 27.12 185.89 27.58 184.23 28.26 182.66 29.1 181.15 30.04 179.67 31.03 178.44 32.33 176.98 33.43 176.17 35.06 175.11 36.51 174.54 38.22 173.84 39.88 173.24 41.58 172.91 43.33 172.83 45.11 172.91 46.88 172.86 48.67 173.31 50.41 174.27 51.93 174.88 53.59 176.03 54.95 177.51 55.91 179.1 56.62 180.79 57.07 182.54 56.97 184.28 56.74 185.98 56.27 187.63 55.61 189.03 54.5 190.32 53.3 191.72 52.23 193.08 51.09 194.19 49.71 195.35 48.38 196.41 46.96 197.08 45.29 197.99 43.78 199.18 42.43 199.67 40.69 200.47 38.98 199.59 40.67 198.97 42.36 198.36 44.05 197.56 45.66 197 47.37 196.82 49.17 196.29 50.89 196.31 52.67 196.23 54.48 197.06 56.12 198.73 56.78 200.42 57.35 202.19 57.05 203.96 56.75 205.7 56.34 207.47 55.99 209.11 55.24 210.76 54.52 212.25 53.52 213.61 52.34 215.01 51.24 216.17 49.88 217.67 48.81 218.49 47.18 219.69 45.84 220.73 44.38 221.57 42.8 222.58 41.3 223.03 39.52 224.14 38.06 224.78 36.38 225.47 34.73 225.85 32.95 226.49 31.28 227.42 29.71 227.91 27.98 228.54 26.42 227.91 27.96 227.05 29.54 226.6 31.27 225.97 32.93 225.66 34.7 225.23 36.42 224.78 38.14 224 39.78 223.58 41.51 223.45 43.3 223.02 45.04 222.75 46.81 222.66 48.61 222.78 50.39 222.94 52.18 223.55 53.85 224.38 55.4 225.74 56.59 227.51 57.01 229.29 56.75 230.97 56.25 232.55 55.49 234.1 54.67 235.63 53.82 237.28 53.11 238.53 51.84 240.06 50.93 241.37 49.75 242.69 48.59 244.06 47.48 245.48 46.42 246.77 45.23 247.74 43.7 248.98 42.45 250.39 41.36 251.67 40.14 252.67 38.67 253.81 37.33 255.17 36.18 256.24 34.77 257.31 33.37 258.35 31.95 259.47 30.59 260.8 29.39 261.63 27.81 262.68 26.39 263.83 25.04 264.86 23.61 265.56 21.96 266.69 20.59 267.41 18.97 268.53 17.57 269.41 16.03 269.73 14.24 270.37 12.62 270.9 10.96 271.66 9.32 271.44 7.54 270.88 5.84 269.5 4.64 267.71 4.14 265.98 4.68 264.36 5.34 262.83 6.22 261.41 7.29 260.15 8.55 258.96 9.86 258.07 11.42 256.9 12.75 255.94 14.23 254.86 15.64 254.02 17.2 252.93 18.62 252.19 20.24 251.35 21.8 250.57 23.39 249.95 25.06 249.17 26.66 248.76 28.4 248.27 30.1 247.41 31.69 246.87 33.38 246.58 35.14 246.38 36.91 246.14 38.66 245.69 40.39 245.82 42.18 245.45 43.95 245.94 45.7 245.92 47.5 246.74 49.11 247.19 50.85 248.21 52.33 249.69 53.35 251.16 54.28 252.75 55.02 254.45 55.52 256.18 55.89 257.93 56.08 259.71 55.73 261.46 55.95 263.21 55.83 264.98 55.82 266.68 55.32 268.43 55.13 270.13 54.69 271.78 54.11 273.53 53.75 275 52.74 276.7 52.2 278.13 51.14 279.51 50.06 280.76 48.83 282.1 47.69 283 46.17 283.94 44.72 284.75 43.18 285.5 41.57 285.56 39.8 285.18 38.09 284.24 36.53 282.53 35.9 280.77 35.64 278.99 35.32 277.24 35.75 275.59 36.43 273.95 37.12 272.51 38.18 271.54 39.67 270.4 41.05 269.92 42.77 269.47 44.52 269.54 46.33 269.8 48.1 269.76 49.94 270.89 51.41 271.68 53.02 273.15 54.06 274.71 54.91 276.37 55.55 278.09 56.12 279.91 55.91 281.69 56.02 283.48 55.97 285.27 55.87 287.05 55.64 288.82 55.35 290.53 54.74 292.29 54.4 294.04 53.99 295.73 53.34 297.43 53.01 299.02 52.33 300.73 51.94 302.18 50.95 303.57 49.93 305.02 49.02 306.56 48.2 307.95 47.15 308.91 45.66 310.1 44.42 311.26 43.15 312.61 42.03 313.66 40.66 315.06 39.63 316.21 38.34 317.67 37.42 319 36.3 320.53 35.5 322.2 35.03 323.69 34.08 325.37 33.66 327.12 33.54 328.75 32.89 330.5 32.79 332.22 32.47 333.99 32.73 335.71 32.48 337.44 32.27 339.19 32.46 340.93 32.51 342.66 32.02 344.4 32.04 346.14 32.11 347.88 32.12 349.62 32.18 351.37 32.28 353.11 32.26 354.85 31.9 356.59 32.29 358.33 31.99 360.07 32.34 361.81 32.04 363.55 32.21 365.29 31.96 367.03 32.13 368.78 32.17 370.52 32.46 372.27 32.03 374.02 32.25 375.76 32.34 377.51 32.39 379.27 32.13 381.01 32.57 382.75 32.41 384.5 32.57 386.25 32.39 387.99 32.24 389.74 32.5 391.48 32.65 393.23 32.59 394.97 32.65 396.72 32.55 398.46 32.85 400.21 32.59 401.95 32.88 403.69 32.66 405.45 32.59 407.18 33.07 408.93 32.95 410.67 32.73 412.4 33.18 413.97 33.03"/><path class="cls-2" d="M232.12,5.59a4.67,4.67,0,0,0-1.3,0,4.5,4.5,0,0,0-1.15.6,5.34,5.34,0,0,0-1.19.61A5.21,5.21,0,0,0,227.8,8a4.74,4.74,0,0,0-.52,1.2,5,5,0,0,0,0,1.29c0,.45-.28.94-.17,1.35a5.51,5.51,0,0,0,.65,1.19,5.17,5.17,0,0,0,.77,1.08,5.26,5.26,0,0,0,1.08.79,5.16,5.16,0,0,0,1.21.57,5.28,5.28,0,0,0,1.33.1,5.39,5.39,0,0,0,1.34-.06,5.06,5.06,0,0,0,1.17-.67,4.94,4.94,0,0,0,1-.86,5.17,5.17,0,0,0,.93-.94,4.82,4.82,0,0,0,.58-1.21,5.38,5.38,0,0,0,.07-1.34,4.89,4.89,0,0,0-.34-1.26A5,5,0,0,0,236.42,8a5,5,0,0,0-.77-1,5.11,5.11,0,0,0-1-.87,5.74,5.74,0,0,0-1.26-.37A4.93,4.93,0,0,0,232.12,5.59Z"/></g></g></svg>