<svg xmlns="http://www.w3.org/2000/svg" viewBox="0 0 395.99 242.48"><defs><style>.cls-1{fill:#fffeff;}</style></defs><g id="Layer_2" data-name="Layer 2"><g id="レイヤー_1" data-name="レイヤー 1"><path class="cls-1" d="M53.56,56.62a8.65,8.65,0,0,1,1.56-.13,13.43,13.43,0,0,1,4.13.61,16.53,16.53,0,0,1,5.35,2.77,17.62,17.62,0,0,1,2.5,2.4,16.85,16.85,0,0,1,1.09,1.43c.19.32.32.34-.1,0l-.19-.11c-.32-.15,0,0-.08,0a1.94,1.94,0,0,0-.34-.11,1,1,0,0,0-.23,0,1.41,1.41,0,0,0-.57.07c-.17.07-.08,0,0,0l.65-.49a15.45,15.45,0,0,1,1.49-1,18.11,18.11,0,0,1,8.94-2.62,14.35,14.35,0,0,1,4.13.47,10.33,10.33,0,0,1,1.48.5l-1.47.45c-.92.28-2.18.7-3.62,1.27a35.34,35.34,0,0,0-4.59,2.27c-.78.47-1.57,1-2.34,1.53l-1.12.86-.62.49a4.5,4.5,0,0,1-1.34.79,3.34,3.34,0,0,1-1.36.2l-.43-.06A3,3,0,0,1,66,67.9l-.27-.12a3.13,3.13,0,0,1-.36-.22,4.29,4.29,0,0,1-1.11-1.26c-.25-.39-.49-.79-.77-1.17-.55-.75-1.12-1.47-1.72-2.15A27.71,27.71,0,0,0,58,59.54c-1.22-.92-2.34-1.65-3.15-2.14Zm23,175.64a8.45,8.45,0,0,1,1.53-.27,13.37,13.37,0,0,1,4.18.22,16.76,16.76,0,0,1,5.58,2.27A17.36,17.36,0,0,1,91.78,238c.22.3.35.31-.11,0l-.19-.1c-.33-.12,0,0-.09,0a1.52,1.52,0,0,0-.35-.08.91.91,0,0,0-.23,0,1.29,1.29,0,0,0-.56.12c-.17.09-.08.06,0,0l.6-.55c.36-.34.94-.79,1.39-1.13a17.78,17.78,0,0,1,2.93-1.76,17.45,17.45,0,0,1,5.73-1.67,14.38,14.38,0,0,1,4.15.08,10.38,10.38,0,0,1,1.53.36l-1.43.59c-.88.36-2.11.9-3.48,1.6A33.88,33.88,0,0,0,97.34,238c-.74.55-1.48,1.12-2.19,1.75l-1,.95-.57.55a5,5,0,0,1-1.27.91,3.34,3.34,0,0,1-1.34.32,3.24,3.24,0,0,1-.43,0,4.43,4.43,0,0,1-.55-.11l-.27-.1a1.93,1.93,0,0,1-.38-.19,4.26,4.26,0,0,1-1.22-1.15c-.29-.37-.57-.74-.88-1.09-.61-.7-1.25-1.36-1.91-2a27.14,27.14,0,0,0-4-3.08A34.71,34.71,0,0,0,78,232.92ZM393.67,41.34a22,22,0,0,0-6.36-.32,27.74,27.74,0,0,0-13.44,4.9c-.63.44-1.39,1-2,1.49-.23-.26-.44-.53-.68-.78a26.54,26.54,0,0,0-4.07-3.43,25.39,25.39,0,0,0-8.45-3.72,20.87,20.87,0,0,0-6.39-.53,13.32,13.32,0,0,0-2.37.36l2.11,1.07a53.86,53.86,0,0,1,5,3,46.15,46.15,0,0,1,6,4.9c5,4.82,7,8.59,8.81,8.2,1.23-.26,4.48-3.83,9.65-7.42a52.73,52.73,0,0,1,6.8-3.93c2.13-1,4-1.79,5.41-2.3L396,42A15.27,15.27,0,0,0,393.67,41.34ZM27.55,98.68a13.81,13.81,0,0,0-4-.72,17.43,17.43,0,0,0-5.8.74A16.81,16.81,0,0,0,14.63,100c-.44.23-1,.52-1.37.78-.12-.18-.24-.37-.37-.55a16.63,16.63,0,0,0-2.29-2.5,16.44,16.44,0,0,0-5.06-3,13.21,13.21,0,0,0-4-.85,8.7,8.7,0,0,0-1.53,0l1.25.85A33.72,33.72,0,0,1,4.19,97a28.91,28.91,0,0,1,3.42,3.59c2.78,3.47,3.72,6,4.92,5.92.81-.07,3.15-2.06,6.72-3.92a34.72,34.72,0,0,1,4.64-1.94c1.43-.46,2.7-.8,3.61-1L29,99.26A9.37,9.37,0,0,0,27.55,98.68Zm290-41.34a9,9,0,0,0-2.47-.58,10.88,10.88,0,0,0-3.64.27,10.7,10.7,0,0,0-2,.68c-.28.13-.62.3-.88.44l-.21-.35a10.81,10.81,0,0,0-1.35-1.64,10,10,0,0,0-3-2.06,8.17,8.17,0,0,0-2.46-.66,5.34,5.34,0,0,0-1,0l.75.57a22.09,22.09,0,0,1,1.76,1.53,17.91,17.91,0,0,1,2,2.35c1.61,2.24,2.11,3.86,2.86,3.84.51,0,2-1.18,4.32-2.21a21.46,21.46,0,0,1,2.94-1c.91-.24,1.71-.41,2.29-.51l.92-.17A7,7,0,0,0,317.58,57.34Zm58.71-53.5a19.34,19.34,0,0,1,2.31.68,17,17,0,0,1,2.91,1.35,16.66,16.66,0,0,1,1.46,1c.24.17.46.37.69.55a2.51,2.51,0,0,0,.91.55,1.1,1.1,0,0,0,.26.06L385,8h.35l.27,0a2,2,0,0,0,.78-.38,2.87,2.87,0,0,0,.66-.73l.28-.43.51-.73c.35-.48.73-.94,1.11-1.38a22.17,22.17,0,0,1,2.33-2.26c.75-.62,1.44-1.12,1.94-1.47l.8-.56a7.06,7.06,0,0,0-1,0,9,9,0,0,0-2.58.52,11.42,11.42,0,0,0-3.31,1.82,11.07,11.07,0,0,0-1.57,1.5,9.22,9.22,0,0,0-.71.89l-.29.42c0,.08-.1.11,0,0a1.15,1.15,0,0,1,.33-.15l.14,0a.58.58,0,0,1,.23,0h.06l.13,0c.32.13.25.15.07,0a9.84,9.84,0,0,0-.94-.65,10.49,10.49,0,0,0-5.74-1.59,8.58,8.58,0,0,0-2.61.43,5.36,5.36,0,0,0-.91.38Z"/></g></g></svg>