<svg xmlns="http://www.w3.org/2000/svg" viewBox="0 0 363.35 268.35"><defs><style>.cls-1{fill:#eb6e50;}.cls-2{fill:none;stroke:#fff;stroke-linecap:round;stroke-linejoin:round;stroke-width:8px;}</style></defs><g id="Layer_2" data-name="Layer 2"><g id="レイヤー_2" data-name="レイヤー 2"><polygon class="cls-1" points="4.06 4.06 6.29 4.05 8.39 4.28 10.5 4.02 12.61 4.18 14.72 4.03 16.84 4.09 18.95 4.08 21.06 4 23.17 4.15 25.28 4.14 27.39 4.21 29.51 4.14 31.62 4.33 33.73 4.24 35.84 4.16 37.95 4.32 40.07 4.35 42.18 4.14 44.29 4.34 46.4 4.32 48.51 4.24 50.62 4.24 52.73 4.27 54.84 4.33 56.95 4.18 59.06 4.1 61.17 4 63.28 4.01 65.39 4.29 67.5 4.25 69.62 4.28 71.73 4.33 73.84 4.22 75.95 4.23 78.07 4 80.18 4.24 82.29 4.15 84.41 4.02 86.52 4.31 88.63 4.29 90.74 4.26 92.85 4.11 94.96 4.11 97.07 4.13 99.18 4.24 101.3 4.34 103.41 4.3 105.52 4.27 107.63 4.12 109.74 4.18 111.86 4.25 113.97 4.02 116.08 4.29 118.19 4.24 120.31 4.22 122.42 4.17 124.53 4.2 126.64 4.3 128.76 4.33 130.87 4.25 132.98 4.14 135.09 4.18 137.2 4.27 139.31 4.04 141.43 4.05 143.54 4.08 145.65 4.2 147.77 4.27 149.88 4.34 152 4.16 154.11 4.28 156.22 4.08 158.33 4.28 160.44 4.2 162.56 4.16 164.67 4.16 166.78 4.06 168.89 4.35 171.01 4.22 173.12 4.21 175.24 4.34 177.35 4.13 179.46 4.12 181.57 4.34 183.68 4.03 185.79 4.22 187.89 4.16 190 4.28 192.11 4.3 194.22 4.1 196.33 4.34 198.44 4.25 200.54 4.01 202.66 4.12 204.77 4.34 206.88 4.25 208.99 4.02 211.11 4.17 213.22 4.2 215.33 4.02 217.45 4.29 219.56 4.3 221.67 4.04 223.78 4.02 225.89 4.08 228 4.31 230.11 4.19 232.22 4.13 234.33 4.04 236.45 4.29 238.56 4.34 240.68 4.2 242.79 4.17 244.91 4.08 247.02 4.29 249.13 4.21 251.24 4.22 253.35 4.34 255.47 4.09 257.58 4.04 259.7 4.29 261.81 4.06 263.93 4.14 266.04 4.33 268.15 4.03 270.27 4.3 272.38 4 274.5 4.3 276.61 4.11 278.73 4.03 280.84 4.07 282.96 4.08 285.07 4.07 287.19 4.3 289.31 4.25 291.42 4.01 293.54 4.1 295.65 4.27 297.77 4.17 299.88 4.12 302 4.16 304.12 4.28 306.23 4.32 308.34 4.26 310.46 4.05 312.58 4.07 314.69 4.19 316.8 4.15 318.92 4.26 321.03 4.15 323.15 4.33 325.26 4.25 327.38 4.16 329.5 4.32 331.61 4.26 333.73 4.31 335.85 4 337.97 4.34 340.09 4.13 342.21 4.24 344.33 4.15 346.44 4.14 348.56 4.35 350.68 4.17 352.8 4.16 354.93 4.12 357.05 4.16 359.09 4.27 359.1 6.29 359.21 8.4 359.16 10.51 359.33 12.62 359.3 14.73 359.22 16.85 359.25 18.96 359.26 21.07 359.07 23.19 359 25.3 359.28 27.41 359.24 29.53 359.06 31.64 359.01 33.75 359.29 35.86 359.08 37.97 359.23 40.09 359.17 42.2 359.01 44.31 359.19 46.42 359.25 48.53 359.08 50.65 359.25 52.76 359.28 54.88 359.17 56.99 359.14 59.1 359.06 61.21 359.19 63.33 359.35 65.44 359.25 67.55 359.03 69.66 359.27 71.78 359.01 73.89 359.09 76 359.26 78.12 359.13 80.23 359.27 82.34 359.23 84.45 359.04 86.56 359.31 88.67 359.06 90.78 359.32 92.89 359.06 95 359.09 97.11 359.25 99.22 359.1 101.32 359.16 103.43 359.2 105.54 359.09 107.65 359.07 109.76 359.26 111.87 359.35 113.99 359.17 116.1 359.12 118.22 359 120.33 359.18 122.44 359.25 124.55 359.18 126.66 359.03 128.78 359.25 130.88 359.23 133 359.35 135.11 359.14 137.22 359.07 139.33 359.01 141.44 359.2 143.56 359.14 145.68 359.1 147.79 359.05 149.9 359.14 152.01 359.27 154.13 359.22 156.24 359.26 158.35 359.1 160.47 359.06 162.58 359.18 164.7 359.1 166.81 359.32 168.93 359.19 171.04 359.05 173.15 359.23 175.27 359.26 177.38 359.26 179.5 359.2 181.61 359.19 183.73 359.3 185.84 359.21 187.96 359.17 190.07 359.31 192.19 359.14 194.3 359.07 196.42 359.14 198.53 359.32 200.65 359 202.77 359.06 204.88 359.3 207 359.22 209.12 359.08 211.23 359.06 213.34 359.22 215.46 359.24 217.58 359.24 219.69 359.1 221.8 359 223.92 359.1 226.03 359.09 228.15 359.03 230.26 359.04 232.38 359.08 234.5 359.11 236.62 359.31 238.73 359.3 240.85 359.13 242.97 359.32 245.09 359.03 247.21 359.34 249.33 359.05 251.44 359.35 253.56 359.23 255.68 359.26 257.81 359.06 259.93 359.26 262.05 359.2 264.2 357.07 264.21 354.96 264.02 352.85 264.02 350.74 264.09 348.63 264.02 346.52 264.25 344.4 264.04 342.29 264.17 340.18 264.3 338.07 264.01 335.96 264.03 333.85 264.13 331.73 264.02 329.62 264.21 327.51 264.06 325.39 264.3 323.28 264.08 321.17 264.29 319.06 264.25 316.95 264.13 314.84 264.23 312.73 264.18 310.62 264.27 308.51 264.19 306.4 264.15 304.29 264.13 302.18 264.25 300.07 264.16 297.96 264.12 295.85 264.01 293.74 264.2 291.62 264.01 289.51 264.27 287.4 264.11 285.28 264.08 283.17 264.21 281.06 264.12 278.95 264.15 276.83 264.15 274.72 264.11 272.61 264.32 270.5 264.29 268.39 264.01 266.28 264.34 264.17 264.31 262.06 264.32 259.94 264.24 257.83 264 255.72 264.22 253.61 264.07 251.5 264.02 249.38 264.03 247.27 264.17 245.16 264.16 243.04 264.22 240.93 264.14 238.82 264.23 236.71 264.08 234.59 264.3 232.48 264.19 230.37 264.12 228.26 264.13 226.15 264.06 224.03 264.33 221.92 264.31 219.81 264.28 217.7 264.13 215.58 264.14 213.47 264.05 211.36 264.17 209.24 264.24 207.13 264.14 205.02 264.12 202.91 264.15 200.79 264.24 198.68 264.04 196.57 264.2 194.46 264.29 192.34 264.25 190.23 264.29 188.12 264.19 186 264.17 183.89 264.03 181.78 264.08 179.67 264.11 177.56 264.02 175.46 264.04 173.35 264.26 171.24 264.34 169.13 264.23 167.02 264.34 164.91 264.18 162.81 264.32 160.7 264.19 158.59 264.05 156.47 264.12 154.36 264.18 152.24 264.18 150.13 264.03 148.02 264.32 145.91 264.34 143.79 264.31 141.68 264.22 139.57 264.04 137.46 264.05 135.35 264.11 133.24 264 131.13 264.01 129.02 264.09 126.9 264.12 124.79 264.17 122.67 264.06 120.56 264.28 118.45 264.21 116.33 264.12 114.22 264.06 112.11 264.06 110 264.2 107.88 264.06 105.77 264.08 103.65 264.05 101.54 264.17 99.42 264.13 97.31 264.06 95.2 264.07 93.08 264.07 90.97 264.1 88.85 264.34 86.74 264.24 84.62 264.14 82.51 264.31 80.39 264.23 78.28 264.12 76.16 264.03 74.05 264.1 71.93 264.15 69.82 264.34 67.7 264.24 65.58 264.26 63.47 264.04 61.35 264.04 59.23 264.32 57.12 264.17 55.01 264.23 52.89 264.26 50.77 264.15 48.66 264.03 46.55 264.18 44.44 264.06 42.32 264.21 40.2 264.35 38.09 264.07 35.97 264.18 33.85 264.14 31.74 264.08 29.62 264.17 27.5 264.13 25.38 264.19 23.26 264.27 21.14 264.08 19.02 264.01 16.91 264.11 14.79 264.3 12.67 264.06 10.55 264.31 8.43 264.33 6.3 264.01 4.3 264.05 4.06 262.07 4.09 259.95 4.21 257.84 4.04 255.73 4.23 253.62 4.24 251.51 4.18 249.39 4.21 247.28 4.28 245.17 4.08 243.05 4.18 240.94 4.04 238.83 4.24 236.72 4.26 234.6 4 232.49 4.11 230.38 4 228.27 4.33 226.16 4.2 224.04 4.16 221.93 4.13 219.82 4.33 217.71 4 215.59 4.31 213.48 4.13 211.37 4.01 209.25 4.34 207.14 4.24 205.03 4.31 202.91 4.1 200.8 4.2 198.69 4.28 196.58 4.21 194.47 4.14 192.35 4.25 190.24 4 188.12 4.29 186.01 4.05 183.9 4.15 181.79 4.24 179.68 4.15 177.57 4.25 175.46 4.23 173.36 4.29 171.25 4.08 169.14 4 167.03 4.01 164.92 4.25 162.81 4.03 160.7 4.33 158.59 4.11 156.48 4.13 154.37 4.25 152.25 4.11 150.14 4.12 148.02 4.22 145.91 4.28 143.8 4 141.69 4.29 139.58 4.01 137.47 4.09 135.36 4.33 133.25 4.21 131.13 4 129.02 4.04 126.91 4.26 124.79 4.19 122.68 4.24 120.56 4.04 118.45 4.31 116.34 4.35 114.23 4.03 112.11 4.07 110 4.12 107.89 4.22 105.77 4.21 103.66 4.12 101.54 4.12 99.43 4.03 97.31 4.23 95.2 4.26 93.09 4.08 90.97 4.18 88.86 4.3 86.74 4.15 84.63 4.07 82.51 4.09 80.4 4.24 78.28 4.03 76.17 4.01 74.05 4.05 71.94 4.28 69.82 4.22 67.7 4.34 65.59 4.31 63.47 4 61.35 4.03 59.24 4.14 57.12 4.06 55.01 4.04 52.9 4.09 50.78 4.29 48.66 4.18 46.55 4.22 44.44 4.23 42.32 4.25 40.2 4.02 38.09 4.11 35.97 4.3 33.85 4.16 31.74 4.29 29.62 4.07 27.5 4.18 25.38 4.13 23.27 4.34 21.15 4.11 19.03 4.07 16.91 4.31 14.79 4.17 12.67 4.02 10.55 4.19 8.43 4.24 6.3 4.06 4.06"/><polygon class="cls-2" points="4.06 4.06 6.29 4.05 8.39 4.28 10.5 4.02 12.61 4.18 14.72 4.03 16.84 4.09 18.95 4.08 21.06 4 23.17 4.15 25.28 4.14 27.39 4.21 29.51 4.14 31.62 4.33 33.73 4.24 35.84 4.16 37.95 4.32 40.07 4.35 42.18 4.14 44.29 4.34 46.4 4.32 48.51 4.24 50.62 4.24 52.73 4.27 54.84 4.33 56.95 4.18 59.06 4.1 61.17 4 63.28 4.01 65.39 4.29 67.5 4.25 69.62 4.28 71.73 4.33 73.84 4.22 75.95 4.23 78.07 4 80.18 4.24 82.29 4.15 84.41 4.02 86.52 4.31 88.63 4.29 90.74 4.26 92.85 4.11 94.96 4.11 97.07 4.13 99.18 4.24 101.3 4.34 103.41 4.3 105.52 4.27 107.63 4.12 109.74 4.18 111.86 4.25 113.97 4.02 116.08 4.29 118.19 4.24 120.31 4.22 122.42 4.17 124.53 4.2 126.64 4.3 128.76 4.33 130.87 4.25 132.98 4.14 135.09 4.18 137.2 4.27 139.31 4.04 141.43 4.05 143.54 4.08 145.65 4.2 147.77 4.27 149.88 4.34 152 4.16 154.11 4.28 156.22 4.08 158.33 4.28 160.44 4.2 162.56 4.16 164.67 4.16 166.78 4.06 168.89 4.35 171.01 4.22 173.12 4.21 175.24 4.34 177.35 4.13 179.46 4.12 181.57 4.34 183.68 4.03 185.79 4.22 187.89 4.16 190 4.28 192.11 4.3 194.22 4.1 196.33 4.34 198.44 4.25 200.54 4.01 202.66 4.12 204.77 4.34 206.88 4.25 208.99 4.02 211.11 4.17 213.22 4.2 215.33 4.02 217.45 4.29 219.56 4.3 221.67 4.04 223.78 4.02 225.89 4.08 228 4.31 230.11 4.19 232.22 4.13 234.33 4.04 236.45 4.29 238.56 4.34 240.68 4.2 242.79 4.17 244.91 4.08 247.02 4.29 249.13 4.21 251.24 4.22 253.35 4.34 255.47 4.09 257.58 4.04 259.7 4.29 261.81 4.06 263.93 4.14 266.04 4.33 268.15 4.03 270.27 4.3 272.38 4 274.5 4.3 276.61 4.11 278.73 4.03 280.84 4.07 282.96 4.08 285.07 4.07 287.19 4.3 289.31 4.25 291.42 4.01 293.54 4.1 295.65 4.27 297.77 4.17 299.88 4.12 302 4.16 304.12 4.28 306.23 4.32 308.34 4.26 310.46 4.05 312.58 4.07 314.69 4.19 316.8 4.15 318.92 4.26 321.03 4.15 323.15 4.33 325.26 4.25 327.38 4.16 329.5 4.32 331.61 4.26 333.73 4.31 335.85 4 337.97 4.34 340.09 4.13 342.21 4.24 344.33 4.15 346.44 4.14 348.56 4.35 350.68 4.17 352.8 4.16 354.93 4.12 357.05 4.16 359.09 4.27 359.1 6.29 359.21 8.4 359.16 10.51 359.33 12.62 359.3 14.73 359.22 16.85 359.25 18.96 359.26 21.07 359.07 23.19 359 25.3 359.28 27.41 359.24 29.53 359.06 31.64 359.01 33.75 359.29 35.86 359.08 37.97 359.23 40.09 359.17 42.2 359.01 44.31 359.19 46.42 359.25 48.53 359.08 50.65 359.25 52.76 359.28 54.88 359.17 56.99 359.14 59.1 359.06 61.21 359.19 63.33 359.35 65.44 359.25 67.55 359.03 69.66 359.27 71.78 359.01 73.89 359.09 76 359.26 78.12 359.13 80.23 359.27 82.34 359.23 84.45 359.04 86.56 359.31 88.67 359.06 90.78 359.32 92.89 359.06 95 359.09 97.11 359.25 99.22 359.1 101.32 359.16 103.43 359.2 105.54 359.09 107.65 359.07 109.76 359.26 111.87 359.35 113.99 359.17 116.1 359.12 118.22 359 120.33 359.18 122.44 359.25 124.55 359.18 126.66 359.03 128.78 359.25 130.88 359.23 133 359.35 135.11 359.14 137.22 359.07 139.33 359.01 141.44 359.2 143.56 359.14 145.68 359.1 147.79 359.05 149.9 359.14 152.01 359.27 154.13 359.22 156.24 359.26 158.35 359.1 160.47 359.06 162.58 359.18 164.7 359.1 166.81 359.32 168.93 359.19 171.04 359.05 173.15 359.23 175.27 359.26 177.38 359.26 179.5 359.2 181.61 359.19 183.73 359.3 185.84 359.21 187.96 359.17 190.07 359.31 192.19 359.14 194.3 359.07 196.42 359.14 198.53 359.32 200.65 359 202.77 359.06 204.88 359.3 207 359.22 209.12 359.08 211.23 359.06 213.34 359.22 215.46 359.24 217.58 359.24 219.69 359.1 221.8 359 223.92 359.1 226.03 359.09 228.15 359.03 230.26 359.04 232.38 359.08 234.5 359.11 236.62 359.31 238.73 359.3 240.85 359.13 242.97 359.32 245.09 359.03 247.21 359.34 249.33 359.05 251.44 359.35 253.56 359.23 255.68 359.26 257.81 359.06 259.93 359.26 262.05 359.2 264.2 357.07 264.21 354.96 264.02 352.85 264.02 350.74 264.09 348.63 264.02 346.52 264.25 344.4 264.04 342.29 264.17 340.18 264.3 338.07 264.01 335.96 264.03 333.85 264.13 331.73 264.02 329.62 264.21 327.51 264.06 325.39 264.3 323.28 264.08 321.17 264.29 319.06 264.25 316.95 264.13 314.84 264.23 312.73 264.18 310.62 264.27 308.51 264.19 306.4 264.15 304.29 264.13 302.18 264.25 300.07 264.16 297.96 264.12 295.85 264.01 293.74 264.2 291.62 264.01 289.51 264.27 287.4 264.11 285.28 264.08 283.17 264.21 281.06 264.12 278.95 264.15 276.83 264.15 274.72 264.11 272.61 264.32 270.5 264.29 268.39 264.01 266.28 264.34 264.17 264.31 262.06 264.32 259.94 264.24 257.83 264 255.72 264.22 253.61 264.07 251.5 264.02 249.38 264.03 247.27 264.17 245.16 264.16 243.04 264.22 240.93 264.14 238.82 264.23 236.71 264.08 234.59 264.3 232.48 264.19 230.37 264.12 228.26 264.13 226.15 264.06 224.03 264.33 221.92 264.31 219.81 264.28 217.7 264.13 215.58 264.14 213.47 264.05 211.36 264.17 209.24 264.24 207.13 264.14 205.02 264.12 202.91 264.15 200.79 264.24 198.68 264.04 196.57 264.2 194.46 264.29 192.34 264.25 190.23 264.29 188.12 264.19 186 264.17 183.89 264.03 181.78 264.08 179.67 264.11 177.56 264.02 175.46 264.04 173.35 264.26 171.24 264.34 169.13 264.23 167.02 264.34 164.91 264.18 162.81 264.32 160.7 264.19 158.59 264.05 156.47 264.12 154.36 264.18 152.24 264.18 150.13 264.03 148.02 264.32 145.91 264.34 143.79 264.31 141.68 264.22 139.57 264.04 137.46 264.05 135.35 264.11 133.24 264 131.13 264.01 129.02 264.09 126.9 264.12 124.79 264.17 122.67 264.06 120.56 264.28 118.45 264.21 116.33 264.12 114.22 264.06 112.11 264.06 110 264.2 107.88 264.06 105.77 264.08 103.65 264.05 101.54 264.17 99.42 264.13 97.31 264.06 95.2 264.07 93.08 264.07 90.97 264.1 88.85 264.34 86.74 264.24 84.62 264.14 82.51 264.31 80.39 264.23 78.28 264.12 76.16 264.03 74.05 264.1 71.93 264.15 69.82 264.34 67.7 264.24 65.58 264.26 63.47 264.04 61.35 264.04 59.23 264.32 57.12 264.17 55.01 264.23 52.89 264.26 50.77 264.15 48.66 264.03 46.55 264.18 44.44 264.06 42.32 264.21 40.2 264.35 38.09 264.07 35.97 264.18 33.85 264.14 31.74 264.08 29.62 264.17 27.5 264.13 25.38 264.19 23.26 264.27 21.14 264.08 19.02 264.01 16.91 264.11 14.79 264.3 12.67 264.06 10.55 264.31 8.43 264.33 6.3 264.01 4.3 264.05 4.06 262.07 4.09 259.95 4.21 257.84 4.04 255.73 4.23 253.62 4.24 251.51 4.18 249.39 4.21 247.28 4.28 245.17 4.08 243.05 4.18 240.94 4.04 238.83 4.24 236.72 4.26 234.6 4 232.49 4.11 230.38 4 228.27 4.33 226.16 4.2 224.04 4.16 221.93 4.13 219.82 4.33 217.71 4 215.59 4.31 213.48 4.13 211.37 4.01 209.25 4.34 207.14 4.24 205.03 4.31 202.91 4.1 200.8 4.2 198.69 4.28 196.58 4.21 194.47 4.14 192.35 4.25 190.24 4 188.12 4.29 186.01 4.05 183.9 4.15 181.79 4.24 179.68 4.15 177.57 4.25 175.46 4.23 173.36 4.29 171.25 4.08 169.14 4 167.03 4.01 164.92 4.25 162.81 4.03 160.7 4.33 158.59 4.11 156.48 4.13 154.37 4.25 152.25 4.11 150.14 4.12 148.02 4.22 145.91 4.28 143.8 4 141.69 4.29 139.58 4.01 137.47 4.09 135.36 4.33 133.25 4.21 131.13 4 129.02 4.04 126.91 4.26 124.79 4.19 122.68 4.24 120.56 4.04 118.45 4.31 116.34 4.35 114.23 4.03 112.11 4.07 110 4.12 107.89 4.22 105.77 4.21 103.66 4.12 101.54 4.12 99.43 4.03 97.31 4.23 95.2 4.26 93.09 4.08 90.97 4.18 88.86 4.3 86.74 4.15 84.63 4.07 82.51 4.09 80.4 4.24 78.28 4.03 76.17 4.01 74.05 4.05 71.94 4.28 69.82 4.22 67.7 4.34 65.59 4.31 63.47 4 61.35 4.03 59.24 4.14 57.12 4.06 55.01 4.04 52.9 4.09 50.78 4.29 48.66 4.18 46.55 4.22 44.44 4.23 42.32 4.25 40.2 4.02 38.09 4.11 35.97 4.3 33.85 4.16 31.74 4.29 29.62 4.07 27.5 4.18 25.38 4.13 23.27 4.34 21.15 4.11 19.03 4.07 16.91 4.31 14.79 4.17 12.67 4.02 10.55 4.19 8.43 4.24 6.3 4.06 4.06"/><polyline class="cls-2" points="359.31 4.31 357.74 5.82 356.02 7.17 354.69 8.91 353.03 10.32 351.61 11.97 350.03 13.46 348.5 15.01 347.02 16.61 345.36 18.03 343.83 19.58 342.24 21.06 340.75 22.66 339.06 24.06"/><polyline class="cls-2" points="44.17 24.04 46.3 24.07 48.42 24.26 50.54 24.05 52.66 24.18 54.78 24.06 56.9 24.11 59.02 24.09 61.15 24.03 63.27 24.16 65.39 24.15 67.51 24.2 69.63 24.14 71.75 24.3 73.87 24.23 75.99 24.16 78.11 24.3 80.23 24.32 82.35 24.14 84.47 24.31 86.59 24.29 88.71 24.23 90.83 24.23 92.95 24.25 95.07 24.3 97.2 24.18 99.32 24.11 101.44 24.03 103.56 24.04 105.68 24.27 107.8 24.23 109.92 24.27 112.04 24.3 114.16 24.21 116.28 24.22 118.4 24.03 120.53 24.23 122.65 24.16 124.77 24.04 126.89 24.29 129.01 24.27 131.14 24.24 133.26 24.12 135.38 24.12 137.5 24.14 139.62 24.23 141.74 24.31 143.86 24.28 145.98 24.25 148.1 24.13 150.23 24.18 152.35 24.24 154.47 24.05 156.59 24.27 158.71 24.23 160.83 24.21 162.95 24.17 165.07 24.19 167.18 24.28 169.3 24.3 171.42 24.24 173.53 24.14 175.65 24.18 177.77 24.25 179.89 24.06 182.01 24.07 184.13 24.1 186.25 24.19 188.37 24.26 190.49 24.31 192.62 24.16 194.74 24.27 196.86 24.1 198.98 24.26 201.1 24.2 203.22 24.16 205.34 24.16 207.46 24.08 209.57 24.32 211.69 24.22 213.82 24.2 215.94 24.31 218.06 24.13 220.19 24.13 222.31 24.31 224.43 24.05 226.55 24.21 228.67 24.16 230.79 24.26 232.91 24.28 235.04 24.11 237.16 24.32 239.29 24.23 241.41 24.04 243.53 24.13 245.65 24.31 247.78 24.24 249.9 24.05 252.02 24.17 254.15 24.19 256.27 24.04 258.39 24.27 260.52 24.28 262.64 24.06 264.76 24.05 266.89 24.1 269.01 24.29 271.14 24.19 273.26 24.14 275.39 24.07 277.51 24.27 279.64 24.32 281.76 24.19 283.89 24.17 286.01 24.1 288.14 24.27 290.26 24.21 292.39 24.21 294.51 24.31 296.63 24.11 298.75 24.06 300.88 24.27 303 24.08 305.13 24.14 307.25 24.3 309.38 24.06 311.5 24.28 313.63 24.03 315.76 24.28 317.88 24.12 320.01 24.05 322.14 24.09 324.27 24.09 326.39 24.09 328.52 24.28 330.65 24.24 332.78 24.04 334.91 24.11 337.04 24.25 339.18 24.17 339.22 26.3 339.19 28.43 339.09 30.55 339.06 32.68 339.1 34.81 339.28 36.94 339.26 39.06 339.16 41.19 339.2 43.31 339.1 45.44 339.2 47.56 339.05 49.68 339.11 51.8 339.19 53.92 339.06 56.05 339.1 58.17 339.06 60.29 339.32 62.41 339.04 64.53 339.22 66.66 339.13 68.78 339.2 70.91 339.2 73.03 339.03 75.16 339.18 77.29 339.19 79.42 339.23 81.54 339.19 83.67 339.07 85.79 339.11 87.92 339.2 90.04 339.17 92.16 339.31 94.29 339.28 96.41 339.21 98.54 339.23 100.67 339.25 102.8 339.09 104.92 339.03 107.05 339.26 109.18 339.23 111.3 339.08 113.43 339.04 115.55 339.27 117.68 339.1 119.81 339.22 121.94 339.17 124.06 339.04 126.19 339.19 128.32 339.24 130.45 339.09 132.57 339.24 134.7 339.26 136.83 339.17 138.96 339.15 141.09 339.08 143.22 339.19 145.34 339.32 147.47 339.24 149.6 339.05 151.73 339.26 153.86 339.04 155.99 339.1 158.12 339.25 160.25 339.13 162.38 339.26 164.51 339.22 166.64 339.06 168.77 339.29 170.9 339.08 173.03 339.3 175.15 339.08 177.28 339.11 179.41 339.24 181.54 339.11 183.66 339.16 185.79 339.2 187.92 339.11 190.05 339.09 192.18 339.25 194.31 339.32 196.44 339.17 198.57 339.13 200.71 339.03 202.84 339.18 204.97 339.23 207.1 339.18 209.24 339.06 211.36 339.23 213.5 339.22 215.63 339.32 217.76 339.15 219.9 339.09 222.04 339.04 224.18"/></g></g></svg>