<?xml version="1.0" encoding="utf-8"?>
<!-- Generator: Adobe Illustrator 26.0.1, SVG Export Plug-In . SVG Version: 6.00 Build 0)  -->
<svg version="1.1" id="Layer_1" xmlns="http://www.w3.org/2000/svg" xmlns:xlink="http://www.w3.org/1999/xlink" x="0px" y="0px"
	 viewBox="0 0 168.9 35.3" style="enable-background:new 0 0 168.9 35.3;" xml:space="preserve">
<style type="text/css">
	.st0{fill:#FFFEFF;}
</style>
<g id="Layer_2_00000070090709547187701660000015895015819609076895_">
	<g id="レイヤー_1">
		<path class="st0" d="M94.6,18.8c20.3,0.1,58.3,0,73.2,0c3.7,0-2.5-3.5-4.6-3.7c-5.3-0.3-10,2.4-14.9-0.8c-3.4-2.2-3.8-4.5-6.8-7.3
			c-1.7-1.4-3.9-2-6.1-1.6c-1.8,0.4-3.4,1.4-4.7,2.7c-0.5,0.8-1.3,1.4-2.1,1.8c-1,0.2-2-0.1-2.7-0.8c-2.9-2.2-5.9-4.6-8.9-6.7
			c-5.1-3.5-10.7-2.9-15.8-0.2C90.6,7.7,93.5,18.8,94.6,18.8z"/>
		<path class="st0" d="M1.1,23.9c-2.9,4.9,0.5,11.4,1.5,11.4c19.7,0.1,79.9,0,94.3,0c3.5,0-2.4-3.4-4.5-3.5
			c-5.1-0.3-9.7,2.3-14.5-0.8c-3.3-2.1-3.7-4.4-6.6-7.1c-1.6-1.4-3.8-1.9-5.9-1.6c-1.7,0.4-3.3,1.3-4.6,2.6
			c-0.5,0.8-1.2,1.4-2.1,1.7c-1,0.2-1.9-0.1-2.7-0.8c-2.7-2.2-5.1-4.9-8-6.9c-4.9-3.4-9.8-2.4-14.8,0.2c-1.9,1-3.8,3.4-5.9,3.5
			c-1.9,0.1-3.3-1.5-4.7-2.8c-2.1-1.8-4.7-2.9-7.5-3C10.4,16.6,4.4,18.5,1.1,23.9z"/>
	</g>
</g>
</svg>
