<svg xmlns="http://www.w3.org/2000/svg" viewBox="0 0 168.87 35.34"><defs><style>.cls-1{fill:#fffeff;}</style></defs><g id="Layer_2" data-name="Layer 2"><g id="レイヤー_1" data-name="レイヤー 1"><path class="cls-1" d="M67.87,2.22C62.74-.46,57.14-1.07,52.06,2.4c-3,2.06-6.07,4.43-8.92,6.68a3.25,3.25,0,0,1-2.74.82,4.92,4.92,0,0,1-2.15-1.78,10.28,10.28,0,0,0-4.71-2.65,7.65,7.65,0,0,0-6.09,1.64c-2.95,2.79-3.39,5.09-6.78,7.28-4.91,3.18-9.63.51-14.91.78-2.16.11-8.29,3.64-4.61,3.65,14.82,0,52.88.07,73.16,0C75.42,18.82,78.36,7.69,67.87,2.22Z"/><path class="cls-1" d="M153.64,16.87a12.33,12.33,0,0,0-7.47,3c-1.41,1.26-2.86,2.87-4.74,2.79-2.14-.1-4-2.59-5.93-3.55-5-2.52-9.86-3.54-14.79-.16-2.92,2-5.28,4.69-8,6.87a3.17,3.17,0,0,1-2.66.79,4.76,4.76,0,0,1-2.09-1.73,10,10,0,0,0-4.57-2.56,7.38,7.38,0,0,0-5.9,1.59c-2.87,2.7-3.3,4.94-6.59,7.06-4.76,3.09-9.34.49-14.46.76-2.09.11-8,3.53-4.47,3.54,14.37,0,74.6.07,94.27,0,1.08,0,4.41-6.51,1.54-11.36C164.52,18.52,158.55,16.57,153.64,16.87Z"/></g></g></svg>