<svg xmlns="http://www.w3.org/2000/svg" viewBox="0 0 43.35 28"><defs><style>.cls-1{fill:#eb6e50;}</style></defs><g id="Layer_2" data-name="Layer 2"><g id="レイヤー_1" data-name="レイヤー 1"><path class="cls-1" d="M4.68,0h0a4.67,4.67,0,0,0-3.3,8l5.25,5.25a1.1,1.1,0,0,1,0,1.56L1.38,20a4.67,4.67,0,0,0,3.3,8h0A4.67,4.67,0,0,0,8,26.63L19.83,14.78a1.1,1.1,0,0,0,0-1.56L8,1.37A4.67,4.67,0,0,0,4.68,0Z"/><path class="cls-1" d="M27.88,0h0a4.67,4.67,0,0,0-3.3,8l5.25,5.25a1.1,1.1,0,0,1,0,1.56L24.58,20a4.67,4.67,0,0,0,3.3,8h0a4.67,4.67,0,0,0,3.3-1.37L43,14.78a1.1,1.1,0,0,0,0-1.56L31.18,1.37A4.67,4.67,0,0,0,27.88,0Z"/></g></g></svg>