<svg xmlns="http://www.w3.org/2000/svg" viewBox="0 0 77.67 74"><defs><style>.cls-1{fill:#ffdc64;}.cls-2{fill:#fff;}</style></defs><g id="Layer_2" data-name="Layer 2"><g id="レイヤー_1" data-name="レイヤー 1"><rect class="cls-1" y="66.87" width="77.67" height="7.13"/><path class="cls-2" d="M27.15,18.41s7.08,1.41,16.29-7.79a85.24,85.24,0,0,0,7.08,8.49v8.5a16.29,16.29,0,1,0-23.37,0Z"/><path class="cls-2" d="M49.76,37.19c-1.15.63-10.92,22.09-10.92,22.09S29.06,37.82,27.92,37.19c-11,4-11.5,12.87-11.5,26.83H61.25C61.25,50.06,60.76,41.16,49.76,37.19Z"/><polygon class="cls-1" points="33.96 36.23 33.96 42.73 38.84 41.08 43.71 42.73 43.71 36.23 38.84 37.89 33.96 36.23"/></g></g></svg>