<svg xmlns="http://www.w3.org/2000/svg" viewBox="0 0 74.52 80"><defs><style>.cls-1{fill:#f7d666;}.cls-2{fill:#ffdc64;}.cls-3{fill:#fff;}</style></defs><g id="Layer_2" data-name="Layer 2"><g id="レイヤー_1" data-name="レイヤー 1"><path class="cls-1" d="M41.59,12.11a6.07,6.07,0,1,1,6.6-5.48A6.07,6.07,0,0,1,41.59,12.11Z"/><path class="cls-2" d="M19.68,60.66a2.75,2.75,0,0,1-3.8-.21l-.07-.08a2.73,2.73,0,0,1,.08-3.8l7-7.82L25.5,40a6.25,6.25,0,0,0,.38.61A7.8,7.8,0,0,0,31.6,44l1.07.07L30,50.61a12.77,12.77,0,0,1-2.36,2.87Z"/><path class="cls-1" d="M43.86,55A2.79,2.79,0,0,0,47.2,53L51,40.13a4.3,4.3,0,0,0-3.74-5.48L39.64,34l3.14-9,4.57,3a3.87,3.87,0,0,0,3.37,0L59.31,24a2.29,2.29,0,0,0,1.16-1.3,2.24,2.24,0,0,0-.11-1.74l-.07-.15a2.26,2.26,0,0,0-2.95-1.07l-7.12,2.56-11-8.42a8.86,8.86,0,0,0-8.37-1.31L23,15.35a3.7,3.7,0,0,0-2.09,1.36L16.06,23a2.06,2.06,0,0,0-.38.79l-.3-.08a1.24,1.24,0,0,0-1.49.9l-.4,1.63-2.86-.7a1.24,1.24,0,0,0-1.52.92L7.18,34.28a1.26,1.26,0,0,0,.92,1.53l12.14,3a1.26,1.26,0,0,0,1.52-.92l1.93-7.81a1.27,1.27,0,0,0-.93-1.53l-2.85-.71.4-1.62a1.23,1.23,0,0,0-.26-1.06L25,20.41l6.16-.34L27.53,33.15l-.43,1.46a5.45,5.45,0,0,0,4.85,7l11.47.8-1.74,9.33a2.79,2.79,0,0,0,2.08,3.21ZM15.75,25a2.2,2.2,0,0,0,.7,1l.05,0A2.09,2.09,0,0,0,19.14,26l-.39,1.58-4.11-1,.4-1.62.06,0Z"/><polygon class="cls-3" points="39.87 60.61 44.09 58.06 44.09 80 30.42 80 30.42 56.89 32.03 56.03 39.87 60.61"/><polygon class="cls-3" points="27.81 80 14.13 80 14.13 65.53 27.81 58.27 27.81 80"/><polygon class="cls-3" points="11.52 66.92 11.52 80 0 80 0 73.03 11.52 66.92"/><polygon class="cls-3" points="60.38 80 46.71 80 46.71 56.48 60.38 48.23 60.38 80"/><polygon class="cls-2" points="74.52 80 63 80 63 46.65 74.52 39.69 74.52 80"/></g></g></svg>