<svg xmlns="http://www.w3.org/2000/svg" viewBox="0 0 148.3 84.6"><defs><style>.cls-1{fill:#fff;fill-rule:evenodd;}</style></defs><g id="Layer_2" data-name="Layer 2"><g id="レイヤー_1" data-name="レイヤー 1"><path class="cls-1" d="M38.72,65.61c-.42-.1-.5-.34-.53-.81-.06-1.07-.17-5.85-.14-6.72,0-.25,0-.51.43-.61a4.41,4.41,0,0,1,.81-.14c.05,0,.05-.2,0-.23-.58,0-1,0-2.23,0a3.07,3.07,0,0,1-.28.84c-.61,1.36-2.58,5.47-2.83,5.93,0,0,0,0-.05,0-.21-.38-1.78-3.75-2.75-6a2.34,2.34,0,0,1-.27-.81c-1.45,0-2,0-2.4,0,0,0-.06.19,0,.22a3.37,3.37,0,0,1,.9.2.62.62,0,0,1,.39.66c-.06,1.22-.36,5.38-.49,6.31s-.24,1.05-.69,1.14a4.72,4.72,0,0,1-.56.08s0,.21,0,.23c.26,0,.89,0,1.6,0s1.12,0,1.45,0c0,0,.05-.2,0-.23a6.1,6.1,0,0,1-.76-.12c-.4-.1-.47-.42-.47-1,0-.93.2-4.89.3-6.06,0,0,0,0,0,0,.38.95,2.77,6.28,3.13,7.53a1.13,1.13,0,0,0,.26,0c.46-1.34,2.9-6.45,3.32-7.35a0,0,0,0,1,.05,0C37,59.81,37,64,37,64.9c0,.38-.08.6-.39.69a3.79,3.79,0,0,1-.66.12.26.26,0,0,0,0,.23c.33,0,.93,0,1.69,0s1.47,0,1.75,0a.3.3,0,0,0,0-.23A3.65,3.65,0,0,1,38.72,65.61Z"/><path class="cls-1" d="M49.8,64.64c-.44-1.11-2-6-2.32-6.88l-.17-.63h-.79a6.54,6.54,0,0,1-.18.69c-.33.9-1.66,4.65-2.49,6.66-.43,1-.59,1.11-1.56,1.23,0,0,0,.22,0,.23.27,0,.69,0,1.35,0s1.32,0,1.63,0a.31.31,0,0,0,0-.23,3.2,3.2,0,0,1-.62-.11c-.46-.1-.44-.33-.41-.57a22.19,22.19,0,0,1,.89-2.65.16.16,0,0,1,.11-.1H47.7s.1.07.11.07c.26.77.78,2.22.94,2.83,0,.17,0,.29-.16.39a3.75,3.75,0,0,1-.7.14.36.36,0,0,0,0,.23c.34,0,1.12,0,1.69,0s1.23,0,1.59,0c0,0,.06-.18,0-.23C50.25,65.6,50.18,65.54,49.8,64.64Zm-2.22-2.86c-.1,0-.63,0-1,0-.69,0-1,0-1.15,0s-.06,0-.06-.09c.22-.63.88-2.59,1.12-3.25,0,0,0,0,.06,0l1,3.27C47.63,61.74,47.6,61.78,47.58,61.78Z"/><path class="cls-1" d="M56.92,65.6c-.39-.1-.42-.37-.45-.79s0-1.85,0-3.4c0-1.24,0-2.67.05-3.22s.07-.67.39-.77l.6-.1a.28.28,0,0,0,0-.22c-.31,0-.76,0-1.5,0s-1.41,0-1.74,0c0,0,0,.19,0,.22a6.56,6.56,0,0,1,.75.12c.31.09.31.38.36.71,0,.66,0,1.75,0,2.91s0,3.48,0,3.89-.09.59-.44.66a2.87,2.87,0,0,1-.64.1.26.26,0,0,0,0,.23c.71,0,1,0,1.83,0,.64,0,1.15,0,1.55,0a.26.26,0,0,0,0-.23A3.32,3.32,0,0,1,56.92,65.6Z"/><path class="cls-1" d="M67.66,63.55a6.63,6.63,0,0,1-.87,1.53,1,1,0,0,1-.79.43,11.1,11.1,0,0,1-2.4-.1c-.13,0-.23-.18-.25-.41,0-.68,0-2.42,0-3.71s0-2.81,0-3.23,0-.54.38-.63l.59-.11c.05,0,0-.21,0-.22-.28,0-.84,0-1.6,0s-1.33,0-1.66,0a.28.28,0,0,0,0,.22c.17,0,.5.07.68.11.43.1.46.26.49.88,0,.35,0,1.19,0,2.71,0,3.07,0,3.56,0,3.95s-.18.57-.48.64a6.29,6.29,0,0,1-.75.1.44.44,0,0,0,0,.23c.35,0,1.14,0,1.76,0s3.13.06,3.93.06c.36,0,.5-.07.58-.17a12,12,0,0,0,.67-2.17C67.88,63.56,67.7,63.52,67.66,63.55Z"/><path class="cls-1" d="M76.63,65.17c-.2.2-.35.36-1.24.36a10.3,10.3,0,0,1-1.76-.09c-.15,0-.31-.17-.33-.5,0-.85,0-2.79,0-3.17,0,0,0-.12.07-.12.38,0,1.83,0,2.22,0a.58.58,0,0,1,.58.5c0,.17,0,.24.1.5a.23.23,0,0,0,.24,0c0-.28,0-.64,0-1.2a9.81,9.81,0,0,1,.1-1.29.39.39,0,0,0-.26,0,2.61,2.61,0,0,1-.12.5.61.61,0,0,1-.62.51c-.42,0-1.87,0-2.23,0,0,0,0-.06,0-.11,0-.32,0-2.7,0-3.32,0-.07,0-.19.15-.2s1.78,0,2.14,0c.53,0,.64.23.74.55a3.77,3.77,0,0,1,.16.91.36.36,0,0,0,.25,0A12.19,12.19,0,0,1,77,57.13s0,0,0-.05a12.43,12.43,0,0,1-1.51.06H72.7c-.78,0-1.29,0-1.62,0a.19.19,0,0,0,0,.22,2.48,2.48,0,0,1,.65.11c.36.09.42.22.45.75,0,.28,0,1.6,0,3,0,1.64,0,3.29,0,3.63,0,.56-.16.73-.49.82a4.45,4.45,0,0,1-.92.11c0,.05,0,.21,0,.23.6,0,1,0,2,0,2,0,2.63,0,3.49,0,.71,0,.77,0,.85-.15a10.37,10.37,0,0,0,.58-1.86.41.41,0,0,0-.21-.1A4.21,4.21,0,0,1,76.63,65.17Z"/><path class="cls-1" d="M81.94,64.64a.67.67,0,0,0-.46.2.72.72,0,0,0-.22.5.68.68,0,0,0,.2.49.62.62,0,0,0,.43.19.69.69,0,0,0,.51-.21.72.72,0,0,0,.18-.46.67.67,0,0,0-.21-.54A.72.72,0,0,0,81.94,64.64Z"/><path class="cls-1" d="M93.81,63.83a5.52,5.52,0,0,1-.94,1.32,2.42,2.42,0,0,1-1.71.58c-2.44,0-3.89-1.75-3.89-4.42s1.3-4.09,3.41-4.09a3.86,3.86,0,0,1,1.81.34c.48.24.67.6.8,1.69,0,.06.23,0,.27,0a13.72,13.72,0,0,1,.26-2.06,23.74,23.74,0,0,0-2.66-.28,6.06,6.06,0,0,0-2.94.66A4.27,4.27,0,0,0,86,61.44c0,3,1.81,4.72,4.9,4.72a7.29,7.29,0,0,0,2.07-.3A4.1,4.1,0,0,0,94,64C94,63.89,93.85,63.82,93.81,63.83Z"/><path class="cls-1" d="M102,56.88a4.43,4.43,0,0,0-4.6,4.57,5,5,0,0,0,1.22,3.37,4.32,4.32,0,0,0,3.16,1.34,4.47,4.47,0,0,0,3.71-1.88,4.94,4.94,0,0,0,.84-2.92A4.19,4.19,0,0,0,102,56.88Zm1.91,8.29a2.43,2.43,0,0,1-1.6.54,3.19,3.19,0,0,1-1.85-.54,5,5,0,0,1-1.79-4.05,3.92,3.92,0,0,1,1.5-3.47,2.77,2.77,0,0,1,1.38-.36,3.06,3.06,0,0,1,1.93.63,4.81,4.81,0,0,1,1.65,3.9A4.28,4.28,0,0,1,103.93,65.17Z"/><path class="cls-1" d="M110.41,64.64a.69.69,0,0,0-.46.2.76.76,0,0,0-.21.5.68.68,0,0,0,.2.49.62.62,0,0,0,.43.19.65.65,0,0,0,.5-.21.69.69,0,0,0,.19-.46.67.67,0,0,0-.21-.54A.72.72,0,0,0,110.41,64.64Z"/><path class="cls-1" d="M115.28,64.18a3,3,0,0,0-.71.76,2.74,2.74,0,0,1,.37,1,2.66,2.66,0,0,1-1,2s0,0,0,.06.11.09.19.09a3.89,3.89,0,0,0,1.63-3,1.45,1.45,0,0,0-.28-.9A.23.23,0,0,0,115.28,64.18Z"/><path class="cls-1" d="M125.89,63.55a6.25,6.25,0,0,1-.88,1.53,1,1,0,0,1-.79.43,11.16,11.16,0,0,1-2.4-.1.41.41,0,0,1-.24-.41c0-.68,0-2.42,0-3.71s0-2.81,0-3.23,0-.54.37-.63l.59-.11c.06,0,0-.21,0-.22-.27,0-.83,0-1.59,0s-1.34,0-1.67,0c0,0,0,.2,0,.22s.5.07.67.11c.43.1.46.26.49.88,0,.35,0,1.19,0,2.71,0,3.07,0,3.56,0,3.95s-.17.57-.47.64a6.29,6.29,0,0,1-.75.1c0,.05,0,.21,0,.23.35,0,1.14,0,1.75,0s3.13.06,3.94.06c.36,0,.5-.07.57-.17a11.26,11.26,0,0,0,.68-2.17C126.1,63.56,125.93,63.52,125.89,63.55Z"/><path class="cls-1" d="M134.86,57.14h-5.28a3,3,0,0,1-1.12-.21s-.07,0-.07,0a21.18,21.18,0,0,1-.26,2.18.29.29,0,0,0,.24,0,8,8,0,0,1,.53-1.25.69.69,0,0,1,.58-.37c.3,0,1.72,0,2,0a.13.13,0,0,1,.09.11c0,2.29,0,6.3,0,6.93s-.09,1-.51,1a8.26,8.26,0,0,1-.92.13.2.2,0,0,0,0,.21c.42,0,1.12,0,2,0,.56,0,1.34,0,1.78,0,.05,0,.06-.18,0-.21a4,4,0,0,1-.7-.12c-.3-.08-.46-.18-.5-1s-.06-4.89-.06-6.93c0,0,0-.12.07-.13.3,0,1.58,0,2.11,0a.6.6,0,0,1,.56.42,4.13,4.13,0,0,1,.21,1.16c0,.05.25.05.26,0a13.68,13.68,0,0,1,.29-2.15s0,0-.06,0A3.63,3.63,0,0,1,134.86,57.14Z"/><path class="cls-1" d="M147,58.06a4.53,4.53,0,0,0-3-1c-1.12,0-1.75.06-2.7.06l-1.65,0s0,.19,0,.22a3.69,3.69,0,0,1,.72.12c.34.1.4.25.43.78s0,2.15,0,3c0,1.44,0,2.75,0,3.62-.05.55-.22.63-.45.71a3.46,3.46,0,0,1-.79.12s0,.22,0,.23h1c1.28,0,1.84.06,2.7.06a5.44,5.44,0,0,0,3.23-.92,4.33,4.33,0,0,0,1.9-3.76A4.19,4.19,0,0,0,147,58.06Zm-1,6.75a2.89,2.89,0,0,1-2.11.79,3.47,3.47,0,0,1-1.68-.3.67.67,0,0,1-.29-.52c0-.46,0-2,0-3.34s0-3.22,0-3.64a.35.35,0,0,1,.16-.3,3.42,3.42,0,0,1,.76-.07,4.6,4.6,0,0,1,2.67.62,4,4,0,0,1,1.6,3.5A4.29,4.29,0,0,1,145.93,64.81Z"/><path class="cls-1" d="M111,33.36c.36.66,1,.76,1,0S110.43,32.27,111,33.36Z"/><path class="cls-1" d="M112.88,32.65c.17-.28-.47-.32-.4,0s.6.37.6,0C113.08,32.71,112.87,32.67,112.88,32.65Z"/><path class="cls-1" d="M111.29,35.76c0,.18,0,.16.09.13s.26,0,.36-.07C112.15,35.45,111.23,35.17,111.29,35.76Z"/><path class="cls-1" d="M124.34,2A4.84,4.84,0,0,1,125,4.58c.29,2.77.46,3.38,2.44,4.46.25.13.87.26,1.05.05.61-.72-.27-2.91,0-3.21,1.11-.42,1,2.75,1.39,3.29.38,0,.5-.52.79-.67,3.15-1.5.06-6.16-1.47-7.15a8.15,8.15,0,0,0-2.27-1,7.77,7.77,0,0,0-2.4-.32,2.31,2.31,0,0,0-.46,0c-.41.06-.81.17-1.23.19a2,2,0,0,0-1.14.26s0,0,0,0C122.69,1,123.7,1.18,124.34,2Z"/><path class="cls-1" d="M135.19,8.26c.1.3-1.69,2.09-1.5,2.9.09.39.7.73,1.07.88a2.32,2.32,0,0,0,2-.06,7.38,7.38,0,0,0,2.49-3.06,13.17,13.17,0,0,1,2.51-3.79l.59-.32.15,0c-.38-.53-3.12-1-4.15-1l-1.69.2a5.47,5.47,0,0,0-4.09,4,2.62,2.62,0,0,0,.26,2C133.05,9.69,134.73,7.88,135.19,8.26Z"/><path class="cls-1" d="M119.6,13c2,.5,4.62,2,6.87.49.3-.19.75-.43.84-.81s0-.47,0-.7c-.53-.57-1.78-.41-2.47-.84,0-.84,2.27-.45,2.77-.27h0s0,0,0-.05c.08-.18-.65-.8-.76-.9a6.82,6.82,0,0,0-1.23-.9,5.16,5.16,0,0,0-2.24-.67,8.67,8.67,0,0,0-.89,0,5.56,5.56,0,0,0-1.9.26C119,9.24,116.76,11,116.77,13A8.4,8.4,0,0,1,119.6,13Z"/><path class="cls-1" d="M141.1,20.34c-2.68-2.52-2.36-7.53-7.45-7.69l-.89.16c.08.35,2.09,2,1.51,2.69-.46.18-2.2-1.28-2.43-1.57h0a3.34,3.34,0,0,0-.53,2.13c0,3.44,3.81,4.9,7.55,4.51l2.26-.2Z"/><path class="cls-1" d="M130.05,14.29c-.88-.12-2,1.49-2.35,2.06h-.22c-.55-.73.34-1.86.75-2.46h-.55a2,2,0,0,0-.82.15,5.68,5.68,0,0,0-1.23.78A5,5,0,0,0,124.44,17h0l-.38.18-.07,0c-.08,0-.62.44-.7.47a33.09,33.09,0,0,0-4.13,3.24c-.55.51-1,1.26-1.56,1.71-.38.28-.94,1-1.29,1.3-1,.84-1.69,1.91-2.62,2.74-.08.07-2.26,2.73-2.32,2.82s-.19.34-.29.5a1.62,1.62,0,0,1-.32.32c-.13.12-.23.26-.36.37l-.23.27a2.63,2.63,0,0,0-1.15.52.74.74,0,0,0-.33.52,5.31,5.31,0,0,1-2.62.82c-1.7-.08-.85-3.09-1-4.25s-.77-2.24-3.24-1.62-7,3.7-7,3.7,1.7-2.85,2.24-3.94.92-1.93-.54-2.31-5.56,2.55-5.56,2.55,1.16-3.25,2.16-5.8.08-4-3.63-2.55A61.55,61.55,0,0,0,80.09,24s4.18-7.26,4.87-8.73,3.86-6.94.77-9.73-10.58.54-10.58.54S69.44,8.16,52.83,20.9,18.93,54,18.93,54C11.13,63.07,1.63,76.89.32,81.76s1.85,2,1.85,2,.31-.31-.46-.39-.31-1.31-.31-1.31A136.12,136.12,0,0,1,22.1,52.18c20.23-22,29.42-28.5,29.42-28.5S54.22,21.06,67.05,12,85.12,6.69,85.12,6.69C88.42,9,78.4,25.3,78.4,25.3c-1.24.85-14.75,13.06-17.15,20.16s1.6,2.79,1.6,2.79c7.33-6,16.32-22.17,16.32-22.17C81.57,23.91,88,20.9,89.67,20s2.22-.13,2,1.26-3.84,9.09-3.84,9.09c-1.29,1.34-8.88,9-9.57,12.36s.23,2.16,3.47-1.47A69.55,69.55,0,0,0,88.59,31a41.76,41.76,0,0,1,4.79-4.17c1.47-.92,2.63-1.47,1.16,1.46S88.75,36.19,88.21,37s-2.32,2.7-.85,2.62,4.24-4.4,5.87-6,6.25-4.55,9.11-5-.41,4.34,2.86,5.17c1.6.41,3-.66,3.85-1.56l.19,0a.87.87,0,0,1,.32,0c.16.05.22.19.41.19a1.23,1.23,0,0,0,.44-.19,1.36,1.36,0,0,0,.55-.75,0,0,0,0,0,0,0,.09.09,0,0,0,.07,0s.06-.09.09-.13l.24-.39c.15-.24.35-.46.5-.7s.44-.7.67-1c0-.08,2.23-2.73,2.3-2.79.7-.62,1.27-1.38,2-2S118,23,118.65,22.51,120,21,120.79,20.45l2.67-2c.23-.17.45-.36.7-.52a7.22,7.22,0,0,0,1.51,6.85h.11c.2-1.66,1.63-2.34,2.63-3.21A7.31,7.31,0,0,0,130.05,14.29ZM68,40.42c-1.08,1.49-2.14,3.07-3.36,4.47-.37.42-2.4,2.13-2.1.5a9.36,9.36,0,0,1,2.25-4C67.53,37.94,75.07,30,75.71,29.15,73.17,32.94,70.64,36.72,68,40.42Z"/></g></g></svg>