<svg xmlns="http://www.w3.org/2000/svg" viewBox="0 0 698 28.01"><defs><style>.cls-1{fill:none;stroke:#fff;stroke-linecap:round;stroke-linejoin:round;stroke-width:8px;}</style></defs><g id="Layer_2" data-name="Layer 2"><g id="レイヤー_1" data-name="レイヤー 1"><polyline class="cls-1" points="4 4.42 6.12 4 8.24 4.32 10.37 4.34 12.49 4.38 14.61 4.52 16.73 4.59 18.85 4.04 20.97 4.58 23.09 4.59 25.22 4.31 27.34 4.32 29.46 4.24 31.58 4.01 33.7 4.32 35.82 4.32 37.95 4.4 40.07 4.18 42.19 4.2 44.32 4.14 46.44 4.38 48.56 4.18 50.69 4.64 52.81 4.05 54.94 4.64 57.06 4.68 59.18 4.49 61.3 4.17 63.42 4.51 65.55 4.46 67.67 4.63 69.79 4.38 71.91 4.56 74.03 4.43 76.16 4.48 78.28 4.11 80.4 4.11 82.53 4.05 84.65 4.48 86.78 4.65 88.9 4.41 91.02 4.47 93.15 4.68 95.27 4.44 97.39 4.53 99.52 4.45 101.64 4.42 103.76 4.68 105.88 4.45 108.01 4.1 110.13 4.3 112.25 4.64 114.38 4.14 116.5 4.09 118.63 4.3 120.75 4.52 122.87 4.49 125 4.14 127.12 4.2 129.24 4.47 131.37 4.49 133.49 4.25 135.61 4.31 137.74 4.39 139.86 4.12 141.99 4.43 144.11 4.19 146.23 4.08 148.35 4.47 150.48 4.13 152.6 4.44 154.72 4.36 156.84 4.17 158.95 4.15 161.07 4.42 163.19 4.46 165.31 4.31 167.43 4.52 169.55 4.33 171.67 4.09 173.79 4.66 175.92 4.65 178.04 4.58 180.17 4.58 182.29 4.41 184.42 4.13 186.54 4.61 188.66 4.39 190.78 4.09 192.9 4.12 195.03 4.47 197.15 4.4 199.27 4.24 201.39 4.43 203.51 4.52 205.64 4.05 207.76 4.05 209.89 4.33 212.02 4.34 214.14 4.68 216.26 4.58 218.39 4.44 220.51 4.47 222.63 4.62 224.76 4.17 226.88 4.49 229.01 4.64 231.13 4.26 233.26 4.07 235.38 4.02 237.51 4.16 239.63 4.41 241.76 4.58 243.88 4.31 246.01 4.13 248.14 4.49 250.26 4.09 252.39 4.68 254.51 4.25 256.64 4.4 258.77 4.1 260.89 4.66 263.02 4.22 265.15 4.3 267.28 4.43 269.4 4.46 271.53 4.41 273.66 4.13 275.78 4.56 277.91 4.2 280.04 4.25 282.16 4.49 284.29 4.55 286.41 4.02 288.54 4.69 290.66 4.05 292.79 4.03 294.92 4 297.04 4.17 299.17 4.63 301.3 4.62 303.43 4.16 305.56 4.14 307.69 4.64 309.82 4.41 311.95 4.03 314.08 4.56 316.2 4.46 318.33 4.49 320.46 4.14 322.6 4.13 324.73 4.45 326.86 4.46 329.08 4.15 330.58 5.83 332.27 7.22 333.42 9.15 335 10.63 336.47 12.23 338.03 13.75 339.65 15.2 341.19 16.74 342.79 18.22 344.33 19.75 346.07 21.1 347.66 22.59 349 24.01 350.69 22.96 351.87 21.07 353.63 19.75 355.2 18.26 356.82 16.81 358.19 15.1 359.61 13.45 361.06 11.82 362.84 10.52 364.38 8.98 366 7.52 367.61 6.04 368.91 4.13 371.12 4.51 373.25 4.42 375.37 4.6 377.49 4.37 379.61 4.42 381.73 4.08 383.85 4.55 385.97 4.49 388.1 4.04 390.22 4.3 392.34 4.68 394.46 4.67 396.58 4.03 398.7 4.01 400.82 4.43 402.95 4.16 405.07 4.07 407.19 4.41 409.32 4.24 411.44 4.54 413.56 4.5 415.69 4.26 417.81 4.53 419.94 4.59 422.06 4.59 424.18 4.65 426.3 4.32 428.42 4.4 430.55 4.59 432.67 4.64 434.79 4.69 436.91 4.02 439.03 4.02 441.16 4.01 443.28 4.09 445.4 4.54 447.53 4.58 449.65 4.39 451.78 4.09 453.9 4.57 456.02 4.29 458.15 4.05 460.27 4.1 462.39 4.08 464.51 4.01 466.64 4.04 468.76 4.45 470.88 4.45 473.01 4.11 475.13 4.32 477.25 4.59 479.38 4.33 481.5 4.22 483.63 4.09 485.75 4.12 487.87 4.2 490 4.48 492.12 4.32 494.24 4.4 496.37 4.16 498.49 4.58 500.61 4.65 502.74 4.61 504.86 4.27 506.99 4.62 509.11 4.29 511.23 4.66 513.36 4.57 515.48 4.14 517.6 4.68 519.72 4.5 521.84 4.2 523.95 4.56 526.07 4.22 528.19 4.06 530.31 4.56 532.43 4.59 534.55 4.2 536.67 4.36 538.79 4.11 540.92 4.25 543.04 4.49 545.17 4.41 547.29 4.16 549.42 4.14 551.54 4.01 553.66 4.01 555.78 4.44 557.9 4 560.02 4.63 562.15 4.42 564.27 4.25 566.39 4.45 568.51 4.32 570.64 4.5 572.76 4.54 574.89 4.09 577.02 4.58 579.14 4.35 581.26 4.62 583.39 4.35 585.51 4.26 587.63 4.43 589.76 4.22 591.88 4.33 594.01 4.6 596.13 4.43 598.26 4.28 600.38 4.51 602.51 4.52 604.63 4.59 606.76 4.3 608.88 4.17 611.01 4.27 613.14 4.59 615.26 4.15 617.39 4.46 619.51 4.61 621.64 4.15 623.77 4.54 625.89 4.19 628.02 4.38 630.15 4.01 632.28 4.53 634.4 4.31 636.53 4.58 638.66 4.31 640.78 4 642.91 4.68 645.04 4.28 647.16 4.12 649.29 4.09 651.41 4.35 653.54 4.25 655.66 4.4 657.79 4.31 659.92 4.12 662.04 4.33 664.17 4.6 666.3 4.05 668.43 4.55 670.56 4.06 672.69 4.68 674.82 4.33 676.95 4.54 679.08 4.49 681.2 4.1 683.33 4.33 685.46 4.66 687.6 4.08 689.73 4.27 691.86 4.66 694 4.35"/></g></g></svg>