<svg xmlns="http://www.w3.org/2000/svg" viewBox="0 0 100 75.48"><defs><style>.cls-1{fill:#ffdc64;}</style></defs><g id="Layer_2" data-name="Layer 2"><g id="レイヤー_1" data-name="レイヤー 1"><path class="cls-1" d="M99.81,24.29C98.45,9.49,85.6,0,73,0A23,23,0,0,0,50,22.85h0A23,23,0,0,0,27,0C14.4,0,1.55,9.49.19,24.29.06,25.69,0,27,0,28.33c-.12,29.75,33,30.25,48.25,46,.61.63.51.58.51.58a1.68,1.68,0,0,0,1.24.56,1.63,1.63,0,0,0,1.24-.57s-.1.06.51-.57C67,58.58,100.12,58.08,100,28.33,100,27,99.94,25.69,99.81,24.29Z"/></g></g></svg>