<svg xmlns="http://www.w3.org/2000/svg" viewBox="0 0 100 100"><defs><style>.cls-1{fill:#ffdc64;}.cls-2{fill:#fff;}</style></defs><g id="Layer_2" data-name="Layer 2"><g id="レイヤー_1" data-name="レイヤー 1"><path class="cls-1" d="M85.35,14.64A50,50,0,1,0,100,50,49.86,49.86,0,0,0,85.35,14.64ZM78,22A39.62,39.62,0,1,1,50,10.37,39.47,39.47,0,0,1,78,22Z"/><path class="cls-2" d="M47.41,64.32a5,5,0,1,0,5,5A5,5,0,0,0,47.41,64.32Z"/><path class="cls-2" d="M36,34l3.42,2.74a1.87,1.87,0,0,0,2.37-.05,4.63,4.63,0,0,1,1.73-1.51,11,11,0,0,1,5.61-1.36,8.48,8.48,0,0,1,5.52,2,6.23,6.23,0,0,1,1.46,1.78A3.2,3.2,0,0,1,56.54,39a6.18,6.18,0,0,1-.63,2.9,5.87,5.87,0,0,1-1.12,1.5,12.6,12.6,0,0,1-2.72,2c-1.07.6-2.23,1.13-3.39,1.77a10.53,10.53,0,0,0-3.78,3.39,9.11,9.11,0,0,0-1.19,2.63,11.17,11.17,0,0,0-.37,3v2a1.84,1.84,0,0,0,1.84,1.85h4.46a1.84,1.84,0,0,0,1.84-1.85v-2a3.1,3.1,0,0,1,.09-.8.92.92,0,0,1,.24-.45,3.07,3.07,0,0,1,.82-.6c.67-.38,1.75-.88,3-1.54a19.82,19.82,0,0,0,5.9-4.58,13.55,13.55,0,0,0,2.32-4A14.63,14.63,0,0,0,64.68,39a11.38,11.38,0,0,0-1.34-5.26,14.86,14.86,0,0,0-5.65-5.81,16.84,16.84,0,0,0-8.55-2.31,19.25,19.25,0,0,0-9.65,2.43A10.68,10.68,0,0,0,36,31.12a1.83,1.83,0,0,0-.64,1.43A1.85,1.85,0,0,0,36,34Z"/></g></g></svg>