<svg xmlns="http://www.w3.org/2000/svg" viewBox="0 0 98.54 100"><defs><style>.cls-1{fill:#fff;}.cls-2{fill:#ffdc64;}</style></defs><g id="Layer_2" data-name="Layer 2"><g id="レイヤー_1" data-name="レイヤー 1"><path class="cls-1" d="M41.26,49.12V78.7H31c0,4.54,3.41,8.22,7.62,8.22H93.22c.07,0-.06,0,0,0V49.12A2.19,2.19,0,0,0,91,46.93H43.45A2.19,2.19,0,0,0,41.26,49.12ZM74,52.69c0,2.65-2.36,5.3-5,4.72C69,57.41,69.32,52.69,74,52.69Zm-9.1,6c1.85-.59,3.88.2,4.23,1.29.37-1.08,2.42-1.83,4.25-1.19A5.27,5.27,0,0,1,75.34,60a5.22,5.22,0,0,0,.25,9.58,8,8,0,0,1-14.5-4.81A5.78,5.78,0,0,1,64.93,58.73Z"/><path class="cls-2" d="M38.91,29.7A14.85,14.85,0,1,0,24.06,14.85,14.85,14.85,0,0,0,38.91,29.7Z"/><rect class="cls-2" y="90.94" width="98.54" height="9.06"/><path class="cls-2" d="M19.56,77.82l.24,9.1H30.92a11.49,11.49,0,0,1-3.41-8.22v-3H37.74V49.12A5.21,5.21,0,0,1,43,43.91H69c-8.12-6.81-21.18-7.3-28.38-7.3-10.54,0-29.73,1-31.47,21.42L6.64,86.92H17.45Z"/></g></g></svg>