<svg xmlns="http://www.w3.org/2000/svg" viewBox="0 0 333.94 3109.95"><defs><style>.cls-1{fill:none;stroke:#fff;stroke-linecap:round;stroke-linejoin:round;stroke-width:8px;}</style></defs><g id="Layer_2" data-name="Layer 2"><g id="レイヤー_2" data-name="レイヤー 2"><polyline class="cls-1" points="102.91 4 101.42 5.49 99.8 6.8 98.14 8.08 96.43 9.28 94.8 10.58 93.31 12.04 91.61 13.26 89.96 14.55 88.54 16.1 86.77 17.25 85.13 18.57 83.68 20.08 82.37 21.74 80.49 22.81 79.09 24.38 77.94 26.18 76.45 27.64 74.89 29.07 73.55 30.68 72.53 32.53 71.39 34.28 70.37 36.1 69.28 37.91 68.55 39.92 68.64 42.07 69.33 44.09 70.72 45.74 72.53 46.87 74.55 47.55 76.67 47.7 78.61 46.92 80.34 45.91 81.96 44.6 82.63 42.62 83.64 40.73 83.14 38.64 83.19 36.5 81.83 34.85 80.73 33.12 79.12 31.82 77.5 30.46 75.44 29.98 73.46 29.34 71.41 28.96 69.36 28.41 67.19 28.51 65.12 29.05 63.06 29.59 61.23 30.73 59.16 31.3 57.39 32.47 55.67 33.71 53.6 34.39 51.84 35.58 50.2 36.92 48.38 38.02 46.89 39.56 45.06 40.66 43.7 42.33 41.84 43.41 40.5 45.09 38.9 46.47 37.22 47.77 35.83 49.37 34.28 50.81 32.93 52.44 31.39 53.9 29.93 55.43 28.52 57.01 27.32 58.76 25.87 60.3 24.49 61.91 23.06 63.49 22.08 65.39 20.58 66.93 19.76 68.93 18.37 70.55 17.19 72.31 16.3 74.24 15.1 75.99 14.12 77.87 13.14 79.74 12.12 81.6 11.54 83.67 10.63 85.57 9.37 87.34 9.13 89.52 8.37 91.48 7.71 93.49 6.95 95.46 5.99 97.39 5.84 99.54 5.16 101.56 4.67 103.63 4.37 105.73 4.36 107.86 4.17 109.97 4.17 112.09 4 114.2 4.21 116.31 4.07 118.44 4.65 120.51 4.74 122.63 4.99 124.73 5.45 126.8 5.86 128.88 6.91 130.77 7.56 132.77 8.27 134.76 8.85 136.8 9.78 138.71 10.62 140.66 11.85 142.4 13.07 144.13 14.09 145.99 15.28 147.74 16.62 149.38 18.07 150.93 19.18 152.76 20.82 154.13 22.4 155.55 23.86 157.07 25.45 158.46 26.91 160 28.5 161.39 29.99 162.91 31.72 164.14 33.46 165.36 35.09 166.72 36.87 167.88 38.84 168.73 40.7 169.74 42.41 171 44.33 171.91 46.03 173.2 48.01 173.99 49.8 175.13 51.59 176.27 53.55 177.09 55.5 177.93 57.4 178.85 59.18 180.02 61.31 180.51 63.22 181.43 65.09 182.41 66.91 183.51 68.66 184.74 70.57 185.66 72.5 186.53 74.31 187.65 76.21 188.59 78.16 189.43 80.07 190.34 82 191.22 83.79 192.35 85.85 192.97 87.67 194.06 89.48 195.17 91.32 196.22 93.2 197.19 95.18 197.96 96.95 199.15 98.84 200.1 100.69 201.13 102.66 201.93 104.5 202.97 106.32 204.07 108.2 205.05 110.08 206.03 111.97 206.99 114.04 207.61 115.82 208.77 117.6 209.92 119.6 210.67 121.39 211.8 123.17 212.97 124.95 214.12 126.86 215.02 128.76 215.97 130.78 216.7 132.55 217.87 134.43 218.86 136.09 220.23 137.94 221.27 140.03 221.88 141.76 223.13 143.65 224.1 145.53 225.09 147.27 226.31 149.02 227.54 150.99 228.37 152.72 229.62 154.7 230.44 156.65 231.31 158.24 232.8 160.17 233.71 161.96 234.85 163.74 236.03 165.64 236.98 167.42 238.14 169.3 239.14 171.19 240.13 172.82 241.52 174.57 242.74 176.47 243.71 178.45 244.55 180.03 246.03 182.04 246.81 183.86 247.91 185.34 249.55 187.11 250.71 189.16 251.45 190.9 252.67 192.54 254.03 194.46 254.98 196.03 256.45 197.76 257.67 199.56 258.79 201.25 260.08 202.89 261.42 204.81 262.4 206.4 263.81 208.25 264.89 209.7 266.48 211.34 267.83 213.26 268.82 214.76 270.34 216.49 271.59 217.69 273.42 219.39 274.71 220.94 276.16 222.46 277.64 223.59 279.46 225.39 280.73 226.21 282.76 227.59 284.39 228.69 286.23 228.76 288.4 229.22 290.43 229.16 292.5 229.29 294.61 228.5 296.56 227.38 298.29 226.13 299.94 224.58 301.34 222.69 302.24 220.98 303.52 218.84 303.79 216.97 304.81 214.91 305.19 212.85 305.54 210.85 306.16 208.77 306.44 206.74 306.92 204.67 307.28 202.72 308.12 200.74 308.79 198.74 309.36 196.63 309.64 194.84 310.79 192.72 311.21 191.11 312.61 189.4 313.78 187.71 315.04 186.56 316.8 185.45 318.55 184.44 320.39 183.75 322.37 183.87 324.51 183.22 326.55 183.73 328.63 183.76 330.71 183.64 332.84 184.26 334.86 185.1 336.81 185.6 338.83 185.79 340.97 186.4 342.99 186.7 345.07 187.36 347.1 187.13 349.25 187.26 351.35 187.94 353.41 187.95 355.53 187.87 357.64 187.67 359.74 187.63 361.85 187.69 363.96 187.56 366.06 187.55 368.18 187 370.25 186.74 372.34 186.82 374.47 186.37 376.54 185.89 378.6 185.85 380.73 185.68 382.83 185.34 384.91 184.76 386.95 184.79 389.09 184.5 391.18 184.1 393.25 183.38 395.27 183.17 397.37 182.66 399.43 182.41 401.52 182.66 403.68 182.33 405.76 181.84 407.83 181.69 409.94 181.42 412.03 181.04 414.11 180.38 416.14 180.26 418.26 179.88 420.34 179.55 422.42 179.2 424.5 179.28 426.65 178.79 428.71 178.14 430.74 178.04 432.86 177.49 434.91 177.54 437.06 177.02 439.11 176.75 441.2 176.04 443.23 176.1 445.38 175.82 447.47 175.06 449.48 174.95 451.6 174.86 453.73 174.21 455.76 173.78 457.82 173.43 459.9 173.04 461.98 172.94 464.1 172.23 466.12 171.78 468.18 171.71 470.32 171.5 472.42 170.93 474.46 170.31 476.5 170.41 478.66 169.63 480.66 169.48 482.78 169.34 484.9 168.76 486.94 168.17 488.98 168.1 491.11 167.51 493.15 167.17 495.23 166.87 497.32 166.38 499.37 166.02 501.45 165.62 503.53 165.43 505.63 165.19 507.74 164.55 509.78 164.56 511.94 163.8 513.97 163.76 516.12 163.23 518.2 163.17 520.34 162.36 522.37 162.26 524.51 162.15 526.65 161.75 528.74 161.39 530.84 160.94 532.93 160.99 535.09 160.49 537.17 160.01 539.25 159.92 541.39 159.62 543.5 159.3 545.61 159 547.71 159.08 549.87 158.47 551.93 158.52 554.08 158.22 556.19 157.52 558.25 157.5 560.39 157.52 562.54 157.24 564.65 156.46 566.7 156.35 568.83 155.99 570.93 155.72 573.04 155.77 575.19 155.39 577.29 155.48 579.45 154.97 581.53 154.68 583.65 154.47 585.77 154.26 587.89 154.07 590.02 153.81 592.14 153.19 594.22 153.38 596.39 153 598.49 152.85 600.63 152.53 602.74 152.24 604.86 151.93 606.97 151.63 609.09 151.35 611.2 150.96 613.31 151.12 615.48 150.81 617.59 150.35 619.69 150.18 621.82 149.79 623.92 149.82 626.07 149.22 628.14 149.44 630.32 148.96 632.4 148.46 634.49 148.11 636.59 147.84 638.71 147.49 640.81 147.77 643 147.27 645.08 146.97 647.19 146.81 649.32 146.66 651.45 146.15 653.53 145.97 655.65 145.39 657.72 144.82 659.78 144.97 661.96 144.39 663.98 144.13 666.06 143.52 668.08 143.44 670.19 143.23 672.28 142.52 674.27 142.26 676.35 141.85 678.4 141.43 680.44 141.18 682.52 140.54 684.53 140.23 686.59 139.59 688.59 139.17 690.64 139.17 692.76 138.35 694.74 138.21 696.83 137.7 698.86 137.92 701 137.35 703.03 136.89 705.08 137.26 707.22 136.97 709.3 136.45 711.34 136.01 713.39 136.03 715.49 135.94 717.58 135.34 719.61 135.1 721.69 134.71 723.74 134.71 725.84 134.32 727.89 134 729.95 133.73 732.02 133.73 734.11 133.42 736.18 133.35 738.26 133.18 740.34 133.35 742.43 133.07 744.52 133.49 746.59 133.31 748.69 133.79 750.74 134.01 752.82 134.62 754.82 135.15 756.83 135.51 758.9 136.21 760.87 137.31 762.67 137.84 764.73 138.61 766.69 139.92 768.38 141.14 770.09 141.85 772.12 143.15 773.78 144.74 775.21 146 776.88 147.11 778.7 148.75 780.04 149.97 781.79 151.61 783.11 153.12 784.57 154.76 785.89 156.22 787.4 157.98 788.58 159.59 789.92 161.2 791.26 162.87 792.52 164.51 793.83 165.86 795.5 167.73 796.53 169.18 798.08 170.69 799.54 172.57 800.58 173.79 802.37 175.55 803.55 177.12 804.95 178.48 806.55 179.85 808.14 181.32 809.64 183.04 810.95 184.11 812.84 185.87 814.12 186.99 815.97 188.81 817.18 189.9 819.07 191.34 820.64 192.9 822.09 194.44 823.56 195.97 825.04 197.64 826.38 198.81 828.21 200.28 829.75 201.74 831.29 203.59 832.45 204.94 834.11 206.59 835.46 208.12 836.94 209.48 838.58 210.91 840.16 212.52 841.55 214.06 843.01 215.58 844.5 217.26 845.82 218.58 847.52 220.33 848.76 221.56 850.55 223.05 852.07 224.64 853.49 226.28 854.86 227.75 856.39 229.46 857.68 230.91 859.24 232.51 860.64 234.23 861.92 235.72 863.44 237.04 865.13 238.44 866.75 240.27 867.9 241.9 869.28 243.17 871.02 244.85 872.34 246.48 873.72 247.84 875.37 249.45 876.79 250.63 878.61 252.16 880.16 253.03 882.14 254.1 884.01 254.71 886.08 255.84 887.95 256.38 890.03 256.95 892.11 257.5 894.19 257.67 896.34 257.94 898.47 258.24 900.6 258.7 902.69 259.49 904.71 259.69 906.86 260.21 908.93 260.82 910.99 261.46 913.04 262.28 915.04 263.73 916.69 264.47 918.75 265.76 920.48 267.36 921.93 268.88 923.43 270.51 924.71 272.3 925.77 273.86 927.15 275.6 928.26 277.35 929.39 279.24 930.25 281.04 931.28 282.89 932.22 284.62 933.38 286.55 934.17 288.21 935.49 290.3 935.95 291.93 937.35 293.78 938.3 295.72 939.06 297.72 939.71 299.46 940.89 301.35 941.75 303.15 942.79 305.12 943.49 306.91 944.54 308.82 945.36 310.65 946.34 312.63 947.01 314.52 948.06 316.42 949.11 318.06 950.58 319.76 951.91 321.62 953 323.26 954.4 324.67 956.02 326.15 957.56 326.83 959.52 326.06 961.3 324.12 962.08 321.98 962.01 319.84 962.08 317.66 962.07 315.58 961.41 313.52 960.65 311.31 960.82 309.16 960.82 307 960.87 304.85 961.25 302.91 962.3 301.71 964.1 301.25 966.09 301.77 968.17 303.19 969.85 305.05 970.98 306.91 972.08 308.79 973.09 310.79 973.86 312.52 975.12 314.47 976 316.34 977.03 317.95 978.47 319.88 979.42 321.43 980.9 323.15 982.15 324.88 983.41 326.43 984.88 327.69 986.62 328.91 988.35 329.94 990.2 329.64 992.17 327.98 993.27 325.84 993.52 323.84 992.66 321.8 992.13 319.71 991.57 317.62 991.03 315.48 990.68 313.31 990.49 311.26 989.68 309.09 989.55 306.92 989.57 304.78 989.39 302.63 989.07 300.48 989.4 298.94 990.66 299.73 992.57 301.32 994.05 303.28 994.9 305.04 996.02 306.71 997.3 308.53 998.34 310.22 999.62 312.11 1000.54 314 1001.44 315.82 1002.49 317.55 1003.69 319.53 1004.47 321.06 1005.93 322.55 1007.38 324.18 1008.72 325.3 1010.54 325.48 1012.73 324.54 1014.69 322.97 1016.13 321.04 1016.7 318.97 1016.61 316.94 1015.96 315.18 1014.74 313.12 1014.15 311.36 1012.86 309.2 1012.66 307.13 1012.25 305.04 1012.59 302.86 1012.53 301.02 1013.67 299.14 1014.63 297.28 1015.67 295.46 1016.76 293.66 1017.9 291.96 1019.22 289.93 1019.98 288.26 1021.35 286.41 1022.41 284.47 1023.31 282.61 1024.35 281.02 1025.85 278.88 1026.42 277.34 1028 275.51 1029.1 273.69 1030.21 271.78 1031.16 269.74 1031.89 267.91 1032.99 266.29 1034.43 264.46 1035.53 262.4 1036.24 260.67 1037.51 259.01 1038.89 256.93 1039.57 255.14 1040.75 253.29 1041.81 251.62 1043.18 249.8 1044.28 247.83 1045.12 246 1046.21 244.32 1047.57 242.43 1048.55 240.7 1049.82 238.62 1050.49 236.83 1051.65 234.97 1052.68 233.16 1053.81 231.39 1055.01 229.57 1056.12 227.79 1057.3 225.97 1058.42 224.28 1059.75 222.49 1060.92 220.69 1062.08 218.61 1062.78 217.03 1064.29 215.06 1065.17 213.22 1066.27 211.35 1067.31 209.65 1068.63 207.91 1069.89 206.16 1071.13 204.2 1072.02 202.39 1073.16 200.53 1074.22 198.69 1075.3 197.11 1076.8 195.13 1077.66 193.39 1078.89 191.53 1079.91 189.88 1081.26 188.11 1082.41 186.55 1083.87 184.58 1084.74 182.89 1086.02 181.43 1087.59 179.59 1088.67 177.7 1089.67 176.03 1090.97 174.72 1092.73 173.07 1094.05 171.19 1095.09 169.72 1096.63 168.15 1098.04 166.34 1099.18 164.84 1100.68 163.07 1101.87 161.52 1103.31 160.1 1104.89 158.38 1106.15 156.8 1107.56 155.27 1109.01 153.71 1110.45 152.4 1112.14 150.86 1113.58 149.25 1114.96 147.74 1116.45 146.25 1117.95 145.23 1119.9 143.79 1121.45 142.37 1123.01 140.9 1124.53 139.19 1125.84 137.77 1127.4 136.52 1129.12 135.36 1130.9 133.67 1132.24 132.51 1134.03 131.34 1135.81 129.99 1137.42 128.69 1139.09 127.44 1140.79 126.13 1142.45 124.56 1143.91 123.29 1145.6 122.28 1147.49 120.88 1149.08 119.45 1150.65 118.42 1152.52 117.28 1154.3 116.18 1156.11 114.97 1157.84 113.73 1159.55 112.35 1161.17 111.32 1163.02 110.11 1164.76 109.16 1166.66 107.71 1168.25 106.55 1170.01 105.47 1171.84 104.64 1173.8 103.29 1175.46 102.47 1177.43 101.13 1179.09 100.15 1180.97 99.44 1183 97.99 1184.61 97.11 1186.54 96.34 1188.53 95.05 1190.24 94.33 1192.25 93.48 1194.19 92.11 1195.86 91.12 1197.73 90.49 1199.78 89.42 1201.61 88.69 1203.6 87.66 1205.45 86.56 1207.27 85.72 1209.21 85.03 1211.22 84.16 1213.14 83.39 1215.12 82.53 1217.04 81.32 1218.82 80.84 1220.92 79.48 1222.63 78.83 1224.65 78.15 1226.66 77.17 1228.55 76.48 1230.55 75.54 1232.45 74.72 1234.4 74.32 1236.51 73.15 1238.32 72.58 1240.37 71.6 1242.26 71.09 1244.33 70.43 1246.34 69.57 1248.27 69.03 1250.33 68.22 1252.28 67.3 1254.2 66.74 1256.24 66.19 1258.29 65.32 1260.23 64.64 1262.23 63.92 1264.22 63.52 1266.31 62.99 1268.36 62.27 1270.35 61.36 1272.29 61.12 1274.42 60.24 1276.37 59.51 1278.36 59.3 1280.5 58.37 1282.43 58.09 1284.56 57.35 1286.55 57.1 1288.67 56.09 1290.59 55.72 1292.68 54.94 1294.66 54.63 1296.77 54.37 1298.89 53.25 1300.79 53.08 1302.92 52.71 1305.01 52.23 1307.07 51.5 1309.07 51.09 1311.15 50.48 1313.18 50.08 1315.26 49.78 1317.36 49.12 1319.38 48.43 1321.39 48.46 1323.57 47.58 1325.54 47.56 1327.7 46.59 1329.66 46.47 1331.8 45.86 1333.83 45.49 1335.92 45.43 1338.06 44.83 1340.1 44.14 1342.12 44.27 1344.3 43.72 1346.35 43 1348.37 42.9 1350.5 42.42 1352.57 42.2 1354.67 42.11 1356.81 41.58 1358.86 41.45 1360.98 40.64 1362.99 40.63 1365.13 40.38 1367.23 39.93 1369.31 39.5 1371.38 39.27 1373.48 38.65 1375.53 38.85 1377.7 38.6 1379.8 38.02 1381.85 38.05 1383.99 37.8 1386.09 37.52 1388.18 36.78 1390.22 36.98 1392.38 36.49 1394.45 36.01 1396.52 35.94 1398.64 35.84 1400.76 35.3 1402.83 35.56 1404.98 34.92 1407.04 35.05 1409.18 34.6 1411.26 34.31 1413.35 34.23 1415.46 34.4 1417.6 33.83 1419.67 33.57 1421.77 33.56 1423.89 33.5 1426.01 33.33 1428.11 33.42 1430.23 33.28 1432.34 32.68 1434.41 33.05 1436.55 32.6 1438.64 32.41 1440.75 32.33 1442.86 32.22 1444.97 32.22 1447.08 31.75 1449.17 31.68 1451.29 31.83 1453.41 31.59 1455.51 31.61 1457.63 31.41 1459.74 31.31 1461.86 31.54 1463.98 31.36 1466.09 31.63 1468.21 31.39 1470.32 31.07 1472.42 31.54 1474.54 31 1476.64 31.36 1478.76 31.09 1480.87 30.96 1482.98 31.53 1485.09 31.39 1487.21 31.34 1489.32 31.08 1491.44 31.11 1493.55 31.42 1495.65 31.43 1497.76 31.59 1499.87 31.45 1501.98 31.46 1504.1 31.99 1506.18 31.95 1508.3 32.27 1510.38 31.85 1512.53 32.42 1514.59 32.75 1516.66 32.85 1518.8 34.15 1520.5 35.15 1522.37 37.1 1523.2 38.99 1524.27 41.13 1524.12 43.11 1523.37 45.17 1522.95 46.88 1521.74 48.64 1520.57 49.67 1518.73 50.21 1516.68 49.67 1514.56 47.88 1513.34 46.37 1511.84 44.49 1510.84 42.43 1510.32 40.42 1509.64 38.3 1509.52 36.22 1508.98 34.1 1509.24 32.02 1509.63 29.93 1510.08 28.14 1511.26 26.12 1511.99 24.57 1513.48 22.79 1514.63 21.46 1516.3 19.59 1517.43 18.53 1519.31 17.14 1520.92 16.21 1522.84 15.03 1524.59 13.89 1526.38 12.92 1528.27 12.09 1530.23 11.59 1532.3 10.86 1534.3 10.27 1536.34 9.93 1538.43 9.6 1540.53 9.53 1542.65 9.33 1544.75 9.28 1546.86 8.97 1548.97 8.82 1551.09 9.17 1553.19 9.46 1555.29 9.41 1557.42 10.07 1559.46 10.42 1561.54 10.66 1563.65 11.17 1565.7 12 1567.66 12.27 1569.79 13.13 1571.73 13.59 1573.82 14.34 1575.8 15.43 1577.64 16.49 1579.47 17.41 1581.37 18.21 1583.34 19.09 1585.26 20.35 1586.98 21.14 1588.97 22.25 1590.78 23.63 1592.4 24.79 1594.17 25.92 1595.96 27.03 1597.78 28.32 1599.46 29.64 1601.12 31.08 1602.68 32.36 1604.37 33.69 1606.02 35.22 1607.49 36.56 1609.14 37.96 1610.73 39.84 1611.86 40.95 1613.74 42.54 1615.14 44.35 1616.32 45.56 1618.12 47.15 1619.53 48.75 1620.92 50.67 1621.95 52.19 1623.43 53.7 1624.94 55.24 1626.4 56.97 1627.63 58.64 1628.95 60.14 1630.45 61.63 1631.98 63.53 1633.03 65.05 1634.52 66.42 1636.18 68.2 1637.37 69.7 1638.87 71.31 1640.26 72.78 1641.8 74.28 1643.3 76.2 1644.35 77.55 1646.02 78.95 1647.63 80.52 1649.05 82.08 1650.49 83.98 1651.56 85.51 1653.04 86.8 1654.76 88.55 1656 90.08 1657.48 91.75 1658.8 93.2 1660.36 94.7 1661.87 96.31 1663.26 97.82 1664.76 99.4 1666.18 100.71 1667.89 102.35 1669.26 104.1 1670.51 105.63 1671.99 106.92 1673.72 108.69 1674.94 110.1 1676.55 111.5 1678.16 113.26 1679.4 114.72 1680.95 116.48 1682.19 117.92 1683.76 119.37 1685.32 121.14 1686.54 122.63 1688.07 124 1689.71 125.66 1691.06 127.12 1692.61 128.62 1694.13 130.04 1695.73 131.72 1697.04 133.54 1698.21 134.76 1700.02 136.44 1701.34 137.98 1702.81 139.71 1704.07 141.17 1705.63 142.61 1707.2 144.43 1708.37 145.84 1709.99 147.41 1711.42 148.91 1712.94 150.61 1714.22 152.29 1715.54 153.8 1717.04 155.65 1718.15 157 1719.84 158.78 1721.04 160.17 1722.68 161.87 1723.97 163.55 1725.27 165.05 1726.79 166.97 1727.81 168.66 1729.09 170.26 1730.49 171.76 1732.02 173.49 1733.26 175.21 1734.5 176.72 1736.03 178.5 1737.19 180.24 1738.42 182.02 1739.58 183.57 1741.05 185.29 1742.31 187.24 1743.22 189.06 1744.31 190.87 1745.42 192.33 1747.07 194.4 1747.77 195.93 1749.33 197.87 1750.23 199.74 1751.23 201.68 1752.1 203.43 1753.33 205.43 1754.07 207.31 1755.06 209.24 1755.93 210.96 1757.26 213.07 1757.73 214.88 1758.91 217.01 1759.28 218.9 1760.31 220.96 1760.84 223.01 1761.4 225.01 1762.12 227.12 1762.44 229.25 1762.59 231.33 1763.03 233.43 1763.31 235.55 1763.21 237.65 1763.61 239.75 1763.68 241.84 1763.83 243.96 1763.69 246.05 1763.95 248.17 1763.91 250.25 1764.19 252.33 1764.55 254.44 1764.66 256.48 1765.23 258.59 1765.35 260.58 1766.16 262.67 1766.44 264.76 1766.73 266.69 1767.65 268.88 1767.71 270.78 1768.68 272.63 1769.69 274.62 1770.38 276.5 1771.29 278.34 1772.32 279.96 1773.66 281.63 1774.98 282.56 1776.89 283.54 1778.81 283.16 1780.94 282.45 1782.96 280.9 1784.43 279.23 1785.71 277.29 1786.5 275.54 1787.74 273.55 1788.44 271.42 1788.61 269.39 1789.16 267.27 1789.17 265.21 1789.53 263.11 1789.54 261.02 1789.77 258.9 1789.99 256.77 1789.7 254.62 1789.66 252.47 1789.38 250.32 1789.74 248.18 1789.93 246.03 1789.82 243.91 1790.32 241.77 1790.49 239.64 1790.68 237.46 1790.6 235.34 1790.96 233.29 1791.67 231.12 1791.76 229.03 1792.25 226.99 1792.95 224.94 1793.55 222.78 1793.82 220.86 1794.86 218.82 1795.49 216.87 1796.39 214.93 1797.28 213.02 1798.26 211.35 1799.61 209.55 1800.77 207.97 1802.22 206.57 1803.86 205.36 1805.66 204.72 1807.74 204.48 1809.87 204.07 1812.02 204.46 1814.17 205.51 1816.09 206.37 1818.03 206.98 1820.14 207.76 1822.02 207.88 1824.12 208.32 1826.22 207.88 1828.33 207.9 1830.44 207.99 1832.56 207.71 1834.66 207.87 1836.8 207.29 1838.87 207.49 1841.02 206.94 1843.09 206.74 1845.19 206.45 1847.29 206.47 1849.43 206.14 1851.52 205.76 1853.6 205.43 1855.69 204.88 1857.75 204.69 1859.86 204.59 1861.98 204.41 1864.1 203.52 1866.1 203.49 1868.24 203.16 1870.33 202.54 1872.37 202.76 1874.55 202.41 1876.64 201.94 1878.71 201.5 1880.78 201 1882.84 200.82 1884.96 200.63 1887.08 199.75 1889.07 199.43 1891.16 199.24 1893.27 199.1 1895.39 198.22 1897.37 197.84 1899.45 197.74 1901.58 197.04 1903.6 196.8 1905.7 196.71 1907.84 196.35 1909.92 196.02 1912.01 195.55 1914.07 195.02 1916.12 194.45 1918.16 194.32 1920.29 193.5 1922.28 193.69 1924.47 193.13 1926.52 192.34 1928.52 192.17 1930.64 191.61 1932.68 191.32 1934.78 190.96 1936.87 190.64 1938.96 190.06 1941 189.56 1943.06 189.62 1945.22 189.01 1947.26 188.56 1949.33 187.87 1951.35 187.43 1953.41 187.19 1955.53 186.56 1957.56 186.11 1959.63 185.93 1961.75 185.31 1963.78 184.85 1965.85 184.9 1968.02 184.08 1970.01 183.8 1972.11 183.62 1974.24 183.21 1976.31 182.49 1978.33 182.12 1980.41 181.39 1982.42 181.21 1984.55 180.62 1986.59 180.17 1988.65 180.15 1990.82 179.48 1992.84 179.1 1994.92 178.5 1996.96 177.94 1999 177.69 2001.11 177.17 2003.16 176.84 2005.25 176.53 2007.34 176.17 2009.43 175.34 2011.41 175.2 2013.55 174.74 2015.61 174.18 2017.65 173.93 2019.76 173.33 2021.8 173.01 2023.89 172.58 2025.97 171.66 2027.93 171.57 2030.08 170.81 2032.08 170.66 2034.21 169.96 2036.22 169.46 2038.28 169.13 2040.38 168.77 2042.47 168.37 2044.55 168.19 2046.68 167.5 2048.69 166.72 2050.69 166.59 2052.83 166.1 2054.89 165.38 2056.9 165.37 2059.06 164.98 2061.14 163.99 2063.1 163.97 2065.26 163.54 2067.33 162.78 2069.33 162.38 2071.42 162.13 2073.53 161.65 2075.59 161.16 2077.66 160.76 2079.74 160.26 2081.8 159.78 2083.87 159.23 2085.91 158.42 2087.91 158.38 2090.07 157.87 2092.13 157.5 2094.22 156.82 2096.24 156.53 2098.35 155.59 2100.32 155.12 2102.39 155.06 2104.55 154.57 2106.61 154.09 2108.68 153.57 2110.74 152.93 2112.77 152.66 2114.89 152.3 2116.99 151.82 2119.06 151.37 2121.13 150.78 2123.18 150.28 2125.24 150.02 2127.36 149.11 2129.32 148.9 2131.45 148.06 2133.44 147.88 2135.57 147.55 2137.67 146.69 2139.66 146.47 2141.78 146.21 2143.9 145.23 2145.85 144.97 2147.97 144.37 2150.01 144.12 2152.13 143.71 2154.21 142.99 2156.22 142.43 2158.27 141.84 2160.32 141.66 2162.45 140.86 2164.45 140.65 2166.58 140.03 2168.61 139.38 2170.64 139.03 2172.74 138.55 2174.8 138.35 2176.94 137.55 2178.93 137.3 2181.05 136.68 2183.09 135.97 2185.1 135.48 2187.16 135.01 2189.23 134.47 2191.29 134.1 2193.38 134.05 2195.55 133.08 2197.5 132.78 2199.61 132.11 2201.63 132.08 2203.8 131 2205.73 130.73 2207.85 130.1 2209.88 129.77 2211.98 129.31 2214.05 128.77 2216.11 128.35 2218.19 127.54 2220.17 127.44 2222.33 126.94 2224.39 126.58 2226.49 125.9 2228.51 125.08 2230.49 124.89 2232.63 124.08 2234.61 123.72 2236.71 123.1 2238.74 122.95 2240.89 122.22 2242.89 121.87 2244.99 121.24 2247.02 120.93 2249.12 120.06 2251.09 119.79 2253.21 119.4 2255.3 119.01 2257.38 118.08 2259.34 117.57 2261.39 117.43 2263.54 116.69 2265.54 116.41 2267.65 115.75 2269.67 114.85 2271.63 114.7 2273.78 114.03 2275.79 113.39 2277.82 113.04 2279.91 112.45 2281.95 111.74 2283.95 111.25 2286.02 110.74 2288.07 110.39 2290.17 109.75 2292.19 109.6 2294.34 109.11 2296.41 108.39 2298.42 107.9 2300.48 107.48 2302.57 106.93 2304.62 106.33 2306.65 105.57 2308.64 105.26 2310.75 104.7 2312.79 104.03 2314.8 103.19 2316.77 103.09 2318.94 102.31 2320.92 101.89 2323 101.2 2325.01 100.87 2327.12 100.14 2329.11 99.52 2331.14 99.06 2333.21 98.57 2335.27 97.86 2337.27 97.13 2339.26 96.62 2341.32 96.06 2343.36 95.2 2345.31 94.57 2347.32 93.92 2349.33 93.34 2351.38 92.07 2353.12 91.49 2355.18 90.12 2356.82 89.38 2358.81 88.05 2360.47 86.97 2362.27 86.31 2364.34 84.91 2365.94 83.95 2367.83 82.83 2369.61 81.72 2371.39 80.12 2372.85 79.33 2374.85 78.17 2376.6 76.87 2378.27 75.94 2380.17 74.85 2381.97 73.39 2383.55 72.35 2385.38 71.34 2387.23 70.25 2389.04 69.13 2390.83 68.21 2392.72 67.14 2394.55 66.3 2396.49 65.67 2398.51 64.49 2400.3 63.91 2402.34 63.22 2404.34 62.38 2406.28 62.15 2408.41 61.28 2410.37 60.95 2412.46 60.52 2414.53 60.84 2416.68 60.5 2418.77 60.76 2420.86 60.64 2422.97 60.62 2425.11 61.57 2427.07 62.09 2429.09 62.78 2431.07 63.57 2433.01 64.28 2435 65.41 2436.77 66.34 2438.68 67.56 2440.4 69.14 2441.83 70.33 2443.6 71.67 2445.24 73.21 2446.69 74.9 2447.96 76.51 2449.33 78.44 2450.28 79.97 2451.74 81.83 2452.75 83.46 2454.11 85.24 2455.24 87.08 2456.28 89.09 2457 90.93 2458.02 92.79 2459.01 94.67 2459.96 96.41 2461.2 98.16 2462.37 99.95 2463.53 101.5 2465 102.86 2466.63 104.02 2468.42 105.36 2470.05 106.63 2471.74 107.78 2473.51 108.96 2475.28 109.83 2477.21 111.2 2478.88 112.07 2480.82 112.96 2482.73 113.99 2484.59 114.71 2486.59 115.72 2488.46 116.29 2490.52 117.31 2492.39 117.98 2494.4 118.62 2496.42 119.3 2498.43 119.93 2500.45 120.74 2502.41 121.65 2504.34 122.11 2506.41 122.54 2508.5 123.29 2510.48 124.31 2512.39 124.93 2514.41 125.41 2516.48 125.56 2518.64 126.67 2520.53 127.02 2522.63 127.52 2524.69 127.83 2526.8 128.43 2528.83 129.24 2530.81 129.43 2532.95 130 2534.99 130.71 2537 130.97 2539.11 131.86 2541.08 132.26 2543.16 132.48 2545.29 132.86 2547.37 133.5 2549.4 133.8 2551.49 134.63 2553.47 135.06 2555.55 135.07 2557.7 135.54 2559.76 136.3 2561.77 136.33 2563.92 137.04 2565.93 137.58 2567.98 137.6 2570.13 138.2 2572.17 138.35 2574.29 138.9 2576.34 139.6 2578.36 139.6 2580.51 140.09 2582.57 140.48 2584.65 141 2586.71 141.31 2588.8 141.49 2590.92 141.82 2593.01 142.33 2595.07 142.51 2597.18 142.95 2599.26 143.47 2601.32 143.37 2603.47 144.04 2605.51 144.16 2607.64 144.33 2609.75 145.06 2611.78 144.94 2613.94 145.37 2616.01 145.81 2618.09 146.39 2620.14 146.69 2622.24 146.57 2624.4 147.3 2626.43 147.13 2628.6 147.54 2630.68 148.23 2632.72 148.59 2634.81 148.65 2636.94 148.87 2639.04 149.12 2641.15 149.44 2643.24 149.58 2645.36 150.18 2647.42 150.36 2649.53 150.68 2651.63 150.58 2653.78 151.03 2655.85 151.34 2657.95 151.42 2660.08 151.6 2662.18 152.12 2664.25 152.21 2666.37 152.39 2668.48 152.72 2670.57 153.22 2672.64 153.51 2674.74 153.61 2676.86 153.68 2678.99 154.44 2681.03 154.71 2683.13 154.73 2685.26 155.2 2687.34 154.92 2689.5 155.19 2691.6 155.46 2693.7 155.94 2695.78 155.95 2697.91 156.31 2700 156.4 2702.12 156.81 2704.21 157.06 2706.31 156.97 2708.45 157.66 2710.51 157.86 2712.62 157.63 2714.78 158.12 2716.86 158.09 2718.99 158.34 2721.1 158.87 2723.18 159.14 2725.28 159.25 2727.4 159.15 2729.54 159.37 2731.65 159.88 2733.73 159.73 2735.88 159.89 2737.99 160.15 2740.1 160.49 2742.2 160.55 2744.32 160.85 2746.43 161.42 2748.5 161.6 2750.62 161.76 2752.74 162.01 2754.85 161.88 2756.99 162.14 2759.1 162.22 2761.22 162.76 2763.31 162.54 2765.46 162.73 2767.58 163.18 2769.67 163.07 2771.81 163.74 2773.89 163.37 2776.05 164.1 2778.12 163.99 2780.26 164.1 2782.38 164.56 2784.47 164.26 2786.62 164.88 2788.7 164.91 2790.83 164.95 2792.96 164.99 2795.09 165.47 2797.18 165.23 2799.32 165.85 2801.41 165.93 2803.53 165.96 2805.66 166 2807.78 166.41 2809.88 166.59 2812 166.4 2814.14 167.15 2816.22 167.28 2818.34 167.06 2820.48 167.25 2822.6 167.59 2824.7 167.69 2826.82 167.92 2828.94 168.09 2831.05 167.82 2833.2 168.41 2835.29 168.38 2837.42 168.65 2839.53 168.57 2841.67 168.96 2843.77 168.74 2845.91 169.37 2848 169.49 2850.12 169.2 2852.27 169.31 2854.39 169.95 2856.47 169.82 2858.61 169.98 2860.73 170.3 2862.84 170.57 2864.95 170.45 2867.08 170.29 2869.22 170.74 2871.32 170.56 2873.46 170.81 2875.57 171.37 2877.66 170.96 2879.82 171.53 2881.91 171.5 2884.04 171.47 2886.17 172.02 2888.26 171.9 2890.39 172.21 2892.5 172.2 2894.63 171.94 2896.77 172.08 2898.89 172.79 2900.97 172.81 2903.1 172.71 2905.23 172.93 2907.34 173.25 2909.45 173.3 2911.57 173.16 2913.71 173.23 2915.83 173.62 2917.93 173.27 2920.07 173.43 2922.19 173.92 2924.29 173.91 2926.41 173.75 2928.55 174.19 2930.64 174.14 2932.77 174.44 2934.88 174.46 2937 174.6 2939.11 174.63 2941.24 174.89 2943.34 175 2945.46 175.14 2947.57 175.35 2949.69 175.49 2951.8 175.04 2953.94 175.65 2956.03 175.72 2958.15 175.57 2960.28 175.6 2962.4 175.98 2964.5 175.83 2966.63 175.92 2968.74 175.91 2970.86 176.38 2972.97 176.53 2975.08 176.68 2977.19 176.76 2979.31 176.31 2981.45 176.99 2983.54 176.92 2985.67 176.65 2987.8 176.94 2989.91 177.21 2992.01 177.16 2994.14 177.25 2996.25 177.32 2998.37 177.48 3000.48 177.22 3002.61 177.67 3004.72 177.49 3006.85 177.9 3008.95 177.57 3011.08 177.78 3013.19 177.98 3015.3 177.92 3017.42 178.3 3019.52 178.12 3021.65 178.32 3023.76 178.54 3025.86 178.38 3027.98 178.6 3030.18 177.01 3031.55 176 3033.41 174.46 3034.81 173.1 3036.37 171.88 3038.06 170.33 3039.45 169.18 3041.2 167.82 3042.77 166.48 3044.35 165.04 3045.86 163.45 3047.37 165.68 3047.45 167.78 3046.86 169.9 3046.83 172.02 3046.68 174.14 3046.67 176.27 3046.86 178.38 3046.63 180.49 3046.3 182.63 3046.56 184.74 3046.15 186.86 3046.09 189.01 3046.49 190.94 3046.24 189.3 3047.12 187.62 3048.32 185.8 3049.28 183.89 3050.07 181.98 3050.87 180.31 3052.07 178.58 3053.2 176.77 3054.17 175.01 3055.24 172.99 3055.83 171.26 3056.96 169.59 3058.2 167.75 3059.14 166.06 3059.89 168.03 3060.34 170.22 3060.51 172.4 3060.86 174.61 3060.84 176.8 3061.06 179.01 3061.03 181.21 3061.25 183.36 3061.85 185.61 3061.55 187.78 3062.05 189.74 3062.44 189.78 3064.38 189.19 3066.42 188.79 3068.51 188.15 3070.54 188.05 3072.69 187.62 3074.77 186.62 3076.73 186.41 3078.85 185.83 3080.9 185.84 3083.07 185.17 3085.11 184.91 3087.22 184.07 3089.22 184.05 3091.39 183.43 3093.42 183.2 3095.55 182.72 3097.62 182.21 3099.68 181.97 3101.81 181.47 3103.88 180.94 3105.95"/></g></g></svg>