<svg xmlns="http://www.w3.org/2000/svg" viewBox="0 0 918.1 1253.58"><defs><style>.cls-1{fill:none;stroke:#fff;stroke-linecap:round;stroke-linejoin:round;stroke-width:8px;}</style></defs><g id="Layer_2" data-name="Layer 2"><g id="レイヤー_2" data-name="レイヤー 2"><polyline class="cls-1" points="67.53 4 66.99 6.18 65.37 7.66 64.19 9.41 63.01 11.18 61.69 12.85 60.47 14.59 60.23 16.92 58.31 18.24 57.22 20.06 56.58 22.14 55.51 23.97 54.58 25.88 53.89 27.93 52.38 29.51 51.34 31.36 50.2 33.15 49.53 35.2 48.49 37.05 47.6 38.98 46.23 40.65 45.58 42.7 43.86 44.2 43.86 46.58 41.96 48 40.95 49.87 40.32 51.93 39.93 54.09 38.46 55.74 37.64 57.7 36.47 59.5 36.01 61.62 34.84 63.42 34.2 65.46 33.27 67.36 33.04 69.57 32.23 71.52 31.52 73.52 30.01 75.19 28.94 77.05 28.56 79.18 27.71 81.12 26.62 82.98 26.29 85.13 25.43 87.08 24.87 89.13 24.23 91.16 23.12 93.03 22.87 95.18 22.86 97.4 21.91 99.32 20.73 101.2 21.02 103.48 20.57 105.55 19.69 107.52 18.81 109.49 18.37 111.57 18.54 113.78 18.01 115.83 17.15 117.83 16.75 119.92 16.83 122.08 16.42 124.16 16.01 126.25 16.26 128.41 15.52 130.47 15.78 132.61 15.85 134.73 15.08 136.83 15.66 138.96 15.13 141.08 15.35 143.2 15.82 145.29 16.02 147.4 15.78 149.56 16 151.67 16.64 153.72 16.7 155.88 17.53 157.86 18.52 159.78 18.2 162.11 18.96 164.12 19.89 166.05 20.8 167.98 22.06 169.73 23.55 171.32 23.97 173.57 25.52 175.09 27.24 176.42 28.56 178.05 29.56 180.02 31.15 181.41 32.88 182.64 34.23 184.29 35.76 185.76 37.95 186.37 39.65 187.57 41.12 189.16 42.93 190.24 44.51 191.77 46.52 192.5 48.59 193.05 50.59 193.75 52.59 194.54 54.8 194.07 56.85 194.83 58.99 195.09 61.03 194.19 62.98 193.43 64.89 192.7 66.85 192.06 68.87 191.36 70.73 190.28 71.9 188.44 72.93 186.61 74.6 185.19 74.89 183 76.65 181.41 76.46 179.16 77.1 177.14 76.75 175.01 77.8 172.92 76.89 170.86 76.75 168.77 76.44 166.66 75.64 164.68 74.45 162.9 72.77 161.55 71.87 159.48 69.85 158.57 68.21 157.26 66.66 155.75 64.84 154.64 62.53 154.6 61.01 152.7 58.63 153.13 56.62 152.61 54.57 152.24 52.55 151.61 50.52 150.58 48.38 150.51 46.27 151.37 44.18 151.54 41.97 150.93 39.95 151.72 38.07 152.89 35.77 152.61 33.85 153.54 31.88 154.35 30.3 155.89 28.52 156.99 26.45 157.69 24.75 158.98 23.55 160.81 21.85 162.07 20.69 163.86 18.56 164.82 17.36 166.59 15.99 168.23 14.89 170.06 14 172.01 12.99 173.88 12.22 175.86 11.37 177.81 11.03 179.95 10.42 181.96 9.82 183.98 8.25 185.7 8.56 187.98 7.48 189.88 6.92 191.93 6.29 193.96 6.33 196.12 6.28 198.25 6.22 200.37 5.35 202.39 5.11 204.5 4.72 206.59 4.39 208.69 5.08 210.85 4.27 212.94 4.37 215.06 4 217.18 4.39 219.31 4.35 221.43 5.12 223.49 4.52 225.69 4.98 227.78 6.23 229.67 6.33 231.82 6.33 234.06 7.09 236.07 9 237.56 9.92 239.44 10.25 241.65 11.75 243.22 13.02 244.91 13.73 246.98 15.24 248.5 16.15 250.49 17.6 252.05 19.35 253.32 20.47 255.18 21.93 256.74 23.48 258.19 25.01 259.68 27.01 260.6 28.57 262.04 30.04 263.61 31.7 264.94 33.39 266.25 35.82 266.44 37.58 267.61 39.36 268.74 41.09 269.96 42.49 271.75 44.29 272.87 46.31 273.61 48.43 274.13 49.91 275.88 52.02 276.41 54.11 276.96 55.97 277.96 57.9 278.83 59.87 279.6 61.78 280.51 63.43 282.02 65.38 282.86 67.57 283.1 69.39 284.26 71.18 285.5 73.32 285.82 75.37 286.39 77.44 286.9 79.41 287.68 81.36 288.52 83.19 289.7 85.29 290.11 87.25 290.92 89.39 291.16 91.17 292.53 93.16 293.28 95.2 293.84 97.4 293.87 99.25 295.08 101.45 295.09 103.3 296.32 105.38 296.73 107.63 296.56 109.42 298.04 111.55 298.27 113.73 298.28 115.62 299.44 117.82 299.37 119.95 299.58 121.79 300.96 123.84 301.51 126.06 301.31 128.06 302.06 130.22 302.09 132.23 302.8 134.21 303.67 136.31 303.98 138.48 303.97 140.56 304.38 142.68 304.57 144.75 304.99 146.68 306.16 148.91 305.79 150.78 307.3 152.93 307.31 155.07 307.41 157.09 308.13 159.22 308.27 161.25 308.95 163.33 309.38 165.55 308.96 167.5 310.16 169.66 310.1 171.67 310.93 173.84 310.77 175.96 310.94 178.01 311.56 180.17 311.5 182.24 312.01 184.26 312.79 186.41 312.8 188.55 312.81 190.59 313.52 192.69 313.82 194.78 314.24 196.96 313.98 199.09 314.02 201.17 314.47 203.21 315.3 205.41 314.77 207.45 315.57 209.53 316.07 211.73 315.5 213.76 316.44 215.94 316.04 218.02 316.61 220.2 316.16 222.21 317.31 224.37 317.13 226.43 317.82 228.59 317.55 230.76 317.19 232.76 318.6 234.94 318.07 237.08 317.96 239.19 318.09 241.27 318.74 243.4 318.74 245.49 319.18 247.62 319.17 249.76 318.98 251.85 319.53 253.93 320.15 256.12 319.31 258.17 320.35 260.35 319.61 262.39 320.85 264.55 320.34 266.64 320.86 268.76 320.88 270.92 320.28 273.01 320.8 275.1 321.5 277.27 320.55 279.37 320.99 281.45 321.78 283.59 321.3 285.7 321.61 287.82 321.41 289.96 320.94 292.06 321.39 294.19 321.01 296.28 322.03 298.41 321.44 300.54 321.33 302.65 321.62 304.77 321.91 306.89 321.77 309 322.43 311.12 321.44 313.24 321.37 315.36 321.97 317.47 321.33 319.58 321.26 321.69 321.26 323.83 322.18 325.92 321.22 328.05 321.64 330.18 322.04 332.29 321.6 334.38 321.24 336.52 321.73 338.57 320.64 340.73 321.35 342.8 320.53 344.94 320.91 347.06 320.96 349.16 320.61 351.23 319.75 353.39 320.41 355.51 320.44 357.6 319.99 359.7 319.66 361.81 319.56 363.89 318.93 366 318.8 368.17 319.59 370.22 318.46 372.37 318.97 374.49 318.98 376.59 318.77 378.69 318.63 380.79 318.29 382.94 318.91 385.05 318.72 387.13 318.13 389.25 318.31 391.35 318 393.47 318.13 395.59 318.08 397.66 317.38 399.79 317.51 401.86 316.75 403.99 317.03 406.13 317.47 408.18 316.35 410.35 317.27 412.42 316.41 414.56 316.81 416.68 316.94 418.73 315.69 420.86 315.88 422.98 315.92 425.12 316.36 427.23 316.26 429.31 315.61 431.43 315.59 433.53 315.29 435.66 315.59 437.78 315.63 439.85 314.66 441.97 314.86 444.06 314.36 446.24 315.41 448.31 314.52 450.41 314.24 452.56 314.91 454.63 313.84 456.78 314.58 458.86 313.73 461.02 314.67 463.11 314.14 465.19 313.25 467.33 313.79 469.43 313.31 471.57 313.8 473.67 313.4 475.79 313.62 477.91 313.82 479.97 312.65 482.12 313.38 484.24 313.49 486.33 313 488.45 313.18 490.53 312.42 492.67 312.95 494.77 312.51 496.88 312.38 499 312.69 501.08 311.85 503.23 312.45 505.3 311.63 507.44 311.97 509.52 311.24 511.68 312.32 513.76 311.45 515.89 311.67 517.98 311.03 520.1 311.21 522.23 311.49 524.35 311.6 526.47 311.58 528.57 311.04 530.69 311.19 532.81 311.22 534.91 310.91 537.02 310.76 539.12 310.24 541.23 310.16 543.34 309.94 545.47 310.37 547.6 310.65 549.69 310.08 551.8 309.78 553.94 310.29 556.03 309.5 558.14 309.47 560.28 309.8 562.39 309.72 564.49 309.07 566.63 309.73 568.73 309.26 570.87 309.76 572.99 309.75 575.09 309.1 577.19 308.61 579.31 308.54 581.44 308.83 583.57 309.04 585.68 308.48 587.82 309.08 589.94 309.04 592.04 308.43 594.16 308.43 596.29 308.58 598.42 308.87 600.54 308.8 602.66 308.69 604.77 308.38 606.9 308.53 609.03 308.63 611.14 308.24 613.27 308.45 615.39 308.54 617.49 307.34 619.64 308.39 621.75 308.11 623.86 307.27 626 308.21 628.12 308.11 630.24 308.03 632.33 307.01 634.46 307.26 636.59 307.59 638.71 307.78 640.82 307.36 642.94 307.14 645.06 307.41 647.19 307.72 649.29 306.76 651.41 306.96 653.54 307.59 655.65 306.97 657.77 307.17 659.89 307.07 662.01 307.35 664.13 307.51 666.24 306.46 668.37 307.08 670.49 307.53 672.61 307.48 674.73 307.45 676.84 306.42 678.96 306.5 681.08 307.24 683.2 306.65 685.31 306.7 687.43 306.34 689.55 306.61 691.67 306.75 693.79 306.55 695.9 306.67 698.02 306.57 700.14 307.25 702.26 306.97 704.38 306.38 706.49 306.43 708.61 307.18 710.73 306.52 712.84 306.93 714.95 307.36 717.08 306.77 719.2 307.02 721.34 306.43 723.45 306.77 725.57 307.07 727.71 306.45 729.82 306.68 731.93 307.22 734.06 306.95 736.18 307.27 738.29 307.49 740.4 307.95 742.53 307.63 744.67 306.94 746.75 308 748.88 307.75 750.99 307.92 753.13 307.51 755.23 307.94 757.32 308.43 759.47 307.82 761.55 308.45 763.66 308.61 765.75 309 767.88 308.8 770.01 308.69 772.1 309.12 774.27 308.52 776.31 309.49 778.46 309.17 780.5 310.07 782.62 310.06 784.74 310.12 786.79 310.78 789 310.18 791.12 310.32 793.19 310.79 795.2 311.65 797.31 311.82 799.41 312.07 801.35 313.09 803.46 313.28 805.52 313.73 807.59 314.16 809.4 315.42 811.36 316.24 813.61 316.37 815.67 316.98 817.69 317.73 819.1 319.71 821.46 319.77 822.82 321.71 824.88 322.41 826.76 323.41 828.75 324.31 830.18 325.97 832.2 326.88 833.77 328.34 835.41 329.74 836.19 331.96 838.21 333 838.93 335.17 840.84 336.39 841.45 338.55 842.75 340.24 843.83 342.07 844.39 344.16 845.51 345.98 846.73 347.79 847.19 349.89 847.75 351.95 848.79 353.85 848.78 356.08 849.43 358.11 849.98 360.17 851.15 362.04 851.67 364.11 852.86 365.92 853.62 367.89 854.42 369.86 855.89 371.4 856.88 373.33 858.76 374.38 860.05 376.27 862.12 376.99 864.22 377.39 865.99 378.8 868.31 378.23 870.23 379.26 872.23 380.15 874.37 380.07 876.48 380.15 878.6 380.09 880.7 380.33 882.8 379.86 884.91 380.41 887 379.63 889.12 380.03 891.2 379.49 893.32 379.75 895.42 379.62 897.55 380.03 899.63 379.05 901.79 379.08 902.99 380.57 902 382.31 900.02 383.18 898.52 384.66 896.67 385.68 895.13 387.15 893.61 388.7 891.55 389.38 889.7 390.39 887.57 390.87 886 392.42 884.21 393.56 882.12 394.07 880.51 395.62 878.58 396.48 876.62 397.28 874.42 397.5 872.54 398.46 870.95 400.02 868.81 400.43 867.35 401.86 868.85 402.66 870.85 403.05 872.79 404.1 874.96 403.65 877.02 404.14 879.13 404.26 881.21 404.61 883.29 405.04 885.43 404.88 887.48 405.54 889.56 405.91 891.63 406.3 893.69 406.83 895.82 406.83 897.95 406.84 899.89 407.96 901.97 408.26 904.22 407.85 906.28 408.35 907.97 409.94 909.95 410.51 910.59 411.9 909.67 413.71 907.41 413.82 905.5 414.74 903.63 415.86 901.53 416.33 899.74 417.66 897.47 417.64 895.73 419.14 893.51 419.25 891.52 420.05 889.5 420.73 887.7 422.03 885.67 422.68 883.61 423.3 881.6 424.03 879.43 424.4 877.56 425.47 875.8 426.77 874.03 427.98 871.6 428 870.07 429.64 868.35 430.9 866.38 432.02 866.5 434.33 867.08 435.8 868.55 437.12 870.41 438.09 872.37 438.99 874.55 439.08 876.69 438.97 878.79 440.11 880.96 439.99 883.1 439.48 885.18 438.8 887.45 439.55 889.59 439.2 891.63 438.27 893.87 438.49 895.93 437.78 897.91 436.73 900 436.21 902.09 435.64 904.24 435.35 906.41 435.23 908.59 435.27 910.7 434.61 912.48 435.82 914.1 437.24 912.97 439.26 911.2 440.66 910.41 442.68 908.94 444.23 907.89 446.09 906.72 447.86 905.61 449.68 904.07 451.17 902.65 452.77 902.15 455.05 900.56 456.5 899.22 458.16 897.48 459.5 896.15 461.16 895.15 463.07 893.53 464.5 892.18 466.14 891.27 468.12 889.66 469.56 888.31 471.19 887.76 473.46 885.83 474.64 884.76 476.5 883.86 478.49 882.58 480.19 880.81 481.5 879.59 483.25 877.8 484.54 876.91 486.53 875.35 487.99 874.02 489.64 873.38 491.84 871.68 493.2 870.46 494.94 868.9 496.41 867.38 497.91 866.38 499.82 864.93 501.38 863.8 503.2 862.69 505.03 861.51 506.81 859.55 507.98 858.72 510.03 857.37 511.68 855.87 513.21 854.86 515.13 853.3 516.6 852.18 518.43 850.89 520.12 848.81 521.19 848.06 523.31 846.23 524.57 845.39 526.63 843.67 527.98 842.28 529.58 841.15 531.41 839.98 533.19 838.75 534.93 837.87 536.95 836.16 538.3 834.33 539.56 833.53 541.63 832.15 543.26 830.4 544.58 829.8 546.82 828.59 548.57 826.42 549.57 825.81 551.8 824.53 553.5 822.73 554.78 821.52 556.53 820.53 558.46 819.2 560.12 817.83 561.75 816.62 563.5 815.27 565.13 813.94 566.79 812.49 568.35 810.64 569.6 810.17 571.73 809.93 573.78 809.96 575.9 809.35 577.98 809.52 580.12 808.37 582.13 808.17 584.24 808.78 586.43 808.52 588.53 808.27 590.64 807.93 592.73 807.33 594.79 807.5 596.94 807.48 599.08 807.19 601.17 806.96 603.28 806.45 605.35 806.09 607.44 806.24 609.6 805.04 611.57 805.27 613.74 804.22 615.72 804.49 617.91 804.46 620.04 803.35 622.01 803.53 624.18 803.62 626.34 802.25 628.25 802.33 630.41 801.71 632.45 801.78 634.62 801.53 636.73 800.66 638.72 800.09 640.76 799.46 642.8 799.66 645 798.58 646.94 798.7 649.13 797.99 651.14 797.21 653.14 797 655.26 796.55 657.33 796.65 659.53 795.53 661.45 795.51 663.62 794.75 665.62 793.79 667.56 793.26 669.61 792.78 671.67 792.13 673.69 791.81 675.8 792.15 678.09 790.61 679.87 790.42 682.01 789.47 683.94 789.79 686.25 788.03 687.93 787.86 690.09 786.96 692.03 786.64 694.15 786.06 696.19 785.31 698.18 784.78 700.24 783.48 702.03 783.56 704.31 782.84 706.3 782.4 708.4 781.31 710.27 779.93 712.01 779.78 714.23 778.42 715.97 777.9 718.05 776.87 719.91 776.71 722.15 775.46 723.92 774.9 726 773.8 727.83 773.3 729.94 771.71 731.54 771.26 733.67 770.55 735.69 769.82 737.7 768.09 739.2 767.12 741.09 766.8 743.32 765.36 744.96 764.75 747.05 763.42 748.74 761.67 750.17 761.23 752.38 759.83 754.01 758.5 755.67 757.62 757.63 756.33 759.31 754.81 760.84 753.65 762.61 752.41 764.32 751.43 766.24 749.95 767.77 749.23 769.91 747.94 771.61 746.26 772.98 744.93 774.64 743.67 776.38 742.18 777.9 740.6 779.33 738.76 780.49 737.55 782.3 735.94 783.7 734.16 784.89 732.15 785.78 731.07 787.84 729.1 788.75 727.54 790.23 725.64 791.22 724.12 792.79 722.13 793.62 720.25 794.61 718.5 795.85 716.69 796.99 714.66 797.69 712.61 798.31 710.75 799.34 708.85 800.28 706.71 800.64 704.78 801.49 702.84 802.35 701 803.44 698.67 803.28 696.99 804.8 694.71 804.75 692.97 806.11 690.78 806.29 688.81 807.05 687.18 808.77 684.97 808.87 683.12 810 681.15 810.75 679.17 811.52 676.83 811.17 675.1 812.66 673.07 813.28 670.94 813.57 669.07 814.66 667.06 815.33 664.8 815.16 662.81 815.86 660.82 816.6 658.76 817.08 656.66 817.43 654.67 818.15 652.57 818.45 650.57 819.17 648.67 820.24 646.43 820.03 644.49 820.96 642.46 821.54 640.31 821.67 638.43 822.86 636.2 822.63 634.18 823.26 632.07 823.52 630.25 825.05 628.08 825.03 626.12 825.96 623.94 825.89 621.75 825.75 619.91 827.26 617.83 827.65 615.77 828.13 613.69 828.52 611.53 828.47 609.5 829.1 607.33 829 605.25 829.37 603.29 830.42 601.11 830.25 598.97 830.28 596.9 830.69 594.88 831.39 592.78 831.67 590.85 832.89 588.67 832.67 586.65 833.45 584.48 833.27 582.39 833.55 580.31 833.95 578.33 834.95 576.23 835.21 574.13 835.44 572.03 835.69 569.86 835.5 567.78 835.88 565.76 836.67 563.67 836.98 561.55 837.07 559.38 836.86 557.31 837.31 555.24 837.75 553.14 838.02 551.07 838.47 548.92 838.34 546.93 839.43 544.8 839.46 542.7 839.64 540.63 840.17 538.49 840.1 536.44 840.73 534.28 840.46 532.24 841.2 530.12 841.24 527.99 841.25 525.88 841.39 523.76 841.48 521.68 841.96 519.64 842.69 517.5 842.51 515.34 842.29 513.27 842.78 511.27 843.85 509.17 844.12 507.04 844.1 504.85 843.43 502.87 844.79 500.72 844.58 498.61 844.69 496.46 844.43 494.37 844.81 492.33 845.61 490.16 845.15 488.08 845.51 486.02 846.13 483.87 845.87 481.85 846.92 479.73 846.98 477.58 846.65 475.46 846.68 473.39 847.25 471.26 847.14 469.23 848.13 467.13 848.3 464.95 847.64 462.85 847.9 460.81 848.77 458.63 848.16 456.58 848.96 454.5 849.4 452.33 848.8 450.26 849.38 448.12 849.06 446.04 849.57 443.98 850.38 441.81 849.77 439.73 850.15 437.62 850.35 435.54 850.8 433.42 850.86 431.29 850.64 429.18 850.74 427.09 851.19 424.96 850.99 422.87 851.32 420.78 851.83 418.62 851.07 416.55 851.88 414.42 851.57 412.29 851.38 410.23 852.33 408.07 851.55 405.98 851.89 403.88 852.26 401.8 852.91 399.69 852.99 397.54 852.24 395.47 853.2 393.31 852.34 391.22 852.67 389.14 853.56 387.04 853.8 384.91 853.4 382.79 853.36 380.68 853.36 378.57 853.53 376.45 853.31 374.36 854.03 372.24 853.92 370.13 854.08 368 853.41 365.9 853.84 363.79 853.97 361.67 853.67 359.55 853.56 357.46 854.14 355.34 853.84 353.22 853.75 351.12 853.93 349.01 854.49 346.9 854.6 344.79 854.35 342.67 854.01 340.57 855.09 338.46 855.18 336.34 854.76 334.24 855.26 332.11 854.23 330 854.32 327.89 854.4 325.78 854.93 323.67 854.49 321.56 854.76 319.43 854.48 317.3 854.87 315.18 854.92 313.05 854.32 310.93 855.27 308.8 855.24 306.66 854.35 304.54 854.9 302.41 854.44 300.28 854.52 298.16 855.19 296.03 855.32 293.9 855.16 291.76 854.55 289.64 854.61 287.52 855.26 285.38 854.58 283.24 854.54 281.12 854.69 278.99 855.03 276.86 854.8 274.73 855.06 272.63 855.86 270.5 855.91 268.37 855.89 266.25 856.09 264.09 855.52 261.97 855.74 259.83 855.62 257.74 856.42 255.57 855.7 253.44 855.81 251.34 856.46 249.19 855.97 247.12 857.08 244.92 856.1 242.87 857.35 240.71 856.92 238.57 856.92 236.49 857.65 234.29 856.88 232.24 857.93 230.1 857.83 227.95 857.75 225.81 857.69 223.75 858.53 221.54 857.92 219.52 859.05 217.38 859.1 215.24 859.07 213.09 859.07 211.04 859.84 208.93 860.14 206.72 859.71 204.78 861.18 202.66 861.41 200.44 860.98 198.35 861.36 196.3 862.05 194.18 862.29 192.11 862.8 190.02 863.2 187.77 862.74 185.84 863.98 183.68 864.04 181.64 864.69 179.46 864.66 177.47 865.56 175.23 865.29 173.37 866.72 171.28 867.13 169.01 866.78 166.96 867.21 165.16 868.66 162.99 868.63 160.96 869.16 159.02 870.02 157.05 870.79 154.89 870.79 152.71 870.73 150.83 871.87 148.64 871.8 146.68 872.58 144.88 873.94 142.56 873.46 140.79 874.9 138.68 875.15 136.57 875.45 134.81 876.87 132.66 877.01 130.77 878 128.69 878.4 126.46 878.34 124.47 879.04 122.88 880.85 120.84 881.37 118.72 881.7 116.83 882.63 115.03 883.78 113.03 884.43 110.9 884.77 108.93 885.51 107.24 886.88 104.94 886.91 103.07 887.89 101.52 889.5 99.54 890.24 97.42 890.74 95.88 892.32 93.9 893.08 92.27 894.45 90.38 895.39 88.64 896.57 86.79 897.59 85.23 899.03 83.52 900.24 81.88 901.54 80.35 902.99 78.76 904.35 76.43 904.84 75.51 906.98 73.93 908.35 72.05 909.42 70.47 910.81 69.41 912.71 67.62 913.92 66.23 915.5 64.72 916.99 64 919.09 62.84 920.83 61.71 922.6 60.52 924.32 58.46 925.51 58.38 927.93 57.07 929.6 55.44 931.12 54.84 933.19 54.27 935.25 53.14 937.06 52.34 939.01 51.53 940.96 50.94 942.99 49.61 944.76 49.65 947 48.54 948.87 48.59 951.07 47.27 952.91 47.03 955.03 46.8 957.14 46.11 959.16 46.32 961.35 45.47 963.34 45.4 965.47 45.41 967.59 44.69 969.63 44.85 971.77 44.05 973.81 44.8 975.99 44.16 978.07 44.03 980.19 44.32 982.32 43.73 984.43 44.26 986.56 44.24 988.67 44.3 990.79 44.13 992.91 43.66 995.05 43.55 997.19 44.67 999.24 44.72 1001.36 45.03 1003.46 45.1 1005.58 44.79 1007.75 45.37 1009.81 46.15 1011.83 45.82 1014.03 46.82 1016 47.17 1018.09 46.67 1020.36 47.2 1022.42 48.02 1024.41 49.04 1026.33 49.56 1028.38 49.76 1030.53 49.99 1032.69 51.16 1034.54 52.17 1036.43 52.89 1038.42 53.85 1040.31 53.84 1042.61 54.99 1044.43 56.41 1046.11 57.22 1048.06 58.23 1049.92 58.52 1052.16 59.59 1054 60.41 1055.98 61.88 1057.58 63 1059.39 64.54 1060.91 65.71 1062.67 66.26 1064.88 68.33 1065.99 69.14 1068.03 69.96 1070.08 72.14 1071.05 73.26 1072.87 74.7 1074.42 75.8 1076.28 77.74 1077.37 79.19 1078.9 79.87 1081.21 81.71 1082.38 83.04 1084.06 85.22 1084.83 86.48 1086.59 88.32 1087.7 89.4 1089.71 91.59 1090.39 93.01 1092 94.95 1092.95 96.59 1094.29 98.21 1095.66 100.17 1096.55 101.84 1097.83 103.5 1099.16 105.36 1100.18 106.62 1102.16 108.52 1103.12 110.48 1103.98 112.65 1104.46 114.39 1105.69 116.08 1107.01 118.2 1107.54 119.71 1109.22 121.74 1109.91 123.38 1111.39 125.66 1111.54 127.41 1112.81 129.29 1113.8 131.35 1114.38 133.1 1115.69 135.15 1116.32 137.03 1117.33 139.02 1118.09 141.22 1118.28 142.98 1119.6 145.27 1119.53 147.1 1120.65 148.94 1121.74 151.15 1121.9 153.19 1122.48 154.89 1123.93 156.98 1124.38 158.82 1125.49 161 1125.7 163.06 1126.24 164.64 1128 166.8 1128.26 168.92 1128.65 170.57 1130.23 172.52 1131.05 174.51 1131.76 176.84 1131.58 178.48 1133.21 180.8 1133.06 182.54 1134.43 184.56 1135.06 186.35 1136.31 188.4 1136.85 190.63 1136.92 192.32 1138.44 194.64 1138.24 196.27 1139.94 198.52 1139.94 200.32 1141.17 202.35 1141.79 204.38 1142.38 206.5 1142.71 208.48 1143.43 210.38 1144.42 212.44 1144.91 214.3 1145.97 216.25 1146.78 218.26 1147.44 220.56 1147.29 222.28 1148.75 224.15 1149.79 226.14 1150.51 228.14 1151.19 230.26 1151.51 232.36 1151.91 234.29 1152.8 236.31 1153.42 238.25 1154.34 240.25 1155.09 242.35 1155.46 244.4 1156.01 246.56 1156.07 248.67 1156.29 250.77 1156.54 252.83 1157.11 254.97 1156.95 257.06 1157.6 259.19 1157.29 261.28 1156.81 263.44 1157.15 265.43 1156.19 267.54 1156.03 269.61 1155.56 271.34 1154.21 273.57 1154.07 275.64 1153.38 277.3 1152.06 278.54 1150.24 280.58 1149.42 281.77 1147.65 283.43 1146.35 284.87 1144.82 285.42 1142.61 286.66 1140.96 288.44 1139.65 289.31 1137.74 290.89 1136.26 291.38 1134.01 292.72 1132.24 293.17 1130.07 293.03 1127.92 293.59 1125.76 292.32 1123.99 290.57 1123.08 288.91 1121.54 286.84 1122.51 284.77 1122.54 282.82 1123.23 280.81 1123.89 279.02 1125.02 277.3 1126.27 276.39 1128.31 274.91 1129.75 273.43 1131.28 272.68 1133.25 271.96 1135.2 271.16 1137.17 271.26 1139.29 271.39 1141.36 271.52 1143.45 272.08 1145.47 272.59 1147.51 273.96 1149.13 274.68 1151.11 275.94 1152.76 277.34 1154.28 278.87 1155.66 280.36 1157.08 281.79 1158.58 283.36 1159.92 285.14 1160.99 287.18 1161.59 288.65 1163.15 290.62 1163.83 292.62 1164.41 294.29 1165.67 296.25 1166.46 298.11 1167.47 300.11 1168.17 302.18 1168.7 304.04 1169.73 305.81 1170.99 308.09 1170.98 309.98 1171.92 311.69 1173.36 313.6 1174.28 315.6 1174.95 317.97 1174.67 319.85 1175.66 321.6 1177.03 323.62 1177.66 325.86 1177.65 327.76 1178.6 329.81 1179.15 331.75 1180.01 333.52 1181.34 335.57 1181.89 337.86 1181.67 339.83 1182.45 341.74 1183.4 343.55 1184.68 345.75 1184.73 347.91 1184.88 349.87 1185.68 351.72 1186.85 353.95 1186.76 355.95 1187.47 357.73 1188.88 359.87 1189.11 361.83 1189.94 363.88 1190.43 365.93 1190.94 367.85 1191.93 369.96 1192.22 372.11 1192.39 374 1193.47 376.1 1193.81 378.34 1193.6 380.23 1194.71 382.19 1195.59 384.25 1196.04 386.51 1195.74 388.35 1197.09 390.51 1197.16 392.52 1197.8 394.47 1198.74 396.54 1199.17 398.7 1199.22 400.81 1199.49 402.78 1200.34 404.91 1200.5 406.99 1200.86 408.98 1201.65 411.14 1201.66 413.06 1202.77 415.15 1203.12 417.33 1203.05 419.23 1204.21 421.37 1204.34 423.45 1204.69 425.38 1205.78 427.58 1205.58 429.51 1206.67 431.76 1206.25 433.83 1206.69 435.97 1206.77 437.86 1208.06 440.06 1207.86 442.07 1208.56 444.08 1209.31 446.25 1209.22 448.18 1210.38 450.26 1210.75 452.5 1210.27 454.52 1210.98 456.57 1211.51 458.7 1211.65 460.75 1212.19 462.78 1212.8 464.84 1213.3 467.02 1213.15 469.11 1213.45 471.11 1214.25 473.17 1214.73 475.2 1215.35 477.27 1215.78 479.38 1216.02 481.52 1216.06 483.61 1216.36 485.74 1216.48 487.64 1217.79 489.7 1218.24 491.76 1218.72 493.9 1218.77 495.99 1219.1 498.03 1219.62 500.2 1219.46 502.18 1220.34 504.25 1220.76 506.29 1221.37 508.55 1220.75 510.46 1222.04 512.64 1221.83 514.77 1221.94 516.86 1222.29 518.87 1222.99 521 1223.09 522.95 1224.15 525.16 1223.81 527.2 1224.41 529.25 1224.95 531.33 1225.32 533.39 1225.75 535.32 1226.92 537.5 1226.75 539.49 1227.64 541.72 1227.17 543.82 1227.44 545.9 1227.79 547.96 1228.26 549.87 1229.58 552.13 1228.92 554.13 1229.71 556.28 1229.69 558.34 1230.18 560.36 1230.89 562.54 1230.68 564.56 1231.41 566.53 1232.39 568.68 1232.34 570.68 1233.15 572.76 1233.52 575.01 1232.91 577.04 1233.58 578.99 1234.72 581.25 1233.99 583.18 1235.24 585.32 1235.24 587.51 1234.99 589.51 1235.82 591.54 1236.51 593.58 1237.11 595.82 1236.46 597.89 1236.9 599.9 1237.68 602.08 1237.44 604.13 1238.03 606.16 1238.67 608.31 1238.58 610.38 1239.02 612.42 1239.65 614.49 1240.13 616.67 1239.76 618.68 1240.64 620.8 1240.74 622.89 1241.05 625.07 1240.66 627.14 1241.1 629.12 1242.29 631.3 1241.84 633.32 1242.73 635.43 1242.88 637.59 1242.63 639.67 1243.03 641.76 1243.26 643.87 1243.48 645.89 1244.32 648.05 1244.06 650.12 1244.55 652.25 1244.47 654.37 1244.55 656.38 1245.61 658.5 1245.68 660.65 1245.3 662.76 1245.43 664.89 1245.34 666.91 1246.44 669.08 1245.88 671.16 1246.37 673.2 1247.24 675.36 1246.84 677.46 1247.07 679.53 1247.61 681.67 1247.37 683.82 1246.86 685.91 1247.19 687.96 1248.21 690.08 1248.23 692.17 1248.55 694.29 1248.52 696.45 1247.61 698.52 1248.51 700.61 1249 702.77 1248.11 704.84 1249.06 706.99 1248.19 709.08 1248.61 711.21 1248.25 713.29 1249.13 715.41 1248.93 717.51 1249.5 719.64 1248.39 721.75 1248.92 723.86 1249 725.97 1248.68 728.08 1248.73 730.19 1248.74 732.3 1248.73 734.41 1249.3 736.52 1248.74 738.64 1249.58 740.75 1249.38 742.84 1248.37 744.98 1249.35 747.08 1249.05 749.2 1249.09 751.28 1248.3 753.4 1248.48 755.54 1249.06 757.64 1248.74 759.71 1247.8 761.87 1248.64 763.95 1247.99 766.03 1247.58 768.13 1247.23 770.25 1247.38 772.34 1246.97 774.52 1247.76 776.63 1247.56 778.7 1247.01 780.79 1246.73 782.89 1246.43 784.93 1245.66 787.03 1245.48 789.23 1246.13"/></g></g></svg>