<svg xmlns="http://www.w3.org/2000/svg" viewBox="0 0 602.93 91.11"><defs><style>.cls-1{fill:#fffeff;}.cls-2{fill:#ffdc64;}</style></defs><g id="Layer_2" data-name="Layer 2"><g id="レイヤー_1" data-name="レイヤー 1"><path class="cls-1" d="M129.27,15.65a19.26,19.26,0,0,0-11.65,4.74c-2.2,1.95-4.47,4.48-7.41,4.34-3.34-.15-6.3-4-9.26-5.53-7.82-3.93-15.38-5.52-23.07-.26-4.55,3.12-8.24,7.32-12.56,10.73a4.93,4.93,0,0,1-4.15,1.23c-1.38-.37-2.31-1.61-3.25-2.69a15.61,15.61,0,0,0-7.14-4,11.55,11.55,0,0,0-9.21,2.48c-4.48,4.23-5.14,7.71-10.28,11-7.43,4.81-14.57.77-22.57,1.18-3.26.17-12.56,5.51-7,5.52,22.43.05,116.4.11,147.1,0,1.68,0,6.89-10.15,2.4-17.72C146.24,18.24,136.93,15.19,129.27,15.65Z"/><path class="cls-1" d="M376.75,31.17c-5.13-2.67-10.74-3.29-15.82.19-3,2.06-6.06,4.43-8.92,6.68a3.22,3.22,0,0,1-2.73.81,4.73,4.73,0,0,1-2.15-1.78,10.3,10.3,0,0,0-4.72-2.64,7.62,7.62,0,0,0-6.08,1.63c-3,2.8-3.4,5.1-6.79,7.29-4.91,3.18-9.62.5-14.91.78-2.15.11-8.29,3.64-4.6,3.65,14.81,0,52.88.07,73.15,0C384.29,47.77,387.23,36.64,376.75,31.17Z"/><path class="cls-1" d="M587.7,0a12.36,12.36,0,0,0-7.46,3c-1.41,1.26-2.87,2.88-4.75,2.79-2.14-.1-4-2.59-5.93-3.54-5-2.53-9.86-3.54-14.79-.17-2.92,2-5.28,4.69-8,6.87a3.2,3.2,0,0,1-2.66.8A4.74,4.74,0,0,1,542,8.09a10,10,0,0,0-4.57-2.57,7.39,7.39,0,0,0-5.91,1.59c-2.87,2.71-3.29,4.94-6.58,7.07-4.77,3.08-9.34.49-14.47.75-2.09.11-8.05,3.54-4.47,3.54,14.38,0,74.6.07,94.27,0,1.08,0,4.41-6.51,1.54-11.35C598.58,1.7,592.61-.26,587.7,0Z"/><path class="cls-1" d="M462.52,45.82a12.4,12.4,0,0,0-7.47,3c-1.41,1.25-2.86,2.87-4.75,2.78-2.14-.1-4-2.59-5.93-3.54-5-2.53-9.86-3.54-14.79-.17-2.92,2-5.28,4.69-8.05,6.87a3.12,3.12,0,0,1-2.65.8,4.71,4.71,0,0,1-2.09-1.73,10,10,0,0,0-4.57-2.57,7.4,7.4,0,0,0-5.91,1.59c-2.87,2.71-3.29,4.94-6.58,7.07-4.76,3.08-9.34.49-14.47.75-2.09.11-8,3.54-4.47,3.54,14.38,0,74.6.07,94.28,0,1.07,0,4.41-6.5,1.53-11.35C473.39,47.48,467.43,45.53,462.52,45.82Z"/><path class="cls-2" d="M337.68,81.61H199.4a69.14,69.14,0,1,1,138.28,0Z"/><path class="cls-2" d="M167.57,85l21.05,0,25.16,0,26.67,0,25.58,0c7.21,0,14.42,0,21.62-.15l2.26,0a.37.37,0,0,0,0-.74q-10.52-.2-21-.19L243.7,84,217,84l-25.58,0-21.62,0h-2.26a.45.45,0,0,0,0,.9Z"/><path class="cls-2" d="M279.68,87.61l25.49.06,19.27,0c5.48,0,10.94,0,16.41-.18a.37.37,0,0,0,0-.74c-8.49-.31-17-.18-25.49-.16l-19.27,0-16.41,0a.45.45,0,0,0,0,.9Z"/><path class="cls-2" d="M296.42,85l25.49.06,19.27,0c5.48,0,10.94,0,16.41-.18a.37.37,0,0,0,0-.74c-8.49-.31-17-.18-25.49-.16l-19.27,0-16.41,0a.45.45,0,0,0,0,.9Z"/><path class="cls-2" d="M220.41,91l25.49.06,19.27,0c5.47,0,10.93,0,16.41-.18a.37.37,0,0,0,0-.74c-8.5-.31-17-.18-25.49-.16l-19.28,0-16.4,0a.46.46,0,0,0,0,.91Z"/></g></g></svg>