<svg xmlns="http://www.w3.org/2000/svg" viewBox="0 0 418.71 30.64"><defs><style>.cls-1{fill:#fff;}</style></defs><g id="Layer_2" data-name="Layer 2"><g id="レイヤー_1" data-name="レイヤー 1"><path class="cls-1" d="M114.43,28.07l78.29,0,78.29,0c14.73,0,29.45,0,44.17-.14a.3.3,0,0,0,0-.6c-26.1-.23-52.2-.14-78.29-.13l-78.3,0-44.16,0a.37.37,0,0,0,0,.73Z" transform="translate(0 -0.18)"/><path class="cls-1" d="M331.5,28.07l11.66.06c3.87,0,7.78.17,11.65-.12a.3.3,0,0,0,0-.6c-3.87-.3-7.78-.14-11.65-.12l-11.66.05a.37.37,0,0,0,0,.73Z" transform="translate(0 -0.18)"/><path class="cls-1" d="M149.49,30.74l30.91,0,30.66,0c5.82,0,11.64,0,17.45-.14a.3.3,0,0,0,0-.6c-10.3-.23-20.6-.15-30.91-.13l-30.66,0-17.45,0a.37.37,0,0,0,0,.73Z" transform="translate(0 -0.18)"/><path class="cls-1" d="M.35,24.86l48.62,0,61.23,0,66.07,0,62.42,0q25.17,0,50.34-.12c1.69,0,3.38,0,5.08,0a.3.3,0,0,0,0-.59c-16.21,0-32.41-.16-48.62-.16l-61.23,0-66.07,0-62.42,0-50.34,0H.35a.37.37,0,0,0,0,.73Z" transform="translate(0 -0.18)"/><path class="cls-1" d="M302.66,24.86l43.32,0,43.2,0c8.12,0,16.23,0,24.34-.15a.3.3,0,0,0,0-.59c-14.43-.23-28.88-.15-43.32-.13l-43.19,0-24.35,0a.37.37,0,0,0,0,.73Z" transform="translate(0 -0.18)"/><path class="cls-1" d="M49.48,21.9l50,0,54.42,0,56.26,0,54.78,0c16.89,0,33.79,0,50.68-.11l5.89,0a.3.3,0,0,0,0-.6q-25-.16-50-.15l-54.42,0-56.26,0-54.78,0-50.68,0H49.48a.36.36,0,0,0,0,.72Z" transform="translate(0 -0.18)"/><path class="cls-1" d="M305.68,21.9l16.85,0,20.21,0,21.44,0,20.49,0c5.82,0,11.64,0,17.46-.12l1.81,0a.3.3,0,0,0,0-.6c-5.62-.1-11.23-.16-16.85-.15l-20.22,0-21.43,0-20.5,0-17.45,0h-1.81a.36.36,0,0,0,0,.72Z" transform="translate(0 -0.18)"/><path class="cls-1" d="M268.69,19.73l16.84,0,20.22,0,21.44,0,20.49,0c5.82,0,11.64,0,17.46-.12l1.81,0a.3.3,0,0,0,0-.6c-5.62-.1-11.23-.16-16.85-.15l-20.22,0-21.43,0L288,19l-17.46,0h-1.8a.37.37,0,0,0,0,.73Z" transform="translate(0 -0.18)"/><path class="cls-1" d="M81.8,19.73l21.26,0,30.69,0,34.16,0,31.4,0q11.33,0,22.66-.13l1.85,0a.3.3,0,0,0,0-.6c-7.09,0-14.18-.16-21.27-.16q-15.35,0-30.68,0L137.7,19l-31.4,0L83.65,19H81.8a.37.37,0,0,0,0,.73Z" transform="translate(0 -0.18)"/><path class="cls-1" d="M246.6,17.54l16.85,0,20.22,0,21.44,0,20.49,0c5.82,0,11.64,0,17.46-.12l1.8,0a.3.3,0,0,0,0-.6q-8.42-.15-16.84-.15l-20.22,0-21.44,0-20.49,0-17.46,0H246.6a.37.37,0,0,0,0,.73Z" transform="translate(0 -0.18)"/><path class="cls-1" d="M258.31,11.54l34.3,0,27.27,0,24.88,0,26.73,0c11.07,0,22.13,0,33.2-.09l4.75-.06a.3.3,0,0,0,0-.6c-11.44-.13-22.87-.15-34.3-.14l-27.27,0H323l-26.73,0-33.2,0h-4.75a.37.37,0,0,0,0,.73Z" transform="translate(0 -0.18)"/><path class="cls-1" d="M293.38,14.21l30.91,0,30.66,0c5.82,0,11.63,0,17.45-.15a.3.3,0,0,0,0-.6c-10.3-.23-20.61-.14-30.91-.13l-30.66,0-17.45,0a.37.37,0,0,0,0,.73Z" transform="translate(0 -0.18)"/><path class="cls-1" d="M237.24,8.32l37.07,0,34.15,0,33.09,0,34.07,0c12.2,0,24.4,0,36.6-.1L417,8.26a.3.3,0,0,0,0-.6Q398.5,7.48,380,7.51l-34.15,0-33.09,0-34.07,0-36.61,0h-4.81a.36.36,0,0,0,0,.72Z" transform="translate(0 -0.18)"/><path class="cls-1" d="M277.77,5.37l35.56,0,19.67,0h32.29c11,0,22,.1,33-.06l5.61-.08a.3.3,0,0,0,0-.59c-11.86-.17-23.71-.15-35.56-.15l-19.67,0h-14l-18.33,0-33.05,0h-5.6a.37.37,0,0,0,0,.73Z" transform="translate(0 -0.18)"/><path class="cls-1" d="M269.45,3.2h16.84l20.22,0,21.44,0,20.49,0c5.82,0,11.64,0,17.46-.12l1.8,0a.3.3,0,0,0,0-.6c-5.61-.1-11.23-.16-16.84-.15l-20.22,0-21.44,0-20.49,0-17.46,0h-1.8a.37.37,0,0,0,0,.73Z" transform="translate(0 -0.18)"/><path class="cls-1" d="M390.49,1l19.06.07c2.19,0,4.38.05,6.56,0,.77,0,1.54-.08,2.31-.13a.3.3,0,0,0,0-.6C417,.25,415.53.18,414.08.18l-10.66,0L390.49.27a.37.37,0,0,0,0,.73Z" transform="translate(0 -0.18)"/></g></g></svg>