<svg xmlns="http://www.w3.org/2000/svg" viewBox="0 0 325.22 39.88"><defs><style>.cls-1{fill:none;stroke:#fff;stroke-linecap:round;stroke-linejoin:round;stroke-width:5.31px;}.cls-2{fill:#fff;}</style></defs><g id="Layer_2" data-name="Layer 2"><g id="レイヤー_1" data-name="レイヤー 1"><polyline class="cls-1" points="132.41 33.33 131.74 34.27 130.86 35.03 129.94 35.73 128.87 36.17 127.83 36.67 126.69 36.88 125.56 37.13 124.41 37.12 123.25 37.23 122.09 37.18 121 36.94 120.01 36.44 119.31 35.61 118.94 34.59 118.91 33.49 119.03 32.39 119.36 31.33 119.69 30.27 120.12 29.25 120.51 28.21 121 27.21 121.54 26.23 122.15 25.3 122.7 24.32 123.19 23.33 123.79 22.39 124.22 21.38 124.59 20.36 124.72 19.3 124.51 18.25 123.92 17.36 123.1 16.68 122.15 16.18 121.15 15.79 120.04 15.74 118.92 15.72 117.85 16.03 116.84 16.49 115.89 17.05 114.94 17.63 114.1 18.36 113.35 19.18 112.62 20.01 111.94 20.89 111.3 21.8 110.74 22.76 110.18 23.71 109.57 24.65 109.02 25.61 108.61 26.65 108.06 27.62 107.65 28.66 107.2 29.68 106.77 30.7 106.39 31.75 105.94 32.77 105.59 33.82 105.2 34.86 104.94 35.95 104.59 36.99 104.99 35.97 105.5 35 105.83 33.95 106.22 32.92 106.66 31.91 107.04 30.88 107.37 29.84 107.69 28.79 108.03 27.74 108.31 26.68 108.52 25.6 108.78 24.53 109.07 23.46 109.17 22.36 109.33 21.27 109.28 20.17 109.18 19.08 108.98 18.01 108.53 17.02 107.8 16.2 106.77 15.82 105.67 15.7 104.56 15.84 103.55 16.32 102.59 16.85 101.67 17.45 100.81 18.15 100.02 18.92 99.36 19.81 98.7 20.7 98.01 21.56 97.39 22.47 96.78 23.4 96.18 24.33 95.69 25.33 95.17 26.31 94.64 27.28 94.13 28.26 93.62 29.25 93.27 30.31 92.72 31.28 92.37 32.33 91.9 33.34 91.47 34.36 91.1 35.4 90.73 36.43 91.41 35.46 91.92 34.4 92.33 33.3 92.74 32.19 93.12 31.08 93.41 29.94 93.63 28.78 93.89 27.63 94.03 26.48 94.02 25.33 93.64 24.24 93 23.27 92.04 22.62 91.05 22.04 89.97 21.63 88.84 21.41 87.7 21.26 86.56 21.03 85.41 20.98 84.25 20.98 83.09 20.99 81.94 20.95 80.78 20.95 79.65 21.04 78.52 21.09 77.39 21.1 76.26 21.07 75.14 21.06 74.01 21.09 72.88 21.13 71.75 21.09 70.62 21.04 69.48 21.05 68.35 21.13 67.22 21.07 66.09 21.06 64.96 21.13 63.83 21.16 62.69 21.07 61.56 21.13 60.43 21.14 59.3 21.13 58.17 21.15 57.04 21.16 55.91 21.12 54.79 21.1 53.66 21.06 52.53 21.17 51.4 21.16 50.27 21.09 49.13 21.14 48.01 21.1 46.88 21.04 45.75 21.09 44.61 21.09 43.48 21.13 42.35 21.14 41.21 21.04 40.08 21.08 38.94 21.11 37.8 21.12 36.66 21.09 35.52 21.07 34.38 21.11 33.25 21.14 32.11 21.09 30.98 21.02 29.84 21.03 28.71 21.03 27.58 21.01 26.44 21 25.31 21.1 24.18 21.02 23.04 21.1 21.91 21.06 20.78 21.09 19.64 21.1 18.51 20.98 17.38 20.98 16.24 21.01 15.11 21.03 13.97 21.06 12.84 21.01 11.71 21.07 10.57 21.07 9.44 21 8.3 21.04 7.17 20.97 6.04 20.95 4.91 21.02 3.78 21.05 2.66 20.99"/><polyline class="cls-1" points="153.08 16.42 151.94 16.3 150.78 16.32 149.64 16.17 148.49 16.17 147.34 16.26 146.2 16.45 145.06 16.54 143.94 16.84 142.84 17.13 141.75 17.5 140.65 17.85 139.67 18.45 138.65 18.98 137.77 19.73 136.89 20.46 136.15 21.33 135.46 22.25 134.8 23.2 134.42 24.29 134.03 25.37 133.64 26.47 133.6 27.61 133.33 28.73 133.41 29.87 133.53 31 133.85 32.08 134.09 33.2 134.64 34.2 135.44 35.03 136.3 35.78 137.37 36.19 138.48 36.41 139.61 36.45 140.71 36.17 141.82 35.92 142.81 35.38 143.77 34.77 144.62 34.03 145.48 33.29 146.3 32.52 147.1 31.71 147.72 30.77 148.41 29.87 149.1 28.96 149.59 27.93 150.16 26.96 150.67 25.94 151.22 24.95 150.66 25.94 150.08 26.94 149.63 28 149.22 29.07 148.93 30.19 148.51 31.27 148.32 32.42 148.32 33.57 148.5 34.7 149.02 35.68 149.93 36.33 151.05 36.48 152.21 36.48 153.33 36.21 154.47 36.04 155.53 35.59 156.59 35.16 157.68 34.76 158.58 34.03 159.59 33.47 160.39 32.64 161.27 31.9 162.04 31.05 162.75 30.14 163.45 29.23 164.01 28.23 164.62 27.25 165.21 26.26 165.57 25.16 166.14 24.16 166.65 23.13 167.09 22.07 167.49 20.99 167.88 19.91 168.23 18.81 168.61 17.72 169.01 16.64 168.64 17.72 168.21 18.77 167.94 19.88 167.47 20.93 167.11 22.01 166.85 23.13 166.49 24.21 166.25 25.33 166.02 26.45 165.89 27.58 165.7 28.71 165.4 29.82 165.34 30.97 165.52 32.11 165.53 33.25 165.93 34.31 166.35 35.39 167.34 35.98 168.43 36.3 169.56 36.13 170.65 35.9 171.69 35.46 172.66 34.89 173.71 34.43 174.64 33.8 175.51 33.07 176.41 32.4 177.35 31.76 178.15 30.96 179.03 30.25 179.9 29.52 180.72 28.75 181.45 27.89 182.22 27.06 183.14 26.37 183.85 25.49 184.6 24.64 185.36 23.81 186.09 22.95 186.83 22.09 187.58 21.25 188.34 20.4 188.96 19.45 189.73 18.61 190.41 17.71 190.96 16.71 191.7 15.85 192.24 14.85 192.95 13.97 193.59 13.04 194.1 12.02 194.58 10.99 195.1 9.99 195.63 8.99 196.04 7.94 196.31 6.85 196.58 5.76 196.64 4.63 196.08 3.68 195.26 2.93 194.19 2.66 193.09 2.82 192.04 3.23 191.1 3.85 190.24 4.58 189.39 5.33 188.7 6.23 187.86 7.01 187.22 7.95 186.59 8.9 185.97 9.85 185.3 10.77 184.85 11.82 184.3 12.81 183.68 13.77 183.25 14.82 182.75 15.85 182.34 16.91 182.02 18.01 181.54 19.04 181.27 20.15 180.92 21.23 180.77 22.37 180.42 23.45 180.21 24.57 180.04 25.7 180.12 26.85 180.06 27.99 180.1 29.13 180.41 30.22 180.7 31.31 181.15 32.35 181.77 33.3 182.53 34.16 183.5 34.78 184.58 35.17 185.69 35.45 186.82 35.5 187.94 35.66 189.06 35.68 190.19 35.6 191.32 35.64 192.44 35.55 193.55 35.35 194.64 35.07 195.73 34.8 196.82 34.55 197.91 34.22 198.9 33.68 199.9 33.16 200.84 32.54 201.71 31.83 202.65 31.2 203.37 30.34 204.08 29.47 204.72 28.54 205.09 27.48 205.51 26.44 205.66 25.33 205.5 24.18 204.75 23.29 203.67 22.89 202.59 22.52 201.43 22.52 200.29 22.68 199.22 23.1 198.16 23.55 197.35 24.37 196.49 25.12 195.98 26.15 195.62 27.23 195.42 28.36 195.31 29.51 195.47 30.65 195.73 31.76 196.09 32.85 196.75 33.8 197.68 34.47 198.67 35.05 199.72 35.54 200.87 35.67 202.01 35.82 203.16 35.77 204.31 35.79 205.46 35.74 206.6 35.57 207.73 35.34 208.86 35.07 209.95 34.69 211.09 34.46 212.23 34.23 213.25 33.79 214.3 33.43 215.32 33.01 216.28 32.44 217.24 31.88 218.16 31.28 219.08 30.66 219.88 29.9 220.76 29.22 221.51 28.4 222.22 27.55 222.96 26.72 223.75 25.95 224.49 25.14 225.28 24.36 226.17 23.71 227.15 23.2 228.07 22.6 229.07 22.11 230.16 21.88 231.19 21.5 232.27 21.27 233.35 21 234.46 20.78 235.59 20.79 236.72 20.62 237.85 20.62 238.98 20.63 240.11 20.66 241.24 20.65 242.36 20.47 243.49 20.58 244.62 20.47 245.75 20.53 246.88 20.46 248.01 20.48 249.15 20.52 250.27 20.52 251.4 20.45 252.53 20.46 253.66 20.5 254.79 20.39 255.92 20.43 257.05 20.47 258.19 20.51 259.31 20.36 260.44 20.48 261.56 20.45 262.69 20.38 263.82 20.36 264.94 20.49 266.07 20.5 267.2 20.44 268.33 20.37 269.46 20.44 270.59 20.44 271.71 20.43 272.84 20.39 273.97 20.41 275.1 20.54 276.24 20.44 277.37 20.5 278.5 20.53 279.63 20.54 280.77 20.45 281.9 20.57 283.04 20.45 284.18 20.52 285.31 20.6 286.45 20.55 287.58 20.51 288.71 20.53 289.85 20.55 290.98 20.51 292.11 20.63 293.25 20.68 294.38 20.63 295.51 20.68 296.65 20.59 297.78 20.59 298.91 20.59 300.04 20.62 301.17 20.8 302.31 20.63 303.44 20.67 304.57 20.71 305.7 20.66 306.83 20.84 307.96 20.8 309.1 20.71 310.23 20.85 311.36 20.84 312.49 20.87 313.62 20.95 314.75 20.93 315.89 20.84 317.02 20.95 318.15 20.87 319.28 20.92 320.41 20.88 321.53 21.02 322.57 20.99"/><path class="cls-2" d="M171.38,3.21a2.91,2.91,0,0,0-.82.26,3.21,3.21,0,0,0-.84.18,3.68,3.68,0,0,0-.7.53,3.41,3.41,0,0,0-.48.71,3.2,3.2,0,0,0-.22.82,3.3,3.3,0,0,0-.21.82,3.3,3.3,0,0,0,.21.82,3.16,3.16,0,0,0,.33.75,3.24,3.24,0,0,0,.52.64,3.31,3.31,0,0,0,.58.6,3.78,3.78,0,0,0,.82.2,3.2,3.2,0,0,0,.81.2,3,3,0,0,0,.8-.2,3.32,3.32,0,0,0,.79-.25,3,3,0,0,0,.64-.53,2.92,2.92,0,0,0,.52-.64,3.06,3.06,0,0,0,.45-.73,3.13,3.13,0,0,0,0-.86,3.25,3.25,0,0,0-.07-.83,3.83,3.83,0,0,0-.21-.84c-.14-.25-.48-.34-.68-.54s-.3-.54-.54-.69a3.24,3.24,0,0,0-.84-.22A3.25,3.25,0,0,0,171.38,3.21Z"/></g></g></svg>