<svg xmlns="http://www.w3.org/2000/svg" viewBox="0 0 1458.43 75.11"><defs><style>.cls-1{fill:none;stroke:#fff;stroke-linecap:round;stroke-linejoin:round;stroke-width:10px;}.cls-2{fill:#fff;}</style></defs><g id="Layer_2" data-name="Layer 2"><g id="レイヤー_1" data-name="レイヤー 1"><polyline class="cls-1" points="683.52 62.89 682.24 64.66 680.53 66.02 678.77 67.27 676.87 68.33 674.83 69.11 672.77 69.89 670.55 69.81 668.4 70.08 666.23 70.11 664.08 69.69 661.93 69.86 659.96 68.96 658.51 67.33 658.01 65.25 658.07 63.16 658.02 61.03 659.04 59.13 659.23 56.98 660.55 55.27 660.97 53.16 662.33 51.5 663.24 49.62 663.9 47.59 664.83 45.71 666.15 44.06 667.3 42.3 668.42 40.51 669.09 38.54 669.16 36.45 668.55 34.5 667.47 32.82 665.86 31.66 664.23 30.43 662.27 29.85 660.19 29.72 658.06 29.53 656.08 30.33 654.23 31.27 652.26 32.03 650.7 33.44 649.15 34.83 647.56 36.19 646.31 37.87 644.99 39.48 643.86 41.25 642.4 42.79 641.53 44.71 640.27 46.41 639.48 48.35 638.28 50.1 637.9 52.24 636.93 54.09 635.94 55.95 635.43 58 634.26 59.8 633.89 61.88 633.26 63.88 632.36 65.77 631.92 67.82 630.83 69.62 632.28 67.89 632.79 65.75 633.67 63.76 634.59 61.79 634.86 59.58 635.66 57.57 636.4 55.53 637.06 53.47 637.64 51.38 638.37 49.32 638.61 47.15 639.13 45.05 639.81 42.95 640.03 40.78 639.75 38.6 639.71 36.45 639.43 34.32 638.61 32.34 637.32 30.54 635.19 29.97 633.12 29.57 631.08 30.07 629.21 30.96 627.41 31.95 625.57 32.93 623.96 34.27 622.34 35.61 621.33 37.49 619.86 38.98 618.69 40.7 617.38 42.34 616.23 44.08 615.42 46.02 614.33 47.79 613.27 49.59 612.09 51.33 611.37 53.31 610.29 55.11 609.94 57.25 609.14 59.17 607.95 60.92 607.21 62.88 606.77 64.94 605.74 66.77 605.09 68.7 606.06 66.75 606.92 64.73 607.99 62.78 608.55 60.63 609.7 58.67 610.12 56.48 610.56 54.3 611.05 52.13 611.43 49.98 610.84 47.87 610.27 45.86 609.2 44.01 607.48 42.71 605.62 41.59 603.52 41.06 601.42 40.54 599.35 39.71 597.17 39.56 595 39.38 592.8 39.89 590.63 39.74 588.45 39.5 586.27 39.53 584.16 39.64 582.05 39.59 579.94 39.45 577.83 39.65 575.72 40.05 573.61 39.58 571.5 39.42 569.38 40.04 567.27 39.84 565.16 39.64 563.05 39.42 560.94 39.8 558.83 39.92 556.72 40.01 554.61 39.85 552.5 39.73 550.39 39.93 548.27 39.92 546.16 39.58 544.05 40.12 541.94 39.65 539.83 40.06 537.72 39.56 535.61 40.14 533.49 39.6 531.38 39.77 529.27 39.65 527.15 40.04 525.04 39.48 522.93 39.82 520.82 39.83 518.7 39.65 516.59 39.88 514.48 39.66 512.36 39.63 510.25 39.63 508.14 39.64 506.02 39.89 503.91 39.49 501.8 39.83 499.68 39.6 497.57 39.63 495.45 39.78 493.35 39.77 491.24 40.06 489.13 39.52 487.02 39.95 484.92 39.56 482.81 39.61 480.7 39.88 478.59 39.67 476.48 39.74 474.37 39.76 472.26 39.57 470.16 39.61 468.05 40.14 465.94 40.04 463.83 39.93 461.72 39.65 459.61 39.7 457.5 40.05 455.39 40.11 453.28 39.69 451.17 39.59 449.06 40.02 446.95 40.09 444.84 40.1 442.73 39.73 440.62 40.05 438.5 40.14 436.39 39.57 434.28 39.99 432.17 39.8 430.06 40.17 427.95 39.66 425.83 39.73 423.72 40.06 421.61 40.1 419.5 40.04 417.39 39.88 415.27 39.95 413.16 39.68 411.05 40.08 408.94 40.07 406.82 39.94 404.71 39.79 402.6 40.14 400.49 39.73 398.37 39.62 396.26 40.15 394.15 39.88 392.03 39.61 389.92 39.94 387.81 39.63 385.69 39.91 383.58 39.97 381.47 39.95 379.36 40.06 377.25 40.01 375.13 39.85 373.02 39.96 370.91 40.13 368.8 40.16 366.69 39.83 364.58 39.8 362.47 40.04 360.36 39.77 358.25 39.79 356.13 39.87 354.02 39.93 351.91 39.91 349.8 39.59 347.68 40 345.57 39.99 343.46 39.88 341.34 39.54 339.23 39.55 337.12 40.15 335 39.73 332.89 39.63 330.77 39.93 328.66 39.74 326.55 39.97 324.43 40.1 322.32 40.13 320.21 39.95 318.09 40.07 315.98 40.1 313.87 39.93 311.75 39.72 309.64 39.75 307.52 39.71 305.4 40.11 303.29 39.66 301.17 39.96 299.06 40.14 296.94 40.03 294.82 39.72 292.71 40.04 290.59 39.86 288.47 39.48 286.35 39.89 284.24 39.6 282.12 39.8 280 39.86 277.88 39.76 275.76 40.11 273.64 39.8 271.52 40.06 269.4 40.1 267.29 39.94 265.17 40.05 263.05 39.59 260.93 39.7 258.81 39.51 256.7 39.99 254.58 39.65 252.46 39.91 250.34 40 248.22 39.48 246.11 39.95 243.99 39.57 241.87 39.64 239.75 39.52 237.63 39.99 235.51 39.87 233.4 39.97 231.28 39.89 229.16 40.02 227.04 40.07 224.92 39.69 222.8 39.71 220.68 39.68 218.56 39.54 216.45 40.09 214.33 39.77 212.21 39.44 210.09 39.68 207.97 39.69 205.85 39.65 203.73 39.67 201.61 39.8 199.5 39.87 197.38 40.06 195.26 39.7 193.14 40.01 191.02 40.02 188.9 39.99 186.78 39.69 184.66 39.77 182.54 39.81 180.43 39.84 178.31 39.8 176.19 39.77 174.07 39.93 171.95 40.04 169.83 39.87 167.71 39.9 165.59 39.45 163.48 39.58 161.36 39.74 159.24 39.56 157.12 39.87 155 39.62 152.88 40.01 150.76 39.79 148.65 39.95 146.53 39.61 144.41 39.73 142.29 39.41 140.18 39.51 138.06 39.76 135.94 40.04 133.82 39.4 131.71 39.59 129.59 39.55 127.47 39.77 125.35 39.7 123.24 39.6 121.12 39.99 119 39.5 116.89 39.76 114.77 39.89 112.65 39.71 110.54 39.68 108.42 39.5 106.31 39.45 104.19 39.84 102.08 39.45 99.96 39.59 97.84 39.95 95.73 39.89 93.62 39.6 91.5 39.74 89.39 39.65 87.27 39.75 85.16 39.43 83.05 39.55 80.93 39.35 78.82 39.64 76.71 39.49 74.6 39.66 72.48 39.73 70.37 39.99 68.26 39.59 66.14 39.78 64.03 39.42 61.91 39.33 59.8 39.76 57.69 39.46 55.57 39.64 53.46 39.69 51.34 39.79 49.23 39.5 47.12 39.53 45 39.83 42.89 39.58 40.78 39.65 38.67 39.67 36.55 39.37 34.44 39.89 32.33 39.47 30.21 39.9 28.09 39.67 25.98 39.78 23.87 39.82 21.76 39.4 19.65 39.4 17.54 39.72 15.43 39.8 13.32 39.43 11.21 39.7 9.1 39.94 6.99 39.48 5 39.55"/><polyline class="cls-1" points="722.36 31.21 720.18 31.24 718.05 30.86 715.89 30.88 713.73 30.55 711.58 30.91 709.39 30.75 707.25 31.13 705.08 31.41 702.98 32.03 700.89 32.65 698.97 33.72 696.93 34.5 695.39 36.12 693.28 36.92 691.74 38.48 690.62 40.37 689.45 42.16 688.24 43.93 687.09 45.79 686.79 47.97 686.13 50.02 685.21 52.03 685.66 54.22 685.19 56.34 685.37 58.49 685.9 60.58 686.45 62.68 687.9 64.33 689.21 66 690.74 67.54 692.72 68.47 694.92 68.27 697.02 68.78 699.2 68.66 701.26 67.95 703.12 66.83 704.7 65.35 706.33 64.02 708.15 62.87 709.57 61.28 710.83 59.57 712.36 58.07 713.76 56.44 714.82 54.59 715.61 52.57 716.91 50.87 717.9 48.97 718.89 47.19 717.47 48.79 716.75 50.85 715.82 52.81 715.5 55 714.52 56.95 713.6 58.95 713.72 61.19 713.27 63.32 713.48 65.52 714.68 67.33 716.36 68.77 718.56 69.09 720.77 69.02 722.91 68.6 724.98 67.89 726.94 66.94 729.04 66.4 730.79 65.1 732.62 64 734.64 63.12 736.04 61.44 737.95 60.3 739.46 58.73 740.44 56.74 741.57 54.9 743.21 53.39 744.01 51.35 744.74 49.29 746.02 47.52 747.04 45.62 748.14 43.74 748.58 41.58 749.41 39.58 749.95 37.47 750.95 35.54 752.04 33.62 752.37 31.42 751.5 33.41 750.87 35.46 749.84 37.38 749.87 39.65 749.18 41.67 748.37 43.67 747.43 45.64 747.22 47.81 747.06 49.97 746.14 51.98 746.24 54.17 745.47 56.24 745.92 58.43 745.38 60.58 746.16 62.65 746.7 64.66 747.64 66.49 749.11 68.09 751.26 68.62 753.41 68.24 755.42 67.54 757.47 66.95 759.39 66.03 761.01 64.61 762.78 63.45 764.47 62.18 766.57 61.43 767.9 59.69 769.47 58.25 771.06 56.86 772.58 55.38 774.37 54.18 776.1 52.91 777.37 51.16 778.8 49.59 780.31 48.09 781.67 46.46 783.01 44.81 784.71 43.47 785.84 41.63 787.54 40.28 788.91 38.65 790.03 36.82 791.07 34.94 792.66 33.47 793.92 31.75 794.88 29.83 796.23 28.18 797.57 26.51 798.35 24.48 799.24 22.55 800.45 20.8 801.89 19.14 802.38 17.02 803.61 15.21 803.65 12.99 804.5 11 804.61 8.8 803.61 6.81 801.96 5.32 799.77 5 797.67 5.32 795.63 6.01 793.87 7.24 792.46 8.88 790.82 10.23 789.11 11.56 787.96 13.39 786.95 15.3 785.7 17.02 784.51 18.79 783.29 20.54 782.34 22.45 781.16 24.24 780.24 26.16 779.15 28.02 778.33 29.99 777.6 32.01 776.86 34.01 776.41 36.12 775.3 38.01 774.83 40.1 774.33 42.18 773.56 44.22 773.82 46.43 773.6 48.54 773.44 50.66 773.23 52.79 773.26 54.93 774.02 56.96 774.08 59.17 775.5 60.85 776.17 62.98 778.09 64.08 779.59 65.69 781.64 66.43 783.83 66.47 785.93 66.61 788 67.16 790.12 67.41 792.24 67.61 794.38 67.5 796.48 67.12 798.55 66.59 800.62 66.16 802.62 65.48 804.76 65.24 806.73 64.46 808.62 63.49 810.67 62.81 812.28 61.38 813.88 60 815.71 58.89 817.02 57.2 818.31 55.54 819.61 53.86 820.35 51.88 821.02 49.88 821.18 47.78 821.19 45.57 819.57 44.06 817.75 42.81 815.57 42.59 813.38 42.25 811.35 43.23 809.29 43.73 807.29 44.52 805.79 46.07 804 47.34 803.29 49.41 802.73 51.43 802.1 53.51 802.18 55.67 802.41 57.79 802.16 60.06 803.38 61.93 804.59 63.74 806.13 65.32 808.3 65.87 810.27 66.67 812.36 67.16 814.5 67.39 816.66 67.41 818.83 67.5 820.95 66.98 823.1 66.78 825.3 66.75 827.42 66.26 829.42 65.33 831.53 64.81 833.65 64.31 835.63 63.68 837.71 63.26 839.5 62.13 841.48 61.44 843.18 60.21 844.78 58.87 846.42 57.62 848.2 56.5 849.75 55.1 851.35 53.74 852.35 51.83 853.93 50.45 855.29 48.88 856.9 47.55 858.48 46.23 859.92 44.7 861.73 43.66 863.61 42.76 865.61 42.18 867.46 41.23 869.5 40.85 871.37 39.73 873.41 39.26 875.59 39.55 877.7 39.4 879.8 38.95 881.92 39.26 884.03 39.14 886.14 38.97 888.25 38.82 890.37 39.05 892.48 38.78 894.6 39.31 896.71 39.08 898.83 38.95 900.94 38.95 903.05 39.06 905.16 38.52 907.27 38.62 909.39 38.83 911.5 38.71 913.62 38.85 915.73 38.62 917.84 38.62 919.96 39.15 922.07 39.03 924.19 39.06 926.3 38.37 928.41 38.51 930.53 38.8 932.64 38.83 934.76 38.73 936.87 38.8 938.99 38.96 941.1 38.74 943.22 38.29 945.34 38.83 947.45 39.01 949.56 38.3 951.68 38.54 953.8 38.76 955.91 39.01 958.03 38.58 960.14 38.45 962.26 38.34 964.38 38.52 966.49 38.66 968.59 38.43 970.7 38.44 972.81 38.83 974.92 38.22 977.03 38.74 979.14 38.28 981.25 38.84 983.37 38.2 985.48 38.81 987.59 38.61 989.7 38.74 991.81 38.3 993.92 38.94 996.03 38.55 998.14 38.55 1000.26 38.75 1002.37 38.48 1004.48 38.74 1006.59 38.77 1008.71 38.77 1010.82 38.76 1012.93 38.48 1015.04 38.92 1017.16 38.55 1019.27 38.81 1021.38 38.77 1023.5 38.6 1025.61 38.62 1027.72 38.29 1029.84 38.9 1031.95 38.42 1034.07 38.86 1036.18 38.81 1038.29 38.5 1040.41 38.74 1042.52 38.66 1044.64 38.64 1046.75 38.85 1048.87 38.81 1050.98 38.22 1053.09 38.33 1055.21 38.46 1057.32 38.77 1059.44 38.71 1061.55 38.32 1063.67 38.26 1065.79 38.74 1067.9 38.85 1070.02 38.36 1072.13 38.29 1074.25 38.28 1076.36 38.7 1078.48 38.34 1080.59 38.25 1082.7 38.88 1084.82 38.41 1086.93 38.63 1089.04 38.22 1091.15 38.79 1093.27 38.72 1095.38 38.34 1097.49 38.3 1099.61 38.37 1101.72 38.56 1103.84 38.48 1105.95 38.79 1108.07 38.34 1110.18 38.35 1112.3 38.51 1114.41 38.68 1116.53 38.28 1118.64 38.76 1120.76 38.88 1122.87 38.28 1124.99 38.59 1127.1 38.9 1129.22 38.53 1131.34 38.88 1133.45 38.57 1135.57 38.51 1137.68 38.53 1139.8 38.41 1141.91 38.47 1144.03 38.65 1146.15 38.53 1148.27 38.34 1150.38 38.31 1152.5 38.7 1154.62 38.73 1156.73 38.47 1158.85 38.77 1160.97 38.75 1163.09 38.67 1165.21 38.6 1167.33 38.63 1169.45 38.99 1171.57 38.53 1173.69 38.55 1175.81 38.67 1177.93 39.07 1180.05 39.06 1182.17 38.39 1184.29 38.85 1186.41 38.98 1188.54 38.64 1190.66 38.86 1192.78 38.6 1194.9 38.47 1197.02 38.44 1199.14 38.64 1201.26 38.51 1203.38 38.48 1205.5 38.68 1207.62 38.91 1209.73 38.89 1211.86 38.94 1213.98 38.49 1216.1 39.01 1218.22 38.67 1220.34 38.47 1222.46 38.6 1224.58 38.95 1226.7 38.59 1228.82 38.8 1230.94 39.24 1233.06 38.78 1235.18 39.12 1237.3 38.89 1239.42 38.83 1241.54 38.94 1243.67 38.55 1245.79 38.91 1247.91 38.62 1250.03 38.58 1252.15 38.76 1254.27 38.64 1256.39 39.17 1258.51 39.05 1260.63 39.27 1262.75 38.73 1264.87 39.12 1266.99 38.83 1269.12 38.74 1271.24 39.33 1273.36 38.8 1275.48 39.24 1277.6 39.16 1279.72 39.3 1281.84 38.78 1283.96 38.92 1286.08 38.81 1288.2 38.91 1290.33 38.76 1292.45 38.71 1294.57 39.15 1296.69 39.13 1298.81 39.17 1300.93 39.34 1303.05 38.71 1305.17 39.09 1307.29 39.47 1309.41 39.2 1311.53 39.19 1313.65 39.25 1315.77 39.23 1317.89 39.08 1320.01 39.01 1322.13 38.8 1324.25 39.22 1326.37 38.86 1328.49 38.86 1330.61 38.9 1332.72 39.24 1334.84 39.17 1336.96 39.12 1339.08 39.09 1341.2 39.15 1343.32 39.19 1345.44 39.01 1347.56 38.89 1349.67 39.09 1351.79 39.06 1353.91 39.57 1356.03 39.44 1358.14 39.26 1360.26 39.47 1362.38 39.12 1364.49 39.41 1366.61 38.98 1368.73 39.23 1370.84 39.06 1372.96 39.45 1375.07 39.31 1377.19 39.69 1379.3 39.58 1381.42 39.3 1383.53 38.99 1385.64 39.72 1387.76 39.52 1389.88 39.56 1391.99 39.33 1394.11 39.41 1396.22 39.53 1398.34 39.09 1400.46 39.65 1402.57 39.36 1404.69 39.23 1406.81 39.43 1408.92 39.48 1411.04 39.69 1413.15 39.74 1415.27 39.31 1417.38 39.76 1419.49 39.61 1421.61 39.21 1423.73 39.28 1425.84 39.61 1427.96 39.46 1430.08 39.57 1432.19 39.47 1434.31 39.83 1436.42 39.7 1438.53 39.94 1440.65 39.61 1442.76 39.79 1444.87 39.61 1446.98 39.54 1449.09 39.25 1451.2 39.71 1453.43 39.62"/><path class="cls-2" d="M756.83,6.21c-.55,0-1,.43-1.51.57a6.44,6.44,0,0,0-1.56.32A6.61,6.61,0,0,0,752.4,8a6.34,6.34,0,0,0-1,1.3,6.48,6.48,0,0,0-.62,1.51,6.69,6.69,0,0,0-.06,1.62A6.18,6.18,0,0,0,751,14a6.34,6.34,0,0,0,.52,1.5,6.61,6.61,0,0,0,1,1.26,6.42,6.42,0,0,0,1.19,1.08,6.76,6.76,0,0,0,1.49.7,6.69,6.69,0,0,0,1.63.15,6.2,6.2,0,0,0,1.62-.19,6.58,6.58,0,0,0,1.44-.75,6.61,6.61,0,0,0,1.22-1,6.24,6.24,0,0,0,.94-1.27,6.12,6.12,0,0,0,.72-1.42,6.43,6.43,0,0,0,.08-1.59,6.75,6.75,0,0,0,0-1.62,6.73,6.73,0,0,0-.73-1.44A6.19,6.19,0,0,0,761,8.2a6.1,6.1,0,0,0-1.13-1.14,6.39,6.39,0,0,0-1.55-.37A5.92,5.92,0,0,0,756.83,6.21Z"/></g></g></svg>