<svg xmlns="http://www.w3.org/2000/svg" viewBox="0 0 224.3 254.07"><defs><style>.cls-1{fill:#fffeff;}.cls-2{fill:#ffdc64;}.cls-3{fill:#eb6e50;}</style></defs><g id="Layer_2" data-name="Layer 2"><g id="レイヤー_1" data-name="レイヤー 1"><path class="cls-1" d="M159.82,34.05a17.43,17.43,0,0,1,6.25,6.59,109.86,109.86,0,0,0-11.27.68,24.92,24.92,0,0,0-10.06-7.5,17.63,17.63,0,0,1,7.17,7.85c-3.67.51-7.63,1.22-11.85,2.2a27.48,27.48,0,0,0-8.5-4.26,24.92,24.92,0,0,1,5.42,5,140.38,140.38,0,0,0-16.84,5.55,37.25,37.25,0,0,1,40.17,16.09,49,49,0,0,1,8,21,108.37,108.37,0,0,0-11.58-10.74,17.21,17.21,0,0,0-.54-3.64,10.68,10.68,0,0,0-2.93-5,12.94,12.94,0,0,1,.24,5.64c0,.13,0,.27-.08.4-1-.77-2.06-1.54-3.16-2.32a16.92,16.92,0,0,0-.65-3.18A44.39,44.39,0,0,0,147,62a24.81,24.81,0,0,1,0,7.3c-1.44-1-2.94-1.92-4.49-2.86a22.37,22.37,0,0,0-3.06-9.32,25.36,25.36,0,0,1,.26,7.68,96.47,96.47,0,0,0-21.56-9.11C133.7,87.41,151,140.78,155.66,217l-23.26-2.51c0-.82,0-1.64-.06-2.44-1.69-70.19-6.58-117.54-20.09-154.55h0c-3.28,8.33-5.28,18.82-6,29.16a34.84,34.84,0,0,1-7.34-5.8A34.11,34.11,0,0,0,105.94,92c-.11,3.37-.09,6.74.06,10.08a41.31,41.31,0,0,1-7.85-5c1.88,4.11,7.06,8.08,8.07,8.83a112.55,112.55,0,0,0,2.39,16.68c-9.84-10.37-17.38-22.78-18.2-36A37.83,37.83,0,0,1,92.09,73l.07-.23h0s0,0,0,0a36.66,36.66,0,0,1,5.64-10.91A125,125,0,0,0,81.2,80.38a21.06,21.06,0,0,1-3.67-6.25A22.51,22.51,0,0,0,79.33,83c-1.55,2.25-3.08,4.61-4.55,7.1a35,35,0,0,1-3.32-5.83,11,11,0,0,1-1.06-3.59,30.93,30.93,0,0,0,2.95,12,114.25,114.25,0,0,0-8.47,19,.15.15,0,0,1,0-.06c-3.43-12-4.15-20.73-1.25-30a49.68,49.68,0,0,1,16.84-24,38.18,38.18,0,0,1,13.68-6.49h0a60.53,60.53,0,0,1,6.29-1.32,114,114,0,0,0-20.32,2.81c.22-1.88,1.09-4.59,1.32-6.47a18.83,18.83,0,0,0-6.16,7.23A44.59,44.59,0,0,0,65,55.82a46,46,0,0,1,1.85-7,15.83,15.83,0,0,0-6.4,8.53c-9.73,2.94-13.91,4.16-22.64,9.41,9.06-24.6,25.93-32.07,44.83-31.5,8.07.23,17.07,3.44,24.29,8.3A64,64,0,0,0,85.18,24.93a21.53,21.53,0,0,1,5-5.3,24.5,24.5,0,0,0-7.78,3.93c-1.9-.88-3.89-1.73-6-2.5a7.15,7.15,0,0,1,.49-.73A21,21,0,0,1,80.49,17l3.88-3.1a37.22,37.22,0,0,0-10,4.65c-.6.37-1.21.75-1.8,1.17a77.54,77.54,0,0,0-13.35-2.89c2.33-3.71,8.69-8,14.35-9.64A25.74,25.74,0,0,1,90.87,8.38a31.37,31.37,0,0,1,8.51,5.82C106,20.36,110,28.84,111.56,37.79a64,64,0,0,1,1.64-12.4c2.07-8.68,6.38-18.77,14.53-23.26a15.71,15.71,0,0,1,15.06-.4c4.23,2.22,7,5.49,9.42,10.67a41.87,41.87,0,0,0-5.89-.19,10.77,10.77,0,0,0-6.88-4c0,.18.15.31.3.4A13.09,13.09,0,0,1,144,12.37a25.37,25.37,0,0,0-6,1.25,7.92,7.92,0,0,0-5.5-2.67,17,17,0,0,1,3.82,3.37,11.52,11.52,0,0,0-2.19,1.36A40.6,40.6,0,0,0,128.61,21a12.28,12.28,0,0,0-5.26-.9,9.23,9.23,0,0,1,4.13,2.29A66,66,0,0,0,117.3,41.7a32.22,32.22,0,0,1,3.59-4.23c8.59-8.14,19.76-12.34,30.71-11.56s21.58,6.57,29.2,15.87a65.55,65.55,0,0,0-12-1.13C167,38,164.79,36,159.82,34.05Z"/><path class="cls-1" d="M209.49,134.5c1.91,5.4,1.69,10.56-.06,17.69a67.29,67.29,0,0,0-5.4-11,17.93,17.93,0,0,0,1.45-7,6.1,6.1,0,0,1-.54,2.08,21.11,21.11,0,0,1-1.81,3.5c-.92-1.44-1.87-2.78-2.83-4.07a13.43,13.43,0,0,0,.85-5.26,12.24,12.24,0,0,1-2,3.76A73.44,73.44,0,0,0,189,123.69,22.14,22.14,0,0,1,193.86,138c-.17,7.76-4.32,15.23-9.85,21.55a67.79,67.79,0,0,0,1-9.85l.55-.46a15.47,15.47,0,0,0,4-4.92,22.9,22.9,0,0,1-3.84,2.75c-.21.14-.43.26-.65.38,0-2-.06-3.95-.2-5.91.31-.36.6-.72.87-1.09a19.8,19.8,0,0,0,3-5.63,19.53,19.53,0,0,1-3.22,2.92c-.31.23-.63.44-1,.66a60.2,60.2,0,0,0-4.21-17c-7.17,22.31-10.61,55.65-9.94,97.7l-11.9-3c0-.47,0-.93,0-1.39,1.13-44,10-75.28,18.24-94a.61.61,0,0,1,.05-.11,57.14,57.14,0,0,0-12.45,5.84,15.22,15.22,0,0,1,0-4.52,13.19,13.19,0,0,0-1.58,5.55c-.9.59-1.75,1.19-2.57,1.78a15,15,0,0,1-.16-4.29,28.58,28.58,0,0,0-1.37,3.79,10.35,10.35,0,0,0-.31,1.89c-.62.49-1.22,1-1.8,1.44l-.06-.25a7.81,7.81,0,0,1,0-3.3,6.21,6.21,0,0,0-1.6,3,9.05,9.05,0,0,0-.23,2.14,62.34,62.34,0,0,0-6.56,6.58,1.11,1.11,0,0,0,0-.13,29,29,0,0,1,4.18-12.38,22.23,22.23,0,0,1,12.26-9.77,22.64,22.64,0,0,1,2.58-.65q1-.18,2-.27a21.83,21.83,0,0,1,6.35.34,82.43,82.43,0,0,0-10-2.89,15,15,0,0,1,3.08-3.08,16.57,16.57,0,0,0-4.9,2.7c-2.5-.48-4.83-.8-7-1a10.4,10.4,0,0,1,4-4.78,14.61,14.61,0,0,0-5.74,4.64c-2.47-.18-4.69-.21-6.63-.16a10.22,10.22,0,0,1,3.52-4c-2.87,1.26-4.15,2.49-5.12,4.08a38.59,38.59,0,0,0-7,.94,24.79,24.79,0,0,1,16.78-10,24,24,0,0,1,18.3,6.09,17.75,17.75,0,0,1,2.2,2.4,38.9,38.9,0,0,0-6.4-11.12A5.34,5.34,0,0,1,173,99.74a7.4,7.4,0,0,0-3.07.66,22.29,22.29,0,0,0-3.35-3,7.31,7.31,0,0,0-1.31-.75,10.11,10.11,0,0,1,2.17-2.06,4.66,4.66,0,0,0-3.17,1.68,16.42,16.42,0,0,0-3.58-.59,8,8,0,0,1,2.42-2.31c.08-.05.19-.14.18-.23a6.26,6.26,0,0,0-4,2.51,23.19,23.19,0,0,0-3.46.25c1.33-3.11,2.84-5.09,5.28-6.48A9.18,9.18,0,0,1,170,89.3c4.89,2.46,7.65,8.28,9.07,13.32a38.17,38.17,0,0,1,1.25,7.26A24.6,24.6,0,0,1,187,95.74a18.31,18.31,0,0,1,4.86-3.61,15.1,15.1,0,0,1,10.12-1.07c3.35.8,7.18,3.2,8.63,5.33a46.28,46.28,0,0,0-7.76,2c-.35-.23-.72-.43-1.09-.63a21.4,21.4,0,0,0-6-2.51L198.11,97a12,12,0,0,1,2.15,1.86c.12.14.2.27.3.41-1.2.5-2.36,1.05-3.45,1.61a14.55,14.55,0,0,0-4.65-2.13,12.32,12.32,0,0,1,3.07,3,37.64,37.64,0,0,0-12.36,11.41,28.14,28.14,0,0,1,14.08-5.44c11.08-.75,21.16,3.24,27.05,17.48-5.26-2.89-7.73-3.5-13.51-5a9.47,9.47,0,0,0-4-4.87,26.36,26.36,0,0,1,1.25,4.11,26.35,26.35,0,0,0-6.08-1.23,11.14,11.14,0,0,0-3.78-4.11c.17,1.1.74,2.68.91,3.78a65.58,65.58,0,0,0-12-1.19,25.5,25.5,0,0,1,11.9,4.13A29.25,29.25,0,0,1,209.49,134.5Z"/><path class="cls-1" d="M134.13,197.46s5,.19,7.43,1.07c0,0-6.66.21-7.55.72"/><path class="cls-1" d="M160.85,208.72a9.91,9.91,0,0,1,4,.85s-3.6-.27-4.1.27"/><path class="cls-1" d="M161.2,191.83a9.91,9.91,0,0,1,4,.85s-3.61-.49-4.1,0"/><path class="cls-1" d="M163.71,170a9.91,9.91,0,0,1,4,.85s-3.6-.49-4.1,0"/><path class="cls-1" d="M167.81,148.82a10,10,0,0,1,4,.84s-3.61-.36-4.1.18"/><path class="cls-1" d="M132.36,167.85a53.7,53.7,0,0,1,8.26,1s-7.38,0-8.35.4"/><path class="cls-1" d="M130.6,142.37a19.3,19.3,0,0,1,5,.78s-4.47.21-5.07.61"/><path class="cls-1" d="M126.58,110.45a15.13,15.13,0,0,1,3.91.62,20.56,20.56,0,0,0-4,.49"/><path class="cls-1" d="M121.07,84.38a8.29,8.29,0,0,1,2.36.4,11.71,11.71,0,0,0-2.41.34"/><path class="cls-2" d="M64.87,111.61c-3.43-12-4.15-20.73-1.25-30a49.68,49.68,0,0,1,16.84-24,38.18,38.18,0,0,1,13.68-6.49C55.28,67.61,64.45,109.8,64.87,111.61Z"/><path class="cls-2" d="M135.41,212.14l-3.07-.1h0c-1.69-70.19-6.58-117.54-20.09-154.55C112.58,58.07,133.67,96,135.41,212.14Z"/><path class="cls-2" d="M108.61,122.54c-9.84-10.37-17.38-22.78-18.2-36A37.83,37.83,0,0,1,92.09,73C91.34,75.64,85.94,97.67,108.61,122.54Z"/><path class="cls-2" d="M161.59,215.24l-3-.52c1.13-44,10-75.29,18.24-94.06C175.85,123.06,159.57,164.21,161.59,215.24Z"/><path class="cls-2" d="M169.23,117c-17.47,3.47-20.79,21.4-21.06,23.07a29,29,0,0,1,4.18-12.38,22.23,22.23,0,0,1,12.26-9.77,22.64,22.64,0,0,1,2.58-.65Z"/><path class="cls-2" d="M185,149.73l.55-.46A82.93,82.93,0,0,1,184,159.58,67.79,67.79,0,0,0,185,149.73Z"/><path class="cls-2" d="M184.59,138.43a60.2,60.2,0,0,0-4.21-17s4.07,5.19,5.17,16.33C185.24,138,184.92,138.21,184.59,138.43Z"/><path class="cls-2" d="M185.73,147.1c-.21.14-.43.26-.65.38,0-2-.06-3.95-.2-5.91.31-.36.6-.72.87-1.09A63.75,63.75,0,0,1,185.73,147.1Z"/><path class="cls-1" d="M54.9,243.28c4.69-4.63-40.68,2.33-39.93.06S68.89,231,69.87,227.16c.55-2.18-10.91.15-10.91.15,12.23-5.44,65.18-15.26,84.25-13.45s41.33,3.2,60.12,19.11c12,10.18,14.48,18.47,14.89,21.1H0C9.44,251.58,53,245.18,54.9,243.28Z"/><path class="cls-3" d="M84.74,240.7a.47.47,0,0,0-.44-.33,4.54,4.54,0,0,0-1.27,0,22.13,22.13,0,0,0-3,.63c-.45.13-.48-.12-.65-.32s-.3-.35-.46-.52a5,5,0,0,0-1.25-1,1.84,1.84,0,0,0-1.37-.19c-.46.14-.59.63-.66.9a6.24,6.24,0,0,0-.16,1.47v.68a2.75,2.75,0,0,1,0,.4c0,.29-.74.45-1,.57-.62.25-1.25.5-1.85.78a3.88,3.88,0,0,0-1.48.94c-.36.49.32.75.84.8a10,10,0,0,0,1.63,0c.25,0,.5-.05.75-.06s.46-.06.58,0,.06.47,0,.65a7.85,7.85,0,0,0-.09,1.07c0,.42,0,1,.32,1.31a.63.63,0,0,0,.42.11c1.2,0,2.7-2.72,3.33-2.75s3.2,1.14,4.49.36c.45-.27-.11-.95-.25-1.15s-.52-.64-.76-1-.51-.51-.37-.74a5,5,0,0,1,1-.94c.4-.33.8-.67,1.16-1C84.43,241.25,84.84,240.9,84.74,240.7Z"/><path class="cls-3" d="M94.54,242.22a.23.23,0,0,0-.16-.22,2.16,2.16,0,0,0-.58-.16,11.83,11.83,0,0,0-1.45-.13c-.23,0-.21-.12-.26-.24s-.08-.2-.13-.3a2.18,2.18,0,0,0-.44-.63.82.82,0,0,0-.6-.28c-.23,0-.35.2-.43.32a3,3,0,0,0-.27.64c0,.11-.07.21-.1.32a1.21,1.21,0,0,1-.05.18c-.06.13-.4.11-.55.12q-.48,0-1,.09a2,2,0,0,0-.81.22c-.23.18,0,.39.27.49a4.61,4.61,0,0,0,.75.21l.36.08a.73.73,0,0,1,.26.09c.07.08,0,.22-.08.3a4.78,4.78,0,0,0-.19.48c-.06.19-.17.46,0,.65a.27.27,0,0,0,.18.1c.54.19,1.62-.86,1.91-.78s1.31,1,2,.8c.24-.06.08-.45,0-.56a5.2,5.2,0,0,0-.21-.55c0-.1-.16-.3-.06-.39a2.49,2.49,0,0,1,.59-.29c.23-.1.46-.19.68-.31S94.55,242.32,94.54,242.22Z"/></g></g></svg>