<svg xmlns="http://www.w3.org/2000/svg" viewBox="0 0 22.21 20"><defs><style>.cls-1{fill:#fff;}</style></defs><g id="Layer_2" data-name="Layer 2"><g id="レイヤー_1" data-name="レイヤー 1"><path class="cls-1" d="M21.11,0h-20A1.11,1.11,0,0,0,0,1.11V18.89A1.11,1.11,0,0,0,1.11,20h20a1.11,1.11,0,0,0,1.1-1.11V1.11A1.11,1.11,0,0,0,21.11,0ZM18.42,2.23a1.25,1.25,0,1,1-1.24,1.25A1.24,1.24,0,0,1,18.42,2.23Zm-3.93,0a1.25,1.25,0,1,1-1.24,1.25A1.24,1.24,0,0,1,14.49,2.23Zm-3.93,0A1.25,1.25,0,1,1,9.32,3.48,1.25,1.25,0,0,1,10.56,2.23Zm9.8,15.92H1.85V6.48H20.36Z"/><rect class="cls-1" x="3.79" y="8.43" width="9.82" height="1.98"/><rect class="cls-1" x="3.79" y="12.4" width="14.63" height="1.98"/></g></g></svg>