<svg xmlns="http://www.w3.org/2000/svg" viewBox="0 0 69.77 70"><defs><style>.cls-1{fill:#fff;}.cls-2{fill:#455a64;}.cls-3{fill:#263238;}.cls-4{fill:#eb996e;}.cls-5{fill:#aa6550;}</style></defs><g id="Layer_2" data-name="Layer 2"><g id="レイヤー_1" data-name="レイヤー 1"><rect class="cls-1" width="69.77" height="69.77" rx="31.72"/><path class="cls-2" d="M8.63,58.79S20.05,54.09,31.12,54s29.22,5.62,29.22,5.62S50.25,71.82,31.12,69.77C15.17,68.05,8.63,58.79,8.63,58.79Z"/><path class="cls-3" d="M18.21,11.64c-2.59,1.52-3.22,4.93-3.52,7.93S14,26,11.53,27.71c-2,1.45-5.21,1.65-6,4a2.9,2.9,0,0,0,.87,3.14,2.89,2.89,0,0,0,3.24.23A4.88,4.88,0,0,0,10,40.75c1.44,1.46,4.32,1.27,5.2-.58A2.58,2.58,0,0,0,16.6,43.5a2.57,2.57,0,0,0,3.24-1.56"/><path class="cls-3" d="M49.25,37.87a3,3,0,1,0,5.83-1.25c-.3-1.22-1.36-2.25-1.24-3.5.13-1.51,1.84-2.28,3.31-2.68s3.19-.94,3.61-2.4-.66-2.76-1.56-3.91-1.67-2.84-.77-4c.46-.59,1.24-.83,1.8-1.32a3.3,3.3,0,0,0,0-4.48,6,6,0,0,0-4.51-1.73,43.39,43.39,0,0,0-4.94.55A19.83,19.83,0,0,1,35.65,8.21"/><path class="cls-4" d="M18.23,23.31l1.16,33.9A10.75,10.75,0,0,0,30.57,67.59h0A10.75,10.75,0,0,0,40.88,57.35c.15-3,.26-5.43.26-5.43s8.59-1,9-9.52c.21-4.12,0-12.65-.36-20.36A15.91,15.91,0,0,0,34.54,6.8l-.82,0A15.8,15.8,0,0,0,18.23,23.31Z"/><path class="cls-5" d="M41.16,51.8a19.88,19.88,0,0,1-11-3.61S32.54,54.44,41.09,54Z"/><path class="cls-3" d="M46.2,27.67A1.23,1.23,0,0,1,45,28.85a1.16,1.16,0,0,1-1.21-1.15A1.22,1.22,0,0,1,45,26.52,1.17,1.17,0,0,1,46.2,27.67Z"/><path class="cls-3" d="M47.82,26.16c-.16.15-1.06-.57-2.37-.62s-2.3.57-2.43.4.09-.35.52-.64a3.39,3.39,0,0,1,2-.52,3.29,3.29,0,0,1,1.88.69C47.77,25.79,47.89,26.09,47.82,26.16Z"/><path class="cls-3" d="M33.56,27.31a1.23,1.23,0,0,1-1.23,1.18,1.16,1.16,0,0,1-1.21-1.15,1.22,1.22,0,0,1,1.22-1.18A1.17,1.17,0,0,1,33.56,27.31Z"/><path class="cls-3" d="M34.91,25.89c-.15.15-1-.57-2.36-.61s-2.3.57-2.44.4.1-.36.53-.64a3.31,3.31,0,0,1,2-.52,3.22,3.22,0,0,1,1.88.68C34.87,25.53,35,25.82,34.91,25.89Z"/><path class="cls-3" d="M39.29,35.8a9.29,9.29,0,0,1,2.15-.3c.33,0,.65-.07.72-.3a1.68,1.68,0,0,0-.19-1l-.89-2.59a43.65,43.65,0,0,1-2-6.76,44,44,0,0,1,2.5,6.59l.85,2.6a2,2,0,0,1,.12,1.32.83.83,0,0,1-.57.47,2.46,2.46,0,0,1-.57.06A8,8,0,0,1,39.29,35.8Z"/><path class="cls-3" d="M35.39,36.56c.22,0,.16,1.42,1.34,2.48s2.7,1,2.71,1.16-.35.26-1,.25a3.55,3.55,0,0,1-2.26-.88,3.06,3.06,0,0,1-1-2.08C35.12,36.89,35.3,36.55,35.39,36.56Z"/><path class="cls-3" d="M35.46,20.76c-.15.36-1.45.14-3,.26s-2.8.49-3,.17c-.09-.16.14-.49.66-.81a4.94,4.94,0,0,1,2.24-.69,5,5,0,0,1,2.32.37C35.25,20.31,35.52,20.6,35.46,20.76Z"/><path class="cls-3" d="M47.48,22.34c-.24.29-1.13-.06-2.22-.11s-2,.12-2.21-.2c-.09-.16.07-.45.48-.72a3.15,3.15,0,0,1,1.83-.41,3.09,3.09,0,0,1,1.75.67C47.48,21.89,47.59,22.2,47.48,22.34Z"/><path class="cls-3" d="M27.86,14.32l-.05,0a6.7,6.7,0,0,0-2.66,4.25l0,.17c-.43,2.42-.47,4.9-.92,7.31a11.08,11.08,0,0,1-3.26,6.46c-.77.66-2.09,1.09-2.67.25A2,2,0,0,1,18,31.67c-.22-5.9-1.62-11.18-1.37-17.32A5.18,5.18,0,0,1,19,10.22c1.32-.88,2.93-1.77,4.33-1s3.15,3.49,4.22,4.67"/><path class="cls-4" d="M21,27.28c-.14-.06-5.79-2-5.84,3.88s5.83,4.68,5.84,4.51S21,27.28,21,27.28Z"/><path class="cls-5" d="M19.19,33.45s-.11.07-.28.15a1.08,1.08,0,0,1-.76,0A2.53,2.53,0,0,1,17,31.34a3.43,3.43,0,0,1,.3-1.46,1.17,1.17,0,0,1,.77-.77.52.52,0,0,1,.6.28c.07.16,0,.28.07.29s.12-.1.08-.34a.73.73,0,0,0-.23-.37.79.79,0,0,0-.56-.15,1.44,1.44,0,0,0-1.07.9,3.44,3.44,0,0,0-.37,1.63,2.65,2.65,0,0,0,1.47,2.53,1.08,1.08,0,0,0,.93-.15C19.17,33.59,19.21,33.46,19.19,33.45Z"/><path class="cls-3" d="M23.06,10.08C21.72,7.69,25.78,4.49,28.7,3.7s6.65.76,9.48,1.82C40,6.19,41.74,7.1,43.64,7.1a13.09,13.09,0,0,0,3.74-.8,9.36,9.36,0,0,1,3.76-.59,3.52,3.52,0,0,1,3,2.07,2.21,2.21,0,0,1-1.59,2.92A3,3,0,0,1,56.67,13,3,3,0,0,1,53.09,16c.86-.6,2.09.49,1.95,1.52A3,3,0,0,1,53,19.69c-2.47,1-5.29.52-7.78-.42s-4.77-2.36-7.23-3.37-6.58-2.81-9.12-2c-1.87.58-3.24,2.75-4.26,2.22a3.53,3.53,0,0,1-1.74-2.69,10.31,10.31,0,0,1,.24-3.32"/><path class="cls-2" d="M49.53,9.71A1.56,1.56,0,0,1,51,10a2.94,2.94,0,0,1,1.11,1.38,2.89,2.89,0,0,1,0,2.34c-.76,1.67-3,2.67-5.29,2.42a14.38,14.38,0,0,1-6.68-2.9,34.89,34.89,0,0,0-6-3.85,9.39,9.39,0,0,0-3-.79,7.42,7.42,0,0,0-2.64.34,5.41,5.41,0,0,0-3,2.26,8.64,8.64,0,0,0-.58,1.32s0-.14,0-.39a3.66,3.66,0,0,1,.36-1,5.57,5.57,0,0,1,3.11-2.52,7.42,7.42,0,0,1,2.78-.42,9.63,9.63,0,0,1,3.14.77,34.28,34.28,0,0,1,6.16,3.87,14.1,14.1,0,0,0,6.42,2.85c2.13.26,4.19-.64,4.89-2.09a2.57,2.57,0,0,0,.09-2.06,2.64,2.64,0,0,0-.94-1.31A2.43,2.43,0,0,0,49.53,9.71Z"/><path class="cls-2" d="M33.7,6.13c0,.09-.77-.19-2-.28a8.3,8.3,0,0,0-8,4.33C23.12,11.26,23,12,22.86,12a4,4,0,0,1,.52-2,7.94,7.94,0,0,1,8.35-4.53A4,4,0,0,1,33.7,6.13Z"/><path class="cls-2" d="M17.59,20.62c-.06,0-.36-.55-.43-1.59a6,6,0,0,1,4.39-6.14,2.83,2.83,0,0,1,1.65-.1c0,.09-.62.13-1.53.47A6.19,6.19,0,0,0,17.54,19C17.51,20,17.67,20.6,17.59,20.62Z"/></g></g></svg>