<svg xmlns="http://www.w3.org/2000/svg" viewBox="0 0 70 70"><defs><style>.cls-1{fill:#fff;}.cls-2{fill:#e8505b;}.cls-3{fill:#ffbe9d;}.cls-4{fill:#263238;}.cls-5{fill:#eb996e;}.cls-6{fill:#455a64;}</style></defs><g id="Layer_2" data-name="Layer 2"><g id="レイヤー_1" data-name="レイヤー 1"><path class="cls-1" d="M50.27,52.3a12.07,12.07,0,0,1-3.47-.73l.09,6.07A53.55,53.55,0,0,1,58.32,61.1,35.08,35.08,0,0,0,68,46.62Q62.7,49,57.19,50.92A18.85,18.85,0,0,1,50.27,52.3Z"/><path class="cls-1" d="M35,0h0A35,35,0,0,0,0,35H0A34.93,34.93,0,0,0,13.59,62.68a46.77,46.77,0,0,1,13.87-4.87V54l-.85,0c-5.34-.29-10.69-1.41-16-.67a4.08,4.08,0,0,1-2.5-.13A3.72,3.72,0,0,1,6.65,50.5c-.49-2.31-.75-5,.9-6.74,1.11-1.13,3-1.69,3.36-3.24S10,37.78,9.28,36.47a6.72,6.72,0,0,1,.87-7.68c1.25-1.36,3.07-2.2,4-3.8s.71-3.32.93-5a9.26,9.26,0,0,1,4.06-6.82,6.69,6.69,0,0,1,4.79-.79c2.37-3.2,7.43-1.37,10-1.48,3.32-.14,6.83-.24,9.75,1.31v0a0,0,0,0,0,0,0h0a5.77,5.77,0,0,1,1.17-3.88,6.3,6.3,0,0,1,5.62-2.24,4.36,4.36,0,0,1,3,1.52,4.55,4.55,0,0,1,.41,4.2,6.14,6.14,0,0,1-5.12,4.13h-.06s0,.08,0,.12a3.83,3.83,0,0,1,.12.77c.56,1,1,2.1,1.54,3.13a6.83,6.83,0,0,0,3.18,3.27c1,.41,2.17.42,3.17.88,1.76.8,2.65,2.79,3.08,4.68a15.4,15.4,0,0,0,.68,2.61,3.29,3.29,0,0,0,1.79,1.92,24.87,24.87,0,0,0,2.47.33,4,4,0,0,1,2.34,1.85,11.86,11.86,0,0,1,1.13,2.84c.37,1.2.73,2.41,1.1,3.61A35.2,35.2,0,0,0,70,35h0A35,35,0,0,0,35,0Z"/><path class="cls-1" d="M23.34,68a41.56,41.56,0,0,1-9.72-5.3A34.86,34.86,0,0,0,23.34,68Z"/><path class="cls-2" d="M46.91,58.65a9.73,9.73,0,0,1-19.45-.19v-.65a46.77,46.77,0,0,0-13.87,4.87l0,0c3.32,2.4,4.36,3.82,9.63,5.48A39.24,39.24,0,0,0,35,70h0a34.89,34.89,0,0,0,23.32-8.9,53.55,53.55,0,0,0-11.43-3.46Z"/><path class="cls-3" d="M37.18,68.18a9.73,9.73,0,0,0,9.73-9.53l0-1-.09-6.07a19.2,19.2,0,0,1-2.7-1.23A8,8,0,0,1,40,43.52c0-.9,0-1.93,0-3.11l1.23-8.07c-3.77-1.37-4.86-7-4.86-7a12.54,12.54,0,0,1-4.3,1.39,4.27,4.27,0,0,1-4-1.71c-.79-1.25-.61-2.86-.36-4.31A5,5,0,0,0,27,17a2.75,2.75,0,0,0-4.36-.39,14.81,14.81,0,0,0-3.58,8.82c-.38,5.95-.6,13.24.1,17.68,1.42,8.93,8.27,10.07,8.27,10.07a22.69,22.69,0,0,0,12-3.19s-2.9,6.14-11.84,5.3l-.12-2.11v5.33A9.72,9.72,0,0,0,37.18,68.18ZM33,29.66a3,3,0,0,1,1.78-.58,3.22,3.22,0,0,1,1.82.56c.39.29.54.56.47.62s-1-.48-2.27-.46-2.1.63-2.24.49S32.59,30,33,29.66Zm3.15,5.1a.25.25,0,1,1-.47-.19.24.24,0,0,1,.33-.15A.25.25,0,0,1,36.12,34.76ZM32.2,27.49a4.88,4.88,0,0,1,4.27.47c.47.33.67.64.59.79-.19.3-1.36-.13-2.81-.27s-2.68,0-2.8-.35C31.4,28,31.67,27.7,32.2,27.49ZM21,27.19a3,3,0,0,1,1.67-.56,2.83,2.83,0,0,1,1.69.46c.38.26.52.54.43.69s-1.06,0-2.08.1-1.87.31-2.09,0S20.6,27.48,21,27.19Zm1.94,5.29a1.16,1.16,0,0,1-1.11-1.16,1.09,1.09,0,0,1,1.19-1,1.14,1.14,0,0,1,1.1,1.16A1.1,1.1,0,0,1,22.9,32.48Zm2-2.22c-.13.16-1-.48-2.27-.46s-2.1.63-2.24.49.05-.34.43-.63a3.09,3.09,0,0,1,1.79-.58,3.22,3.22,0,0,1,1.82.56C24.84,29.93,25,30.2,24.92,30.26Zm1.36,9.29a2.21,2.21,0,0,1-.53-.07.82.82,0,0,1-.52-.46,1.84,1.84,0,0,1,.16-1.24c.29-.77.58-1.57.89-2.41a41.68,41.68,0,0,1,2.6-6.09,41.93,41.93,0,0,1-2.1,6.27q-.48,1.26-.93,2.4a1.67,1.67,0,0,0-.21.93c.06.22.35.28.67.31a7.36,7.36,0,0,1,2,.37A8.11,8.11,0,0,1,26.28,39.55Zm6.25,4.05a2.07,2.07,0,0,1-2,1.23A2.25,2.25,0,0,1,28.93,44c-.6,0-.94-.19-.92-.28s.26-.1.64-.16l0,0,0,0h.07a1.06,1.06,0,0,1,.17-.93A1.11,1.11,0,0,1,30,42.16a1,1,0,0,1,.66-1,1.27,1.27,0,0,1,.9,0c.18-.47.24-.83.34-.82s.24.32.19.88a2.21,2.21,0,0,1-.05.25A1.89,1.89,0,0,1,32.53,43.6Zm1.19-12.28a1.09,1.09,0,0,1,1.18-1A1.14,1.14,0,0,1,36,31.45a1.1,1.1,0,0,1-1.18,1A1.14,1.14,0,0,1,33.72,31.32Z"/><path class="cls-4" d="M23,30.29a1.09,1.09,0,0,0-1.19,1,1.16,1.16,0,0,0,1.11,1.16,1.1,1.1,0,0,0,1.18-1A1.14,1.14,0,0,0,23,30.29Z"/><path class="cls-4" d="M24.45,29.64a3.22,3.22,0,0,0-1.82-.56,3.09,3.09,0,0,0-1.79.58c-.38.29-.5.56-.43.63s1-.5,2.24-.49,2.14.62,2.27.46S24.84,29.93,24.45,29.64Z"/><path class="cls-4" d="M34.82,32.48a1.1,1.1,0,0,0,1.18-1,1.14,1.14,0,0,0-1.1-1.16,1.09,1.09,0,0,0-1.18,1A1.14,1.14,0,0,0,34.82,32.48Z"/><path class="cls-4" d="M32.53,30.29c.14.14,1-.5,2.24-.49s2.14.62,2.27.46-.08-.33-.47-.62a3.22,3.22,0,0,0-1.82-.56,3,3,0,0,0-1.78.58C32.59,30,32.46,30.22,32.53,30.29Z"/><path class="cls-4" d="M26.31,39.19c-.32,0-.61-.09-.67-.31a1.67,1.67,0,0,1,.21-.93q.45-1.14.93-2.4a41.93,41.93,0,0,0,2.1-6.27,41.68,41.68,0,0,0-2.6,6.09c-.31.84-.6,1.64-.89,2.41A1.84,1.84,0,0,0,25.23,39a.82.82,0,0,0,.52.46,2.21,2.21,0,0,0,.53.07,8.11,8.11,0,0,0,2,0A7.36,7.36,0,0,0,26.31,39.19Z"/><path class="cls-5" d="M27.58,55.24c8.94.84,11.84-5.3,11.84-5.3a22.69,22.69,0,0,1-12,3.19Z"/><path class="cls-5" d="M32.08,41.54a2.86,2.86,0,0,1-1,1.66,3.33,3.33,0,0,1-2.15.75h0a2.25,2.25,0,0,0,1.63.88,2.07,2.07,0,0,0,2-1.23A1.89,1.89,0,0,0,32.08,41.54Z"/><path class="cls-5" d="M31.6,41.23a1.27,1.27,0,0,0-.9,0,1,1,0,0,0-.66,1,1.11,1.11,0,0,0-1.15.41,1.06,1.06,0,0,0-.17.93,3.94,3.94,0,0,0,1.87-.82A3.4,3.4,0,0,0,31.6,41.23Z"/><path class="cls-5" d="M28.63,43.48l0,0h0Z"/><path class="cls-4" d="M31.08,43.2a2.86,2.86,0,0,0,1-1.66,2.21,2.21,0,0,0,.05-.25c0-.56-.1-.89-.19-.88s-.16.35-.34.82a3.4,3.4,0,0,1-1,1.45,3.94,3.94,0,0,1-1.87.82h-.07c-.38.06-.63.09-.64.16s.32.26.92.28h0A3.33,3.33,0,0,0,31.08,43.2Z"/><path class="cls-4" d="M34.25,28.48c1.45.14,2.62.57,2.81.27.08-.15-.12-.46-.59-.79a4.88,4.88,0,0,0-4.27-.47c-.53.21-.8.48-.75.64C31.57,28.46,32.8,28.3,34.25,28.48Z"/><path class="cls-4" d="M22.67,27.88c1-.05,1.88.19,2.08-.1s-.05-.43-.43-.69a2.83,2.83,0,0,0-1.69-.46,3,3,0,0,0-1.67.56c-.36.29-.48.58-.38.72S21.64,27.89,22.67,27.88Z"/><path class="cls-4" d="M67.08,35.49a4,4,0,0,0-2.34-1.85,24.87,24.87,0,0,1-2.47-.33,3.29,3.29,0,0,1-1.79-1.92,15.4,15.4,0,0,1-.68-2.61c-.43-1.89-1.32-3.88-3.08-4.68-1-.46-2.16-.47-3.17-.88A6.83,6.83,0,0,1,50.37,20c-.55-1-1-2.11-1.54-3.13,0,.23,0,.37,0,.38s-.15-.35-.35-.89a1.76,1.76,0,0,0,0,.23,6.28,6.28,0,0,1-1.32,3.39c-1.8,2.6-6.71,4.17-11.16,2.23a5.27,5.27,0,0,1-2.52-2.41,21.3,21.3,0,0,1-1-3,6.66,6.66,0,0,0-3.21-3.93,7.17,7.17,0,0,0-3.39-.91c-.84,0-1.3.12-1.31.07a1,1,0,0,1,.32-.11,5.38,5.38,0,0,1,1-.14,7.08,7.08,0,0,1,7,4.88,22,22,0,0,0,1,3,4.83,4.83,0,0,0,2.31,2.19,8.82,8.82,0,0,0,3.19.8,11.12,11.12,0,0,0,3.08-.21,7.55,7.55,0,0,0,4.41-2.6,6.33,6.33,0,0,0,1.4-3.2c0-.21,0-.4,0-.56a6.67,6.67,0,0,0-1.29-2,10.48,10.48,0,0,0-3.07-2.1,2.09,2.09,0,0,1,1.13.2,6,6,0,0,1,3.6,3.9h.06a6.14,6.14,0,0,0,5.12-4.13,4.55,4.55,0,0,0-.41-4.2,4.36,4.36,0,0,0-3-1.52,6.3,6.3,0,0,0-5.62,2.24,5.77,5.77,0,0,0-1.17,3.88h0a0,0,0,0,1,0,0v0c-2.92-1.55-6.43-1.45-9.75-1.31-2.53.11-7.59-1.72-10,1.48a6.69,6.69,0,0,0-4.79.79A9.26,9.26,0,0,0,15.07,20c-.22,1.7-.09,3.52-.93,5s-2.74,2.44-4,3.8a6.72,6.72,0,0,0-.87,7.68c.74,1.31,2,2.6,1.63,4.05s-2.25,2.11-3.36,3.24c-1.65,1.7-1.39,4.43-.9,6.74a3.72,3.72,0,0,0,1.48,2.69,4.08,4.08,0,0,0,2.5.13c5.29-.74,10.64.38,16,.67l.85,0v-.89S20.61,52,19.19,43.06c-.7-4.44-.48-11.73-.1-17.68a14.81,14.81,0,0,1,3.58-8.82A2.75,2.75,0,0,1,27,17a5,5,0,0,1,.73,3.72c-.25,1.45-.43,3.06.36,4.31a4.27,4.27,0,0,0,4,1.71,12.54,12.54,0,0,0,4.3-1.39s1.09,5.67,4.86,7L40,40.41c-.07,1.18-.07,2.21,0,3.11a8,8,0,0,0,4.14,6.82,19.2,19.2,0,0,0,2.7,1.23,12.07,12.07,0,0,0,3.47.73,18.85,18.85,0,0,0,6.92-1.38Q62.7,49,68,46.62a34.34,34.34,0,0,0,1.29-4.68c-.37-1.2-.73-2.41-1.1-3.61A11.86,11.86,0,0,0,67.08,35.49Z"/><path class="cls-4" d="M35.65,34.57a.25.25,0,1,0,.47.19.25.25,0,0,0-.14-.34A.24.24,0,0,0,35.65,34.57Z"/><path class="cls-2" d="M45.07,12a2.09,2.09,0,0,0-1.13-.2A10.48,10.48,0,0,1,47,13.93a6.67,6.67,0,0,1,1.29,2c0-.48,0-.75,0-.75s0,.11.09.33a5,5,0,0,1,.05.77c.2.54.28.9.35.89s.05-.15,0-.38a3.83,3.83,0,0,0-.12-.77s0-.08,0-.12a6,6,0,0,0-3.6-3.9Z"/><path class="cls-6" d="M48.4,15.54q-.06-.33-.09-.33s0,.27,0,.75c0,.16,0,.35,0,.56a6.33,6.33,0,0,1-1.4,3.2,7.55,7.55,0,0,1-4.41,2.6,11.12,11.12,0,0,1-3.08.21,8.82,8.82,0,0,1-3.19-.8,4.83,4.83,0,0,1-2.31-2.19,22,22,0,0,1-1-3,7.08,7.08,0,0,0-7-4.88,5.38,5.38,0,0,0-1,.14,1,1,0,0,0-.32.11c0,.05.47-.07,1.31-.07a7.17,7.17,0,0,1,3.39.91,6.66,6.66,0,0,1,3.21,3.93,21.3,21.3,0,0,0,1,3A5.27,5.27,0,0,0,36,22.16c4.45,1.94,9.36.37,11.16-2.23a6.28,6.28,0,0,0,1.32-3.39,1.76,1.76,0,0,1,0-.23A5,5,0,0,0,48.4,15.54Z"/></g></g></svg>