<svg xmlns="http://www.w3.org/2000/svg" viewBox="0 0 69.81 70"><defs><style>.cls-1{fill:#fff;}.cls-2{fill:#263238;}.cls-3{fill:#ffbe9d;}.cls-4{fill:#eb996e;}</style></defs><g id="Layer_2" data-name="Layer 2"><g id="レイヤー_1" data-name="レイヤー 1"><rect class="cls-1" width="69.81" height="69.81" rx="31.74"/><path class="cls-2" d="M9.32,59.57s12.05-4.88,23.11-5.45c19.06-1,28.81,4.64,28.81,4.64S52.35,71,32.45,69.93C16.43,69,9.32,59.57,9.32,59.57Z"/><path class="cls-3" d="M37.17,68.16h0a10,10,0,0,1-9.81-9.59c-.16-3.86-.29-7.41-.29-7.41s-8.1-.86-8.58-8.89,0-26.53,0-26.53h0a28,28,0,0,1,28.21,2.17l1.23.86L47.35,58.3A10,10,0,0,1,37.17,68.16Z"/><path class="cls-4" d="M27.05,51a18.66,18.66,0,0,0,10.32-3.48s-2.19,5.9-10.24,5.56Z"/><path class="cls-3" d="M47.35,27.13c.14-.06,5.44-1.9,5.53,3.6s-5.44,4.45-5.46,4.3S47.35,27.13,47.35,27.13Z"/><path class="cls-4" d="M49.07,32.92s.1.06.26.13a1,1,0,0,0,.71,0,2.39,2.39,0,0,0,1.07-2.15,3.27,3.27,0,0,0-.29-1.36,1.13,1.13,0,0,0-.74-.73.5.5,0,0,0-.56.27c-.07.16,0,.27-.06.28s-.12-.09-.08-.32a.6.6,0,0,1,.21-.35.71.71,0,0,1,.53-.15,1.36,1.36,0,0,1,1,.84,3.14,3.14,0,0,1,.36,1.53,2.49,2.49,0,0,1-1.36,2.39,1,1,0,0,1-.88-.13C49.08,33.05,49.05,32.93,49.07,32.92Z"/><path class="cls-2" d="M22.33,29a1.15,1.15,0,0,0,1.11,1.16,1.09,1.09,0,0,0,1.18-1A1.13,1.13,0,0,0,23.52,28,1.11,1.11,0,0,0,22.33,29Z"/><path class="cls-2" d="M20.94,26.74c.14.14,1-.5,2.25-.5s2.14.63,2.27.47-.08-.33-.47-.62a3.17,3.17,0,0,0-1.82-.56,3,3,0,0,0-1.79.58C21,26.4,20.87,26.67,20.94,26.74Z"/><path class="cls-2" d="M34.2,29.12a1.13,1.13,0,0,0,1.1,1.16,1.11,1.11,0,0,0,1.19-1,1.15,1.15,0,0,0-1.11-1.16A1.09,1.09,0,0,0,34.2,29.12Z"/><path class="cls-2" d="M33.08,27c.14.15,1-.5,2.25-.5s2.14.63,2.27.47-.07-.33-.47-.62a3.15,3.15,0,0,0-1.82-.56,3,3,0,0,0-1.79.58C33.14,26.63,33,26.9,33.08,27Z"/><path class="cls-2" d="M28.6,36.13a7.8,7.8,0,0,0-2-.36c-.31,0-.61-.1-.67-.32a1.67,1.67,0,0,1,.21-.93l.94-2.4a41,41,0,0,0,2.09-6.29,40.9,40.9,0,0,0-2.59,6.1c-.31.85-.61,1.65-.9,2.42a1.84,1.84,0,0,0-.16,1.24.79.79,0,0,0,.52.46,2.21,2.21,0,0,0,.53.07A8.21,8.21,0,0,0,28.6,36.13Z"/><path class="cls-2" d="M32.23,37c-.2,0-.2,1.33-1.35,2.28s-2.57.81-2.58,1,.32.26.92.28a3.37,3.37,0,0,0,2.16-.75,2.86,2.86,0,0,0,1-1.91C32.47,37.31,32.33,37,32.23,37Z"/><path class="cls-2" d="M32.76,22.12c.12.34,1.36.18,2.81.36s2.62.57,2.81.26c.09-.14-.12-.46-.59-.78a4.7,4.7,0,0,0-2.09-.73,4.55,4.55,0,0,0-2.19.26C33,21.7,32.71,22,32.76,22.12Z"/><path class="cls-2" d="M21.39,23.16c.22.28,1.07,0,2.09,0s1.89.18,2.09-.11-.05-.42-.42-.69a3,3,0,0,0-1.7-.46,2.83,2.83,0,0,0-1.67.57C21.42,22.73,21.3,23,21.39,23.16Z"/><path class="cls-2" d="M14.39,10.44a3,3,0,0,1,1.1-2.65,2.11,2.11,0,0,1,2.73.2,2.46,2.46,0,0,1,2.11-3c1.31-.08,2.43.91,3.69,1.26a6,6,0,0,0,3.76-.44c1.19-.47,2.3-1.14,3.5-1.58a10.29,10.29,0,0,1,13.15,6,4.56,4.56,0,0,1,4.84,1.83,7.5,7.5,0,0,1,1.15,5.28A16.7,16.7,0,0,1,49.5,21c0,.11,0,.21,0,.31-.09,4.42-.59,9.61-2.47,9.64-3.29.05-2.5-6.14-2.5-6.14-4-1.56-2.54-7.6-3.54-8.52s-3.12-3-11.57,1.27a16.33,16.33,0,0,1-10,1.08l-.21,0h-.05l-.07,0a7.22,7.22,0,0,1-2.16-.92,4.24,4.24,0,0,1-1.79-2,2.36,2.36,0,0,1,.46-2.52A5.18,5.18,0,0,1,14.39,10.44Z"/></g></g></svg>