<svg xmlns="http://www.w3.org/2000/svg" viewBox="0 0 297.19 160.92"><defs><style>.cls-1{fill:#fffeff;}</style></defs><g id="Layer_2" data-name="Layer 2"><g id="レイヤー_1" data-name="レイヤー 1"><path class="cls-1" d="M0,81.18a15.49,15.49,0,0,1,2.62-.59,23.14,23.14,0,0,1,7.18.09,28.35,28.35,0,0,1,9.75,3.48,29.7,29.7,0,0,1,4.82,3.51,28.14,28.14,0,0,1,2.19,2.18c.4.5.62.5-.18,0L26,89.69c-.58-.19-.06,0-.15-.06a2.94,2.94,0,0,0-.61-.11h-.39a2.43,2.43,0,0,0-.95.24c-.29.17-.14.12,0-.07l1-1a29.44,29.44,0,0,1,2.3-2,30.23,30.23,0,0,1,4.91-3.25,30.62,30.62,0,0,1,9.72-3.29A24.5,24.5,0,0,1,49,80a16.93,16.93,0,0,1,2.65.5l-2.4,1.11c-1.5.68-3.57,1.7-5.87,3a57.64,57.64,0,0,0-7.29,4.94c-1.23,1-2.46,2-3.64,3.15l-1.7,1.71-.94,1A8.2,8.2,0,0,1,27.72,97a5.78,5.78,0,0,1-2.26.65h-.75a6.21,6.21,0,0,1-.95-.16l-.48-.15a4,4,0,0,1-.66-.29,7.09,7.09,0,0,1-2.18-1.9c-.53-.6-1-1.23-1.59-1.8-1.11-1.15-2.25-2.25-3.43-3.26a46.53,46.53,0,0,0-7.13-5,61.07,61.07,0,0,0-5.85-2.91Z"/><path class="cls-1" d="M245.9.22A16.56,16.56,0,0,1,248.57,0a23.15,23.15,0,0,1,7.1,1.05,28.45,28.45,0,0,1,9.19,4.77,28.79,28.79,0,0,1,4.3,4.13A25.22,25.22,0,0,1,271,12.4c.33.56.54.59-.18,0l-.32-.2c-.55-.26-.06,0-.14-.07a2.55,2.55,0,0,0-.59-.19,2,2,0,0,0-.39-.06,2.28,2.28,0,0,0-1,.12c-.31.12-.16.09,0-.07l1.12-.85a27.1,27.1,0,0,1,2.56-1.71,30.33,30.33,0,0,1,5.3-2.56,30.67,30.67,0,0,1,10.07-1.94,24.35,24.35,0,0,1,7.09.81,16.89,16.89,0,0,1,2.56.86l-2.53.77c-1.58.47-3.76,1.2-6.22,2.18a58.12,58.12,0,0,0-7.89,3.91c-1.35.8-2.71,1.67-4,2.63l-1.92,1.46-1.06.86a8.27,8.27,0,0,1-2.32,1.36,6,6,0,0,1-2.33.33,5.31,5.31,0,0,1-1.66-.38l-.46-.22a4.49,4.49,0,0,1-.61-.37,7.31,7.31,0,0,1-1.91-2.18c-.44-.67-.85-1.36-1.33-2-.94-1.29-1.92-2.54-2.95-3.7a47.84,47.84,0,0,0-6.39-5.91,60.81,60.81,0,0,0-5.4-3.68Z"/><path class="cls-1" d="M201.18,72.52a23.69,23.69,0,0,0-6.88-1.23,30.1,30.1,0,0,0-10,1.27A30.6,30.6,0,0,0,179,74.74c-.75.39-1.66.9-2.35,1.35-.21-.31-.41-.64-.63-1a29.1,29.1,0,0,0-4-4.3,27.85,27.85,0,0,0-8.7-5.24,22.74,22.74,0,0,0-6.88-1.47,15.84,15.84,0,0,0-2.63.05L156,65.64A63.16,63.16,0,0,1,161,69.58a50.92,50.92,0,0,1,5.88,6.18c4.77,5.95,6.39,10.34,8.44,10.17,1.39-.11,5.43-3.54,11.56-6.73a59.6,59.6,0,0,1,8-3.34c2.46-.8,4.64-1.38,6.22-1.74l2.52-.6A17.24,17.24,0,0,0,201.18,72.52Z"/><path class="cls-1" d="M63.24,150.37a15.35,15.35,0,0,0-4.36-.16,19.11,19.11,0,0,0-9.15,3.47c-.43.31-.94.7-1.33,1-.16-.17-.31-.36-.47-.53a18.33,18.33,0,0,0-2.81-2.31,17.4,17.4,0,0,0-5.82-2.46,14.23,14.23,0,0,0-4.38-.31,10.2,10.2,0,0,0-1.61.26l1.45.72a36.14,36.14,0,0,1,3.46,2,32.45,32.45,0,0,1,4.17,3.3c3.46,3.25,4.84,5.82,6.1,5.53.84-.19,3-2.66,6.54-5.16A37,37,0,0,1,59.64,153c1.46-.71,2.75-1.26,3.69-1.63l1.5-.59A12.06,12.06,0,0,0,63.24,150.37Z"/><path class="cls-1" d="M43.42,23.11a38.08,38.08,0,0,1,3.47,2.26A30.16,30.16,0,0,1,51,29q1,1.09,1.92,2.31c.31.4.58.83.87,1.25A4.6,4.6,0,0,0,55,34a3.81,3.81,0,0,0,.4.23l.29.13a4,4,0,0,0,.59.16,2.63,2.63,0,0,0,.47.06,3.61,3.61,0,0,0,1.47-.24,5.24,5.24,0,0,0,1.45-.89l.67-.55,1.19-1c.83-.62,1.68-1.18,2.52-1.71a36.34,36.34,0,0,1,5-2.57c1.54-.65,2.91-1.14,3.91-1.46l1.59-.52a11,11,0,0,0-1.63-.51,15.35,15.35,0,0,0-4.5-.43A19.44,19.44,0,0,0,62,26.05a20.06,20.06,0,0,0-3.33,1.69c-.51.33-1.17.77-1.6,1.11l-.69.55c-.13.11-.22.13,0,.05a1.5,1.5,0,0,1,.61-.09l.25,0a1.55,1.55,0,0,1,.38.12l.09,0,.2.12c.47.39.33.37.12,0-.38-.54-.8-1-1.22-1.53A18.51,18.51,0,0,0,54,25.6a17.86,17.86,0,0,0-5.88-2.91,14.74,14.74,0,0,0-4.51-.58,10.69,10.69,0,0,0-1.69.17Z"/></g></g></svg>