<svg xmlns="http://www.w3.org/2000/svg" viewBox="0 0 477.74 78.64"><defs><style>.cls-1{fill:#fffeff;}.cls-2{fill:#ffdc64;}</style></defs><g id="Layer_2" data-name="Layer 2"><g id="レイヤー_1" data-name="レイヤー 1"><path class="cls-1" d="M129.27,3.18a19.32,19.32,0,0,0-11.65,4.74c-2.2,2-4.47,4.48-7.41,4.35-3.34-.16-6.3-4-9.26-5.53C93.13,2.8,85.57,1.21,77.88,6.48c-4.55,3.11-8.24,7.31-12.56,10.72a4.91,4.91,0,0,1-4.15,1.24c-1.38-.37-2.31-1.62-3.25-2.7a15.61,15.61,0,0,0-7.14-4,11.59,11.59,0,0,0-9.21,2.48c-4.48,4.23-5.14,7.71-10.28,11-7.43,4.81-14.57.76-22.57,1.17-3.26.17-12.56,5.52-7,5.53,22.43,0,116.4.11,147.1,0,1.68,0,6.89-10.16,2.4-17.72C146.24,5.77,136.93,2.72,129.27,3.18Z"/><path class="cls-1" d="M376.75,18.71c-5.13-2.68-10.74-3.3-15.82.18-3,2.06-6.06,4.43-8.92,6.68a3.26,3.26,0,0,1-2.73.82,4.86,4.86,0,0,1-2.15-1.78A10.32,10.32,0,0,0,342.41,22a7.63,7.63,0,0,0-6.08,1.64c-3,2.79-3.4,5.09-6.79,7.28-4.91,3.18-9.62.51-14.91.78-2.15.11-8.29,3.64-4.6,3.65,14.81,0,52.88.07,73.15,0C384.29,35.3,387.23,24.18,376.75,18.71Z"/><path class="cls-1" d="M462.52,33.35a12.4,12.4,0,0,0-7.47,3c-1.41,1.25-2.86,2.87-4.75,2.78-2.14-.09-4-2.59-5.93-3.54-5-2.52-9.86-3.54-14.79-.17-2.92,2-5.28,4.69-8.05,6.88a3.15,3.15,0,0,1-2.65.79,4.71,4.71,0,0,1-2.09-1.73,10.09,10.09,0,0,0-4.57-2.57,7.44,7.44,0,0,0-5.91,1.59c-2.87,2.71-3.29,4.94-6.58,7.07-4.76,3.09-9.34.49-14.47.76-2.09.11-8,3.53-4.47,3.54,14.38,0,74.6.07,94.28,0,1.07,0,4.41-6.51,1.53-11.36C473.39,35,467.43,33.06,462.52,33.35Z"/><path class="cls-2" d="M337.68,69.14H199.4a69.14,69.14,0,1,1,138.28,0Z"/><path class="cls-2" d="M167.57,72.54l21.05,0,25.16,0,26.67,0,25.58,0c7.21,0,14.42,0,21.62-.14l2.26,0a.37.37,0,0,0,0-.74q-10.52-.19-21-.19l-25.17,0-26.67,0-25.58,0-21.62,0h-2.26a.46.46,0,0,0,0,.91Z"/><path class="cls-2" d="M279.68,75.15l25.49,0,19.27,0c5.48,0,10.94,0,16.41-.17a.38.38,0,0,0,0-.75c-8.49-.31-17-.17-25.49-.16l-19.27,0-16.41,0a.46.46,0,0,0,0,.91Z"/><path class="cls-2" d="M296.42,72.54l25.49,0,19.27,0c5.48,0,10.94,0,16.41-.18a.37.37,0,0,0,0-.74c-8.49-.31-17-.18-25.49-.16l-19.27,0-16.41,0a.46.46,0,0,0,0,.91Z"/><path class="cls-2" d="M220.41,78.54l25.49.06,19.27,0c5.47,0,10.93,0,16.41-.18a.37.37,0,0,0,0-.74c-8.5-.31-17-.18-25.49-.16l-19.28,0-16.4,0a.45.45,0,0,0,0,.9Z"/></g></g></svg>