<svg xmlns="http://www.w3.org/2000/svg" viewBox="0 0 241.41 140.25"><defs><style>.cls-1{fill:#fffeff;}</style></defs><g id="Layer_2" data-name="Layer 2"><g id="レイヤー_1" data-name="レイヤー 1"><path class="cls-1" d="M0,122.68a16.4,16.4,0,0,1,2.64-.47,23.2,23.2,0,0,1,7.17.39,28.37,28.37,0,0,1,9.59,3.89,29.88,29.88,0,0,1,4.67,3.72,26.6,26.6,0,0,1,2.1,2.26c.37.53.59.54-.19,0l-.33-.17c-.57-.2-.07,0-.15-.06a2.89,2.89,0,0,0-.6-.13,1.88,1.88,0,0,0-.4,0,2.52,2.52,0,0,0-1,.2c-.29.16-.14.11,0-.07l1-1A30.44,30.44,0,0,1,27,129.32a31.12,31.12,0,0,1,5-3,30.74,30.74,0,0,1,9.85-2.87,24.45,24.45,0,0,1,7.14.15,17.49,17.49,0,0,1,2.62.62l-2.45,1c-1.52.62-3.63,1.55-6,2.75a58.07,58.07,0,0,0-7.5,4.62c-1.27.93-2.54,1.92-3.76,3l-1.78,1.63-1,1A8.29,8.29,0,0,1,27,139.7a5.87,5.87,0,0,1-2.29.55,6.27,6.27,0,0,1-.74,0A5.56,5.56,0,0,1,23,140l-.47-.17a3.58,3.58,0,0,1-.65-.32,7.08,7.08,0,0,1-2.1-2c-.5-.62-1-1.27-1.51-1.86-1.06-1.2-2.15-2.35-3.29-3.41a47.4,47.4,0,0,0-6.9-5.3,64.22,64.22,0,0,0-5.72-3.16Z"/><path class="cls-1" d="M210.89,6.6a37.53,37.53,0,0,1,4,1.16,29.15,29.15,0,0,1,5,2.33c.85.5,1.69,1.06,2.51,1.65.41.3.79.63,1.19.95a4.67,4.67,0,0,0,1.57.94,3.15,3.15,0,0,0,.44.11l.32,0a4.26,4.26,0,0,0,.61,0l.47-.08a3.72,3.72,0,0,0,1.34-.66,5.12,5.12,0,0,0,1.13-1.26l.48-.73.87-1.26c.61-.83,1.26-1.62,1.92-2.37a37.06,37.06,0,0,1,4-3.89C238,2.46,239.17,1.59,240,1l1.38-1a12,12,0,0,0-1.71,0,15.26,15.26,0,0,0-4.43.89,19.72,19.72,0,0,0-8.4,5.71,17.47,17.47,0,0,0-1.21,1.52l-.51.73c-.09.14-.18.19,0,.05a1.69,1.69,0,0,1,.57-.26l.25,0a1.67,1.67,0,0,1,.39,0c.06,0-.28,0,.1,0l.23.06c.56.23.42.25.12,0a17.22,17.22,0,0,0-1.62-1.11,18,18,0,0,0-9.86-2.75,14.57,14.57,0,0,0-4.49.75,10.52,10.52,0,0,0-1.57.65Z"/></g></g></svg>