<svg xmlns="http://www.w3.org/2000/svg" viewBox="0 0 163.95 39.18"><defs><style>.cls-1{fill:#fffeff;}</style></defs><g id="Layer_2" data-name="Layer 2"><g id="レイヤー_1" data-name="レイヤー 1"><path class="cls-1" d="M160,4.19A37.74,37.74,0,0,0,149,3.66a46.89,46.89,0,0,0-15.24,4,47.76,47.76,0,0,0-7.85,4.44c-1.09.77-2.39,1.73-3.37,2.57-.4-.44-.77-.92-1.18-1.34a46.18,46.18,0,0,0-7-5.9A43.49,43.49,0,0,0,99.87,1,35.23,35.23,0,0,0,88.9.1a23.47,23.47,0,0,0-4.08.6l3.63,1.84a96.44,96.44,0,0,1,8.64,5.09,80.6,80.6,0,0,1,10.35,8.43c8.59,8.28,12,14.77,15.13,14.09,2.13-.45,7.71-6.58,16.59-12.75a91.25,91.25,0,0,1,11.69-6.76c3.67-1.74,6.94-3.07,9.31-3.95L164,5.26A26.52,26.52,0,0,0,160,4.19Z"/><path class="cls-1" d="M29.17,31.7a14.91,14.91,0,0,0-4.24-1,19,19,0,0,0-9.65,1.64c-.48.22-1.06.5-1.5.76-.13-.2-.24-.41-.36-.61a18.36,18.36,0,0,0-2.32-2.81,17.27,17.27,0,0,0-5.23-3.55A13.93,13.93,0,0,0,1.64,25,9.66,9.66,0,0,0,0,24.93l1.29,1a39.06,39.06,0,0,1,3,2.62,31.72,31.72,0,0,1,3.45,4c2.77,3.86,3.63,6.64,4.91,6.61.87,0,3.5-2,7.42-3.8a36.7,36.7,0,0,1,5.06-1.81c1.56-.42,2.94-.7,3.93-.88l1.59-.29A10.93,10.93,0,0,0,29.17,31.7Z"/></g></g></svg>