<svg xmlns="http://www.w3.org/2000/svg" viewBox="0 0 31.52 11.87"><defs><style>.cls-1{fill:#fffeff;}</style></defs><g id="Layer_2" data-name="Layer 2"><g id="レイヤー_1" data-name="レイヤー 1"><path class="cls-1" d="M29.93,1.31a15,15,0,0,0-4.36-.15,18.88,18.88,0,0,0-9.14,3.46c-.43.31-.95.7-1.33,1-.16-.17-.31-.36-.48-.52a17.76,17.76,0,0,0-2.81-2.31A17.16,17.16,0,0,0,6,.36,14.17,14.17,0,0,0,1.62.05,10.21,10.21,0,0,0,0,.31L1.45,1A36.11,36.11,0,0,1,4.92,3a31.72,31.72,0,0,1,4.16,3.3c3.47,3.25,4.85,5.82,6.1,5.53.85-.19,3-2.66,6.54-5.16a37,37,0,0,1,4.62-2.75c1.45-.71,2.74-1.26,3.68-1.62l1.5-.59A10.93,10.93,0,0,0,29.93,1.31Z"/></g></g></svg>