<svg xmlns="http://www.w3.org/2000/svg" viewBox="0 0 255.23 34.54"><defs><style>.cls-1{fill:#fffeff;}</style></defs><g id="Layer_2" data-name="Layer 2"><g id="レイヤー_1" data-name="レイヤー 1"><path class="cls-1" d="M203.94.22A16.56,16.56,0,0,1,206.61,0a23.2,23.2,0,0,1,7.11,1.05,28.55,28.55,0,0,1,9.19,4.77A29.22,29.22,0,0,1,227.2,10a27,27,0,0,1,1.89,2.45c.32.56.54.59-.18,0l-.33-.2-.14-.07a2.55,2.55,0,0,0-.59-.19,2,2,0,0,0-.39-.06,2.31,2.31,0,0,0-1,.12c-.31.12-.15.09,0-.07l1.11-.85a28.46,28.46,0,0,1,2.56-1.71,31.19,31.19,0,0,1,15.38-4.5,24.44,24.44,0,0,1,7.09.81,17,17,0,0,1,2.55.86l-2.53.77c-1.58.47-3.76,1.2-6.22,2.18a58.12,58.12,0,0,0-7.89,3.91c-1.35.8-2.71,1.67-4,2.63l-1.92,1.46-1.06.86a8.27,8.27,0,0,1-2.32,1.36,6,6,0,0,1-2.33.33,6.38,6.38,0,0,1-.73-.1,6.63,6.63,0,0,1-.93-.28l-.45-.22a4.62,4.62,0,0,1-.62-.37,7,7,0,0,1-1.9-2.18c-.44-.67-.86-1.36-1.33-2-.94-1.29-1.93-2.54-3-3.7a47.8,47.8,0,0,0-6.38-5.91,62.24,62.24,0,0,0-5.41-3.68Z"/><path class="cls-1" d="M1.46,23.11a38.08,38.08,0,0,1,3.47,2.26A30.21,30.21,0,0,1,9.05,29q1,1.09,1.92,2.31c.31.4.58.83.86,1.25A4.73,4.73,0,0,0,13.07,34a3.64,3.64,0,0,0,.39.23l.29.13a4.43,4.43,0,0,0,.59.16,2.63,2.63,0,0,0,.47.06,3.58,3.58,0,0,0,1.47-.24,5.09,5.09,0,0,0,1.45-.89l.67-.55,1.2-1c.82-.62,1.67-1.18,2.52-1.71a36.26,36.26,0,0,1,4.95-2.57C28.61,27,30,26.48,31,26.16l1.59-.52A11.06,11.06,0,0,0,31,25.13a15.43,15.43,0,0,0-4.51-.43,19.44,19.44,0,0,0-6.36,1.35,20,20,0,0,0-3.32,1.69,19.38,19.38,0,0,0-1.6,1.11l-.7.55c-.12.11-.22.13,0,.05a1.53,1.53,0,0,1,.62-.09l.25,0a1.6,1.6,0,0,1,.37.12l.09,0,.21.12c.46.39.33.37.11,0a16.36,16.36,0,0,0-1.22-1.53,18.94,18.94,0,0,0-2.77-2.56,18.05,18.05,0,0,0-5.88-2.91,14.83,14.83,0,0,0-4.52-.58A10.69,10.69,0,0,0,0,22.28Z"/></g></g></svg>