<svg xmlns="http://www.w3.org/2000/svg" viewBox="0 0 162.18 120"><defs><style>.cls-1{fill:#fff;}.cls-2{fill:#003559;}.cls-3{fill:#6eb63d;}</style></defs><g id="Layer_2" data-name="Layer 2"><g id="レイヤー_1" data-name="レイヤー 1"><path class="cls-1" d="M161.37,1.55c-1.05-1.4-6,3.16-9.27,7s-12.23,13.14-12.79,13.63,1.05-2.6,0-3.66-6.11,4.71-8.71,7a39.75,39.75,0,0,1-13.14,7.31c-4.85,1.61-10.89,7.72-12.15,9.06A42,42,0,0,0,79.66,33,41.39,41.39,0,0,0,54,41.88c-.49-.63-4.63-5.48-9.2-7.66C39.9,32,35.9,30.71,31.19,26.91s-8.08-8.21-9.84-9.27-3,1.2-2.59,2.32S14.19,15.25,11,11,3.3-1.19,1.19.15s-1,6.67.35,9.27c0,0,2.25,3.65,2.6,5.27s-.7,3.65-.21,4.92,2.25,5.62,4.57,8.08,4.35,4,4.35,5.27-1.89,1.4-.91,4c.56,1.41,3.65,4.22,3.16,6.11s.56,3.3,2.6,5.41,4,4.71,6.46,6.25,5.27,2.81,4,3.17-3,2.24-1.41,3.65a19.09,19.09,0,0,0,6.68,4c2.46.71,2.6,1.76,1.75,2.81s-1.54,2.46-.7,3.66c.63.91,2.53,1.75,3.51,2.1v.43a41.66,41.66,0,0,0,8.93,25.71h0l4.21,4.92s-1.12,2.88.28,5.13,14,9.69,28.31,9.69c16.8,0,25.79-7.87,25.79-7.87a3.47,3.47,0,0,0,2.74-1.9c.91-1.61.49-5,.28-6.11A41.29,41.29,0,0,0,121,74.55V74a5.71,5.71,0,0,0,2.46,0c1.9-.35,1.41-4.21.85-5.76a27.92,27.92,0,0,0-1.55-3.65s4-2,6.67-3.51,4.36-5.76,5.62-7.38a28.1,28.1,0,0,1,7-6.46c4-2.46,1.9-5.27,2.25-6.11s2.81-2.74,3.86-3.87c2.46-2.6-.49-3.3-.14-4.71s.7-1.4,2.25-3,4.92-7.37,5.62-8.92,0-3.16,1.4-5.06,4.22-9.27,4.22-9.27C162.42,4.36,162.42,3,161.37,1.55Z"/><path class="cls-2" d="M160,5.28a3.1,3.1,0,0,0-.14-2,2.15,2.15,0,0,0-1.68.91,39.43,39.43,0,0,1-3.16,4,.76.76,0,0,1-.07.35c-.5.77-1.2,1.19-1.76,1.9a36.8,36.8,0,0,1-2.46,2.88c-.07.14-.28.21-.35.35a14.47,14.47,0,0,1-2,2.1,11.22,11.22,0,0,0-1.75,1.83,2,2,0,0,0-.57.28c-.7.56-1.12,1.34-1.82,2-.85.91-1.69,1.69-2.46,2.6-.42.42-.92.49-1.34.91a3,3,0,0,1-.49.28c-.42.07-.63.57-1.12.71-.14.07-.28.28-.42.42a4,4,0,0,1-1.27.56c-.35,0-.21-.7,0-1.05s.07-.64.14-.85c.28-.77.77-1.54.56-2.32,0-.07-.28.07-.28.07A29.06,29.06,0,0,1,131,27.9a2.52,2.52,0,0,1-.84.56c-.14.07-.21.35-.43.49a4,4,0,0,0-1.4,1.06,7.06,7.06,0,0,1-1.26.63,2.36,2.36,0,0,0-.71.56A9.77,9.77,0,0,1,124,32.53c-2.81,1.62-5.83,2.67-8.71,4.15-.07,0-.21.21-.35.28-.84.49-1.61.77-2.46,1.2a4.53,4.53,0,0,1-.63.56A35.11,35.11,0,0,0,106,43.56a5.65,5.65,0,0,1-.63.71,39.92,39.92,0,0,0-51.92.07,9.72,9.72,0,0,0-.91-1.41,31.91,31.91,0,0,0-4.29-3.86,3.61,3.61,0,0,0-1.19-.91,4.32,4.32,0,0,1-.71-.36c-.42-.21-.7-.56-1.12-.77a.79.79,0,0,0-.56-.21c-.07,0-.14-.14-.21-.21a1,1,0,0,1-.49-.14,9,9,0,0,1-4-2.18c-.21-.07-.42-.07-.63-.14s-.35-.28-.56-.42a20.88,20.88,0,0,1-4.85-2.81c-.07-.07-.28-.07-.42-.07-.84-.42-1.41-1.27-2.25-1.55-.14,0-.28-.28-.42-.35-.49-.35-.91-.7-1.41-1.05-.14-.07-.35,0-.42-.14a.7.7,0,0,0-.28-.35c-.21-.07-.49-.07-.56-.21a34.15,34.15,0,0,1-3.3-2.95c-.64-.64-1.06-1.34-1.76-2v-.21c-.14-.21-.42-.28-.56-.49v-.29a7.27,7.27,0,0,0-.84-1.19,2.66,2.66,0,0,0-1.13-.63c-.49,1.61.42,3,.91,4.49.08.21.15.85-.21.78a5,5,0,0,1-2.17-1.69c-.07-.14-.28-.21-.43-.28-.35-.21-.49-.63-.77-1-1.26-1.55-2.88-2.46-4-4.08-1.48-1.83-2.67-3.58-4.22-5.48-.07-.07.07-.28,0-.35C8.22,10,6.88,8.23,5.41,6.19c-.14-.21-.14-.49-.28-.7A8.85,8.85,0,0,0,3.86,3.38c-.14-.14-.35-.42-.49-.56a2.69,2.69,0,0,0-.77-.77.72.72,0,0,0-.78,0c-.28.35-.07.91,0,1.33A10.31,10.31,0,0,0,2.88,6.82c.7,1.62,1.75,2.95,2.39,4.57.21.42-.14,1.19.42,1.33.21.14.42.14.56.35.77,1.2,1.76,2.11,2,3.31a.49.49,0,0,1-.35.28c-.28,0-.43-.42-.71-.35s-.28.56-.49.7c-1.4,1.47.14,3.16.7,4.57a6,6,0,0,0,.43,1.19,28.8,28.8,0,0,0,6,7.1c.21,1.26,1.4,1.89,2.1,2.95a.23.23,0,0,0,.29,0l2,2-.42.21c-.56.14-1.19-.42-1.82-.42-.15,0-.22.07-.22.21h-.63c-1.12,0-1.4.35-1.12,1.06a8.2,8.2,0,0,0,1.12,1.89c.21.78,1.13,1.34,1.55,2l.07-.07c.91.91,1.75,1.76,2.6,2.74-.63.77-1.62-.28-2.18.07a.63.63,0,0,0-.28.77c.21.57.14,1.27.56,1.76a8.91,8.91,0,0,0,.91,1.33,5.35,5.35,0,0,1,.5.78.26.26,0,0,0,.21.07,15.26,15.26,0,0,0,1.75,2l.14.15a.61.61,0,0,0,.21.42c.07.14.28.21.36.35s.14,0,.21,0a17.34,17.34,0,0,0,3.44,2.95c.14.28.7.63.91.91h.21c.07.14.21.14.35.14s.14.28.21.28c.22-.07.29.07.43.07s.21.21.35.28H28c.56.29.84,1,1.54,1.13.14,0,.21.28.36.28.49.07.77.42,1.26.63s.56.56.91.7.49.22.71.36.42.35.42.63h-.49a1.22,1.22,0,0,0-1.2-.07c-.28.07-.77,0-.91.21-.28,0-.49.07-.78.07a3.71,3.71,0,0,0-1.12.28c-.14,0-.35.07-.49,0a1.9,1.9,0,0,0,0,.63c.49.63.7,1.34,1.33,1.83a6.57,6.57,0,0,0,1.2.84c.42.14.77.63,1.26.63h.28a.58.58,0,0,0,.64.29c.07,0,.07,0,.07-.08.28.15.63.22.91.36s1,.14,1.33.42c.14.07.29-.07.43,0a2.32,2.32,0,0,0,1.12.35c1.48.21,2.88.35,4.36.49-.07.35-.22.77-.29,1.2l-.42.42a18.61,18.61,0,0,0-3,3.72c-.07.07-.07.14-.14.21l-.07.07A.92.92,0,0,0,37,71a.55.55,0,0,0,.28.28.24.24,0,0,0,.14.07c.07,0,.07.08.14.08h.07c.28.14.64.28.92.42a2,2,0,0,0,1.26.35h.07c-.07.77-.07,1.47-.07,2.25a40.06,40.06,0,0,0,13.91,30.35.54.54,0,0,1-.21.14c-.07.07.21.28.07.42-.28.63-.07,1.33-.42,1.89-.07.14.14.14.14.29s-.28.07-.28.07a1.58,1.58,0,0,0,.07,1,.42.42,0,0,1-.07.28c0,.07.28,0,.21.21s-.07.07-.07.21.14,0,.14.07a1.26,1.26,0,0,0,.63,1.06v.14a.13.13,0,0,0,.21-.07c0,.21.28.21.28.35,0-.07,0-.21.07-.21s.07.21.07.28h.29c.21.28.42.28.56.42a2.22,2.22,0,0,0,.35.42c.07-.07.07-.28.28-.21s.07.28.14.35.21-.07.21-.07.07.21.07.28c.21-.07.28.14.42,0s.07.14.07.28c0-.07,0-.14.07-.14.21.35.57.28.71.49a.13.13,0,0,0,.21-.07.44.44,0,0,1,.21.35.71.71,0,0,1,.07-.21,2.82,2.82,0,0,0,1.47.71c.07,0,.07.21.07.28s.14-.21.28-.07.07.07.07.14a.52.52,0,0,1,.43.21h0c0-.07,0-.14.07-.14s.28.35.56.35l-.07.07h.14c0-.07,0-.21.07-.21s.14.35.49.28c.07,0,.07.21.07.28.28,0,.35.07.56.28.07,0,.35.07.42-.07.29.42.78.42,1.27.56v.14c.14-.07.28.07.42.22,0-.08,0-.22.07-.22s.21,0,.21.07V116a.41.41,0,0,0,.35-.14c.07,0,.07.07.07.14.28,0,.42,0,.49.28,0-.07,0-.28.07-.28s.07.21.07.28,0-.21.08-.21.07.07.07.21h.28c.07,0,.07.07.21.14s.14-.07.28,0,0-.14.07-.14c.07.28.14.35.42.42s.28.14.35.14a1.46,1.46,0,0,1,.91.21l-.07.07h.22c0-.07,0-.21.07-.21,0,.21.28,0,.28.21.28-.07.42.14.7.14,0-.07,0-.14.07-.14s.07.35.21.35c.35-.28.49.14.77,0,.07,0,.07.07.07.14.21-.14.35-.28.56-.07v.21c.08-.07.08-.21.22-.21s.07.21.07.28h.14c0-.07,0-.21.07-.21.07.21.35.07.49.28s.07-.07.21-.07.07,0,.14.07c.14-.21.35.21.63-.07.07,0,.07.21.07.28.42-.07.85.07,1.41,0,.07,0,.07.07.07.21a.5.5,0,0,0,.42-.21c.07,0,.07.21.07.28a1.8,1.8,0,0,1,1,.07c.07-.14.28-.07.35-.14s.5.28.71,0c.07.07.14.07.14.14s0-.14.07-.14.28,0,.42,0,.21.14,0,.28H78c.21.29.35-.07.56,0,0-.07,0-.21.07-.21s.07.21.07.29c.14-.08.35,0,.49-.22a.32.32,0,0,1,.07.22c.28,0,.71-.36.78.07,0-.07,0-.22.07-.22s.28-.07.35.07c0-.07,0-.21.07-.21a.77.77,0,0,0,.56,0c.07,0,.07.07.07.21.28,0,.56-.28.7,0,0-.07,0-.28.07-.28s.07.07.07.21h.14c0-.07,0-.21.07-.21s.14,0,.14.07.07-.14.21-.14.08.14.08.28c0-.07,0-.28.07-.28a6,6,0,0,0,1.12,0c.07,0,.07.14.07.28.21-.28.63-.21.77-.42.07,0,.07.07.07.21,0-.07,0-.21.07-.21s.14,0,.14.07l-.07.07c.28,0,.64-.42.78-.07,0-.07,0-.28.07-.28s.07.07.07.14c.28,0,.35-.28.63-.14.07,0,.07.07.07.14.28-.07.42-.28.63-.35s.07.28.07.35a2.33,2.33,0,0,1,.7-.42l.21.21c0-.07,0-.21.08-.21l.07.07c0-.07,0-.21.07-.21s.07.07.07.21c.14-.28.49-.21.7-.35a.24.24,0,0,1,.07.14c0-.07,0-.14.07-.14.07.28.28.07.35.07.28-.21.35-.07.63-.07,0-.07,0-.28.07-.28.35.14.71-.21,1.06,0a.42.42,0,0,1,.07-.28c.14,0,0,.28.14.21s.28-.21.42-.21,0-.14.07-.14c.35.14.49.07.84-.21,0,.07.07.07.14.07s0-.21.07-.21h.14c0-.07,0-.14.07-.14s.35-.21.64,0c.14.07.14-.28.28-.28a1.17,1.17,0,0,0,.91-.36c.07,0,.14,0,.14.07s0-.14.07-.14c.35,0,.49.07.7-.28.07-.07.14.21.35.07s.07-.28.15-.28.28-.07.35,0c.14-.35.63-.28.84-.56.07.07.07.21.21.21h0a.24.24,0,0,0-.07-.14v-.07h0c.28-.07.35-.14.63-.07,0-.07,0-.21.07-.21.35,0,.49-.28.85-.35l.21.07c0-.28.28-.07.35-.28s0,.28.14.14v-.21c0-.07,0-.07.07-.14.28-.07.56-.07.63-.43.07,0,.14,0,.14.07.35-.42.91-.49,1.2-1a2.62,2.62,0,0,0,.49-1.12,2.36,2.36,0,0,1,.35-1.13.32.32,0,0,1,.35,0c.77.28,2.11.71,2.6-.28h.28a.79.79,0,0,1,.21-.56.89.89,0,0,1,.28-.42h0c0-.07-.21-.07-.21-.14s.21-.07.21-.21-.28-.35-.28-.49c.28-.43,0-.85,0-1.34-.14-.91-.14-1.83-.21-2.74a39.71,39.71,0,0,0,12.72-29.22c0-.92,0-1.83-.07-2.74a1.94,1.94,0,0,1,.63.07l1.12.21c.07,0,.07.07.14.07a3,3,0,0,0,1.9-.07,1.07,1.07,0,0,0,.42-.57,1,1,0,0,0,.07-.77,1.19,1.19,0,0,0-.49-1.33c-.07-.14-.14-.21-.21-.35-.21-.43-.63-1-1.06-1.69.08-.35-.28-.77-.63-.91s-.35-.5-.56-.78c.14-.07.07-.35.07-.42a17.56,17.56,0,0,1-2.39-2.88c.14-.07.14-.35.28-.35a38.31,38.31,0,0,0,4,0,.35.35,0,0,0,.21-.07c.28-.07.7.07,1-.07s.49-.21.7-.28c1.48-.63,3.24-.84,4.22-2.25v-.07c.07-.14.21-.28.28-.42a3.74,3.74,0,0,0,.7-2,.43.43,0,0,0-.07-.42.24.24,0,0,0-.14-.07l-.21-.21v-.07a1.61,1.61,0,0,1,.77-.91,9.12,9.12,0,0,0,3-2.32c.14-.21-.29-.49-.22-.71a2.74,2.74,0,0,1,1.06-1.68A1.41,1.41,0,0,1,134,50c.28-.07.49-.35.7-.42a14.46,14.46,0,0,0,2.81-1.69c1.2-.84,2.11-1.69,3.23-2.6a4.2,4.2,0,0,0,.71-.91v-.14l.21-.42a2.22,2.22,0,0,0,.14-2.18c0-.07,0-.14-.07-.14s-.14-.07-.21-.14-.14-.07-.21-.14-.14-.07-.21-.14S141.07,41,141,41l-.22-.22c-.14-.21-.14-.42.15-.63a8.79,8.79,0,0,0,1.68-1.54,25.58,25.58,0,0,0,2.67-2.74c.07-.07,0-.21,0-.35s.07-.07.14-.07.07-.29,0-.36h-.07a3.65,3.65,0,0,0,.42-1.54,1,1,0,0,0-.28-1,2.13,2.13,0,0,0-1.26-.64l-.07-.07c-.07-.07-.07-.14-.14-.21.35-.35.63-.77,1-1.12l.07-.07c.07-.07.14-.14.21-.14a9.46,9.46,0,0,0,1.12-.78,38,38,0,0,0,3.45-3.37,7.27,7.27,0,0,0,.84-1.19c.63-1,1.05-1.9,1.69-2.74.14-.14,0-.42.07-.63a7,7,0,0,0,.63-1.2,4.26,4.26,0,0,0-.14-2.46c-.07-.28-.56-.14-.84-.28s.14-.49.21-.7a7.07,7.07,0,0,1,1.19-1.27V15.6c0-.07,0-.14.07-.14s.14-.21.28-.21h.07a2.28,2.28,0,0,1,.56-1.26A11.66,11.66,0,0,1,156,12c.84-1.26,1.47-2.46,2.32-3.65a5.26,5.26,0,0,0,.49-1.48,3,3,0,0,1,.07-.35c0-.07.07-.07.07-.14a1.53,1.53,0,0,1,.28-.35c.07-.21-.07-.49,0-.7C160,5.42,160,5.35,160,5.28Z"/><path class="cls-3" d="M104.11,47a36.69,36.69,0,0,0-49.24.42,2.63,2.63,0,0,1,.07.7,14.33,14.33,0,0,1-.15,2.53A8.27,8.27,0,0,1,54,52.84,4.54,4.54,0,0,1,52.83,54a5.56,5.56,0,0,0-1.06.85c.43.84,1.48.49,2.11,1,1.83-.14,3.73-.42,5.55.28.07,0,.07.07.14.07a27.25,27.25,0,0,1,40.26-.07c.07-.07.14-.07.21-.14.63-.21,1.33-.21,2-.42a2.49,2.49,0,0,1,.7-.14,9.41,9.41,0,0,1,3.09.42,1,1,0,0,0,.77-.21c.28-.21.35-.63.63-.7a2.09,2.09,0,0,0,1.55-1c.14-.49.35-1.4-.35-1.54l-2.11-.64a3.88,3.88,0,0,1-1.76-1.05,7,7,0,0,1-1-1.76,2.2,2.2,0,0,1,.07-1.19A7.64,7.64,0,0,0,104.11,47Z"/><path class="cls-3" d="M114,76.37l-.92-.7a2.67,2.67,0,0,1-.63-.63,1.52,1.52,0,0,1-.35-.56,1.63,1.63,0,0,0-.21-.36c-.07-.07-.14-.21-.28-.21s-.28-.35-.56-.42a1,1,0,0,0-.85.35c-.07.21.07.43.07.64a11.67,11.67,0,0,0,.57,1.26c0,.07.21.21.28.35s-.07.63.07.92a2.94,2.94,0,0,1,.56,1.54.31.31,0,0,1-.07.35,7.47,7.47,0,0,1-.14,2.18,1.33,1.33,0,0,1-.35.91l-.21.21h-.07a1.13,1.13,0,0,1-.64.21v-.14a3,3,0,0,1-.91-.35c-.49.07-.84-.35-1.12-.77H108c-.5-.49-1.06-.91-1.55-1.48A27.24,27.24,0,0,1,79.66,101.8h-1v0h-.14v0h-.21V102c-.14-.08-.28.28-.42,0,0,.28-.49.07-.42.42-.35,0-1.13.28-1,.7l.07-.07c0,.07-.07.28.07.28.64.07,1.34-.21,1.83.14a.24.24,0,0,0,.07-.14.63.63,0,0,0,1,0c0,.07,0,.14-.07.14.14.21.43,0,.64.07s-.07-.14,0-.28c0,.07,0,.14.07.14s.07-.07.07-.14c.21,0,.21.35.28.35a2.38,2.38,0,0,1,.7-.07c.21,0-.07-.14,0-.28h.28c-.07.07-.21.07-.21.14,0,.28.28-.07.35.07.07-.07.07-.14.07-.28a.49.49,0,0,0,.14.28c.35-.07.7.21,1-.28,0,.07,0,.14.07.14s.07-.07.07-.14c.56-.07,1.54.28,2-.28,0,.07,0,.28.07.28.28-.35.57-.07.92-.28,0,.07,0,.28.07.28s.07-.28.07-.28c.56-.21,1,0,1.54-.21a1,1,0,0,1,.64,0c.14,0-.07-.21,0-.28s.07.21.14.21.07-.21.07-.28a.24.24,0,0,0,.07.14c.14-.14.42-.07.63-.28.28.28.42-.07.7,0,.07,0,.07-.07.07-.21s0,.21.14.21a.43.43,0,0,0,.07-.29c.14-.07.49.08.63,0,.29-.35.36-.07.64-.35,0,.07,0,.14.07.14s.07-.07.07-.14.14,0,.14.07.07-.07.07-.21c0,.07,0,.21.07.21.28,0,.28-.28.28-.42,0,.07,0,.21.07.21.28.07.42-.07.42-.35.14.28.42.07.63-.07,0,.14.28,0,.28.14.07-.07.14-.14.14-.21a.07.07,0,0,0,.08.07c.07,0,.07-.07.07-.21,0,.07,0,.21.07.21.28.07.07-.35.28-.35l.07.07c.07,0,.07-.07.07-.21a.6.6,0,0,0,.49,0c.07,0,.07-.07.07-.14s0,.14.07.14.28-.14.35-.28.14,0,.14.07.07-.07.07-.21h.28c.07-.07.21-.07.21-.28.35.21.5-.14.78-.14s.35-.28.49-.35v.21c.07.21.21.07.28,0a.42.42,0,0,1-.07-.28l.07.07c.07,0,.07-.07.07-.14l.07.07.07-.07.07.07c.14,0,.07-.15.07-.29s.07.29.14.22a6.57,6.57,0,0,0,1.48-1c.42-.63,0-1.47,0-2.25l.07.07a.43.43,0,0,0,.07-.49c0,.07,0,.07.07.07s.07-.07.07-.14.14,0,.14.07.07-.07.07-.21l-.14-.14h.35c0,.07,0,.14.07.14s.07-.07.07-.14a.77.77,0,0,0,.56,0c0,.07,0,.28.07.28a4.59,4.59,0,0,0,1,0c0,.28.36.28.43.28.28.07.63.07.84.28.07,0,0-.28.21-.28l.07.07c.28-.7-.14-1.4-.14-2.1,0-.07.14-.22.28-.29s-.28,0-.28-.07.07-.07.14-.21c0,.21.07.21.21.28l.07-.07c.07.07,0,.36.21.36s.07-.22.07-.29c.14.43.7.07,1,.43.07.07,0-.29.14-.14a.53.53,0,0,0,.07.28h.21c.07.07,0,.07-.07.14s0,.21.07.21.14,0,.14-.14c-.07.56.35,1.19.28,1.75v.43a16.44,16.44,0,0,0,.07,1.89H106a6.09,6.09,0,0,0,0,1.13,36.23,36.23,0,0,0,9.76-21.85A4.07,4.07,0,0,1,114,76.37Z"/><path class="cls-3" d="M54.16,100.89a15.94,15.94,0,0,0,.14-3.16,9,9,0,0,0,.07-1.41A4.36,4.36,0,0,1,54.44,95c.07.07,0,.35.28.28a.42.42,0,0,0,.07-.28c0,.07,0,.28.08.28s.07-.21.07-.28,0,.28.07.28.35.07.42-.07V95c0,.07,0,.28.07.28,1.4.07,2.88-.07,4.28,0,.21,0,0-.21.07-.28s0,.28.07.28.07-.07.07-.21c0,.35,1.2.21,1.41.21H62a27.81,27.81,0,0,1-8.71-13.35h0a3.76,3.76,0,0,1-1.19-1.82,2,2,0,0,1-.15-.92,5.73,5.73,0,0,1,0-2.67c.08-.28.15-.49.22-.7s.07-.14.07-.21V74.48A10.41,10.41,0,0,1,52.34,73c0-.07-.07-.07-.14-.14a9.3,9.3,0,0,0-1.34,1.69,8.43,8.43,0,0,1-3.23,2.81,7.52,7.52,0,0,1-1.34.63c-.21.14-.42.42-.7.49a1.17,1.17,0,0,1-.84.07c-.07,0-.14-.07-.21-.14-.92-.14-1.34-1-1-2.32a12.35,12.35,0,0,1,1.76-3.93c-.84,0-1.62-.07-2.46,0h-.07c-.07.77-.07,1.47-.07,2.25A38.09,38.09,0,0,0,54.16,100.89Z"/><path class="cls-1" d="M54.09,101.66A37.29,37.29,0,0,1,42.36,74.48c0-.71,0-1.48.07-2.18-.21.07-.35.07-.56.14H41.8c0,.63-.07,1.33-.07,2a37.77,37.77,0,0,0,11.1,26.83c.35.35.7.71,1.12,1.06C54,102.16,54,101.87,54.09,101.66Z"/><path class="cls-1" d="M116.9,78a37.12,37.12,0,0,1-10.26,22.41v.35a.89.89,0,0,0,.07.42,37.9,37.9,0,0,0,10.82-23A2,2,0,0,0,116.9,78Z"/><path class="cls-1" d="M117.25,71.31a.37.37,0,0,0-.07.22h0a4.69,4.69,0,0,0,.49,1.26c0-.56-.07-1.05-.07-1.62h-.14A.54.54,0,0,0,117.25,71.31Z"/><path class="cls-1" d="M54.65,46.45c0,.07.07.14.14.21a37.35,37.35,0,0,1,49.67-.21l.21-.43c0-.07.07-.07.07-.14a38,38,0,0,0-25-9.34,37.65,37.65,0,0,0-25.15,9.55A.82.82,0,0,0,54.65,46.45Z"/><path class="cls-1" d="M97.72,55.65c.35.28.63.7,1,1.05.21,0,.35-.14.57-.21A26.57,26.57,0,0,0,60,56.56a4.36,4.36,0,0,1,.85.35h0V57h0c.14-.14.14-.42.28-.49a10.78,10.78,0,0,0,.91-1c0,.07.07.07.14.07.7-.56,1.13-1.27,1.83-1.76.14-.14.28-.07.42-.28h.28a2.38,2.38,0,0,0,.42-.42h.21c.14-.21.35-.28.42-.49H66a.5.5,0,0,1,.42-.21c.07,0,.07-.14.07-.21a.26.26,0,0,0,.21-.07V52c.07-.07.28-.07.42-.07s.07-.14.07-.21.42,0,.49-.21h.21a.86.86,0,0,1,.56-.28c.14,0,0-.21.14-.21a1.11,1.11,0,0,0,.57-.21c.07-.14.42.14.49-.07s.42-.14.49-.28v-.14c.28-.07.63.14.84-.14s.42-.21.64-.35v-.14a1.92,1.92,0,0,1,.91-.14c.07,0,.07-.21.07-.21.21-.07.42.07.63,0s.21-.29.35-.29a3.44,3.44,0,0,0,.85,0c.07,0,.07-.21.07-.21.42-.14.91.21,1.19-.21a8,8,0,0,0,2.25-.07,8.4,8.4,0,0,1,2.32-.07,17.9,17.9,0,0,1,2.74,0c0,.07.07.21.14.21.42.07.91-.21,1.12.07a1.38,1.38,0,0,0,.77.14s0,.21.07.21c.28,0,.64-.14.92.07a3.07,3.07,0,0,0,1.19.22c0,.14.07.21.14.21a2.84,2.84,0,0,0,.77,0,.23.23,0,0,0,.22.21c.21,0,.28.14.42.14a4.86,4.86,0,0,1,.91.35c.14.07.21-.07.35,0a.59.59,0,0,0,.49.14v.21c.14.14.21.21.35.21a3.53,3.53,0,0,1,1.2.49h.21c0,.28.28.35.42.42s.49.21.56.5.28,0,.42.07a1.23,1.23,0,0,0,.92.49c.07,0,.28.14.28.28s-.14.28.14.35.35-.07.49,0,.21.28.49.21c0,.21.21.21.28.28a2.25,2.25,0,0,0,.85.77v.15c.14.14.21.14.35.28s.28-.07.35.07v.28C97.44,55.65,97.65,55.58,97.72,55.65Z"/><path class="cls-1" d="M106,79a4,4,0,0,1-.56-.91c-.07.28-.07.56-.14.77a3.69,3.69,0,0,0-.21.84H105a3.1,3.1,0,0,0-.07,1.13c-.15,0-.15.07-.22.14a1.9,1.9,0,0,0,0,.63c0,.14-.14.14-.21.21s.07.42-.07.56-.07.57-.21.78a.15.15,0,0,0-.14.14c-.07.21,0,.28,0,.49l-.21.21c0,.14.07.28,0,.42-.21.35-.49.63-.63.91s-.21.36,0,.5c-.21.14-.28.35-.56.49a.15.15,0,0,1,.07.21c-.07.14-.21.21-.21.28s-.21.21-.21.42a.24.24,0,0,1,.07.14c-.14.21-.28.35-.28.56s-.15.14-.22.22v.21c-.21.21-.35.56-.56.77s-.28.49-.63.63c-.07.07.07.28,0,.35a11.55,11.55,0,0,0-.91,1.13c-.42.49-.92.91-1.27,1.33-.21.14-.56.21-.49.56a26.65,26.65,0,0,1-15.74,7.38c-.14,0-.35.07-.49.07h-.21v.21a.53.53,0,0,0-.35-.14h-.14a.26.26,0,0,0-.07.21h-.35a2.46,2.46,0,0,1-.56.35A26.78,26.78,0,0,0,106,79Z"/><path class="cls-1" d="M63.08,95.27c.29,0,.5-.07.64-.07l.21-.07c-.14-.14-.21-.35-.42-.42H63.3c-.07-.35-.43-.56-.64-.77A9.55,9.55,0,0,1,61,92.32c-.07-.14-.07-.28-.21-.35s-.5.07-.64-.21,0-.35-.07-.56a2.87,2.87,0,0,0-.42-.43c-.14-.14,0-.21-.07-.28s-.56-.35-.63-.63,0-.28-.07-.28-.14-.35-.35-.28c.07-.35-.28-.49-.49-.77v-.21L57.68,88c-.22-.21,0-.49-.15-.7s-.49-.49-.63-.77a1.35,1.35,0,0,1-.21-.7c0-.14-.21,0-.21-.14a.53.53,0,0,0-.21-.43c-.14-.21,0-.35-.07-.56s-.21-.21-.21-.28A.45.45,0,0,0,56,84a.57.57,0,0,1-.28-.56c0-.14-.21,0-.21-.14v-.35c-.07-.14-.21-.21-.28-.35s.07-.43-.07-.57-.07-.49-.14-.77l-.14-.14a2.38,2.38,0,0,1-.85.77A27.36,27.36,0,0,0,63.08,95.27Z"/><path class="cls-1" d="M56.69,49.47c-.07-.14-.21-.07-.35.07l-.07-.07,3.72-3c.07-.08.14-.15,0-.29l.14-.07,1,1.2-.14.07c-.14-.21-.28-.14-.35-.07l-2.32,1.89.63.85,1.55-1.27c.07-.07.14-.14,0-.35l.07-.07.91,1.2-.14.07c-.14-.14-.28-.14-.28-.07l-1.48,1.05,1,1.19c.07.14.21.07.35-.07l.07.07-1.62,1.34L59.29,53c.14-.14.21-.21.14-.35Z"/><path class="cls-1" d="M63.58,44.13c-1.2.63-2.25,2-1.41,3.58s2.53,1.47,3.8.84A2.58,2.58,0,0,0,67.37,45C66.6,43.42,64.84,43.49,63.58,44.13Zm.56,1a1.47,1.47,0,0,1,2,.49,1.38,1.38,0,0,1-.71,1.9,1.32,1.32,0,0,1-2-.49,1.45,1.45,0,0,1,.7-1.9"/><path class="cls-1" d="M70.11,41.53A2.62,2.62,0,0,0,68,44.76c.49,1.69,2.18,2,3.52,1.61s2.59-1.54,2.17-3.23A2.67,2.67,0,0,0,70.11,41.53Zm.35,1.12a1.41,1.41,0,0,1,1.83.84,1.48,1.48,0,0,1-1.06,1.76,1.4,1.4,0,0,1-1.82-.84,1.33,1.33,0,0,1,1-1.76"/><path class="cls-1" d="M79,40.12c.07,0,.21-.07.21-.28h.14l.14,1.62h-.14c0-.21-.14-.21-.21-.21l-1.54.14.28,3.37c0,.14.14.21.28.21v.14l-2,.21v-.14c.14,0,.28-.07.21-.21l-.28-3.37-1.54.14c-.07,0-.21.07-.21.28h-.15L74,40.4h.14c0,.21.15.21.22.21Z"/><path class="cls-1" d="M82.33,43.07l1.2.14c.42.07.91.07.84.71-.07.42-.49.56-1,.49l-1.2-.14Zm-1.68,1.62c0,.14-.14.14-.35.14V45l3.37.35c1.4.14,2-.35,2.11-1.19A1.15,1.15,0,0,0,85,42.86a1.21,1.21,0,0,0,.85-1c.07-1-.42-1.27-1.76-1.41l-3.3-.35v.14c.21,0,.35.07.35.21l-.49,4.22m1.89-3.44,1.34.14c.49.07.7.14.7.63,0,.28-.21.49-.77.49l-1.34-.14.07-1.12"/><path class="cls-1" d="M92,47.57l.07-.14a.15.15,0,0,1-.14-.14c-.07-1.27-.56-4.71-.56-4.78s.07-.07.14-.07l.07-.14-2.18-.7-.07.14c.14.07.14.07.14.14s-1.69,1.9-3.23,3.58c-.07.07-.14.07-.28.07l-.07.14,1.61.56v-.14s-.14-.07-.07-.14.42-.42.56-.63l2.46.77c0,.21.07.71.07.85s-.14.07-.14.07v.14Zm-3.51-3L90,43l.28,2.11-1.75-.56"/><path class="cls-1" d="M94.91,44.06c.07-.14,0-.21-.14-.35l.07-.15,1.76,1.06-.07.14c-.15-.07-.29-.14-.36,0l-1.68,3,2.6,1.55c.07.07.21.07.28-.15l.14.07-.84,1.48-.14-.07c.14-.21.07-.28,0-.35l-4.15-2.39.07-.14c.14.07.28.14.35,0Z"/><path class="cls-1" d="M100.25,47.36c.14-.14,0-.21-.07-.35l.07-.07,1.54,1.33-.07.07c-.14-.07-.21-.14-.35,0l-2.25,2.6,2.25,2c.07.07.21.14.35-.07l.07.07-1.12,1.26-.07-.07a.23.23,0,0,0,0-.35L97,50.59l.07-.07c.14.07.28.14.35.07Z"/><polygon class="cls-1" points="46.44 82.34 48.12 82.42 48.68 80.87 49.17 82.42 50.86 82.48 49.46 83.47 49.88 85.01 48.54 84.03 47.21 84.94 47.7 83.4 46.44 82.34"/><polygon class="cls-1" points="48.26 87.97 49.95 87.75 50.3 86.14 51 87.61 52.69 87.4 51.42 88.53 52.13 90.07 50.65 89.23 49.38 90.35 49.74 88.74 48.26 87.97"/><polygon class="cls-1" points="51.07 93.23 52.62 92.74 52.69 91.06 53.6 92.39 55.29 91.83 54.23 93.23 55.22 94.57 53.6 94.08 52.62 95.41 52.62 93.72 51.07 93.23"/><polygon class="cls-1" points="110.86 86 111.28 87.54 110.01 86.56 108.61 87.47 109.17 85.93 107.77 84.87 109.52 84.94 110.08 83.4 110.58 85.01 112.26 85.08 110.86 86"/><polygon class="cls-1" points="108.47 91.2 108.61 92.88 107.48 91.69 106.01 92.32 106.78 90.92 105.59 89.58 107.27 89.93 108.12 88.53 108.33 90.14 109.94 90.56 108.47 91.2"/><path class="cls-1" d="M129.61,57.33c-.42.14-.84.14-1.26.29s-.14.63-.42.7a1.53,1.53,0,0,0-.35.28.44.44,0,0,0,0,.42c.42.28.91-.35,1.33-.07a1.59,1.59,0,0,1,.07.28c.07-.14.21-.28.28-.42a3.76,3.76,0,0,0,.71-2A.52.52,0,0,1,129.61,57.33Z"/><path class="cls-1" d="M120,65.83a7.34,7.34,0,0,0-1.19.71c-.07.14-.15.28-.07.42a3.71,3.71,0,0,1,.77.63c.14.42.56.56.7,1a1.17,1.17,0,0,0-.84.07,5.12,5.12,0,0,0-1,1.48.38.38,0,0,0,.21.35c.36.07.64-.14,1-.07s.21.21.28.42c.14.42.7.28,1.12.42.14.07.21.22.35.29.29,0,.5.14.78.14,1,.14,1.33-1.2,1.33-2,0-.07-.07-.07-.14-.07s0-.21.07-.21a.07.07,0,0,1,.07.07c-.07-.14-.14-.21-.21-.35-.21-.42-.63-1-1-1.69a.24.24,0,0,1-.07.14c-.14.21-.35.07-.49-.21s-.36-.35-.36-.56,0-.42.29-.35h0c-.22-.28-.36-.49-.57-.78h0A1.15,1.15,0,0,0,120,65.83Z"/><path class="cls-1" d="M120.27,71.81l1.12.21a2.16,2.16,0,0,0-.56-.14A1.36,1.36,0,0,0,120.27,71.81Z"/><path class="cls-1" d="M129.75,56.35l-.21-.21A.22.22,0,0,0,129.75,56.35Z"/><path class="cls-1" d="M123.78,71.46a1,1,0,0,0,.07-.78c0,.21-.07.42-.07.63C123.85,71.31,123.78,71.38,123.78,71.46Z"/><path class="cls-1" d="M145.91,34.15c-.21-.21-.21-.7-.56-.77a1.53,1.53,0,0,0-1.68,1c-.29-.14-.57.07-.78.21a3.3,3.3,0,0,1-.21.63c.49.22,1.06-.56,1.41-.07s.28,1.27.84,1a3.49,3.49,0,0,0,.77-.7.45.45,0,0,1,.42,0,3.76,3.76,0,0,0,.43-1.55V34C146.4,34.29,146,34.36,145.91,34.15Z"/><path class="cls-1" d="M142.47,42.3a1.83,1.83,0,0,1-1.05.07c-.78-.35-1.34.63-1.69,1.12-.21.29.14.78.07,1.2-.07.14-.28.28-.21.49s.35.35.42.28c.63-.42,1.27-.77,2-1.26.21-.21.28.14.28.35l.21-.42a2.22,2.22,0,0,0,.14-2.18C142.61,42.09,142.61,42.23,142.47,42.3Z"/><path class="cls-1" d="M110.86,82.13h0a1,1,0,0,0,.28-.21A1,1,0,0,1,110.86,82.13Z"/><path class="cls-1" d="M117.74,73.91c-.35-.56-.63-1.12-1-1.75a6.49,6.49,0,0,0-2.53-2.81c-.49-.28-.91.56-1,1.05s.42.63.7,1a.68.68,0,0,1,.07.36,4.36,4.36,0,0,1,1,1.33.66.66,0,0,1-.28.77c-.35.28-.7-.21-1.05-.21s-.42.28-.5.42c-.14.36-.07,1.27-.63,1.06a.07.07,0,0,1-.07-.07,2.67,2.67,0,0,0,.63.63l.92.7-.14-.14a.56.56,0,0,1,.28-1,3.51,3.51,0,0,1,.84.14,1.52,1.52,0,0,1,.7.77,1.05,1.05,0,0,0,.29.49c0,.14,0,.28.14.36s.35-.08.49,0a1.41,1.41,0,0,0,2-.08c.14-.14.29-.07.43-.07a2,2,0,0,0-.14-.63c-.22-.56-.57-1.47-.85-2.32C117.88,74,117.74,73.91,117.74,73.91Z"/><path class="cls-1" d="M106.85,75.74c-.21-.14.14-.21.35-.21s.28.14.43.28a1.78,1.78,0,0,1,.35.91C107.34,76.79,107.2,76.09,106.85,75.74Zm4.29,3c-.14-.42-.07-.91-.42-1.26-.07-.07.07-.28,0-.42-.57-1.13-.85-2.32-1.9-3.1-.21-.14-.84.43-1.12-.07A4.55,4.55,0,0,0,106,74.9c-.35.28.28.49.63.63v.21c-.21.28-.56.42-.42.77s.63.57.7.92.28,1,.49,1.47a2,2,0,0,1,.14.63c.08.36.43.5.64.64a9,9,0,0,1,1.19,1.12c.07.07.14.49,0,.49h0a1.87,1.87,0,0,0,.91.35,2.22,2.22,0,0,1,.78-1.26c.14-.14.42-.28.49-.07v.14a7.47,7.47,0,0,0,.14-2.18h-.07a.33.33,0,0,1-.49-.07"/><path class="cls-1" d="M125.26,53.82c-.42-.42-1.06-.77-1.48-.28-.21.28.14.56.14.84s-.56.43-.77.71a.58.58,0,0,0,.21.56.32.32,0,0,0,.35,0c.21-.21.35-.49.64-.49.56-.14,1.12,0,1.33-.57C125.75,54.31,125.47,54,125.26,53.82Z"/><path class="cls-1" d="M116.2,64.57a2.56,2.56,0,0,0-1.69-1c-.28,0-.56-.28-.84-.35s-.85.07-.64.49a1.32,1.32,0,0,0,1,.56c.35.07.07.63-.14.77s-.56-.14-.85-.21c-.49-.14-.63.56-.7.91-.07.07.14.22.21.22a4.22,4.22,0,0,1,.85.28c.42.21.91.7,1.47.49a1.51,1.51,0,0,0,1.48.49c.42-.07.91-.63.63-1.12A7.22,7.22,0,0,0,116.2,64.57Z"/><path class="cls-1" d="M123.85,50.66c.14-.07.28.07.43,0,.49-.35.77-1,.28-1.48a.62.62,0,0,0-.5,0c-.35.36-.42.78-.84,1.06s-.63.63-.35.77S123.57,50.87,123.85,50.66Z"/><path class="cls-1" d="M111,70.82a2.33,2.33,0,0,0-.21-.42c-.42-.77-.42-1.76-.85-2.53-.21-.35-.63-.35-.91-.63s0-.56-.07-.77c-.28-.42-1-.49-1.19-.07s.28,1.4-.36,1.61c-.42.07-.56-.77-1-.63-.91.35-.14,1.05.14,1.62.07.21.28.42.42.7s.56.49.63,1c0,.21.36.21.64.21s.42.57.77.78h.28a1.09,1.09,0,0,0,.49.84A1.19,1.19,0,0,0,111,70.82Z"/><path class="cls-1" d="M143.59,27.9a.63.63,0,0,0-.42.42c-.07.49-.42.84-.56,1.33,0,.07.07.07.14.07a1.9,1.9,0,0,1-.56,1.13,3.87,3.87,0,0,0-1,1.47c-.14.36-.43.92,0,1.06s.84-.21,1.12-.49.77-.85.56-1.41A5.22,5.22,0,0,0,144,30a2.37,2.37,0,0,0,.49-1.76C144.37,27.83,144,27.83,143.59,27.9Z"/><path class="cls-1" d="M142,27c.14-.28-.28-.56-.56-.56-.07,0-.21.14-.28.21-.29.28-.57.28-.78.43a1.82,1.82,0,0,0-.77,2.1c.07.21.35,0,.35-.07C140.64,28.39,141.56,27.9,142,27Z"/><path class="cls-1" d="M129,43.49c-.35-.21-1,.29-1.26,0s.14-1-.07-1.4-.49-.07-.71.07a.76.76,0,0,0-.56.77c.07.21.49.28.49.42a3,3,0,0,0,.29.71c.35.49.7,1,1.33,1a.52.52,0,0,0,.35-.56C128.84,44.13,129.19,43.71,129,43.49Z"/><path class="cls-1" d="M138.4,27.2c-.36-.14-.78.14-1.13.28a1.12,1.12,0,0,0-.63,1.12c-1,.35-1.62,1.27-2.39,2-.07.14.21.42.28.42.49-.07.77-.63,1.2-1s.91.28,1.47,0c.21-.21.14-.57.28-.85.21-.56,1-.77,1.34-1.33C139,27.55,138.61,27.34,138.4,27.2Z"/><path class="cls-1" d="M142.12,25.86c.56-.14.56-.77.84-1.19h.21c.14-.14.14-.42.28-.5.57-.7,1.62-1.61.85-2.45l-.07.07h-.14a5.62,5.62,0,0,1-1.2,1.05c-.42.28-.91.56-1,1.05-.07.21.28.5.21.78s.07.7-.14,1A.32.32,0,0,0,142.12,25.86Z"/><path class="cls-1" d="M137.41,39.42a1.17,1.17,0,0,0-1.33.35,1.2,1.2,0,0,0-.14,1.2c.07.28.28.63.63.56.14,0,.21-.28.35-.42a3.33,3.33,0,0,0,.49-.5C137.48,40.12,138,39.56,137.41,39.42Z"/><path class="cls-1" d="M134.53,37.1c.14-.21.28-.56.56-.7a2.26,2.26,0,0,0,.71-.42c-.35-.21-1-.35-.64-.85s.71-.35,1.06-.63c.14-.14-.14-.35-.28-.42a1.46,1.46,0,0,0-1.2.35c-.07.07-.28-.07-.35,0a1.47,1.47,0,0,0-.56.77c-.07.29.35.64.21,1a6.16,6.16,0,0,0-.42.7,1.15,1.15,0,0,0-.14.7.42.42,0,0,0,.56.28C134.32,37.73,134.32,37.38,134.53,37.1Z"/><path class="cls-1" d="M131.58,49a20.23,20.23,0,0,0,2-.49c0-.07-.07-.07-.14-.07.35-.28.77-1,.35-1.19a3.49,3.49,0,0,0-2.46-.56c-.28.07-.84.14-.7.56a2.62,2.62,0,0,1,.07.77c0,.35-.42.56-.49.84-.14.5.77.43,1.19.43C131.44,49.26,131.58,49.18,131.58,49Z"/><path class="cls-1" d="M53.67,65.91c0-.15.07-.36,0-.5-.21-.42-.84-.56-1.05-.14a7.78,7.78,0,0,0-.92,2.39,7.29,7.29,0,0,0,.07,3,.46.46,0,0,0,.57.35c.07-.07.28-.14.28-.21-.21-1,.35-1.89.21-2.81,0-.21-.14-.42-.07-.63a.89.89,0,0,0,.07-.42c-.07-.14-.07-.21-.14-.35a.26.26,0,0,0,.07-.21C53,66.19,53.53,66.33,53.67,65.91Z"/><path class="cls-1" d="M48.54,66.54c-.42-.21-1.33-.42-1.19-1,.14-.35.49-.49.7-.77,0-.07,0-.14-.07-.14s-.49,0-.7.14a1.86,1.86,0,0,1-.42.35c-.43.28-1,.42-1.2.85a5.85,5.85,0,0,0-.84,1.61,3.29,3.29,0,0,0-.28,1.13.9.9,0,0,0,1.19.77.8.8,0,0,0,.28-1.2c-.07-.14.07-.35.14-.49a4.78,4.78,0,0,1,.78-.49c.42-.21,1,.14,1.4,0C48.54,67.24,48.89,66.68,48.54,66.54Z"/><path class="cls-1" d="M44,61.55c.63-.21,1.33,0,1.89-.42-.14-.07-.28-.28-.35-.28-.91-.21-1.68,0-2.6-.14a13.62,13.62,0,0,0-2.39-.07,4.82,4.82,0,0,0-3.09,1c-.21.14.07.42.21.49a1.59,1.59,0,0,0,1.27.07c.07,0,.07-.07.07-.14.84,0,1.54.42,2.39.42.49-.84,1.47-.49,2.24-.7C43.69,61.76,43.84,61.55,44,61.55Z"/><path class="cls-1" d="M33.65,63c.14-.35.91.07.56-.42a3.87,3.87,0,0,0-1.33-1.47c-.21-.07,0-.49.14-.49,1.4-.5,2.95,1,4.21-.14-.21-.07-.21-.43-.35-.5a14.84,14.84,0,0,0-3.44-1c-.14-.07-.14-.42-.42-.42v-.14h-.5c.07.07.15.14.15.21v.21a4.43,4.43,0,0,1-2.11.28c0-.07,0-.14-.07-.14h-.14a.43.43,0,0,1,.07-.42c-.28,0-.49.07-.78.07a3.71,3.71,0,0,0-1.12.28c.28,0,.49,0,.49.28s.07.91.49,1.05a1.26,1.26,0,0,1,.43.36,6.91,6.91,0,0,0,2.81,1.54.47.47,0,0,1,.28.49c-.07.14-.14.35-.28.43.28.14.63.21.91.35C33.58,63.45,33.58,63.31,33.65,63Z"/><path class="cls-1" d="M26.83,46.59l.85.42c.21.14.35.77.56.56.49-.35,1.05-1,1.54-.56a39,39,0,0,0,3,2.81c.42.35.84.7,1.26,1.12.21.07.56.14.63.28a1.89,1.89,0,0,0,1.2.56c.42.07.21-.63.14-.91-.21-.63-1.06-.7-1.41-1.33-.07-.07-.35,0-.49-.14s.14-.36.35-.43a1.2,1.2,0,0,1,.84.14c.36.07.64.36,1.06.29.14,0,.35-.07.28-.22a.77.77,0,0,0-.42-.7,2.49,2.49,0,0,1-.63-.28c-.85-.56-1.83-.91-2.6-1.4a1.8,1.8,0,0,1-.78-.71c-.07-.07-.28,0-.42,0a7.78,7.78,0,0,0-1.12-.49c-.14-.07-.21-.21-.35-.28-.71-.28-.71.7-1.06,1H29l-.07.08a1,1,0,0,1-.42-.64A2.08,2.08,0,0,0,28,44.55c-.07-.07-.28.07-.35,0-.42-.56-1.06-.63-1.55-1.06-.21-.14-.49-.28-.77-.49-.63-.42-1.27-1-2-.84-.35.14-.35.84,0,.91s.42.28.63.21a1.74,1.74,0,0,0,1.2,1.62,3.41,3.41,0,0,1,1.26.77C26.62,46,26.41,46.37,26.83,46.59Z"/><path class="cls-1" d="M44.82,77.92c.14,0,.35-.07.49-.07a2.77,2.77,0,0,0,1.27-.42c.14-.07.28-.21.42-.21s.14-.07.14-.21c.42-.08.63-.57.84-.92.07-.14.28-.21.35-.35.21-.35-.14-.63-.28-1s-.77-.71-1.19-1.06c.28-.77-.92-.84-1.06-1.54h-.21a10.64,10.64,0,0,0-1.75,3.93c-.36,1.27.07,2.18,1,2.32-.07-.07-.14-.21-.21-.28S44.75,77.92,44.82,77.92Z"/><path class="cls-1" d="M40.88,71.88c.29-.5,1.2.07,1.41-.42a1.32,1.32,0,0,0-1.12-1.62c-.71-.77.14-1.62.21-2.39.07-.35-.35-.21-.57-.14s-.21.42-.35.49-.42-.07-.49-.21a1,1,0,0,1,.21-1.19,18.61,18.61,0,0,0-3,3.72c-.07.07-.07.14-.14.21.21-.21.42-.07.42.14s.21.56.28.84-.21.29-.42.22c.28.14.63.28.92.42l-.15-.14c-.14-.21.15-.35.29-.43a2.35,2.35,0,0,1,.7,0,.29.29,0,0,1,.07.15c0,.35.63.21.84.42s-.14.42-.35.35h-.14a9.57,9.57,0,0,0,1.33.14C40.88,72.23,40.74,72.09,40.88,71.88Z"/><path class="cls-1" d="M33.16,55.37a4.56,4.56,0,0,0-1.41-.64c-.28-.07-.77-.21-.84-.49s.28-.49.56-.63.07-.56-.14-.7a2.61,2.61,0,0,0-1.26-.14c-.07,0-.07.14-.14.14a1.75,1.75,0,0,0-1.55.49c-.07.21-.21.56.21.63v.21c.49.49,1,.92,1.55,1.41.07.07.28-.07.35,0a2.84,2.84,0,0,0,.7.63c.91.42,1.83.91,2.67,1.27.21.14.56.21.56,0A2.5,2.5,0,0,0,33.16,55.37Z"/><path class="cls-1" d="M25.36,52.7c.21-.14.63-.07.91-.35a.82.82,0,0,0-.07-.57c-.21-.28-.63-.14-.77-.35a10.35,10.35,0,0,0-1.83-2.1c-.28-.22-.77-.29-.84-.71A1.41,1.41,0,0,1,23,47.15c.14-.07-.21-.14-.28-.21-.21-.49-.21-1.2-.77-1.34-.28-.07-.5-.28-.78-.14a1.24,1.24,0,0,0-.63.56c-.07.07-.28,0-.28-.07-.14-.35.07-.7-.07-1s-.35-.21-.35-.35.07-.35,0-.56-.42-.14-.63-.28h-.42c-.22.14-.5.14-.5.28,0,1,.78,1.89,1.34,2.74a.45.45,0,0,1,0,.42.47.47,0,0,1-.49.21c0-.07-.07-.07-.14-.14a16,16,0,0,0,1.75,2l.14.14V49c.28,0,.42.21.63.36s.08.21.22.28.07.35.07.49-.07.07-.07.14a17.34,17.34,0,0,0,3.44,2.95C25.08,53,25.08,52.77,25.36,52.7Z"/><path class="cls-1" d="M14.82,35.27a.45.45,0,0,1-.56.15c-.14,0-.14-.22,0-.36S15,34.92,14.82,35.27Zm.28,2c.07-.42.49.21.7.35.43.42.64,1.06,1.13,1.48s1,1,1.61,1.47a1.8,1.8,0,0,1,.5.28c.35.22.56.71,1,.92.14,0,.21-.14.28-.28.07-.49-.07-1.06.35-1.41a.5.5,0,0,0-.21-.56.26.26,0,0,0-.21.07c-.14.35-.14.91-.49.84a.82.82,0,0,1-.21-1.26c.07-.07.35.21.49-.07s-.07-.35-.14-.49c-.28-.35-.56-.71-.91-1.2-.07-.14-.43-.21-.5-.35a7.55,7.55,0,0,0-2.24-1.33,1.75,1.75,0,0,1-.36-.43c0-.07-.07-.21,0-.35h-.63c-1.12,0-1.4.35-1.12,1.06a8.2,8.2,0,0,0,1.12,1.89.56.56,0,0,1-.14-.63"/><path class="cls-1" d="M37.3,71.38c.07,0,.07.08.14.08s-.14-.08-.21-.15Z"/><path class="cls-1" d="M18.9,34.85a5.75,5.75,0,0,1,1.26.78.75.75,0,0,0,.77,0c.35-.28-.14-.85-.42-1.2C19.74,33.59,18.9,33,18.19,32c-.35-.49-.63-1-1-1.47a.61.61,0,0,1,.07-.49c.49-.43,1.12.14,1.48.56.07.07.28-.07.35,0a1.86,1.86,0,0,0,1.68.56c.14,0,.14.21.21.28s.14,0,.14-.07a2,2,0,0,0-1.75-1.76,2.41,2.41,0,0,1-1.06-.49A11.32,11.32,0,0,1,17,27.9c-.07-.07-.28.07-.35,0a4,4,0,0,0-2.39-1.34c-.35,0-.56.5-.56.92a6.32,6.32,0,0,0,2,3.93c.14.14.43.21.5.42a1.06,1.06,0,0,1,0,.92h-.07l2,2A2.48,2.48,0,0,1,18.9,34.85Z"/><path class="cls-1" d="M23.46,29.94c-.14-.22-.28-.43-.21-.64a.53.53,0,0,1,.7-.07,1.33,1.33,0,0,1,.5.42,1.09,1.09,0,0,0,.63.36c.21.14.56.07.7.21.42.56,1.26,1,1,1.75a.38.38,0,0,1-.28.21,1.76,1.76,0,0,1-1-.42A9,9,0,0,1,23.46,29.94Zm3.73,2c.07.14.28,0,.35.14.14.35.7.64.35.85s-.77-.07-1-.43c-.07-.28.14-.42.29-.56M25,33c.07,0,.28,0,.35.07.56.56,1.19.84,1.76,1.4.07.07.28-.07.35,0a6.6,6.6,0,0,0,.7.7c.35.22,1,.15,1-.35.64.07.85.78,1.55.64.07,0,.14.21.14.28a.49.49,0,0,0,.14.63.46.46,0,0,0,.42.07c.14-.14.35-.14.42-.28a.45.45,0,0,0,0-.42,4,4,0,0,0-.49-.57c-.28-.28.21-.56.07-.84a1.88,1.88,0,0,0-.7-1c-.91-.7-1.76-1.34-2.6-2-.63-.42-1.05-1.12-1.69-1.54-.14-.15-.49-.08-.56-.22a3.32,3.32,0,0,1-.7-.7,3.21,3.21,0,0,0-.91-.56c-.22-.14-.43-.21-.64-.35s-.28-.56-.49-.77a2.17,2.17,0,0,0-.84-.78.74.74,0,0,0-.56-.07,1.31,1.31,0,0,0-.57,1,15.58,15.58,0,0,0,1.34,3.37A25.38,25.38,0,0,1,25,33"/><path class="cls-1" d="M39.06,58c0-.42-.63-.5-.84-.85s0-.56.35-.63.63.14.84-.07c.56-.42-.14-1.05-.63-1.26a3,3,0,0,0-1.9-.07c-.56.14-1.19-.14-1.69.07-.14.07-.42.21-.35.35a3.29,3.29,0,0,0,1.55,1.68c.49.28.91.57,1.33.78S39.06,58.53,39.06,58Z"/><path class="cls-1" d="M32.17,41.53c.5.07,1.06.91,1.48.42.07-.07.35-.21.21-.35a22.13,22.13,0,0,0-3.09-2.74,7.83,7.83,0,0,1-.63-.85c-.14-.28-.57-.35-.92-.49a1.68,1.68,0,0,1-.56-.42c-.21.28-.42.07-.63,0a5.61,5.61,0,0,0-3.87-1.26c-.28.49.07,1.12.29,1.61a8.54,8.54,0,0,0,1.47,1.76,23.59,23.59,0,0,1,1.9,2c.14.21.28.63.56.77a19.13,19.13,0,0,0,2.11,1.54l.63.43c.07,0,.14.21.28.28.42.14.63-.42.77-.78s0-.49.21-.63a1.86,1.86,0,0,1-.42-.7C31.82,41.81,32,41.46,32.17,41.53Z"/><path class="cls-1" d="M15.87,23.19c-.21,0,0,.35.07.49s.43.42.57.21a.32.32,0,0,0,0-.35C16.37,23.33,16.09,23.12,15.87,23.19Z"/><path class="cls-1" d="M49.53,63.59c-.21,0-.43-.07-.57.14s-.91.42-.49.77c.28-.35.77-.42,1.13-.77C49.67,63.66,49.6,63.59,49.53,63.59Z"/><path class="cls-1" d="M15.66,21.58c-.21-.07-.35-.43-.56-.64-.56-.49-.91-1.33-1.68-1.4-.14-.07-.21.21-.14.35.28.42.63.7.91,1.12v.35c.07.22.35.29.42.43a3.27,3.27,0,0,1,.35.7c.07.21.07.63.28.56s.28-.49.63-.56.36.14.43.28c.42.49.7,1.05,1.26,1.33.21.07.84.22.7,0A9.73,9.73,0,0,0,15.66,21.58Z"/><path class="cls-1" d="M52.62,78.9c.14.28.42.28.56.56.07.07.14,0,.14-.07,0-.49.21-1.19-.28-1.4-.21-.14-.49-.07-.63-.14a2.67,2.67,0,0,1-.21-.7,2,2,0,0,1,0-.64,5.48,5.48,0,0,0,0,2.67.26.26,0,0,1,.07-.21C52.34,78.83,52.55,78.9,52.62,78.9Z"/><path class="cls-1" d="M63.72,57.9a4.27,4.27,0,0,0,.84-.78c.07-.07.07-.21.14-.28a11.15,11.15,0,0,0,.91-.91c.07-.07.21.07.28,0a2.77,2.77,0,0,1,.57-.63h.21c.35-.35.63-.85,1.19-1a.22.22,0,0,0,.07-.14.63.63,0,0,1,.35-.07c.14-.07.14-.14.21-.21h.22c.21-.21.42-.49.77-.49.14,0,.35-.21.49-.35s.28-.07.49-.28c0-.07.28.07.35-.07.14-.42.56-.35.85-.49s.42-.36.14-.36c-.5-.07-1,.22-1.41.22.07.21-.35.14-.28.35-.28,0-.35.14-.49.28s-.28-.07-.28,0a.77.77,0,0,1-.63.21c-.15,0,0,.21-.15.21s-.21-.07-.28,0-.42.21-.56.35-.14.21-.21.35H67.3a1.47,1.47,0,0,1-.56.42c-.49.14-.63.64-1,.78a3.17,3.17,0,0,0-.84.84c-.07.07-.28,0-.35.07A8.26,8.26,0,0,0,63.3,57.4C62.94,57.69,63.44,58,63.72,57.9Z"/><path class="cls-1" d="M98.56,60.5c.35.07.28-.5.21-.64s-.49-.42-.56-.63a3.17,3.17,0,0,0-1-1.26,11.71,11.71,0,0,0-2.11-2.11c-.07-.07-.21,0-.28,0a2.2,2.2,0,0,0-.7-.7,3.76,3.76,0,0,0-1-.78A5.35,5.35,0,0,1,92,53.61h-.21c-.14-.21-.21-.28-.49-.21,0-.28-.35-.07-.5-.21s.07-.14-.07-.21h-.35c-.21-.07-.21-.35-.42-.42s-.56-.14-.91-.21c-.14-.07-.14-.21-.21-.28s-.35.07-.56,0c0,0,0-.22-.07-.22a4.63,4.63,0,0,1-1.06-.21c-.21-.21-.56-.07-.91-.07-.14,0,0-.21-.14-.21a.26.26,0,0,0-.21.07v.14c-.21.07-.21-.14-.28-.21-.36-.14-.85.07-1.2-.21s-1,.07-1.47-.14c-.21-.07-.5.21-.64-.14-1.19.42-2.45.07-3.65.21-.07,0-.07.14-.07.14-.28.21-.7,0-1,.07-.07.07-.28,0-.21.21a.68.68,0,0,0-.36.07c-.28.07-.56.21-.91.28a1,1,0,0,1-.49.14c-.21,0-.42.22-.63.22s-.56,0-.7.21H74c-.07.07-.07.14-.14.21s-.42-.07-.56.07-.35.14-.63.21a.25.25,0,0,0-.14.21.93.93,0,0,0-.56.21h-.14c-.14.21-.21.21-.5.21s0,.21-.14.21-.35.21-.56.21-.35.21-.56.28a.26.26,0,0,1-.21-.07c-.14.07-.14.21-.21.21s-.35.14-.56.21h-.21c-.22.22-.29.14-.57.29V55a2.36,2.36,0,0,0-.77.49h-.21a.38.38,0,0,0-.21.28c-.28-.07-.49.21-.63.42h-.21a.25.25,0,0,0-.14.21,5.27,5.27,0,0,0-.64.35,4.69,4.69,0,0,0-1.26,1.13c-.14.07-.14.35,0,.56s.28.21.42.42.28.07.42.21-.07.14.07.14a2.6,2.6,0,0,1,1.2.7c.14.07.35-.07.49,0s.28.28.56.28c0,.07.14.15.21.22.14-.22.21.07.35,0a1.14,1.14,0,0,1,.49-.29c.5-.35.85-.84,1.34-1.26.07-.14.28-.14.42-.28h.21c.21-.14.21-.21.49-.28a4.41,4.41,0,0,1,.57-.21c.14,0,0-.21.14-.21h.21a2.91,2.91,0,0,1,1-.5,5.55,5.55,0,0,1,.63-.28V57a1.65,1.65,0,0,0,.56-.14c.22-.21.57,0,.85-.21v-.07c.21-.07.49.07.63-.07s0-.14.07-.14c.28-.14.63.07.91-.14s.5,0,.71-.07.07-.21.14-.21c.35-.14.7.14,1-.07v-.14c.56-.28,1.33.21,1.62-.28a7.12,7.12,0,0,0,2.1-.07c.07,0,.14-.21.35-.14,0,.07,0,.14.08.14.91,0,1.82-.07,2.81,0,0,0-.08.21.07.21.49.07,1-.14,1.4.14a2.07,2.07,0,0,0,.7.14,1,1,0,0,1,.14.21,3.63,3.63,0,0,1,.92.14,1.21,1.21,0,0,0,.7.07.26.26,0,0,0,.14.21h.28c.14.28.42.28.7.28,0,.07,0,.14.07.14s.28.14.43.07c0,.14.07.21.14.21.28,0,.49.28.77.21s0,.22.14.22.42-.15.56.07-.07.21.07.21.28-.14.28,0,.28.21.42.21l.5.49h.21a3.68,3.68,0,0,0,1,.77,1.63,1.63,0,0,1,.49.63c.07.07.21-.07.28,0a3.6,3.6,0,0,0,1,.78c.07,0,.14.21.21.28.49.28.7-.14,1-.42.07-.07.21.07.35-.07S98.56,60.57,98.56,60.5Z"/><path class="cls-1" d="M58,65.83a8.5,8.5,0,0,0,1.4,1.41c.07,0,.21.07.28.07.28.14.42.56.78.56,0,.14.07.14.14.14s.21.07.35,0-.07.21.07.21h.21c.21.14.28.42.49.42a.75.75,0,0,0,.56.08c0,.14.07.21.14.21a.5.5,0,0,1,.42.21H63c.15.07.15.21.22.21h.21c.21.14.28.35.49.49s.63-.14,1,.07.63.07.91.28a1.7,1.7,0,0,0,.85.14.24.24,0,0,0,.07.14,1.53,1.53,0,0,0,.35-.21c0-.21.21-.35.21-.56.14-1.06,0-2,.07-3,0-.07.21-.07.21-.21V63.31c.35-.22.21-.78.14-1.06a1.12,1.12,0,0,0-.84-.63c0-.14-.07-.21-.14-.21a1.78,1.78,0,0,1-.49-.14v-.21c-.28-.28-.71-.28-1-.63-.07-.07-.21.07-.35,0s.07-.15-.07-.15h-.21a2.46,2.46,0,0,0-.56-.35,4.22,4.22,0,0,1-.56-.56H63.3c-.22-.14-.43-.49-.64-.63a.5.5,0,0,0-.77.28c-.14.49-.7.77-1,1.19v.22c-.21.14-.14.28-.21.49s-.36.28-.5.42a.24.24,0,0,1,.07.14c0,.28-.42.35-.42.56s-.42.49-.28.77c-.21-.07-.21.14-.21.21s.07.29,0,.29a.26.26,0,0,0-.21.28c-.07.21-.21.35-.28.56s-.35.35-.35.56-.35.63-.21,1.05C58,65.69,57.89,65.83,58,65.83Z"/><path class="cls-1" d="M70.46,82.06h-.14c.07-.35-.21-.35-.49-.49v-.14c0-.28.21-.49.42-.35,0,.07.07.14-.07.21A.52.52,0,0,1,70.46,82.06Zm6.89-7.72c.07,0,.21,0,.21-.07a7.69,7.69,0,0,1,0-1.27c.07-.14.28-.14.28-.28,0-.91-.07-1.83,0-2.74.21,0,.14-.14.14-.21a1.37,1.37,0,0,0-.07-1,3.68,3.68,0,0,1-.14-.85c0-.07.14-.07.14-.21,0-.35.21-.77-.07-1s-.07-.63-.14-.92c0-.07.14-.14.14-.21-.35-2,.14-3.86-.28-5.76-.21-.56.07-1.26-.21-1.82-.07-.21-.07-.43-.21-.57a.91.91,0,0,0-.85,0c-.49.29-1,0-1.33.22v.14a1,1,0,0,1-.63,0c-.22,0-.36.14-.57.28s-.21-.07-.28,0-.21.21-.35.21-.14.21-.21.28-.42-.07-.56.07-.49.14-.7.21-.07.14-.14.21-.43-.07-.43.14c-.21,0-.35,0-.49.21h-.28c-.14.14-.21.35-.35.49h-.21c-.21.21-.49.14-.63.35s-.42.29-.5.5,0,.28,0,.49-.14,0-.14.14a5.67,5.67,0,0,0,0,1.54c0,.14.14.07.14.07a7.5,7.5,0,0,1,0,1.34c0,1.9.15,3.72,0,5.62,0,.21.15.56-.07.77-.28.49-.07,1-.14,1.48,0,.14-.21.14-.21.21,0,.42-.14.84.07,1.19-.14,0,0,.21-.14.21.14.21.07.35.07.57s-.14.35-.21.56.07.63-.14.84a1,1,0,0,0-.14.28c-.07.14,0,.42-.07.56s-.14.64-.21.92c-.07,0-.14.07-.21.14-.07.28.14.49-.07.77a.15.15,0,0,0-.14.14c-.07.21.07.42-.07.49s-.14.49-.35.63-.07.64-.07.92c0,.07.14.14.21.21a.26.26,0,0,1-.07.21c.35.21.49.63.91.7.07,0,.14-.21.14-.35s.07-.49,0-.63a.79.79,0,0,1-.21-.77c0-.07.07-.07.14-.14a.72.72,0,0,0,.07.28,1.47,1.47,0,0,1,.49,1.33c0,.14.21.14.21.21s-.14.49.07.56a.42.42,0,0,0,.5.14c.21-.14.07-.35.21-.42h.21v.21c.56.43.35,1.06.56,1.62h.14c.07.21-.07.49.28.49,0,.28-.07.42.07.63.21-.28.14-.77.14-1.12.14,0,.14-.07.21-.14a1,1,0,0,1-.07-1c.07-.15.14.14.14.21s.56.07.56.21c.15.28.08.49.29.63a.28.28,0,0,1,.28-.14c-.35-.14-.21-.49-.21-.77.21.07.28-.29.28-.14.14.42.07.84.21,1.26.07.14.14.07.21.07.28-.21.14-.56.21-.91,0-.14.21,0,.21-.14.07-.5-.14-1,.14-1.48.14.35-.14.77.07,1.13a3,3,0,0,1,.28.84c0,.07.14.21.21.07a4.13,4.13,0,0,1,.14,1c.07.07.14.14.21.14,0,.21,0,.42.21.42s.22,0,.29-.14-.14-.21-.07-.28c.14-.28.49-.49.56-.77s.07-.56-.21-.7c.07-.21.14-.35.21-.56s.14.07.21.14a.26.26,0,0,1-.07.21c.21.14.35-.14.42-.21a3,3,0,0,0,.07-.78h.14c.21-.21.07-.42.14-.63s.21-.14.21-.21a3.36,3.36,0,0,0,0-.84c.14,0,.21-.07.21-.14v-.78c0-.07.14-.07.21-.07.21-.42,0-.84.28-1.26.07-.14-.14-.28-.07-.42s.14-.14.21-.21a2.9,2.9,0,0,0,0-.78c.15,0,.15-.07.15-.14.14-.42-.08-.91.14-1.19s0-.63.14-.91"/><path class="cls-1" d="M88.45,58.32a.53.53,0,0,0-.21-.56c-.43-.14-.85-.14-1.2-.29a6.19,6.19,0,0,0-1.61,0c-.15,0-.15-.21-.22-.21a11.31,11.31,0,0,1-1.54,0,.32.32,0,0,1-.21-.21,2.28,2.28,0,0,0-1-.07c-.14,0-.14.35-.28.28s-.14-.21-.21-.28-.14,0-.14.07v.14a.6.6,0,0,0-.49,0c-.35.14-.77-.21-1.19-.14-.07.07-.21,0-.21.21a.42.42,0,0,1-.5-.21c-.07.07-.14.14-.14.21-.28.07-.7-.14-.77.14a1.36,1.36,0,0,0,0,1.27,1.4,1.4,0,0,1,.14.91c-.14.56.14,1.06,0,1.48a1.46,1.46,0,0,0,.14.91c.21.35.07.91.07,1.34,0,1,0,2.17.07,3.23,0,.28.28.49.21.77a14.43,14.43,0,0,0,0,2.46c-.07.14.07.28,0,.35s.14.28-.07.42c.21.14.07.42.07.56.07.36.14.78-.07,1a1.46,1.46,0,0,0-.21.91,2.82,2.82,0,0,1,0,.77c0,.14-.21,0-.21.14a8.62,8.62,0,0,1-.07,1.9,6,6,0,0,0-.14,1.55c0,.14-.21,0-.21.07a2.65,2.65,0,0,0,0,1c-.14,0-.14.07-.21.14-.14.28-.07.56-.21.84s0,.5-.14.71a4.82,4.82,0,0,1-.21.56,1.61,1.61,0,0,0-.14,1,.22.22,0,0,0-.21.21,4.54,4.54,0,0,0-.07,1.76c.07.07.07.21.14.21h.49c0,.28.28.28.42.42a.76.76,0,0,0,0-.77.94.94,0,0,1-.07-.63c.14.21.35.49.63.49s.14-.42.28-.49.14.21.21.21.14-.21.21-.21a.69.69,0,0,0,.57-.35c.14-.29,0-.5.07-.71s.21-.14.21-.21c.07-.56-.21-1.19.14-1.61.14-.14.21.21.14.35-.14.35.07.77,0,1.12V82c0,.35-.14.71.14,1.06.21-.21.49-.21.35-.64.07,0,.21,0,.21.07A10.41,10.41,0,0,0,81.28,84c0,.07,0,.28.14.21s.07-.56.21-.84.07-.7.07-1.13c.07,0,.07,0,.07-.14.14.07.28,0,.42,0s.14-.21.14-.35.07-.07.14-.07.07.28.22.21.07-.14.14-.14a.42.42,0,0,0-.07-.28c-.07-.21.21-.21.21-.35.07-.56-.14-1,.14-1.48,0,0,.21-.07.28.07a1.58,1.58,0,0,1-.21.92c-.14.21,0,.49,0,.7s.21.28.35.21.07-.56.21-.84,0-.63.14-1H84c0,.15-.07.43.07.57a1.76,1.76,0,0,0,.56.49c.35.14.28-.35.28-.56.07,0,.14,0,.14-.07s.14.07.14.14v1.33c0,.07.07.07.14.14.15-.35-.14-.84.36-1A4.22,4.22,0,0,1,85.78,79c.07-.14.21-.49.49-.49s.07.21.14.42-.14.56-.07.77,0,.15.14.15a.26.26,0,0,0-.07.21c0,.07.07.07.14.14.14-.21.07-.57.14-.78s.21-.07.21-.21c0-.42-.14-.84.07-1.19a1.32,1.32,0,0,0,.14-.56s.21,0,.21-.07a17.2,17.2,0,0,0,0-1.9c0-.07.14-.07.14-.07a2.22,2.22,0,0,0,.21-.63c.21-.35,0-.92.14-1.34a1,1,0,0,0,.21-.14c.15-.42-.21-.91.22-1.19a12.55,12.55,0,0,1-.07-1.62c0-.14.21-.14.21-.21.07-.7-.07-1.4.07-2.18,0-.14.21,0,.21-.14,0-3.23.14-6.6-.07-9.83C88.66,58.39,88.45,58.39,88.45,58.32Z"/><path class="cls-1" d="M96.31,66.26v.21c-.07,0-.14,0-.14-.07v-.49c0-.08.07-.08.14-.08A.84.84,0,0,1,96.31,66.26Zm-5.12,6.18H91V71.38c.07,0,.21,0,.21.08a4.59,4.59,0,0,1,0,1m5.9-8.85c-.28-.21-.42-.57-.78-.71-.07-.07,0-.21,0-.35s-.28-.14-.21-.28-.21-.49-.21-.7h-.21a13.62,13.62,0,0,0-1.33-1.41h-.21c-.14,0,0-.14-.14-.14s-.28-.07-.36-.07a1,1,0,0,0-.84-.42c-.14,0-.14-.21-.21-.28h-.28a4.7,4.7,0,0,0-.84-.42c-.28-.14-.64-.14-.92-.28s-.21-.21-.28-.49-.14-.21-.28-.21-.28.21-.42.35v.14c-.07,0-.21-.07-.21.07s.14.35.21.56-.07.63,0,1a1,1,0,0,1,.14.43c.21.42-.07,1,.14,1.26A3.32,3.32,0,0,1,90,63.45a2.58,2.58,0,0,0,.07,1,.8.8,0,0,1,.07.7c0,.14.21,0,.21.14-.07.42.14.85-.07,1.2,0,0-.14.14-.14.21s.14.07.14.21c.07,1.05.07,2,.07,3.09,0,.14-.21.14-.21.28s.21.07.21.21-.21.14-.21.14v.78a1.11,1.11,0,0,0,.21.91.67.67,0,0,0-.21.7c-.14,0-.14.07-.21.14-.21.49.07,1-.07,1.55,0,0-.21,0-.21.07s-.07.28.07.42.35,0,.35-.14a2.62,2.62,0,0,0,.07-.77c.21,0,.21-.29.35-.43s0-.7.21-1a.43.43,0,0,1,.57-.14v.14c-.14,0-.21.07-.21.14a2,2,0,0,0,.21,1c.07.21,0,.43.14.36.49-.07.28-.57.35-1,0,0,.14,0,.14-.07a19.83,19.83,0,0,0,0-2c0-.07.07-.07.14-.14.21.36-.21,1.34.49,1.06.14-.07,0-.49.14-.56s.21-.29.21-.5c.07,0,.14,0,.14-.07s.07-.28-.07-.42H92.8c0-.21-.07-.35,0-.49s.14,0,.14-.07v-1h.14a6.79,6.79,0,0,1,.07,1.19c.07.35-.21.77.14,1,0,0,.14-.07.14-.14,0-.28.14-.35.14-.56a1.87,1.87,0,0,0,.07-1.12c.15,0,.22-.07.22-.14.07-.42-.14-.85.07-1.27.07-.14.21-.21.21-.42s.07-.14.14-.07,0,.49-.14.77,0,.78-.07,1.2c0,0-.21-.07-.21.07a7.32,7.32,0,0,0,0,1.75c0,.08.14.08.21.08s0,.49.14.35c.42-.43.14-1.06.14-1.69,0-.14.21,0,.21-.14a2.73,2.73,0,0,1,.07-1.12c.21-.29.07-.71.21-.92s0-.77.21-1a.71.71,0,0,0,.21-.07c-.07-.35.07-.63,0-1.06.49.57-.21,1.41.42,1.76.21.21.49-.28.56-.49a1.36,1.36,0,0,1,.92-.7c.28-.14.07-.71.14-1.06h.14c.07-.07.14-.14.14-.21a5.24,5.24,0,0,0-.14-1.47c-.07,0-.21.07-.35,0"/><path class="cls-1" d="M101.72,65.13a4.82,4.82,0,0,1-.21-.56c0-.14-.21-.21-.21-.49s-.14,0-.14-.14,0-.56-.21-.7V63c-.14-.21-.21-.21-.28-.49s-.21-.28-.35-.49v-.21c-.14-.14-.21-.28-.35-.21a.71.71,0,0,0-.63.77c-.36-.14-.5.21-.71.42s.07.43-.07.57a.24.24,0,0,0,.14.07c-.07.21.14.35.21.49a2.17,2.17,0,0,0,.43.7c.21.21,0,.7.07,1.12.07.07.21.07.21.15v.14c.42.21.14.77.28,1.12s.28.07.42.07.56.42.63.14a2.67,2.67,0,0,0,.07-1l-.21-.21c-.21-.21.07-.36.21-.57-.21-.14.07-.14,0-.28.21.21.14.56.14.85.07.14.21.07.21.21s.14.07.14.07a.48.48,0,0,1,.21-.28A1.22,1.22,0,0,0,101.72,65.13Z"/><path class="cls-1" d="M101.86,67.94c-.07,0-.14,0-.14.07,0,.28-.07.63.14.78s.29-.15.29-.5a1.81,1.81,0,0,0-.15-.84C101.93,67.59,102,67.8,101.86,67.94Z"/><path class="cls-1" d="M92.73,71.88c0,.07.14.14.07.21s-.21.07-.21.14c-.07.42.21.91-.07,1.26-.07.07-.07.21-.21.21.14.21-.14.57.21.71.07-.14.21-.14.28-.36v-.42c0-.42-.14-.91.07-1.26.07,0,.14,0,.14-.07s.07-.35,0-.49S92.8,71.74,92.73,71.88Z"/><path class="cls-1" d="M93.86,73.14c-.57-.28-.43.49-.43.77,0,.07.07.07.14.07s.36-.14.29-.42S93.93,73.14,93.86,73.14Z"/><path class="cls-1" d="M67.16,82c0-.14-.21,0-.21-.14v-.21c-.14-.21-.21-.21-.35-.42s-.14,0-.14.07a4.82,4.82,0,0,0,.21.56.63.63,0,0,1,.07.35c.07.07.14.07.21.14s0,.29.07.36l.21.21c.07,0,.14.07.14-.07a.69.69,0,0,0-.21-.71Z"/><path class="cls-1" d="M66.53,75.88c.14-.63-.14-1.33.21-1.9a2.27,2.27,0,0,0,0-1.19c0-.14.21-.21.21-.28a2.38,2.38,0,0,0,.07-.7c-.07-.14-.21-.14-.35-.28-.28.35-.78.21-1.13.21-.07,0-.14-.21-.21-.21-.35,0-.7,0-.91-.29-.07-.07-.14.14-.21.07s-.07-.21-.21-.21c-.35.07-.49-.21-.77-.28,0,0,0-.21-.07-.21h-.57c-.07-.07-.14-.14-.14-.21a2.49,2.49,0,0,1-.63-.28h-.21c-.21-.14-.42-.28-.63-.14a1,1,0,0,0-.78-.56c-.14,0,0-.21-.14-.21h-.21c-.21-.21-.56-.28-.77-.49s-.21-.29-.28-.43-.21.07-.28,0a1.91,1.91,0,0,0-.7-.56c-.07,0-.21-.21-.29-.28a.27.27,0,0,0-.35.21c-.14.21,0,.49-.14.77s-.28.36-.14.64c0,.07-.14.14-.21.21-.14.49.07,1-.07,1.47-.07.14-.21.21-.21.35a1.21,1.21,0,0,1-.21.71,1.2,1.2,0,0,0,0,1c0,.07.14.21.21.28a1.89,1.89,0,0,0,.21,1.05,1.7,1.7,0,0,1,.07.85c0,.07.07.07.14.07.56-.35.14-1.06.35-1.41s.35.35.57.56,0,.5-.14.78a.46.46,0,0,0,.56.56c.14,0,.07-.07.07-.14s-.21-.42,0-.63c-.21-.21-.14-.42-.14-.71,0-.07.14-.14.21-.14s-.14-.28-.21-.42-.14-.56.07-.7.28.07.42.35h.14c.14.84-.21,1.62.14,2.46,0,0,.14,0,.14.07a5.24,5.24,0,0,0,0,1.48c.07.21.35.07.42-.07a.93.93,0,0,0-.21-.71c-.21-.21-.14-1.05.28-.7.21.21,0,.56.07.91.07.14.28.21.35.28.28-.84-.14-1.75.21-2.59.07-.08.07.21.07.21a17,17,0,0,1,0,1.89c.57.21.22.92.29,1.34.14.21.42.14.42-.07s-.14-.56.07-.78c.07,0,.28-.07.35.07s0,.29.14.5,0,.35.07.49.28.14.35.35c.07-.07.14-.07.14-.14s-.07-.42.14-.56.21.28.49.49h.14c0,.07,0,.14.07.14a.26.26,0,0,0,.21-.14c.22.07.29.21.5.28a3.21,3.21,0,0,0,1,.49c.14,0,.21.21.42.14s0-.14.14-.14c.35-.14.49.14.77.35.08-.21.22-.28.29-.49s0-.84.21-1.26-.07-.92.14-1.41C66.39,76,66.53,76,66.53,75.88Z"/><path class="cls-1" d="M79.66,83.26a.46.46,0,0,0-.14.56c.07.28-.14.56.21.63.22-.42.08-.77.08-1.19C79.73,83.26,79.66,83.19,79.66,83.26Z"/><rect class="cls-1" x="72.78" y="88.81" width="1.19" height="5.41"/><path class="cls-1" d="M75.8,94.36h1.34l1-1.55a4.12,4.12,0,0,0,.7-2.11,1.83,1.83,0,1,0-3.65,0c0,1.13.84,1.9,1.82,1.62Zm1.83-3.73c0,.5-.28.85-.64.85s-.63-.35-.63-.85.28-.84.63-.84.64.28.64.84"/><path class="cls-1" d="M82.05,92.74c0,.49-.21.84-.56.84s-.63-.35-.63-.91.28-.84.63-.84S82.05,92.18,82.05,92.74Zm1.06-2.46a1.55,1.55,0,0,0-1.69-1.47,1.51,1.51,0,0,0-1.69,1.47,1.32,1.32,0,0,0,.71,1.2,1.38,1.38,0,0,0-.85,1.33,1.84,1.84,0,0,0,3.66,0,1.49,1.49,0,0,0-.78-1.33,1.47,1.47,0,0,0,.64-1.2m-1.2,0c0,.49-.21.78-.49.78s-.49-.29-.49-.78.21-.77.49-.77.49.28.49.77"/><path class="cls-1" d="M85.21,91a.72.72,0,0,0,.78-.64.72.72,0,0,0-.78-.63,1.75,1.75,0,0,0-1,.28V89a3.41,3.41,0,0,1,1.27-.21c1,0,1.75.56,1.75,1.33a1.49,1.49,0,0,1-.77,1.27,1.4,1.4,0,0,1,1,1.4c0,1-.77,1.62-2,1.62a2.9,2.9,0,0,1-1.34-.35V93a1.61,1.61,0,0,0,1.12.42c.5,0,.85-.28.85-.7a.8.8,0,0,0-.85-.77V91Z"/><path class="cls-1" d="M104.32,103.91h0v.14h-.07V104h0v-.07c0-.07-.14-.07-.21-.21s.07-.07.14-.07h.07c.07,0,.07.07.07.14v.14Zm-.42,2.67v.35h-.07a.26.26,0,0,0-.07-.21h-.07l.21-.21v-.07a.22.22,0,0,1-.14-.07.42.42,0,0,1,.07-.28.22.22,0,0,1-.14-.07v-1.26l.07.07c.07.07.07.14.14.21a.26.26,0,0,1,.07.21v.07h-.14a.26.26,0,0,0-.07-.21l-.07.07v.28h0c.07.21.07.35.14.56a.42.42,0,0,1,.07.28v.07a.13.13,0,0,1,0,.21h0m2.74.63c.07,0,.14,0,.14-.07s-.07-.07-.21-.07,0-.07.07-.21h.14c-.35-.49,0-1-.42-1.54a.42.42,0,0,0,.07-.28c0-.21-.14-.5-.14-.78s.07-.42.07-.63a3.51,3.51,0,0,0-.14-.84c0-.14.07-.21.07-.28s0-.14-.14-.21v-.07c.07-.14.21-.14.21-.29v-.07l-.14.15-.07-.08v-.07a.89.89,0,0,0,.07-.42c0-.35-.14-.77-.14-1.19V98.85c0-.07-.07-.07-.14-.07,0-.21.21-.14.21-.21V98.5c-.14-.56-.14-1-.28-1.61a.71.71,0,0,0-.21-.07c-.14.07-.14.21-.21.42-.07,0-.14,0-.14.07v.07c0,.07.14.07.21.21s-.07.35-.07.49c0,.49.07,1,.07,1.48a1.54,1.54,0,0,1-.07.56.22.22,0,0,1,.14.07h.07c-.07.07-.07.14-.07.28s.07.35.07.56v.14c-.07.14-.07.35-.21.49l-.07.07c-.07,0-.14-.07-.07-.14h0a.07.07,0,0,1-.07.07h0a.54.54,0,0,1,.21.5v.35h0v.07a.47.47,0,0,1-.28-.49v-.15a.63.63,0,0,0-.07-.35h0v-.07h0c0-.07.07-.07.07-.14a.51.51,0,0,1,.14-.42l-.14-.14a.42.42,0,0,0,.07-.28c0-.21-.14-.42-.14-.7a.26.26,0,0,1,.07-.21s-.21-.07-.21-.21a.07.07,0,0,1,.07-.07h.21c.07,0,.07-.07.07-.14s0-.08-.07-.08-.14.08-.21.08a.07.07,0,0,1-.07-.08c0-.14.07-.21.07-.35s-.07-.35-.07-.56-.07-.07-.22-.07c0-.21.22-.21.22-.28a6.22,6.22,0,0,0-.22-1.19c-.07,0-.07,0-.07.14h-.14v-.21a.26.26,0,0,1-.21.07c-.07,0-.14,0-.14.07s-.21.35-.21.49a5.4,5.4,0,0,0-.14,1.05,7.87,7.87,0,0,0,.14,1.34c0,.14.07.28.07.42s0,.07-.07.14h-.14v.07a1,1,0,0,1,.21.49,3.14,3.14,0,0,1-.07.84.07.07,0,0,1,.07.07v.14c.07.07.07.14.07.29v.07l-.07.07c0,.07.07.14.07.28s0,.07-.07.14v.07a.22.22,0,0,1,.14.07v.49h-.07v-.14h0v.14H104v-.56h0v-.07h0v-.78a.25.25,0,0,0-.28-.28,1.19,1.19,0,0,0,.07-.49,1.37,1.37,0,0,1,.07-.49.24.24,0,0,0-.14-.07h-.07c.07-.07.07-.14.07-.28h0V100a.26.26,0,0,1-.07-.21,3,3,0,0,1,.07-.35.26.26,0,0,0-.07-.21,1.09,1.09,0,0,1-.14-.5v-.56c0-.14-.07-.21-.07-.42a.26.26,0,0,0,.07-.21c-.21-.14-.14-.35-.21-.42h0a1.13,1.13,0,0,0-.21.63v1.33c0,.07.14,0,.14.22,0,.07-.07.14-.07.28s.07.35.07.56v.28a4.82,4.82,0,0,0,.14.91c0,.07.07.35.07.42.14,1,.07,1.83.14,2.81,0,.14-.21.14-.21.07s.07-.49.07-.7v-.14c0-.07,0-.07-.14-.07s.07-.35.07-.42,0-.14-.21-.21h-.07l.07-.07c.07-.07.14-.14.14-.21a1.3,1.3,0,0,0-.14-.49l-.07-.07h0v-.07c.07,0,.14,0,.14-.07s-.21-.29-.21-.43v-.07a.42.42,0,0,0,.07-.28c0-.21-.07-.49-.07-.7v-.14c0-.07-.14-.07-.14-.14s.14-.14.21-.14h0c-.28-.84-.07-1.62-.28-2.46-.07-.21-.07-.35-.21-.42s-.14,0-.14.07.14.35.14.49v.28c0,.21.14.42.14.63a.26.26,0,0,1-.07.21.87.87,0,0,0,.21.14c0,.22-.21.22-.14.29.35,2,.28,3.86.63,5.83a.89.89,0,0,1,.07.42c0,.14,0,.35-.07.42s.14.28.14.49-.07.42-.07.63a.42.42,0,0,0,.07.28v.08c0,.14-.14.14-.14.21h0c.14.14.35.14.56.42s.07,0,.21.21a.53.53,0,0,1,.28.07c0,.14.07.21.14.21a2.22,2.22,0,0,1,.64.07c0,.14.07.14.07.14s.14-.07.21-.07.14,0,.14.07a1.68,1.68,0,0,0,.84-.49.42.42,0,0,1,.07-.28c.07,0,.14,0,.14-.07v-.14c.07-.14-.07-.35-.07-.71m-4.92-6.32c.28.28.07.7.07,1s.29.57,0,.78a.44.44,0,0,1,.29.35c0,.84.07,1.61,0,2.53,0,.07.07.07.21.07v1.05c0,.07.07.07.14.07a1.51,1.51,0,0,0-.07.77c.07.08.07.43.28.43s.07-.07.14-.14,0-.21-.07-.21.14,0,.14-.08c.07-.56-.28-1-.14-1.54s-.07-.63,0-1c0-.07-.07-.07-.14-.07.07-.78,0-1.48,0-2.25,0-.07-.21-.07-.21-.21a1,1,0,0,1,.21-.78c0-.14-.35-.14-.07-.42a.24.24,0,0,0-.14-.07c0-.07,0-.07.07-.21s0-.14-.07-.14l-.07.07a.53.53,0,0,0-.07-.28c-.36,0-.36.21-.5.28m-1.54,9.77v-.21c.07,0,.21.07,0,.21m-28.81,3.79c-.14-.07,0-.07.07-.07a.07.07,0,0,1-.07.07m-12.22-3v-.07c.07-.14.07,0,.07.07h-.07M103,109.39c.07-.28,0-.63-.21-.56-1.06.21-1.76,1-2.74,1.48-.14.07-.49,0-.42.35a8.45,8.45,0,0,0-2.53,1.26c0-.07,0-.14-.07-.14s-.07.07-.07.14a.54.54,0,0,0-.21-.14c-.36.42-1,.42-1.34.77,0-.07,0-.21-.07-.21s-.07.07-.07.21l-.07-.07c-.07,0-.07.07-.07.21a.42.42,0,0,0-.28-.07c-.42.07-.7.42-1,.42,0-.07,0-.21-.07-.21s0,.36-.29.43c0-.07,0-.29-.07-.29a1.34,1.34,0,0,1-1,.43,5.31,5.31,0,0,0-1.12.42.58.58,0,0,1-.29-.07c-.07,0-.07.07-.07.21,0-.07,0-.21-.07-.21s-.28.21-.56.07c-.07,0-.07.28-.28.35,0-.07,0-.14-.07-.14-.7.07-1.4.49-2,.28-.07.07-.35.07-.28.28a.71.71,0,0,0,.07.21c-.07,0-.07-.28-.21-.28-.35.28-.7.07-1,.28-.07,0-.42-.21-.42.21a.42.42,0,0,0-.07-.28c-.07.14-.35,0-.35.14a.67.67,0,0,0-.64.28.53.53,0,0,0-.07-.28c-.07.21-.42-.07-.42.28-.28-.35-.63,0-1,.07,0-.07,0-.21-.07-.21s-.07.21-.14.21c-.42-.21-.78.07-1.27-.07-.07,0-.07.14-.07.28v-.14c0-.07-.07-.07-.21-.07s-.07.14-.14.07,0-.28-.07-.28-.07.28-.07.42a1.32,1.32,0,0,0-.63-.28c-.07,0-.07.14-.07.28v-.14c0-.07-.07-.07-.21-.07a1.75,1.75,0,0,0-.49.28v-.14c0-.07-.07-.21-.22-.07s-.35,0-.28.28c-.28-.07-.28,0-.35-.28-.21.07-.35.07-.42.28,0-.07.07-.35-.07-.35a.84.84,0,0,0-.56.28c-.07-.07-.07-.14-.14-.14-.35.07-.7.07-.77-.28a1.36,1.36,0,0,1-.64.28c0-.07,0-.14-.07-.14a.34.34,0,0,0-.42.14c-.07-.14-.28-.28-.42-.14s-.07.07-.07.14c-.28,0-.07-.35-.28-.35s-.07.07-.07.21a.61.61,0,0,1-.42-.21c-.07,0-.07.21-.07.28s0-.21-.07-.21-.07.21-.21.07,0-.21-.07-.21c-.36,0-.64-.28-1,0,0-.07,0-.28-.07-.28s-.07.07-.07.21c-.14-.21-.28.07-.42,0,.07,0,.07-.07.07-.21s-.21.07-.35-.07-.07.07-.07.14c-.21.07,0-.14-.21-.14a1.21,1.21,0,0,1-.7-.07h-.07c-.22-.28-.43,0-.64-.07s-.49-.28-.77-.07c0-.21-.07-.21-.21-.28a.13.13,0,0,0-.21.07c0-.07,0-.21-.07-.21l-.28.28.07-.07c-.28-.07-.28-.21-.35-.35-.07.28-.36.07-.43.28,0-.07.07-.28-.07-.35s-.07.21-.21.07-.28-.14-.35-.28-.07.07-.07.14c-.21-.28-.49,0-.7-.35-.07.07-.21.28-.28.21s.07-.28-.07-.35a.42.42,0,0,1-.28.07c0-.07,0-.14-.07-.14s-.28.07-.35.07a.45.45,0,0,0-.07-.29c-.07.22-.29,0-.36.22,0-.08.07-.29-.07-.29-.35-.07-.63.07-.77-.28-.07,0-.28,0-.35.07s0-.28-.14-.28-.07.07-.07.14c-.21.07-.21-.14-.35-.28s-.21,0-.21.07,0-.21.07-.21c-.14-.21-.28,0-.42.07s.07-.35-.07-.35c-.43,0-.78-.42-1.2-.42-.07,0-.07.14-.07.21-.21-.42-.7-.42-1.12-.63,0-.07,0-.28-.07-.28s-.07.21-.14.07,0-.21-.07-.21-.07.07-.07.21c0-.07,0-.21-.07-.21s-.29,0-.36.21c0-.07.22-.21.07-.35s-.21.07-.28.07-.07-.29-.14-.29-.14.07-.28.07.28,0,.14-.14-.42,0-.49-.28c0,.07-.21.07-.21.07a.36.36,0,0,0-.42-.28c0-.07,0-.21-.07-.21s-.14,0-.14.07c-.28-.14-.49-.42-.85-.35,0-.07,0-.21-.07-.21h-.14c.07,0,.14-.07.07-.21s-.42-.35-.7-.07c.07-.28-.14-.35-.28-.35-.42-.07-.49-.63-.84-.49-.07,0-.07.07-.07.21-.28-.21.07-.21.07-.28-.28-.21-.63-.21-.78-.57-.07,0-.07.07-.07.14-.07-.14-.14-.35-.35-.35s-.21.35-.35.42c.35.07.07.57.42.71.07.07-.35.21-.07.35l.07-.07a.39.39,0,0,0,.35.42,2.58,2.58,0,0,1,.85.63c.28.28.91.28,1.12.7,0-.07.07-.14.21-.07a1.5,1.5,0,0,0,.28.43.45.45,0,0,0,.07-.29,4.7,4.7,0,0,1,.43.57c.07,0,.07-.21.07-.28s.14.35.28.42a.13.13,0,0,0,.21-.07,1,1,0,0,0,.42.35c.07,0,.07-.07.07-.14a.53.53,0,0,1-.07.28c0,.07.07.07.21.07s.07-.07.07-.21c0,.28.35.14.35.28s0,.21.07.21.28,0,.35-.07c.14.28.49.28.78.35l-.07.07c.14.35.49.28.77.42a.31.31,0,0,0,.07-.21c.07.21.14-.07.28,0a.59.59,0,0,0,.14.42.24.24,0,0,0,.07-.14c.14,0,.07.28.28.28s.21,0,.21-.07a.62.62,0,0,0,.77.36.2.2,0,0,0,0,.35c.08,0,.08-.07.08-.14s0,.14.07.14c.28-.07.42.07.63,0,0,.07,0,.28.07.28s.07-.07.07-.21c.35.42,1,.21,1.33.63a.24.24,0,0,0,.07-.14c0,.49.57.14.85.35,0,.07,0,.28.07.28a2.25,2.25,0,0,1,1,.07c.07,0,.28.28.42.21.42,0,.77.56,1.2.28a.38.38,0,0,0,.21.35c.07,0,.07-.07.07-.21s0,.21.14.21.07-.07.07-.21c.07.21.14-.07.28,0s.28.21.28.35.07-.07.07-.14,0,.14.07.14.07-.07.21-.14,0,.28.07.28.07-.21.07-.28,0,.28.07.28a2.49,2.49,0,0,0,.77,0c0,.08,0,.15.07.15s.07-.07.07-.15c.22-.07,0,.15.22.15s0-.29.14-.15-.07.36.07.36a13.44,13.44,0,0,0,1.68,0c0,.07,0,.14.07.14s.07-.28.21-.14.07.35.21.35.43-.07.64-.07c.14.21.49-.07.63.28.14-.21.28-.21.49,0a.31.31,0,0,0,.07-.21c0,.07,0,.21.07.21s.35-.21.49,0a.31.31,0,0,0,.07-.21c0,.07,0,.21.07.21a10.43,10.43,0,0,1,1.48,0s0,.21.07.21.07-.14.07-.21c.28-.07.56-.07.7.14.14-.14.42-.07.63-.14a.24.24,0,0,0,.07.14c.43-.28.92,0,1.34-.14,0,.07,0,.14.07.14s.07-.07.07-.14.21,0,.21.07.07-.21.14-.21a15.49,15.49,0,0,0,2.53.07.93.93,0,0,0,.56-.21c0,.07,0,.21.07.21s.35-.35.49-.28a1,1,0,0,0,1.06-.14c-.07.07-.07.14,0,.28.07-.14.35,0,.35-.14s-.07-.07-.14-.07c.14-.21.35.07.56-.07s0,.21.14.21.07-.21.07-.21c.35-.07.77.07,1.13-.07a.42.42,0,0,1-.07-.28c0,.07,0,.14.07.14s.07-.07.07-.14,0,.14.14.14.07-.07.07-.14,0,.14.07.14c.28-.43.7.07,1-.29v-.14c0,.07,0,.29.07.29s.28.07.35-.08v-.14c.28-.07.56.07.7-.21,0,.14,0,.21.07.21s.07-.21.07-.28c.15-.07,0,.28.15.28s.07-.07.07-.21c.28.14.42-.14.7-.28a.42.42,0,0,1,.28.07c.14-.28.42-.28.77-.28.14,0-.07-.28,0-.28.42-.07,1,.28,1.2-.21a.24.24,0,0,0-.14-.07,1.08,1.08,0,0,0,.77-.21V114c.14-.07,0,.14.14.14s.07-.07.07-.14,0,.14.07.14c.28-.07.35-.35.7-.14.07,0,.07-.21.07-.28.21.07.35-.07.49-.21s0,.28.14.21.07-.49.36-.28c.07-.07.07-.28.21-.35s0,.21.14.21a5.81,5.81,0,0,0,1-.43,9.34,9.34,0,0,0,.84-.42c.28-.21.5-.42.71-.07.07-.42.35-.42.7-.56,0-.07-.07-.07-.21-.07.28-.07.42,0,.7-.07.07,0,.07-.21.07-.28.21-.14.07.28.21.14a2.29,2.29,0,0,0,1-1c.21.28.21-.07.28-.07.28-.29.28-.71.42-1.06.35-.07.28-.07.21-.07M104.74,96c.08,0,.08-.07.08-.21.07.21.21-.07.28,0,.07-.14.35-.07.28-.35a.24.24,0,0,0,.07.14.67.67,0,0,0,.21-.7.77.77,0,0,0-.7-.42c-.07,0-.07.07-.07.14-.22-.28-.36-.35-.5,0a1.14,1.14,0,0,0,.21,1c.14.07,0,.35.14.35m-3.58,1.76a.93.93,0,0,0-.21-.56c-.21-.35-.56-.14-.63.21a.76.76,0,0,0,.28.63.51.51,0,0,0,.56-.28m-45.59.49.07-.07.07.07.07-.07c.28.07-.07.21,0,.28.28.14.42.07.63.35,0-.07.07-.14.21-.07s0,.21.07.21h.14c-.07.29.28.36.42.29s0,.28.07.28c.36,0,.36.07.5.35.07.07.35,0,.56,0,0,0,0,.14-.07.14.28.21.56,0,.7.35h.28c.07.07-.07.35.07.35s.07-.14.07-.28c.35.28.77.42,1.13.7a.31.31,0,0,0,.07-.21c0,.35.42.35.63.35s0,.28.14.28h.35c-.07.07-.07.28,0,.28a2.24,2.24,0,0,1,1,.15c.14.07.14.28.28.35s.07-.07.07-.21,0,.21.15.21.07-.07.07-.21c0,.07,0,.28.07.28s.07-.21.07-.28-.21.35.07.35c.07,0,.28,0,.35-.07.07.42.49.28.77.56a2.38,2.38,0,0,0,.7.07v.07a.89.89,0,0,0,.78.21v.14c.28.21.63,0,.91.07,0,0,0,.28.07.28s.07-.14.14-.07,0,.14.07.14a1.51,1.51,0,0,0,.56,0c0,.07,0,.14.07.14H68c0,.07,0,.14.07.14h.56c0,.07,0,.21.07.21s.08-.07.08-.21,0,.21.14.21.07.07.21.07a.42.42,0,0,0,.07-.28c.21.35.56.28.77.42s.07-.07.07-.21c0,.07,0,.21.07.21s.21,0,.21-.21v.21c.28.29.63.07.84.29.43.07.85.07,1.41.14,0,0,0,.28.07.28s.07-.21.07-.28.07.21.14.21.07-.07.07-.21c0,.07,0,.28.07.28s.07-.21.07-.28c.14.35.49.28.91.28.07,0,.07.14.21.14s.07-.07.07-.14,0,.14.08.14.07-.07.14-.14,0,.28.07.28.07-.07.07-.14,0,.14.07.14h.14c0,.07.07.07.14.14s.28.07.35-.07v-.14c0,.14.07.28.21.28h2.11A.33.33,0,0,1,78,106c.07,0,.07-.07.07-.21.35.07.07.21.28.28s.35-.07.49-.28c-.07.28.28-.07.14.07s-.07.07-.07.21.35.07.42-.07l.21-.21c0,.07,0,.21.07.21s.07-.07.07-.21A.33.33,0,0,1,80,106c.07,0,.07-.07.07-.21s.21,0,.21.07.07-.14.14-.07,0,.21.07.21.07-.07.07-.21c.07.21.21-.07.28,0s.07.35.21.35.14-.14.07-.21l.07.07c.07,0,.07-.07.07-.21a19.77,19.77,0,0,0,2.88,0,.15.15,0,0,0,.14-.14l.07.07c.07,0,.07-.14.07-.28,0,.14.07.35.14.35a.15.15,0,0,0,.14-.14l.07.07c.07,0,.07-.07.07-.14s.07.14.21.14.07-.07.07-.14c0,.14.07.14.21.28.08-.07.15-.14.08-.21a.07.07,0,0,0,.07.07c.07,0,.07-.07.21-.14s0,.14.07.14.07-.07.07-.14a1.49,1.49,0,0,1,.56,0c.07,0,.07-.07.07-.21,0,.07,0,.21.07.21a.82.82,0,0,0,.77-.35c.14.21.56.07.7-.07,0,.07,0,.14.07.14s.15-.28.29-.28a.42.42,0,0,0,.28.07c.28-.21.63-.07.77-.43a.43.43,0,0,0,.07.29c0-.29.28-.07.35-.29.14.08.42,0,.63,0s-.07-.21,0-.28,0,.21.14.21.07-.07.07-.21c0,.07,0,.21.07.21s.07-.07.07-.21c.15-.07.07.28.15.21a2.07,2.07,0,0,1,1.4-.42c.07,0,.07-.28.07-.28.28-.07.63-.07.7-.21.35-.14.64-.07,1-.28-.07,0-.07-.07-.07-.14.07.14.28-.21.35.07.7-.28,1.33-.42,2-.7a6.74,6.74,0,0,1,1.34-.71c0,.08,0,.22.07.22.14-.57.84-.36,1.12-.92.07,0,.07.28.21.21.22-.28.43-.07.5-.28l-.07-.07c.14,0,.28-.07.42,0s.07-.14.07-.28.14.07.14.07.07-.28.07-.28a1.79,1.79,0,0,0,1.05-.63.69.69,0,0,0-.07-1H101a.71.71,0,0,0-.07-.21,18.5,18.5,0,0,1-2.25,1.48c0-.07,0-.14-.07-.14s0,.42-.35.14c-.07,0,0,.28-.21.28a.53.53,0,0,1-.28-.07c-.14,0-.07.35-.28.42,0-.07,0-.35-.07-.28-.7.42-1.48.63-2.18,1.12-.07.07-.07-.28-.28-.21s.07.21,0,.28c-.21-.21-.28.07-.42,0s-.07.22-.07.29,0-.15-.07-.15c-.07.15-.28.15-.35.29,0-.07-.07-.07-.14-.07-.29.07-.36.42-.71.42,0-.07,0-.21-.07-.21s-.07.21-.07.28a.42.42,0,0,0-.28-.07c-.7.49-1.54.28-2.25.91-.21.07,0-.21-.21-.21a.42.42,0,0,0-.07.28c-.28-.35-.49.07-.77,0-.07,0-.07.07-.07.14-.07-.14-.21.07-.28,0s-.07.07-.07.21c-.21,0-.21-.28-.28-.28-.28.07-.42.35-.78.28-.07,0-.07.07-.07.14s-.07-.28-.14-.14c-.42.28-.77.14-1.26.28-.07.07-.28,0-.28.21-.07-.07-.07-.21-.21-.21s-.07.21-.07.28,0-.28-.07-.28a.73.73,0,0,1-.78.21c-.07,0-.07.07-.07.21,0-.07,0-.21-.07-.21s-.07.07-.07.21-.21,0-.21-.07a1,1,0,0,0-.14.22c-.35-.29-.7,0-1,.21v-.21c-.14-.29-.28.07-.42,0s-.07.07-.07.21c-.07-.21-.28.14-.35,0l.07-.07c0-.14-.21-.07-.29-.07s-.07.07-.07.21c-.7-.07-1.47.07-2.17.07,0-.07-.28,0-.28.21s0-.28-.22-.21c-.07,0-.07.21-.21.07s0-.14-.07-.14-.07.07-.07.14-.07-.14-.21-.14-.07.07-.07.14S79.1,105,79,105s-.07.07-.07.14c-.28-.28-.7,0-.84-.35-.07,0-.07.07-.07.21s-.28.07-.35-.07-.07.07-.07.14,0-.28-.07-.28-.07.21-.14.21c-.36,0-.5-.21-.85,0,0-.07,0-.21-.07-.21h-.28c-.07,0-.07.07-.07.21,0-.07,0-.28-.07-.28s-.07.14-.07.28c-.35-.57-1-.21-1.47-.36a3.83,3.83,0,0,0-.85-.07c0-.07,0-.21-.07-.21a2,2,0,0,1-1.4-.28c-.07,0-.07.14-.07.28s-.14-.28-.35-.28a2.41,2.41,0,0,0-.71,0c0-.07,0-.21-.07-.21s-.28.28-.42.21.07-.28-.07-.35-.07.07-.07.14c-.28.21-.35-.28-.63-.14a.07.07,0,0,0-.07.07c0-.07,0-.14-.14-.14l-.07.07c0-.07,0-.28-.07-.28s-.07.21-.07.28,0-.28-.14-.28,0,.28-.21.21c0-.07,0-.28-.07-.28-.64.07-1.06-.28-1.55-.35-.07,0-.07.07-.07.21-.14-.07.14-.35-.07-.35a2.35,2.35,0,0,0-.7,0,.42.42,0,0,0-.07-.28c-.07,0-.14.07-.28.07-.29,0-.5-.28-.78-.35-.07,0-.28-.14-.42,0a1.87,1.87,0,0,0-1.26-.5c-.07,0-.07.07-.07.22a.45.45,0,0,1,.07-.29c-.28-.07-.49-.35-.85-.28.07,0,.07.07.07.21-.21-.35-.42-.49-.77-.42,0-.07,0-.14-.07-.14s-.07.07-.21.14c.07-.35-.35-.28-.35-.49-.07.14-.28.07-.35.07a.85.85,0,0,0-.63-.42c-.36-.28-.92-.42-1.2-.7a.31.31,0,0,0-.07.21c-.14-.28-.42-.21-.63-.07,0-.21.28-.07.21-.28s-.07-.07-.21-.07-.07.21-.14.07a.13.13,0,0,1,.07-.21c-.28-.14-.28,0-.35-.29a.46.46,0,0,0-.07.29.58.58,0,0,0-.07-.29c0,.22-.28,0-.28.22-.29-.22.07-.22.07-.29s-.21-.07-.29,0c-.07-.14-.28-.28-.42-.42s-.21,0-.21.07a.38.38,0,0,0-.21-.35c-.07,0-.14,0-.14.07,0-.14-.21-.21-.28-.28s-.07.07-.07.21c-.07-.07.07-.21,0-.28s-.42-.07-.49-.35c-.07,0-.07.07-.07.14v-.14c0-.07-.07-.07-.21-.07s-.07.07-.21.07c.07,0,.07-.07.07-.21-.21-.28-.49,0-.64.21.22-.14.5.28.85.56m22.34,1.9h.14c.07,0,.07.07.07.14a4.16,4.16,0,0,1-.28.56c-.14-.14-.21-.7.07-.7m-.84.91c0-.21.21-.07.28-.28s.07-.35.07-.56-.21,0-.35-.07-.15,0-.15.07c.07.28-.07.56.15.84m-.78.21c.21.07.21-.35.28-.7,0-.07-.07-.07-.14-.07s.14,0,.14-.14c.07-.35-.21-.35-.42-.35s-.14,0-.14.07c.14.42-.07,1.12.28,1.19m-1.12-1.4c.07.28-.07.63,0,1s.07.77.28.77c.49-.14,0-.84.28-1.26-.21-.07,0-.35-.07-.49a.07.07,0,0,0-.07-.07h-.14c-.07-.07-.28-.14-.28.07m-.35-.14c0-.21-.21-.07-.28-.07s-.14.07-.21.21a1.16,1.16,0,0,1,0,.84,2.7,2.7,0,0,0,.28,1.55,5,5,0,0,0,.21-2.53m-1.2,2.53c0,.07.07.21.14.07a3,3,0,0,0,.28-.71c0-.21-.14-.35,0-.7a.24.24,0,0,0-.14-.07v-.21c.07,0,.14,0,.14-.07-.07-.35.07-.84-.28-.91-.07,0-.28-.14-.28.07.07.77-.21,1.82.14,2.53m-.77.49a3.94,3.94,0,0,0,.28-2.25.07.07,0,0,0-.07.07c0-.49.21-1-.14-1.33s-.35.07-.35.42c.07.84,0,1.68.07,2.67l.21.42m-1.19-1.06c0,.07-.07.07-.07.21s.07.5.21.57c.42,0,.42-.71.42-1.13,0-.14-.07-.14-.14-.14-.07-.21.21,0,.14-.21s-.07-.07-.14-.21c.14-.21,0-.49.14-.7a.24.24,0,0,0-.14-.07c.07-.28.14-.84-.21-.77,0-.22-.07-.22-.14-.29s-.07.29-.21.36.07.14.14.14-.14.07-.14.21.14.21.14.35a11.45,11.45,0,0,1-.14,1.54c-.08.35.21-.07.14.14m-.71.43c.49-.78.07-2,.14-3.1,0-.07-.14-.07-.21-.07h-.21a14.48,14.48,0,0,0-.07,2.46c0,.49.21,1.06.35.71m-1.26-1.9c.07.49,0,.84.07,1.33.07.28.14-.14.21,0s0,.07-.07.21,0,.22.07.22c.42.21.21-.43.35-.71,0,0-.07-.14-.14-.14a13.62,13.62,0,0,0,.07-2.39.24.24,0,0,0-.14-.07c-.07,0-.14-.07-.21-.07a.44.44,0,0,0,0,.57c-.07.07-.14.07-.14.21s.14.21.07.42a.75.75,0,0,0-.14.42m-.91-.84a.75.75,0,0,1,.14.42,4.24,4.24,0,0,0,0,1.33.75.75,0,0,0,.14.49c0-.21.21,0,.21-.21a6.75,6.75,0,0,0,0-1.68c.07,0,.14-.14.14-.14-.21-.5.07-1-.21-1.34h-.14c-.5,0-.21.77-.14,1.06-.07-.07-.14-.07-.14.07m-.57,1.82c.07,0,.28.14.28-.07V99.42c0-.07-.07-.07-.14-.07.07-.22.21-.43,0-.57a.4.4,0,0,0,.14-.42.26.26,0,0,0-.21-.07c0-.21-.14-.21-.21-.28s-.07.28-.07.28a12.84,12.84,0,0,0,0,2.32c0,.14,0,.49.21.63M67.3,101c.07,0,.21-.21.21-.28.07-.91,0-1.83,0-2.81a.32.32,0,0,0-.28-.35l-.07.07-.07-.07a8,8,0,0,0,0,2.88,1.12,1.12,0,0,0,.21.56m-1.12-.49v.21c0,.07.07.21.14.07s.14-.21.21-.28a6.85,6.85,0,0,0,0-2.39,2.85,2.85,0,0,0-.14-.49c-.07-.14-.21-.07-.28-.28A14.52,14.52,0,0,0,66,100.4c.07.07.07.07.14.07m-.64-3.16-.07.07-.07-.07c-.14.07-.07.28-.14.42-.42.56-.14,1.62,0,2.32.07.07.07.21.21.49A2,2,0,0,0,65.54,99c.21-.21.07-.49.21-.63-.28-.35,0-.77-.21-1m-1.12.28c-.07,0-.21.21-.21.28a11.45,11.45,0,0,1,0,1.55c0,.14.07.14.14.14s-.07.07-.07.21.21.07.28.07c.21-.28-.07-.56.14-.78-.21-.42.21-1.19-.28-1.47M64,98.78a9.44,9.44,0,0,0-.21-1.26c-.07.21-.35,0-.35.28a2.64,2.64,0,0,0,.14,1.48.24.24,0,0,0-.14.07c.21.28.42.21.49-.22a.31.31,0,0,1-.07-.21c.07,0,.14,0,.14-.14M62.52,99c0,.07.14.07.21.07a1.3,1.3,0,0,0,0-1.33.31.31,0,0,0-.07.21c0-.07,0-.28-.07-.28s-.07.21-.07.28-.07.07-.14.21.21.21.14.28,0,.35,0,.56m-1.05-1.33c-.07.07-.14.28-.21.35-.07.42.21.49.42.56s.14-.28.21-.35c.07-.35-.28-.28-.42-.56m-4.43-1s.07-.14.14-.07,0,.14-.07.14c.35.21.64.21.78.56.07.07.07.07.14,0a.26.26,0,0,0,.42,0,.07.07,0,0,0,.07.07c.56,0,1,.14,1.47-.28,0,.07,0,.14.07.14.36,0,.64-.14,1,0a.24.24,0,0,0,.07-.14h.35c.07,0,.07-.07.07-.14l.07.07c.07,0,.07-.07.07-.14a1.67,1.67,0,0,1,.63.14c.07,0,.07-.07.07-.14s0,.14.07.14c.35-.14,3-.21,3.3-.35-.07-.14-.28,0-.42-.07s-.07-.36-.28-.36c-.42,0-.35-.42-.77-.35-.07,0-.42-.07-.42-.07a19,19,0,0,1-2.81.21c-.14,0-.35.07-.56.07,0-.07,0-.14-.07-.14s-.08.14-.08.28c-.07-.14-.35,0-.56-.14s-.07.14-.07.28c-.14-.21-.28-.28-.49-.21s-.28,0-.42,0-.07.07-.07.21c0-.07,0-.21-.07-.21-.28.07-.42-.07-.7,0-.07,0-.07.07-.07.21-.14-.35-.57-.21-1-.07-.14-.14,0,.29.14.36m-2.46,7c.21-.14.21-.42.21-.63v-.35a.57.57,0,0,1,.22-.56V102a.7.7,0,0,1-.14-.22.39.39,0,0,0,.14-.35v-.63h0c.07-.35,0-.7.28-.84h0l-.14-.14h0v-.07c.07,0,.14,0,.14-.07v-.28h.07v1.68c-.07.14-.07.28-.21.35a.42.42,0,0,1,.07.28c0,.14-.14.14-.14.21V102c0,.07.14.07.21.21v.07c-.14.07-.14.35-.14.42a6,6,0,0,1-.43,2.25l-.07.07v-.14a1.08,1.08,0,0,1-.07-.5.86.86,0,0,1,.21-.63c-.07.07-.14,0-.21-.14M54.44,106h0c0,.07.14.14.28.14s.22-.07.36-.21.14.07.14.21-.07.21-.07.28v.07a.24.24,0,0,0,.14.07l.21-.21a5.31,5.31,0,0,1,.21-1.12c0-.07.07-.14.07-.28s-.07-.36-.07-.5A.61.61,0,0,1,56,104h0a.48.48,0,0,1-.21-.28.84.84,0,0,0,.14-.56c0-.42.14-.84.14-1.27v-.35h0l-.14.14v-.07c0-.07,0-.07.07-.14h0v.07h0v.07h0v-.21a.42.42,0,0,1,.07-.28.38.38,0,0,1,.21.28c0,.21-.14.35-.21.56h0a.24.24,0,0,1,.14-.07c.07,0,.07.07.07.15a12.17,12.17,0,0,0-.35,2.74,1,1,0,0,0-.14.28c0,.56-.14,1-.14,1.54a3,3,0,0,0,.14.77c.07.14.28.14.35.36v.07l.14-.14v.07c0,.07.07.07.07.14s0,.14.07.14.07-.07.21-.07.14.42.21.42h.49l.07.07c0,.07-.07.14-.07.07.14.14.5,0,.57.21.07,0,.07-.07.07-.14H58c0,.07,0,.14-.07.14a1.24,1.24,0,0,1,.56.35l.07.07a.07.07,0,0,1,.07-.07.24.24,0,0,1,.14.07h.07c0,.07,0,.21.07.21s.07-.07.07-.14v-.07l.07.07c.07.14.07.21.14.21h0v-.21h.07v.14c0,.07.21.07.35.14s0,.14.07.14c.28,0,.21.21.35.28v-.14c0-.07.07-.07.14-.14h.07a.34.34,0,0,0,.15.28l.14-.07c.14.14.14.35.21.35h.14c.21,0,.28.15.35.15h.14c0,.21.28,0,.28.21.07,0,.28,0,.35-.07s.07.28.21.28a.31.31,0,0,1,.21-.07.26.26,0,0,1,.07.21c0,.07,0,.07.07.07s.07,0,.07-.14h0v-.07c.21.07.28.28.42.35s.07-.07.22-.07.42.35.49.35.07,0,.07-.14h.07c0,.14,0,.14.07.14h.28c.07.21.21.21.35.21h.42c0,.07,0,.21.07.21h.35c.21,0,.5.07.57.28.07-.07.07-.07.14-.07a.42.42,0,0,1,.28.07c0,.07,0,.14.07.14h0a.26.26,0,0,1,.21-.14.07.07,0,0,1,.07.07c0,.07,0,.21.07.21s.07-.07.07-.14H67c.07,0,.07.07.07.14s0,.07.07.07.07-.07.07-.14h.07c0,.07,0,.21.07.21h.56c0,.07,0,.14.07.14s.07-.07.14-.14h0c.14.42.56.14.78.49h.21c.07,0,.07,0,.14-.07l.07-.14v.14c0,.07,0,.22.07.22s.07-.08.07-.22h.07c.07,0,.07.07.07.14s0,.08.07.08.07-.08.07-.22h.07c.07,0,.07.07.07.14s0,.08.07.08S70,113,70,113h.07c0,.07,0,.15.07.15s.07-.08.14-.15l.07-.07V113c0,.07,0,.15.07.15a.29.29,0,0,0,.07-.15h.07v.22c.28.14.56,0,.92.28h0c0-.07,0-.07.07-.14h.07c0,.07,0,.14.07.14s0-.07.14-.14a.07.07,0,0,1,.07.07c0,.07,0,.14.07.14s.07,0,.07-.14h.07v.14h.21c.14,0,.28.07.49.07h.21v.21c0,.07,0,.07.14.07s.07-.07.07-.14h.07c0,.07,0,.14.07.14s.07-.07.07-.14h.07v.14a3,3,0,0,0,.35-.07.67.67,0,0,1,.5.21l.14-.14.07-.07v.07c0,.07,0,.14.07.14s.07-.07.07-.14c.28,0,.21.14.35.28V114a.07.07,0,0,1,.07-.07h.07c0,.14.07.28.14.28a.89.89,0,0,1,.42-.07c.28,0,.49.07.7.07h.78c.14,0,.28.07.42.07a.26.26,0,0,0,.21-.07c.14,0,.28.21.35.21h.07c.07.07,0-.21.21-.21h.07a.42.42,0,0,0,.28.07h.35v.21a.15.15,0,0,1,.21-.07.22.22,0,0,1,.07.14h0a.41.41,0,0,1,.43-.28s0,.14-.07.14h0a.22.22,0,0,0,.14.07c.14,0,.21-.07.28-.28h.28v.07a.07.07,0,0,0-.07.07.26.26,0,0,0,.21.07c.07,0,.07,0,.07-.07v-.21h.7c.21,0,.21.21.35.14h.07c.07,0,.07-.14.28-.21h.5a.42.42,0,0,1,.28.07.87.87,0,0,0,.14-.21,2,2,0,0,0,.63.14c.28,0,.56-.07.84-.07h.28c.07,0,.07,0,.07-.07v-.21H85V114a.71.71,0,0,0,.07-.21h.07v.14c0,.07.07.07.14.07s.07-.07.07-.14h.08c0,.07,0,.14.07.14a.72.72,0,0,0,.07-.28h.07c.07,0,.07.07.07.14s0,.14.07.14.07-.07.07-.14h.07c0,.07.07.07.14.07s.07-.07.07-.14h.07v.14c.07,0,.07-.07.07-.14h.07c.07,0,.07.28.07.21h0a.61.61,0,0,1,.42-.21.26.26,0,0,1,.21.07.24.24,0,0,0,.07-.14h.07c0,.07,0,.14.07.14a4.16,4.16,0,0,1,1.62-.28c.07,0,.07-.07.14-.14l.07-.07v.21c.14-.28.49-.21.42-.42V113l.07.07a.27.27,0,0,0,.28.15c.21,0,.42-.07.56-.07h.14a.35.35,0,0,1-.07-.22.07.07,0,0,1,.07-.07c.14,0,.14.21.14.21s.07-.07.07-.14h.07c0,.07,0,.14.07.14s.08-.07.08-.21.14,0,.14.07c.14-.21.42-.14.49-.35h.07v.14c0-.07.07-.07.14-.07a.24.24,0,0,1,.14.07h0c.07-.07.07-.07.07-.21h.07c.07,0,.07.14.14.21.14-.14.21-.35.49-.35,0,.07,0,.14.07.14a1.89,1.89,0,0,0,.77-.35.52.52,0,0,0,.43-.28.24.24,0,0,1,.14-.07c.07,0,.07,0,.14.07a.58.58,0,0,1,.42-.28h.14c.42,0,.84-.28,1.33-.28h.21c.07,0,0,0,.07-.07v-.14a.07.07,0,0,1,.08-.07c.07,0,.28.07.35.07.28-.28.7-.28.91-.63a.07.07,0,0,1,.07-.07.25.25,0,0,1,.14.21h0c.07-.07.21-.14.28-.21v-.15h.07v.29a.71.71,0,0,0,.07-.21h.07c0,.07.07.07.14.07s.14-.29.42-.29h.14a.65.65,0,0,0,.08-.21h.07a.24.24,0,0,0,.07.14c.42-.28.84-.21,1.19-.7h.07a.15.15,0,0,1,.07.21h0c.07-.07.07-.28.28-.28s.07,0,.07.07a1.94,1.94,0,0,0,.21-.91v-.63c-.07,0-.07-.07-.07-.14a.24.24,0,0,1,.07-.14c0-.08-.07-.08-.14-.08h-.07c.07-.14.21-.28.21-.42s0-.14-.07-.14H101v-.07c0-.14.21-.14.28-.21h.07c0,.07.07.21.07.28s-.07.42-.07.56.14.07.21.22.07.42.07.7v.07a.47.47,0,0,0,.28.35.72.72,0,0,0,.07-.28c.22,0,.5,0,.5-.21v-.14h.07v.14a1,1,0,0,0,.14-.42c0-.36-.14-.71-.14-1-.07-1-.14-2.18-.28-3.3,0-.14-.07-.28-.07-.42h-.14a.42.42,0,0,1,.07-.28h.14a.38.38,0,0,1-.21-.35v-.21A.48.48,0,0,0,102,102a.51.51,0,0,0,.15-.29v-.28c0-.07-.07-.07-.15-.07v-.07c.08,0,.15,0,.15-.07s0-.14-.07-.14h-.22a.24.24,0,0,1-.07-.14c0-.07.07-.14.14-.07a.07.07,0,0,0-.07-.07h-.07a.76.76,0,0,0-.21.49v.28c.07,0,.07.07.07.14v.14a4.42,4.42,0,0,0,.28.92.71.71,0,0,1-.07.21l.07.07v1.12a2,2,0,0,0,.07.64,3.66,3.66,0,0,1,.15,1,.63.63,0,0,1-.07.35h0a.48.48,0,0,1-.22-.42,1,1,0,0,1,.14-.42.31.31,0,0,0-.21-.07h-.07c.07-.07.14-.07.14-.14s-.07-.07-.14-.07a.45.45,0,0,1,.14-.36c0-.07,0-.07-.07-.07h-.14a.07.07,0,0,1-.07-.07c0-.14.21-.14.14-.14a3.08,3.08,0,0,1-.14-.7c0-.42-.07-.91-.07-1.33a1.62,1.62,0,0,1,.07-.57v-.21h-.21l.14-.07a.07.07,0,0,0,.07-.07h0v-.14c0-.07-.14-.21-.21-.28h-.07a.26.26,0,0,0-.21.14v.28c0,.49.14,1,.14,1.55a2.38,2.38,0,0,1-.07.7h-.07v-.35a6.55,6.55,0,0,0-.35-2c0-.14-.07-.14-.21-.14a3,3,0,0,0-.35.07c-.28.28-.56.35-.77.56a1.45,1.45,0,0,1-.57.22c-.07,0-.14,0-.14-.07h0c-.07.28-.35.28-.49.42h0l-.07-.07c-.07,0-.14.07-.21.07s-.07,0-.07-.07-.07.07-.07.21-.21,0-.21-.07a4,4,0,0,1-2,.77.71.71,0,0,0-.07.21h-.07c0-.07,0-.07-.07-.07s-.07,0-.14-.07c-.07.14-.28.14-.42.14s-.07.07-.07.14v.07l-.07-.07h0c-.07,0-.14.07-.21.07s-.07,0-.07-.07-.07.07-.07.21h-.07c-.07,0-.07-.07-.07-.14v-.07h0c-.07.07-.07.35-.28.35h-.14a2.74,2.74,0,0,0-1,.35.42.42,0,0,1-.28-.07.24.24,0,0,0-.07.14.07.07,0,0,1-.07.07c-.07,0-.14-.14-.14-.14h0c-.07.07-.07.07-.07.14H92.1v-.14c-.21.28-.49.21-.77.35a.24.24,0,0,1-.07-.14h0c-.21.29-.57.22-.71.43-.14,0-.21-.21-.35-.14s-.07.07-.07.14h-.21c-.07,0-.14,0-.14-.07a.47.47,0,0,1-.35.28H88.8a.63.63,0,0,1-.35-.07h-.07v.14a.22.22,0,0,1-.07.14c-.78.28-1.62,0-2.46.28-.07.07-.14.07-.28.14H85.5c0-.14,0-.14-.07-.14s-.08,0-.08.14h-.07c0-.14,0-.14-.07-.14s-.28.07-.42.07a.26.26,0,0,1-.21-.07c-.07,0-.07.21-.21.28a.54.54,0,0,0-.21-.07c-.07,0-.14.07-.28.14l-.07.07v-.35c-.21.28-.56.07-.7.28v.07h0v.07C83,106.09,83,106,83,106a3,3,0,0,0-.78.07h-.07c-.14,0-.28-.21-.35-.21a4.53,4.53,0,0,1-.91.28c-.14,0-.21-.28-.28-.28a.72.72,0,0,0-.07.28.54.54,0,0,1-.21-.07c0-.07,0-.07-.07-.14h0a.24.24,0,0,1-.14.07C80,106,80,106,80,106s-.07,0-.07.14a.14.14,0,0,1-.15-.14c0-.07,0-.07-.07-.07a.71.71,0,0,0-.07.21h-.14c0-.07,0-.14-.07-.14s-.21.07-.28.07h0a.07.07,0,0,0-.07.07V106H79a.24.24,0,0,0,.07-.14v-.07a1,1,0,0,1-.49.07h-.14l.07-.07h0c-.07-.07-.07-.07-.14-.07s-.28.21-.42.21-.07,0-.14-.07v-.14a1.78,1.78,0,0,1-.49.14h-.5c-.21,0-.28-.14-.42-.14s-.07,0-.07.14-.07,0-.21-.07,0-.07-.07-.14H76c-.07,0-.07.14-.14.14s-.07,0-.07-.07a.24.24,0,0,1-.07-.14.24.24,0,0,0-.14.07,3,3,0,0,1-.35-.07c-.07,0-.07,0-.14.07l-.07.14V106a.26.26,0,0,1-.21.07c-.14,0-.28-.07-.42-.07h-.15c0-.14,0-.14-.07-.14s-.07,0-.07.14h0V106H74c-.07,0-.21.07-.28.07s-.07,0-.14-.07,0-.21-.07-.21-.14.14-.21.14a1.13,1.13,0,0,0-.63-.21h-.49a.24.24,0,0,0,.07-.14v-.07a1.19,1.19,0,0,1-.49.07c-.29-.07-.5-.28-.78-.28l-.07.07h-.63v-.07c0-.07,0-.14.07-.14a.07.07,0,0,0-.07-.07,1,1,0,0,1-.49.07c0-.07,0-.14-.07-.14a.53.53,0,0,1-.28.07c-.14,0-.21-.07-.28-.21s-.07,0-.07.14v.07l-.07-.07c-.21-.28-.71-.14-.92-.43a.8.8,0,0,0-.07.22h.07v-.15c0-.07-.07-.07-.14-.07h-.28c-.07,0-.07,0-.07.15h-.07v-.15a.07.07,0,0,0-.07-.07c-.07.07-.07.14-.14.14a.07.07,0,0,1-.07-.07c0-.07,0-.21-.07-.21h-.14a2.36,2.36,0,0,1-.84-.28c-.21-.14-.57-.07-.85-.35a.07.07,0,0,1-.07.07V104h-.07v-.14c-.07-.07-.21-.07-.35-.14s0-.14-.07-.14c-.28,0-.28,0-.49-.21,0,.07,0,.21-.07.21a.07.07,0,0,1-.07-.07v-.14c0-.07,0-.07-.07-.07h-.28v-.21c0-.07-.07-.07-.14-.07s-.07,0-.07.14v.14l-.07-.14c-.21-.42-.71-.14-1-.63h-.07c-.07,0-.14.07-.21.07a.22.22,0,0,1-.14.07v-.07h.14a7.13,7.13,0,0,0-1.68-.71h-.14v-.14c0-.07,0-.14-.07-.14a.57.57,0,0,1-.36.07c0-.07,0-.21-.07-.21s-.07,0-.07.14h-.07a.53.53,0,0,0-.49-.35h-.21c0-.14-.07-.14-.14-.21h0c-.07,0-.21.14-.28.14v-.07c.07,0,.07-.07.07-.14a.24.24,0,0,0-.07-.14h-.07c-.14,0-.21-.07-.28-.07h0c0,.07-.07.07-.14,0s.07-.07.14-.07v-.07a2.88,2.88,0,0,0-.56-.21h-.21v-.14c0-.07-.08-.07-.15-.07s-.07.14-.14.14-.07,0-.07-.07-.35-.49-.63-.49h-.14v-.14l-.14.07v-.07h0a5.36,5.36,0,0,0-.42,2.1h0v.36h-.14a.26.26,0,0,1,.07.21c0,.14-.07.21-.07.35v.14h0v.07c-.07,0-.21,0-.21-.14a.63.63,0,0,0,.07-.35v-.14c0-.21,0-.36.21-.5h0a.51.51,0,0,1,0-.7l-.14-.14h0a.92.92,0,0,0,.21-.7V100a1.54,1.54,0,0,1,.07-.56v-.07a.24.24,0,0,1-.14.07.07.07,0,0,1-.07-.07v-.07a.14.14,0,0,1,.14-.15h0c-.14-.14-.42-.07-.56-.21h-.07c-.42,1.13-.28,2.32-.64,3.45,0,.07,0,.07.14.07h0a2.16,2.16,0,0,0-.21.91V104c0,.14-.21.14-.14.21l.14.28v.14a1.62,1.62,0,0,0-.21.5V106c-.14-.07-.07-.07.07,0h0"/><path class="cls-2" d="M61.54,105.25v.07l.07.07h.07a.07.07,0,0,0,.07-.07l.63-1v-.14l-.07-.07h-.14a.07.07,0,0,0-.07.07H62a9.07,9.07,0,0,0-2-1.19,2.75,2.75,0,0,0-1-.21,1,1,0,0,0-1.12,1v.14c0,1.62,3,2.25,2.95,2.67h0c0,.21-.07.21-.28.28a1.89,1.89,0,0,1-.71-.21,2.68,2.68,0,0,1-1.47-1.19v-.28l-.07-.07h-.07a.07.07,0,0,0-.07.07l-.71,1.33v.14l.15.14h.07a.07.07,0,0,0,.07-.07h0a6.22,6.22,0,0,0,2,1.2,3.22,3.22,0,0,0,1.27.28h0a1.11,1.11,0,0,0,1.19-1.06v-.21c0-1.89-3-2.32-3-2.88h0c0-.07,0-.14.21-.14a2.16,2.16,0,0,1,.56.14,3.71,3.71,0,0,1,1.48,1h0Z"/><path class="cls-2" d="M66.39,107.78v.07l.07.07.07.07a.07.07,0,0,0,.07-.07l.84-1.2v-.14l-.07-.07h-.14s-.21-.14-.49-.35a4.67,4.67,0,0,0-1.34-.63,4.1,4.1,0,0,0-.91-.14,1.86,1.86,0,0,0-2,1.75v.35a3.21,3.21,0,0,0,2.25,2.89,3.45,3.45,0,0,0,1.34.21,3.87,3.87,0,0,0,.63-.07h.07v.07a.07.07,0,0,0,.07.07H67l.07-.07.07-.14-.56-1.62a.07.07,0,0,0-.07-.07h-.07l-.07.07-.07.14V109h-.43c-.28,0-.63-.07-.77-.07a1.5,1.5,0,0,1-1.19-1.4v-.15a.73.73,0,0,1,.84-.7c.21,0,.35.07.56.07a2.43,2.43,0,0,1,1.13.7h0C66.46,107.64,66.39,107.71,66.39,107.78Z"/><path class="cls-2" d="M73.27,109.32h0l.07-1.68-.07-.07H73.2l-.14.07c0,.07,0,.14-.07.14h0l-3.72-.71s0,.07-.07-.21l-.07-.07H69v.07l-.07,1.62.07.07h.07c.07,0,.07,0,.14-.07s0-.14.07-.14l1.19.21-.07,3.3h-.21V112l.07.07,1.55.28h.07a.07.07,0,0,1,.07-.07v-.07l-.07-.07c-.21-.07-.14-.07-.14-.14l.14-3.23,1.19.21.07.21.07.07h.07C73.2,109.32,73.2,109.32,73.27,109.32Z"/><path class="cls-2" d="M76.64,110.59a1.09,1.09,0,0,1-1,1.12h-.14a1.16,1.16,0,0,1-1-1.19v-.14a1.1,1.1,0,0,1,1.12-1.13h.07a1.16,1.16,0,0,1,1,1.2Zm-.91-2.6h-.28a2.25,2.25,0,0,0-2.32,2.32v.28A2.31,2.31,0,0,0,75.38,113h.28A2.29,2.29,0,0,0,78,110.73h0v-.28A2.32,2.32,0,0,0,75.73,108"/><path class="cls-2" d="M82.12,107.85h-.07l-.07.07a.26.26,0,0,1-.07.21h0l-3.65.07h0v-.14l-.07-.07h-.14v1.68a.07.07,0,0,0,.07.07h.07a.07.07,0,0,0,.07-.07v-.14h1.19l.07,3.3-.14.07-.07.07v.22h.07l1.55-.07c.07,0,.07-.08.07-.08V113l-.07-.07c-.14-.07-.14,0-.14-.07l-.07-3.3h1.19a.22.22,0,0,0,.07.14l.07.07h.14v-1.68Z"/><path class="cls-2" d="M86.83,107.42h-.14l-.07.07c0,.22,0,.22-.07.22h0l-3.65.42h0V108l-.07-.07h-.14v1.68a.07.07,0,0,0,.07.07h.07l.07-.07.07-.07c0-.14.07-.14.07-.14l1.19-.14.07,3.3c0,.07,0,.07-.14.07l-.07.07v.21h.07l1.55-.14.07-.07v-.21h-.21v-3.3l1.19-.14a.22.22,0,0,0,.07.14l.07.07H87v-1.68c-.14-.15-.14-.15-.21-.15"/><path class="cls-2" d="M90.55,109.25a1.52,1.52,0,0,1-1.19,1.48h-.21a.87.87,0,0,1-.91-1,1.51,1.51,0,0,1,1.19-1.47h.21a.87.87,0,0,1,.91,1Zm1.27-.21a1.87,1.87,0,0,0-1.9-2.11,1.54,1.54,0,0,0-.56.07,2.91,2.91,0,0,0-2.46,3,1.88,1.88,0,0,0,2,2.11,1.19,1.19,0,0,0,.49-.07A2.85,2.85,0,0,0,91.82,109h0"/><path class="cls-2" d="M95.05,107.14c0,.21-.07.43-.49.57l-1.13.35-.07-.78,1.2-.35a.35.35,0,0,1,.21-.07.26.26,0,0,1,.28.28Zm1.55,2.6h-.15a.22.22,0,0,1-.14-.07l-.91-1.12a1.86,1.86,0,0,0,.91-1.62v-.14c0-.77-.35-1.19-1-1.19a3.61,3.61,0,0,0-.77.14l-2.74.84-.07.07v.07a.07.07,0,0,0,.07.07h.14l.28,4.08c0,.07,0,.07-.14.14l-.07.07v.14a.07.07,0,0,0,.07.07h.07l1.54-.49.08-.14v-.14l-.15-.07H93.5L93.43,109l.64-.21A10.71,10.71,0,0,1,95,110h0a.07.07,0,0,1-.07.07v.43a.07.07,0,0,0,.07.07h.07l1.55-.5.07-.07v-.14l-.07-.07"/><path class="cls-2" d="M98.7,108.76h-.21l-.28-4h0c0-.08,0-.08.14-.15l.07-.07v-.07c0-.07,0-.07-.07-.07h-.07l-1.54.57-.07.07v.14a.07.07,0,0,0,.07.07h.14l.28,4.07c0,.07,0,0-.14.14l-.07.07v.14a.07.07,0,0,0,.07.07h.07l1.54-.56.07-.07V109C98.77,108.83,98.77,108.76,98.7,108.76Z"/><path class="cls-3" d="M61.75,105.18l.49-.71H62a10.07,10.07,0,0,0-2-1.19,2.42,2.42,0,0,0-.91-.21.89.89,0,0,0-1,.84v.14c0,1.41,2.81,2,2.95,2.67h0c0,.28-.21.42-.49.42a1.86,1.86,0,0,1-.78-.21c-.77-.35-1.54-1-1.61-1.33l-.49.91h.14a8.45,8.45,0,0,0,2,1.2,3.18,3.18,0,0,0,1.2.28c.7,0,.91-.42,1-.92v-.21c0-1.68-2.81-2-3-2.88v-.07c0-.21.21-.28.42-.28a3.55,3.55,0,0,1,.63.14C60.91,104.26,61.68,104.83,61.75,105.18Z"/><path class="cls-3" d="M67.23,106.72h0a3.12,3.12,0,0,1-.56-.35,5.13,5.13,0,0,0-1.27-.63,3.51,3.51,0,0,0-.84-.14,1.64,1.64,0,0,0-1.76,1.54v.35a3.12,3.12,0,0,0,2.11,2.74,4.4,4.4,0,0,0,1.27.22c.28,0,.49-.07.63-.07h.07l-.42-1.2c-.07.14-.35.14-.57.14a2.29,2.29,0,0,1-.84-.14,1.81,1.81,0,0,1-1.33-1.54v-.22a1,1,0,0,1,1-.91,2,2,0,0,1,.63.14c.64.21,1.13.56,1.2.84Z"/><path class="cls-3" d="M73,108l-3.72-.71c-.07,0-.07,0-.14-.07l-.07,1a.07.07,0,0,0,.07-.07h.07l1.26.21.07.07-.14,3.37c0,.07,0,.14-.07.14l1.05.21a.22.22,0,0,1-.07-.14l.14-3.37a.07.07,0,0,1,.08-.07h.07l1.26.28c.07,0,.07,0,.14.07v-1c.14,0,.07.07,0,.07Z"/><path class="cls-3" d="M76.85,110.59a1.31,1.31,0,0,1-1.26,1.33h-.14a1.33,1.33,0,0,1-1.19-1.4v-.14A1.33,1.33,0,0,1,75.59,109h.07a1.33,1.33,0,0,1,1.19,1.41Zm-1.12-2.39h-.21a2.12,2.12,0,0,0-2.18,2.11v.28a2.09,2.09,0,0,0,2,2.24h.21a2.14,2.14,0,0,0,2.18-2.17h0v-.21a2.14,2.14,0,0,0-2-2.25"/><path class="cls-3" d="M81.91,108.34l-3.65.07c-.07,0-.07,0-.14-.07v1a.24.24,0,0,1,.14-.07h1.26a.07.07,0,0,1,.07.07l.07,3.44c0,.07,0,.14-.07.14h1.06a.22.22,0,0,1-.07-.14l-.07-3.44v-.07h1.33c.07,0,.07,0,.14.07v-1C82,108.27,82,108.34,81.91,108.34Z"/><path class="cls-3" d="M86.62,107.85l-3.72.42h-.14v1a.24.24,0,0,1,.14-.07l1.26-.14h.07v.07l.07,3.37c0,.07,0,.14-.07.14l1-.14a.26.26,0,0,1-.07-.21V108.9l.07-.07,1.27-.14h.14v-1C86.69,107.85,86.62,107.85,86.62,107.85Z"/><path class="cls-3" d="M90.76,109.25a1.61,1.61,0,0,1-1.33,1.62h-.28c-.63,0-1.06-.42-1.06-1.2a1.56,1.56,0,0,1,1.34-1.61h.21a1.12,1.12,0,0,1,1.12,1.19Zm-.84-2.11a1.19,1.19,0,0,0-.49.07A2.76,2.76,0,0,0,87.11,110a1.67,1.67,0,0,0,1.76,1.9,1.37,1.37,0,0,0,.49-.07A2.74,2.74,0,0,0,91.68,109h0a1.7,1.7,0,0,0-1.76-1.9"/><path class="cls-3" d="M94.63,107.92l-1.27.35h-.07l-.07-.07-.07-1,.07-.07,1.27-.35a.53.53,0,0,1,.28-.07c.28,0,.42.21.42.49h0C95.26,107.42,95.12,107.78,94.63,107.92Zm1.61,1.89-1-1.19v-.07a.07.07,0,0,1,.07-.07,1.74,1.74,0,0,0,.91-1.55v-.14c-.07-.7-.28-1-.84-1a3.08,3.08,0,0,0-.7.14l-2.53.77a.22.22,0,0,1,.07.14l.28,4.08c0,.07,0,.07-.07.14l1-.35c-.07-.07-.07-.07-.07-.14h0l-.07-1.48.07-.07.71-.21.14.07a9.87,9.87,0,0,1,1,1.26h0c0,.07,0,.07-.07.15l1.12-.36a.24.24,0,0,0-.07-.14"/><path class="cls-3" d="M98.35,108.76l-.28-4v-.22l-1,.36a.22.22,0,0,1,.07.14l.28,4.07v.14l1-.35A.22.22,0,0,1,98.35,108.76Z"/></g></g></svg>