<svg xmlns="http://www.w3.org/2000/svg" xmlns:xlink="http://www.w3.org/1999/xlink" viewBox="0 0 100 123.43"><defs><style>.cls-1{fill:none;}.cls-2{fill:#fff;}.cls-3{clip-path:url(#clip-path);}.cls-4{fill:#00aae7;}.cls-5{fill:#1ea639;}.cls-6{fill:#231815;}</style><clipPath id="clip-path"><ellipse class="cls-1" cx="49.77" cy="61.72" rx="45.27" ry="57.23"/></clipPath></defs><g id="Layer_2" data-name="Layer 2"><g id="レイヤー_1" data-name="レイヤー 1"><g id="Logo"><path class="cls-2" d="M1.86,61.71c0,33,21.59,59.86,48.14,59.86S98.14,94.72,98.14,61.71,76.55,1.86,50,1.86,1.86,28.71,1.86,61.71Z"/><path class="cls-2" d="M0,61.71c0,34,22.43,61.72,50,61.72s50-27.69,50-61.72S77.58,0,50,0,0,27.69,0,61.71Zm3.73,0c0-32,20.76-58,46.27-58s46.28,26,46.28,58-20.76,58-46.28,58S3.73,93.69,3.73,61.71Z"/><g class="cls-3"><rect class="cls-4" x="4.64" y="0.55" width="12.9" height="122.34"/><rect class="cls-4" x="30.43" y="0.55" width="12.9" height="122.34"/><rect class="cls-5" x="17.54" y="0.55" width="12.89" height="122.34"/><rect class="cls-4" x="56.21" y="0.55" width="12.9" height="122.34"/><rect class="cls-5" x="43.33" y="0.55" width="12.9" height="122.34"/><rect class="cls-4" x="82" y="0.55" width="12.9" height="122.34"/><rect class="cls-5" x="69.11" y="0.55" width="12.89" height="122.34"/></g><path class="cls-6" d="M.88,61.72c0,33.42,21.94,60.6,48.89,60.6s48.89-27.18,48.89-60.6S76.73,1.12,49.77,1.12.88,28.31.88,61.72Zm1.5,0c0-32.59,21.26-59.1,47.39-59.1s47.39,26.51,47.39,59.1S75.9,120.83,49.77,120.83,2.38,94.31,2.38,61.72Z"/><path class="cls-6" d="M95,61.72C95,93.33,74.77,119,49.77,119S4.5,93.34,4.5,61.72,24.77,4.49,49.77,4.49,95,30.12,95,61.72Zm-45.27-48c-20,0-36.13,21.5-36.13,48s16.18,48,36.13,48,36.13-21.51,36.13-48S69.72,13.69,49.77,13.69Z"/><path class="cls-5" d="M60.16,58.67Z"/><path class="cls-6" d="M43.42,11.6l.29,1L39.8,13.75l-.24-.82c.71-1.86,1.11-3,1.23-3.43a1.9,1.9,0,0,0,.07-.94.48.48,0,0,0-.2-.31.47.47,0,0,0-.61.18.94.94,0,0,0,.06.54l.16.53L38.68,10l-.06-.2A2.9,2.9,0,0,1,38.46,9a1.22,1.22,0,0,1,.14-.64,1.58,1.58,0,0,1,.51-.59A3,3,0,0,1,40,7.35a2.73,2.73,0,0,1,1.73-.06,1.38,1.38,0,0,1,.86.9,2.27,2.27,0,0,1,0,1.13,21.86,21.86,0,0,1-1.11,2.84Z"/><path class="cls-6" d="M39.77,6.64a3.48,3.48,0,0,0-1.13.53,2.22,2.22,0,0,0-.74.88,2,2,0,0,0-.22,1l.2.94.28.93,1.48-.44c-.18.51-.44,1.18-.8,2.17l-.09.23.52,1.8,5.37-1.61-.72-2.43L42.79,11a12.63,12.63,0,0,0,.53-1.49,3.36,3.36,0,0,0,.08-.75A2.57,2.57,0,0,0,43.3,8,2.1,2.1,0,0,0,42,6.61,3.28,3.28,0,0,0,39.77,6.64ZM41.34,8l.1,0a.58.58,0,0,1,.4.4,1.08,1.08,0,0,1,0,.32,1.6,1.6,0,0,1-.05.42,20.44,20.44,0,0,1-1.06,2.72,1.64,1.64,0,0,1-.07.15c.45-1.21.72-2,.82-2.34a4,4,0,0,0,.13-.87,1.21,1.21,0,0,0-.07-.48ZM39.21,9v0a.65.65,0,0,1,.07-.23h0a1.87,1.87,0,0,0,.05.3l-.11,0Z"/><path class="cls-6" d="M48.55,8l.22,2a3.62,3.62,0,0,1,0,1,1.27,1.27,0,0,1-.31.61,1.71,1.71,0,0,1-.65.46,3.12,3.12,0,0,1-.91.21,4.09,4.09,0,0,1-1.11,0,1.56,1.56,0,0,1-.74-.3,1.67,1.67,0,0,1-.43-.51,2.76,2.76,0,0,1-.21-.9l-.22-2a3.09,3.09,0,0,1,0-1.23,1.27,1.27,0,0,1,.62-.73,3,3,0,0,1,1.25-.38,3.3,3.3,0,0,1,1.1,0A2,2,0,0,1,48,6.5a1.37,1.37,0,0,1,.38.52A4.19,4.19,0,0,1,48.55,8Zm-1.88-.29a2.32,2.32,0,0,0-.12-.58A.29.29,0,0,0,46.26,7c-.14,0-.23.07-.26.15a1.48,1.48,0,0,0,0,.59l.31,2.87a1.72,1.72,0,0,0,.13.61c0,.07.14.1.29.08s.23-.07.26-.15a1.34,1.34,0,0,0,0-.56Z"/><path class="cls-6" d="M46,5.36a3.59,3.59,0,0,0-1.56.49,2.12,2.12,0,0,0-1,1.15,4.11,4.11,0,0,0-.07,1.54l.22,2.07A3.13,3.13,0,0,0,44,11.77a2.11,2.11,0,0,0,.63.75,2.25,2.25,0,0,0,1.09.46A4.8,4.8,0,0,0,47,13a4.1,4.1,0,0,0,1.11-.27,2.53,2.53,0,0,0,.93-.67,2,2,0,0,0,.49-1,4.7,4.7,0,0,0,0-1.2l-.2-2a4.63,4.63,0,0,0-.25-1.18,2.08,2.08,0,0,0-.6-.82,2.59,2.59,0,0,0-1.07-.49A4.12,4.12,0,0,0,46,5.36Zm-.1,6.12a.79.79,0,0,1-.38-.15.75.75,0,0,1-.23-.25,2.09,2.09,0,0,1-.13-.64L45,8.38a2.56,2.56,0,0,1,0-.93.7.7,0,0,1,.3-.29,2.17,2.17,0,0,1,.93-.27,2.38,2.38,0,0,1,.85,0,1,1,0,0,1,.45.18.49.49,0,0,1,.16.2,3,3,0,0,1,.15.78h0l.21,2a3.22,3.22,0,0,1,0,.76.49.49,0,0,1-.14.25.84.84,0,0,1-.37.25,2.18,2.18,0,0,1-.69.17A4.63,4.63,0,0,1,45.93,11.48Z"/><path class="cls-6" d="M46.18,6.26a1,1,0,0,0-.89.63,2,2,0,0,0-.06,1l.32,2.88a1.91,1.91,0,0,0,.28,1,1,1,0,0,0,1,.38,1,1,0,0,0,.89-.63,2.13,2.13,0,0,0,.06-.93l-.32-2.92h0a2.29,2.29,0,0,0-.23-.9A1,1,0,0,0,46.18,6.26Z"/><path class="cls-6" d="M54.55,8.32l-.16,2a4.2,4.2,0,0,1-.17,1,1.3,1.3,0,0,1-.43.55,1.75,1.75,0,0,1-.73.33,3.08,3.08,0,0,1-.92,0A4.13,4.13,0,0,1,51.05,12a1.67,1.67,0,0,1-.68-.44,1.53,1.53,0,0,1-.32-.58A2.58,2.58,0,0,1,50,10L50.19,8a2.93,2.93,0,0,1,.28-1.2,1.33,1.33,0,0,1,.75-.6A3.12,3.12,0,0,1,52.52,6a3.29,3.29,0,0,1,1.08.26,1.85,1.85,0,0,1,.68.48,1.21,1.21,0,0,1,.28.58A6.52,6.52,0,0,1,54.55,8.32Zm-1.8-.64a2.06,2.06,0,0,0,0-.6.29.29,0,0,0-.27-.14.3.3,0,0,0-.29.1,1.5,1.5,0,0,0-.11.58l-.24,2.88a1.63,1.63,0,0,0,0,.63.41.41,0,0,0,.56,0,1.55,1.55,0,0,0,.11-.55Z"/><path class="cls-6" d="M50.94,5.45a2.07,2.07,0,0,0-1.16,1,3.94,3.94,0,0,0-.37,1.5L49.24,10a3.31,3.31,0,0,0,.07,1.2,2.39,2.39,0,0,0,.48.86,2.33,2.33,0,0,0,1,.66,5,5,0,0,0,1.3.26l1.13,0a2.41,2.41,0,0,0,1-.48,2.07,2.07,0,0,0,.67-.87,4.13,4.13,0,0,0,.22-1.19l.16-2a4.53,4.53,0,0,0,0-1.19,2,2,0,0,0-.44-.92,2.58,2.58,0,0,0-1-.69,4.26,4.26,0,0,0-1.32-.32A4,4,0,0,0,50.94,5.45Zm.36,5.8A.7.7,0,0,1,51,11a1,1,0,0,1-.18-.3,2.44,2.44,0,0,1,0-.64L50.94,8a3,3,0,0,1,.18-.91.62.62,0,0,1,.35-.23,2.23,2.23,0,0,1,1-.1,2.89,2.89,0,0,1,.83.2,1.12,1.12,0,0,1,.41.26.64.64,0,0,1,.12.23,1.33,1.33,0,0,1,0,.29c0,.12,0,.28,0,.5l-.16,2a3.18,3.18,0,0,1-.12.76.52.52,0,0,1-.19.22.87.87,0,0,1-.4.18l-.71,0A4,4,0,0,1,51.3,11.25Z"/><path class="cls-6" d="M51.54,6.63a1.76,1.76,0,0,0-.24.94l-.24,2.88a1.85,1.85,0,0,0,.1,1A1,1,0,0,0,52,12a1,1,0,0,0,1-.45,1.82,1.82,0,0,0,.23-.9l.24-2.93a1.94,1.94,0,0,0-.06-.93,1,1,0,0,0-.9-.62A1,1,0,0,0,51.54,6.63Z"/><path class="cls-6" d="M60.57,7.75l-.25.91L58.09,8l-.27,1A1.54,1.54,0,0,1,59,8.92a1.67,1.67,0,0,1,1,.64,1.7,1.7,0,0,1,0,1.38l-.23.82a3.61,3.61,0,0,1-.33.87,1.15,1.15,0,0,1-.46.44,1.55,1.55,0,0,1-.76.19,3.81,3.81,0,0,1-1.08-.16A3.77,3.77,0,0,1,56,12.57a1.4,1.4,0,0,1-.59-.78,2.55,2.55,0,0,1,.1-1.24l.09-.32,1.78.5-.09.35a4.82,4.82,0,0,0-.17.8c0,.17.08.28.28.33a.39.39,0,0,0,.24,0,.2.2,0,0,0,.12-.12c0-.05.09-.27.21-.67l.31-1.13a.78.78,0,0,0,0-.46.31.31,0,0,0-.24-.2.45.45,0,0,0-.23,0,.36.36,0,0,0-.15.1,3.32,3.32,0,0,0-.11.32l-1.76-.49.88-2.88Z"/><path class="cls-6" d="M56,6.46s-.86,2.79-.87,2.85h0s-.09.34-.15.55a1.87,1.87,0,0,0-.07.23h0l-.08.27a4,4,0,0,0-.18,1.09,2.21,2.21,0,0,0,.07.54,2.16,2.16,0,0,0,.88,1.2A5,5,0,0,0,58.3,14a2.39,2.39,0,0,0,1.13-.29,2.13,2.13,0,0,0,.74-.72l.39-1,.23-.82a3.71,3.71,0,0,0,.15-1,2.21,2.21,0,0,0-.08-.59c0-.05.65-2.34.65-2.34l-5.3-1.48Zm1.24,1.16.16,0C57.39,7.74,57,9,57,9.09L56.81,9Zm-1.05,4a.32.32,0,0,1,0-.15,1.48,1.48,0,0,1,0-.26l.31.08c0,.27-.12.56-.12.56v0C56.32,11.76,56.21,11.68,56.19,11.6Zm2.55,0,.31-1.15a1.85,1.85,0,0,0,.09-.54,1,1,0,0,0,0-.17.65.65,0,0,1,.28.2.38.38,0,0,1,0,.18,2.46,2.46,0,0,1-.09.58l-.23.81-.25.7a.41.41,0,0,1-.18.16,1.37,1.37,0,0,1-.27.06l.12-.13S58.74,11.64,58.74,11.64Z"/><path class="cls-2" d="M43.42,11.6l.29,1L39.8,13.75l-.24-.82c.71-1.86,1.11-3,1.23-3.43a1.9,1.9,0,0,0,.07-.94.48.48,0,0,0-.2-.31.47.47,0,0,0-.61.18.94.94,0,0,0,.06.54l.16.53L38.68,10l-.06-.2A2.9,2.9,0,0,1,38.46,9a1.22,1.22,0,0,1,.14-.64,1.58,1.58,0,0,1,.51-.59A3,3,0,0,1,40,7.35a2.73,2.73,0,0,1,1.73-.06,1.38,1.38,0,0,1,.86.9,2.27,2.27,0,0,1,0,1.13,21.86,21.86,0,0,1-1.11,2.84Z"/><path class="cls-2" d="M48.55,8l.22,2a3.62,3.62,0,0,1,0,1,1.27,1.27,0,0,1-.31.61,1.71,1.71,0,0,1-.65.46,3.12,3.12,0,0,1-.91.21,4.09,4.09,0,0,1-1.11,0,1.56,1.56,0,0,1-.74-.3,1.67,1.67,0,0,1-.43-.51,2.76,2.76,0,0,1-.21-.9l-.22-2a3.09,3.09,0,0,1,0-1.23,1.27,1.27,0,0,1,.62-.73,3,3,0,0,1,1.25-.38,3.3,3.3,0,0,1,1.1,0A2,2,0,0,1,48,6.5a1.37,1.37,0,0,1,.38.52A4.19,4.19,0,0,1,48.55,8Zm-1.88-.29a2.32,2.32,0,0,0-.12-.58A.29.29,0,0,0,46.26,7c-.14,0-.23.07-.26.15a1.48,1.48,0,0,0,0,.59l.31,2.87a1.72,1.72,0,0,0,.13.61c0,.07.14.1.29.08s.23-.07.26-.15a1.34,1.34,0,0,0,0-.56Z"/><path class="cls-2" d="M54.55,8.32l-.16,2a4.2,4.2,0,0,1-.17,1,1.3,1.3,0,0,1-.43.55,1.75,1.75,0,0,1-.73.33,3.08,3.08,0,0,1-.92,0A4.13,4.13,0,0,1,51.05,12a1.67,1.67,0,0,1-.68-.44,1.53,1.53,0,0,1-.32-.58A2.58,2.58,0,0,1,50,10L50.19,8a2.93,2.93,0,0,1,.28-1.2,1.33,1.33,0,0,1,.75-.6A3.12,3.12,0,0,1,52.52,6a3.29,3.29,0,0,1,1.08.26,1.85,1.85,0,0,1,.68.48,1.21,1.21,0,0,1,.28.58A6.52,6.52,0,0,1,54.55,8.32Zm-1.8-.64a2.06,2.06,0,0,0,0-.6.29.29,0,0,0-.27-.14.3.3,0,0,0-.29.1,1.5,1.5,0,0,0-.11.58l-.24,2.88a1.63,1.63,0,0,0,0,.63.41.41,0,0,0,.56,0,1.55,1.55,0,0,0,.11-.55Z"/><path class="cls-2" d="M60.57,7.75l-.25.91L58.09,8l-.27,1A1.54,1.54,0,0,1,59,8.92a1.67,1.67,0,0,1,1,.64,1.7,1.7,0,0,1,0,1.38l-.23.82a3.61,3.61,0,0,1-.33.87,1.15,1.15,0,0,1-.46.44,1.55,1.55,0,0,1-.76.19,3.81,3.81,0,0,1-1.08-.16A3.77,3.77,0,0,1,56,12.57a1.4,1.4,0,0,1-.59-.78,2.55,2.55,0,0,1,.1-1.24l.09-.32,1.78.5-.09.35a4.82,4.82,0,0,0-.17.8c0,.17.08.28.28.33a.39.39,0,0,0,.24,0,.2.2,0,0,0,.12-.12c0-.05.09-.27.21-.67l.31-1.13a.78.78,0,0,0,0-.46.31.31,0,0,0-.24-.2.45.45,0,0,0-.23,0,.36.36,0,0,0-.15.1,3.32,3.32,0,0,0-.11.32l-1.76-.49.88-2.88Z"/><path class="cls-2" d="M85.16,23.09l-.71-1-1.17.4c-.18.06-18.34,6.14-33.52,6.14S17,22.71,16.24,22.47l-1.18-.4-.7,1C6.93,33.8,2.84,47.52,2.84,61.72l.1,4.93,2.13-.74c16.43-5.54,38.82-7.35,44.69-7.35S78,60.37,94.46,65.91l2.12.73.1-4.91C96.68,47.52,92.59,33.8,85.16,23.09Z"/><path class="cls-6" d="M83.81,24c-.22.08-18.47,6.24-34.06,6.24S15.93,24.1,15.7,24C8.72,34.1,4.48,47.28,4.48,61.72c0,.89,0,1.76,0,2.63,16-5.4,38.25-7.44,45.22-7.44S79,59,95,64.35c0-.87,0-1.74,0-2.63C95,47.28,90.79,34.1,83.81,24Z"/><path class="cls-5" d="M64.25,71.53Z"/><path class="cls-2" d="M46.49,57.77c2.35,1.16,7.12,1.77,8.77.8,2.21-1.3,4.86-2.57,8.39-1.15a7.64,7.64,0,0,1,4.42,5.33c5.55,1,8.87,2.86,9.8,5.37a.72.72,0,0,1,.07.25,11.68,11.68,0,0,1-.69,6.52A5.4,5.4,0,0,1,79.14,82l-.2.43c-1.43,2.91-2.66,5.43,0,10.43a1.35,1.35,0,0,1,0,1.32,1.4,1.4,0,0,1-.47.5,1.49,1.49,0,0,1-1.92-.35c-4.43-5.42-3.19-9.67-2-11.75,0,0,.12-.2.15-.28.71-1.25,1.28-2.53,1-3.44a1.82,1.82,0,0,0-.48-.73,13,13,0,0,1-5.69,3.61,9.37,9.37,0,0,1-.66,1.57,5.87,5.87,0,0,1-2.45,2.44,6.27,6.27,0,0,1-4,.52,10.28,10.28,0,0,1-1,2.51,12.4,12.4,0,0,1-2.33,3l-1.6,1.44a11.69,11.69,0,0,0-3.12,3.63c-.19.35-.39.73-.6,1.18l-1.15,2.56a49.22,49.22,0,0,1-2.2,4.65c-1.32,2.37-3,4.38-5.34,5.13l-.38.1a11.61,11.61,0,0,1-7.5,3.38c-6.15.26-10.62-3-11.86-6.36a5.68,5.68,0,0,1,.19-4.7,4.39,4.39,0,0,1,.74-1c.76-.69,2.5-1.68,5.6-.4a18.44,18.44,0,0,0,8.12.92l.17-.13a13.82,13.82,0,0,0,3.88-4.16,8.24,8.24,0,0,0,.64-6.59l-1.34-4.24,0-.08c-1.13-3.37-2.1-6.27-1.87-8.56a8.16,8.16,0,0,1,1-3.23,6.09,6.09,0,0,1,1.65-1.93,5.35,5.35,0,0,1,2.41-1,15.93,15.93,0,0,1,.62-1.73A9.51,9.51,0,0,1,43.29,69a1.48,1.48,0,0,1-.55-1,1.44,1.44,0,0,1,.16-.8,1.08,1.08,0,0,1,.18-.24c3.74-4.09,8.08-5.12,12.56-3.07a20.2,20.2,0,0,1,7.93-1.65A2.62,2.62,0,0,0,62.19,61c-1.26-.62-2.52-.24-4.73.78-3.24,1.49-7.55.94-12.17-1.54h0l-.06,0a1.39,1.39,0,1,1,1.27-2.47Z"/><path class="cls-6" d="M62.79,59.79c-1.93-.95-3.78-.28-6,.75-2.79,1.29-6.64.8-10.91-1.52,2.62,1.29,7.95,2.06,10.16.76s4.31-2.19,7.1-1.07a6.32,6.32,0,0,1,3.66,5.21h0c4,.66,8.72,2,9.7,4.62a10.19,10.19,0,0,1-1.07,6.83c2.67,1.38,3.59,3.5,2.38,6-1.52,3.13-3.31,6.21-.14,12.12-3.39-4.14-3.32-7.64-1.84-10.24,1.35-2.36,2.59-5.13-.93-7a11.49,11.49,0,0,1-6.57,4.41c-.79,3-2.77,5.32-7.12,3.9,1.52-.86,2.92-2.15,2.65-3.4a28.33,28.33,0,0,0-3.63.45,4.43,4.43,0,0,1,1,2.64c.12,2.52-1.61,5.09-3.13,6.53l-1.57,1.41a13.34,13.34,0,0,0-4,5.22L51.31,100c-1.62,3.77-3.46,8-6.72,9.05a4.21,4.21,0,0,1-.61.16,10.39,10.39,0,0,1-6.89,3.26c-5.62.23-9.4-2.72-10.39-5.38s.23-6.14,4.67-4.33a19.91,19.91,0,0,0,9.24,1c.15-.13.3-.26.47-.39,4.7-3.53,6.34-7.52,5-12.2-.43-1.51-.92-3-1.39-4.39-1.08-3.21-2-6-1.8-8A6,6,0,0,1,45,74.59a4,4,0,0,1,2.63-.79,12.32,12.32,0,0,1,1.74-4.24,8.31,8.31,0,0,1-5.2-1.68c2.93-3.21,6.76-5,11.48-2.5,3.91-1.62,6.65-2,9.82-1.65,0-.15,0-.31-.09-.48A4.18,4.18,0,0,0,62.79,59.79Z"/><path class="cls-2" d="M59.78,87.25a6.31,6.31,0,0,0,.7-3,3.79,3.79,0,0,0-1-2.48,15,15,0,0,0-1.93.58A8,8,0,0,1,59,88.6,10.05,10.05,0,0,0,59.78,87.25Z"/><path class="cls-2" d="M49.27,102.74l.09-.21a8.8,8.8,0,0,0-.09-2,14,14,0,0,1-.74,2,8.35,8.35,0,0,1,.08,1.46C48.84,103.6,49.06,103.18,49.27,102.74Z"/><path class="cls-2" d="M47.72,105.47a9,9,0,0,0,.17-1.66A24,24,0,0,1,45,108.09,7.42,7.42,0,0,0,47.72,105.47Z"/><path class="cls-2" d="M49.61,99.23a6.14,6.14,0,0,1,.44,1.81c.2-.45.39-.9.58-1.34l.19-.42a9,9,0,0,0-.64-3.13C50,97.2,49.83,98.23,49.61,99.23Z"/><path class="cls-2" d="M51.42,97.93l.36-.79A11.71,11.71,0,0,0,51,91.39c-.22,1.14-.4,2.33-.58,3.52A9.11,9.11,0,0,1,51.42,97.93Z"/><path class="cls-2" d="M48.41,96.21a8.46,8.46,0,0,0-2,2.1l-.13.27A5.87,5.87,0,0,1,48,98,13.94,13.94,0,0,0,48.41,96.21Z"/><path class="cls-2" d="M47.76,98.78a6.23,6.23,0,0,0-2.24,1.09,13.48,13.48,0,0,1-.93,1.25,7.2,7.2,0,0,1,2.2-.34A10.31,10.31,0,0,0,47.76,98.78Z"/><path class="cls-2" d="M43.38,102.39c-.4.37-.83.76-1.3,1.12a8.23,8.23,0,0,0,4.14-2A7.84,7.84,0,0,0,43.38,102.39Z"/><path class="cls-2" d="M47.48,74.51a3.17,3.17,0,0,0-2,.65,5.31,5.31,0,0,0-1.84,3.72,5.73,5.73,0,0,1,3.6-2.39A18.15,18.15,0,0,1,47.48,74.51Z"/><path class="cls-2" d="M47.15,77.22a5.67,5.67,0,0,0-3.52,3,16.27,16.27,0,0,0,.46,2.29,8.48,8.48,0,0,1,3-3Q47.09,78.39,47.15,77.22Z"/><path class="cls-2" d="M47.15,80.36a8.22,8.22,0,0,0-2.78,3.15c.19.63.4,1.28.62,2A7.12,7.12,0,0,1,47.42,83C47.3,82.16,47.2,81.27,47.15,80.36Z"/><path class="cls-2" d="M47.84,85.2c-.11-.45-.2-.93-.29-1.42a6.7,6.7,0,0,0-2.24,2.63,1.07,1.07,0,0,0,.07.19c.2.62.4,1.23.61,1.86a6.19,6.19,0,0,1,2.09-2.18C48,85.91,47.93,85.56,47.84,85.2Z"/><path class="cls-2" d="M48.21,87.05a5.21,5.21,0,0,0-1.9,2.43c.16.51.32,1,.46,1.54,0,.15.08.29.11.43a5.7,5.7,0,0,1,1.68-1.85A25.17,25.17,0,0,0,48.21,87.05Z"/><path class="cls-2" d="M48.64,90.47a4.53,4.53,0,0,0-1.5,2.24c0,.36.08.72.1,1.08a5.06,5.06,0,0,1,1.47-1.41C48.71,91.75,48.68,91.12,48.64,90.47Z"/><path class="cls-2" d="M47.21,95.19a11.16,11.16,0,0,1-.2,1.27,8.45,8.45,0,0,1,1.54-1.19c.08-.65.13-1.31.15-2A6.27,6.27,0,0,0,47.21,95.19Z"/><path class="cls-2" d="M52.28,87a15.78,15.78,0,0,0-1.08,3.26,12.17,12.17,0,0,1,1.37,5.35c.18-.31.35-.59.52-.85.66-2.61,0-5.54-.78-7.83Z"/><path class="cls-2" d="M52.77,86.12A18.12,18.12,0,0,1,54,93.54c.34-.39.69-.74,1-1.07a10,10,0,0,0-.67-8.31A8.64,8.64,0,0,0,52.77,86.12Z"/><path class="cls-2" d="M56.15,91.52l1.41-1.26a.35.35,0,0,1,.11-.1,7.19,7.19,0,0,0-.82-7.54A9.87,9.87,0,0,0,55,83.72,11.35,11.35,0,0,1,56.15,91.52Z"/><path class="cls-2" d="M12.74,69l.36,2.29a9,9,0,0,1,.14,1.66,1.73,1.73,0,0,1-.32,1,1.58,1.58,0,0,1-1.05.52.93.93,0,0,1-.76-.14,2.14,2.14,0,0,1-.46-.9,2.11,2.11,0,0,1-.23,1.14,1.11,1.11,0,0,1-.81.41L9.07,75a1.5,1.5,0,0,1-.91-.07,1.11,1.11,0,0,1-.49-.58,9.65,9.65,0,0,1-.39-1.82l-.41-2.66ZM9.88,71.75,8.23,72a1.7,1.7,0,0,0,.19.6c.08.08.23.1.47.07l.55-.09c.26,0,.4-.1.45-.19A1.7,1.7,0,0,0,9.88,71.75Zm2.22-.34-1.3.2a2.07,2.07,0,0,0,0,.23c0,.23.09.36.18.41s.29.06.64,0a.81.81,0,0,0,.38-.14.39.39,0,0,0,.11-.22C12.15,71.81,12.13,71.65,12.1,71.41Z"/><path class="cls-2" d="M13.27,77.6,8.52,78.71,8,76.49l4.75-1.11Zm1-.25-.74.18-.52-2.22.75-.17Z"/><path class="cls-2" d="M15.69,85.37l-4.91.69L10,83.77l2.1-1.18a11.33,11.33,0,0,1-1.32.16l-1.08.1L9,80.58l4.33-2.43.6,1.8-2.51,1.36c.19,0,1.12-.17,2.82-.4l.58,1.73L12.27,84a18.51,18.51,0,0,1,2.83-.4Z"/><path class="cls-2" d="M15.06,88.39l-.88-1.89.3-.13a1.45,1.45,0,0,1,.87-.19,1.65,1.65,0,0,1,.83.48A4.43,4.43,0,0,1,17,88a4.28,4.28,0,0,1,.47,1.65,1.15,1.15,0,0,1-.3.9,6.81,6.81,0,0,1-1.39.79l-2.22,1-.92-2,.4-.18a1.29,1.29,0,0,1-.58-.32,2,2,0,0,1-.44-.64,2.65,2.65,0,0,1-.25-1.06q0-.54.66-.84l.37-.17a.9.9,0,0,1,.78-.08,4.49,4.49,0,0,1,1,1,4.15,4.15,0,0,0,.85.91.84.84,0,0,0,.4-.11.92.92,0,0,0,.41-.29.29.29,0,0,0,0-.3Q16.13,88,16,88a1.28,1.28,0,0,0-.47.16Zm-.3.92a1.41,1.41,0,0,0-.67-.38,1.15,1.15,0,0,0-.49.14.93.93,0,0,0-.41.27.35.35,0,0,0,0,.31c.06.13.13.21.19.22a1.11,1.11,0,0,0,.44-.14Z"/><path class="cls-2" d="M20.91,95.13l-2.12.23-1.92,2.51-1.09-1.82,1.47-1.69-1.83,1.09-1.15-1.89,5.09-3.07,1.15,1.9-2.12,1.29L20,93.54Z"/><path class="cls-2" d="M23,100.76l-.95.73a4.11,4.11,0,0,1-.82.51,1.34,1.34,0,0,1-.72,0,2.07,2.07,0,0,1-.82-.42,5.16,5.16,0,0,1-.82-.85,7.91,7.91,0,0,1-.68-1,2,2,0,0,1-.23-.84,1.25,1.25,0,0,1,.17-.64,2.77,2.77,0,0,1,.67-.67l1-.75a2.13,2.13,0,0,1,1-.48,1.47,1.47,0,0,1,1,.26,3.75,3.75,0,0,1,1.08,1,4.49,4.49,0,0,1,.67,1.11,2.19,2.19,0,0,1,.2.89,1.19,1.19,0,0,1-.15.61A1.7,1.7,0,0,1,23,100.76Zm-1.07-2a1.7,1.7,0,0,0,.34-.34.3.3,0,0,0-.09-.27A.33.33,0,0,0,22,98a1.09,1.09,0,0,0-.41.24L19.83,99.6c-.18.14-.29.25-.31.33a.3.3,0,0,0,.07.27c.09.11.17.16.24.16a.79.79,0,0,0,.37-.2Z"/><path class="cls-2" d="M16.75,26.9c5.07,1.58,19.84,5.78,33,5.78s27.94-4.2,33-5.78a64.49,64.49,0,0,1,9.82,34.16C77.22,56.49,57.2,54.5,49.76,54.5s-27.45,2-42.82,6.56A64.3,64.3,0,0,1,16.75,26.9Z"/><path class="cls-6" d="M41.38,36.05V52.61l-6.88.54,0-12.26L31.74,53.15l-4.85.5L24,41.14l0,12.73-6.88,1.61V32.18l10.12,2.46c.27,1.11.58,2.74.94,4.22l1.13,4.62L31.14,35Z"/><path class="cls-6" d="M56.56,35.18v17.5H49V35.18Z"/><path class="cls-6" d="M73.63,48.21a6.12,6.12,0,0,1-.23,2.17c-.15.3-.49.44-1,.41s-.84-.16-1-.42a5.86,5.86,0,0,1-.22-2.08v-9a3,3,0,0,1,.33-1.8,1.35,1.35,0,0,1,.92-.35c.49,0,.81.07,1,.32a3.81,3.81,0,0,1,.24,1.72v9Zm8.47-6.12a26.46,26.46,0,0,0-.26-4.5,3.77,3.77,0,0,0-1.58-2.26A7.82,7.82,0,0,0,76.88,34a17.39,17.39,0,0,0-4.49-.13,16.77,16.77,0,0,0-4.32.89,7.44,7.44,0,0,0-2.78,1.7,4,4,0,0,0-1.19,2.17,27,27,0,0,0-.18,3.89v3.1a25.69,25.69,0,0,0,.19,3.94,3.87,3.87,0,0,0,1.24,2.14,7.18,7.18,0,0,0,2.84,1.61,16.85,16.85,0,0,0,4.2.75A17.09,17.09,0,0,0,77,53.81a7.79,7.79,0,0,0,3.33-1.43,3.88,3.88,0,0,0,1.52-2.3,27.78,27.78,0,0,0,.25-4.45V42.09Z"/><path class="cls-2" d="M81.94,91.85l-1.13,1.77-.4-.26A.69.69,0,0,0,80,93.2a.34.34,0,0,0-.23.18.38.38,0,0,0-.06.32A.63.63,0,0,0,80,94a.74.74,0,0,0,.47.15,2,2,0,0,0,.68-.32,6.84,6.84,0,0,1,1.94-1,2,2,0,0,1,1.37.41,1.77,1.77,0,0,1,.74.73,1.65,1.65,0,0,1,0,1,4.66,4.66,0,0,1-.59,1.34,4.35,4.35,0,0,1-1,1.17,1.43,1.43,0,0,1-1,.35,2.42,2.42,0,0,1-1-.43l-.36-.23,1.13-1.77.66.42a.83.83,0,0,0,.43.18c.1,0,.17-.09.26-.21a.4.4,0,0,0,.06-.34.53.53,0,0,0-.27-.31c-.32-.2-.57-.28-.74-.22a6.18,6.18,0,0,0-1.06.58c-.54.32-.9.52-1.1.62a1.54,1.54,0,0,1-.68.1A1.75,1.75,0,0,1,79,95.9a1.78,1.78,0,0,1-.78-.8,1.59,1.59,0,0,1,0-1,4.06,4.06,0,0,1,.57-1.26,4.84,4.84,0,0,1,1-1.15,1.55,1.55,0,0,1,.88-.41,2,2,0,0,1,1,.42Z"/><path class="cls-2" d="M82,87.44l1.32.63a1.83,1.83,0,0,1,0-.66,2.11,2.11,0,0,1,.21-.66,2,2,0,0,1,.61-.78,1,1,0,0,1,.66-.22,3.86,3.86,0,0,1,1,.37l3.28,1.57-.94,2L84.77,88a1.61,1.61,0,0,0-.56-.2.32.32,0,0,0-.23.48,1.36,1.36,0,0,0,.46.3l3.4,1.63-.94,2-5.82-2.79Z"/><path class="cls-2" d="M84.49,81.49l.79.28-.77,2.11-.79-.29Zm1.08.39,5,1.8-.77,2.11-5-1.8Z"/><path class="cls-2" d="M87.33,75.48l4,1a8.08,8.08,0,0,1,1,.31,1,1,0,0,1,.41.47,2.16,2.16,0,0,1,.18.94,6.1,6.1,0,0,1-.2,1.38A4.32,4.32,0,0,1,92,81.12a1,1,0,0,1-1.15.38l.51-2a.31.31,0,0,0,.43-.25c0-.16,0-.27,0-.34a.82.82,0,0,0-.43-.19l-.39-.1a2.38,2.38,0,0,1,.14.63,2.81,2.81,0,0,1-.06.65,2.54,2.54,0,0,1-.4.89,1,1,0,0,1-.57.39,1.73,1.73,0,0,1-.82-.06l-1.86-.46a1.4,1.4,0,0,1-1-.61,1.65,1.65,0,0,1,0-1.16,2.16,2.16,0,0,1,.3-.69,1.8,1.8,0,0,1,.5-.49l-.36-.26Zm.85,2.45a1.42,1.42,0,0,0-.46-.06c-.08,0-.13.1-.16.22a.3.3,0,0,0,0,.28,1,1,0,0,0,.41.18l1.73.44a1.07,1.07,0,0,0,.46.05c.07,0,.12-.1.16-.21s0-.24-.06-.3a1.82,1.82,0,0,0-.54-.21Z"/><path class="cls-2" d="M89.86,72.36l-.25,2-.35,0a1.87,1.87,0,0,1-.91-.31,1.61,1.61,0,0,1-.49-.83,4,4,0,0,1-.08-1.51,3.74,3.74,0,0,1,.49-1.62,1.17,1.17,0,0,1,.78-.58,8.16,8.16,0,0,1,1.74.1l2.63.31L93.17,72l-.48-.06a1.23,1.23,0,0,1,.36.56,2.07,2.07,0,0,1,0,.76,2.15,2.15,0,0,1-.36,1c-.19.3-.56.41-1.09.35l-.43,0a1,1,0,0,1-.77-.35,4.14,4.14,0,0,1-.35-1.3,4.39,4.39,0,0,0-.28-1.19.9.9,0,0,0-.43-.13,1.21,1.21,0,0,0-.54,0,.28.28,0,0,0-.16.26c0,.15,0,.25.06.29a1.64,1.64,0,0,0,.54.12Zm.81-.61a1.36,1.36,0,0,0,.4.67,1.81,1.81,0,0,0,.53.15,1.26,1.26,0,0,0,.54,0,.33.33,0,0,0,.15-.27c0-.14,0-.23-.06-.28a1,1,0,0,0-.48-.12Z"/></g></g></g></svg>