<svg xmlns="http://www.w3.org/2000/svg" viewBox="0 0 30.97 20"><g id="Layer_2" data-name="Layer 2"><path d="M3.34 0A3.33 3.33 0 001 5.69l3.74 3.75a.81.81 0 010 1.12L1 14.31A3.33 3.33 0 003.34 20a3.34 3.34 0 002.36-1l8.46-8.46a.79.79 0 000-1.12L5.7 1a3.34 3.34 0 00-2.36-1zm16.57 0a3.33 3.33 0 00-2.36 5.69l3.76 3.75a.81.81 0 010 1.12l-3.76 3.75A3.33 3.33 0 0019.91 20a3.32 3.32 0 002.36-1l8.47-8.46a.81.81 0 000-1.12L22.27 1a3.32 3.32 0 00-2.36-1z" fill="#ffdc64" id="レイヤー_1" data-name="レイヤー 1"/></g></svg>