<svg xmlns="http://www.w3.org/2000/svg" viewBox="0 0 363.35 268.35"><defs><style>.cls-2{fill:none;stroke:#fff;stroke-linecap:round;stroke-linejoin:round;stroke-width:8px}</style></defs><g id="Layer_2" data-name="Layer 2"><g id="レイヤー_2" data-name="レイヤー 2"><path fill="#eb6e50" d="M4.06 4.06l2.23-.01 2.1.23 2.11-.26 2.11.16 2.11-.15 2.12.06 2.11-.01L21.06 4l2.11.15 2.11-.01 2.11.07 2.12-.07 2.11.19 2.11-.09 2.11-.08 2.11.16 2.12.03 2.11-.21 2.11.2 2.11-.02 2.11-.08h2.11l2.11.03 2.11.06 2.11-.15 2.11-.08 2.11-.1 2.11.01 2.11.28 2.11-.04 2.12.03 2.11.05 2.11-.11 2.11.01L78.07 4l2.11.24 2.11-.09 2.12-.13 2.11.29 2.11-.02 2.11-.03 2.11-.15h2.11l2.11.02 2.11.11 2.12.1 2.11-.04 2.11-.03 2.11-.15 2.11.06 2.12.07 2.11-.23 2.11.27 2.11-.05 2.12-.02 2.11-.05 2.11.03 2.11.1 2.12.03 2.11-.08 2.11-.11 2.11.04 2.11.09 2.11-.23 2.12.01 2.11.03 2.11.12 2.12.07 2.11.07 2.12-.18 2.11.12 2.11-.2 2.11.2 2.11-.08 2.12-.04h2.11l2.11-.1 2.11.29 2.12-.13 2.11-.01 2.12.13 2.11-.21 2.11-.01 2.11.22 2.11-.31 2.11.19 2.1-.06 2.11.12 2.11.02 2.11-.2 2.11.24 2.11-.09 2.1-.24 2.12.11 2.11.22 2.11-.09 2.11-.23 2.12.15 2.11.03 2.11-.18 2.12.27 2.11.01 2.11-.26 2.11-.02 2.11.06 2.11.23 2.11-.12 2.11-.06 2.11-.09 2.12.25 2.11.05 2.12-.14 2.11-.03 2.12-.09 2.11.21 2.11-.08 2.11.01 2.11.12 2.12-.25 2.11-.05 2.12.25 2.11-.23 2.12.08 2.11.19 2.11-.3 2.12.27 2.11-.3 2.12.3 2.11-.19 2.12-.08 2.11.04 2.12.01 2.11-.01 2.12.23 2.12-.05 2.11-.24 2.12.09 2.11.17 2.12-.1 2.11-.05 2.12.04 2.12.12 2.11.04 2.11-.06 2.12-.21 2.12.02 2.11.12 2.11-.04 2.12.11 2.11-.11 2.12.18 2.11-.08 2.12-.09 2.12.16 2.11-.06 2.12.05 2.12-.31 2.12.34 2.12-.21 2.12.11 2.12-.09 2.11-.01 2.12.21 2.12-.18 2.12-.01 2.13-.04 2.12.04 2.04.11.01 2.02.11 2.11-.05 2.11.17 2.11-.03 2.11-.08 2.12.03 2.11.01 2.11-.19 2.12-.07 2.11.28 2.11-.04 2.12-.18 2.11-.05 2.11.28 2.11-.21 2.11.15 2.12-.06 2.11-.16 2.11.18 2.11.06 2.11-.17 2.12.17 2.11.03 2.12-.11 2.11-.03 2.11-.08 2.11.13 2.12.16 2.11-.1 2.11-.22 2.11.24 2.12-.26 2.11.08 2.11.17 2.12-.13 2.11.14 2.11-.04 2.11-.19 2.11.27 2.11-.25 2.11.26 2.11-.26 2.11.03 2.11.16 2.11-.15 2.1.06 2.11.04 2.11-.11 2.11-.02 2.11.19 2.11.09 2.12-.18 2.11-.05 2.12-.12 2.11.18 2.11.07 2.11-.07 2.11-.15 2.12.22 2.1-.02 2.12.12 2.11-.21 2.11-.07 2.11-.06 2.11.19 2.12-.06 2.12-.04 2.11-.05 2.11.09 2.11.13 2.12-.05 2.11.04 2.11-.16 2.12-.04 2.11.12 2.12-.08 2.11.22 2.12-.13 2.11-.14 2.11.18 2.12.03 2.11v2.12l-.06 2.11-.01 2.12.11 2.11-.09 2.12-.04 2.11.14 2.12-.17 2.11-.07 2.12.07 2.11.18 2.12-.32 2.12.06 2.11.24 2.12-.08 2.12-.14 2.11-.02 2.11.16 2.12.02 2.12v2.11l-.14 2.11-.1 2.12.1 2.11-.01 2.12-.06 2.11.01 2.12.04 2.12.03 2.12.2 2.11-.01 2.12-.17 2.12.19 2.12-.29 2.12.31 2.12-.29 2.11.3 2.12-.12 2.12.03 2.13-.2 2.12.2 2.12-.06 2.15-2.13.01-2.11-.19h-2.11l-2.11.07-2.11-.07-2.11.23-2.12-.21-2.11.13-2.11.13-2.11-.29-2.11.02-2.11.1-2.12-.11-2.11.19-2.11-.15-2.12.24-2.11-.22-2.11.21-2.11-.04-2.11-.12-2.11.1-2.11-.05-2.11.09-2.11-.08-2.11-.04-2.11-.02-2.11.12-2.11-.09-2.11-.04-2.11-.11-2.11.19-2.12-.19-2.11.26-2.11-.16-2.12-.03-2.11.13-2.11-.09-2.11.03h-2.12l-2.11-.04-2.11.21-2.11-.03-2.11-.28-2.11.33-2.11-.03-2.11.01-2.12-.08-2.11-.24-2.11.22-2.11-.15-2.11-.05-2.12.01-2.11.14-2.11-.01-2.12.06-2.11-.08-2.11.09-2.11-.15-2.12.22-2.11-.11-2.11-.07-2.11.01-2.11-.07-2.12.27-2.11-.02-2.11-.03-2.11-.15-2.12.01-2.11-.09-2.11.12-2.12.07-2.11-.1-2.11-.02-2.11.03-2.12.09-2.11-.2-2.11.16-2.11.09-2.12-.04-2.11.04-2.11-.1-2.12-.02-2.11-.14-2.11.05-2.11.03-2.11-.09-2.1.02-2.11.22-2.11.08-2.11-.11-2.11.11-2.11-.16-2.1.14-2.11-.13-2.11-.14-2.12.07-2.11.06h-2.12l-2.11-.15-2.11.29-2.11.02-2.12-.03-2.11-.09-2.11-.18-2.11.01-2.11.06-2.11-.11-2.11.01-2.11.08-2.12.03-2.11.05-2.12-.11-2.11.22-2.11-.07-2.12-.09-2.11-.06h-2.11l-2.11.14-2.12-.14-2.11.02-2.12-.03-2.11.12-2.12-.04-2.11-.07-2.11.01h-2.12l-2.11.03-2.12.24-2.11-.1-2.12-.1-2.11.17-2.12-.08-2.11-.11-2.12-.09-2.11.07-2.12.05-2.11.19-2.12-.1-2.12.02-2.11-.22h-2.12l-2.12.28-2.11-.15-2.11.06-2.12.03-2.12-.11-2.11-.12-2.11.15-2.11-.12-2.12.15-2.12.14-2.11-.28-2.12.11-2.12-.04-2.11-.06-2.12.09-2.12-.04-2.12.06-2.12.08-2.12-.19-2.12-.07-2.11.1-2.12.19-2.12-.24-2.12.25-2.12.02-2.13-.32-2 .04-.24-1.98.03-2.12.12-2.11-.17-2.11.19-2.11.01-2.11-.06-2.12.03-2.11.07-2.11-.2-2.12.1-2.11-.14-2.11.2-2.11.02-2.12-.26-2.11.11-2.11-.11-2.11.33-2.11-.13-2.12-.04-2.11-.03-2.11.2-2.11-.33-2.12.31-2.11-.18-2.11-.12-2.12.33-2.11-.1-2.11.07-2.12-.21-2.11.1-2.11.08-2.11-.07-2.11-.07-2.12.11-2.11-.25-2.12.29-2.11-.24-2.11.1-2.11.09-2.11-.09-2.11.1-2.11-.02-2.1.06-2.11-.21-2.11-.08-2.11.01-2.11.24-2.11-.22-2.11.3-2.11-.22-2.11.02-2.11.12-2.12-.14-2.11.01-2.12.1-2.11.06-2.11-.28-2.11.29-2.11-.28-2.11.08-2.11.24-2.11-.12-2.12-.21-2.11.04-2.11.22-2.12-.07-2.11.05-2.12-.2-2.11.27-2.11.04-2.11-.32-2.12.04-2.11.05-2.11.1-2.12-.01-2.11-.09-2.12v-2.11l-.09-2.12.2-2.11.03-2.11-.18-2.12.1-2.11.12-2.12-.15-2.11-.08-2.12.02-2.11.15-2.12-.21-2.11-.02-2.12.04-2.11.23-2.12-.06-2.12.12-2.11-.03-2.12L4 61.35l.03-2.11.11-2.12-.08-2.11-.02-2.11.05-2.12.2-2.12-.11-2.11.04-2.11.01-2.12.02-2.12-.23-2.11.09-2.12.19-2.12-.14-2.11.13-2.12-.22-2.12.11-2.12-.05-2.11.21-2.12-.23-2.12-.04-2.12.24-2.12-.14-2.12-.15-2.12.17-2.12.05-2.13-.18-2.24z"/><path class="cls-2" d="M4.06 4.06l2.23-.01 2.1.23 2.11-.26 2.11.16 2.11-.15 2.12.06 2.11-.01L21.06 4l2.11.15 2.11-.01 2.11.07 2.12-.07 2.11.19 2.11-.09 2.11-.08 2.11.16 2.12.03 2.11-.21 2.11.2 2.11-.02 2.11-.08h2.11l2.11.03 2.11.06 2.11-.15 2.11-.08 2.11-.1 2.11.01 2.11.28 2.11-.04 2.12.03 2.11.05 2.11-.11 2.11.01L78.07 4l2.11.24 2.11-.09 2.12-.13 2.11.29 2.11-.02 2.11-.03 2.11-.15h2.11l2.11.02 2.11.11 2.12.1 2.11-.04 2.11-.03 2.11-.15 2.11.06 2.12.07 2.11-.23 2.11.27 2.11-.05 2.12-.02 2.11-.05 2.11.03 2.11.1 2.12.03 2.11-.08 2.11-.11 2.11.04 2.11.09 2.11-.23 2.12.01 2.11.03 2.11.12 2.12.07 2.11.07 2.12-.18 2.11.12 2.11-.2 2.11.2 2.11-.08 2.12-.04h2.11l2.11-.1 2.11.29 2.12-.13 2.11-.01 2.12.13 2.11-.21 2.11-.01 2.11.22 2.11-.31 2.11.19 2.1-.06 2.11.12 2.11.02 2.11-.2 2.11.24 2.11-.09 2.1-.24 2.12.11 2.11.22 2.11-.09 2.11-.23 2.12.15 2.11.03 2.11-.18 2.12.27 2.11.01 2.11-.26 2.11-.02 2.11.06 2.11.23 2.11-.12 2.11-.06 2.11-.09 2.12.25 2.11.05 2.12-.14 2.11-.03 2.12-.09 2.11.21 2.11-.08 2.11.01 2.11.12 2.12-.25 2.11-.05 2.12.25 2.11-.23 2.12.08 2.11.19 2.11-.3 2.12.27 2.11-.3 2.12.3 2.11-.19 2.12-.08 2.11.04 2.12.01 2.11-.01 2.12.23 2.12-.05 2.11-.24 2.12.09 2.11.17 2.12-.1 2.11-.05 2.12.04 2.12.12 2.11.04 2.11-.06 2.12-.21 2.12.02 2.11.12 2.11-.04 2.12.11 2.11-.11 2.12.18 2.11-.08 2.12-.09 2.12.16 2.11-.06 2.12.05 2.12-.31 2.12.34 2.12-.21 2.12.11 2.12-.09 2.11-.01 2.12.21 2.12-.18 2.12-.01 2.13-.04 2.12.04 2.04.11.01 2.02.11 2.11-.05 2.11.17 2.11-.03 2.11-.08 2.12.03 2.11.01 2.11-.19 2.12-.07 2.11.28 2.11-.04 2.12-.18 2.11-.05 2.11.28 2.11-.21 2.11.15 2.12-.06 2.11-.16 2.11.18 2.11.06 2.11-.17 2.12.17 2.11.03 2.12-.11 2.11-.03 2.11-.08 2.11.13 2.12.16 2.11-.1 2.11-.22 2.11.24 2.12-.26 2.11.08 2.11.17 2.12-.13 2.11.14 2.11-.04 2.11-.19 2.11.27 2.11-.25 2.11.26 2.11-.26 2.11.03 2.11.16 2.11-.15 2.1.06 2.11.04 2.11-.11 2.11-.02 2.11.19 2.11.09 2.12-.18 2.11-.05 2.12-.12 2.11.18 2.11.07 2.11-.07 2.11-.15 2.12.22 2.1-.02 2.12.12 2.11-.21 2.11-.07 2.11-.06 2.11.19 2.12-.06 2.12-.04 2.11-.05 2.11.09 2.11.13 2.12-.05 2.11.04 2.11-.16 2.12-.04 2.11.12 2.12-.08 2.11.22 2.12-.13 2.11-.14 2.11.18 2.12.03 2.11v2.12l-.06 2.11-.01 2.12.11 2.11-.09 2.12-.04 2.11.14 2.12-.17 2.11-.07 2.12.07 2.11.18 2.12-.32 2.12.06 2.11.24 2.12-.08 2.12-.14 2.11-.02 2.11.16 2.12.02 2.12v2.11l-.14 2.11-.1 2.12.1 2.11-.01 2.12-.06 2.11.01 2.12.04 2.12.03 2.12.2 2.11-.01 2.12-.17 2.12.19 2.12-.29 2.12.31 2.12-.29 2.11.3 2.12-.12 2.12.03 2.13-.2 2.12.2 2.12-.06 2.15-2.13.01-2.11-.19h-2.11l-2.11.07-2.11-.07-2.11.23-2.12-.21-2.11.13-2.11.13-2.11-.29-2.11.02-2.11.1-2.12-.11-2.11.19-2.11-.15-2.12.24-2.11-.22-2.11.21-2.11-.04-2.11-.12-2.11.1-2.11-.05-2.11.09-2.11-.08-2.11-.04-2.11-.02-2.11.12-2.11-.09-2.11-.04-2.11-.11-2.11.19-2.12-.19-2.11.26-2.11-.16-2.12-.03-2.11.13-2.11-.09-2.11.03h-2.12l-2.11-.04-2.11.21-2.11-.03-2.11-.28-2.11.33-2.11-.03-2.11.01-2.12-.08-2.11-.24-2.11.22-2.11-.15-2.11-.05-2.12.01-2.11.14-2.11-.01-2.12.06-2.11-.08-2.11.09-2.11-.15-2.12.22-2.11-.11-2.11-.07-2.11.01-2.11-.07-2.12.27-2.11-.02-2.11-.03-2.11-.15-2.12.01-2.11-.09-2.11.12-2.12.07-2.11-.1-2.11-.02-2.11.03-2.12.09-2.11-.2-2.11.16-2.11.09-2.12-.04-2.11.04-2.11-.1-2.12-.02-2.11-.14-2.11.05-2.11.03-2.11-.09-2.1.02-2.11.22-2.11.08-2.11-.11-2.11.11-2.11-.16-2.1.14-2.11-.13-2.11-.14-2.12.07-2.11.06h-2.12l-2.11-.15-2.11.29-2.11.02-2.12-.03-2.11-.09-2.11-.18-2.11.01-2.11.06-2.11-.11-2.11.01-2.11.08-2.12.03-2.11.05-2.12-.11-2.11.22-2.11-.07-2.12-.09-2.11-.06h-2.11l-2.11.14-2.12-.14-2.11.02-2.12-.03-2.11.12-2.12-.04-2.11-.07-2.11.01h-2.12l-2.11.03-2.12.24-2.11-.1-2.12-.1-2.11.17-2.12-.08-2.11-.11-2.12-.09-2.11.07-2.12.05-2.11.19-2.12-.1-2.12.02-2.11-.22h-2.12l-2.12.28-2.11-.15-2.11.06-2.12.03-2.12-.11-2.11-.12-2.11.15-2.11-.12-2.12.15-2.12.14-2.11-.28-2.12.11-2.12-.04-2.11-.06-2.12.09-2.12-.04-2.12.06-2.12.08-2.12-.19-2.12-.07-2.11.1-2.12.19-2.12-.24-2.12.25-2.12.02-2.13-.32-2 .04-.24-1.98.03-2.12.12-2.11-.17-2.11.19-2.11.01-2.11-.06-2.12.03-2.11.07-2.11-.2-2.12.1-2.11-.14-2.11.2-2.11.02-2.12-.26-2.11.11-2.11-.11-2.11.33-2.11-.13-2.12-.04-2.11-.03-2.11.2-2.11-.33-2.12.31-2.11-.18-2.11-.12-2.12.33-2.11-.1-2.11.07-2.12-.21-2.11.1-2.11.08-2.11-.07-2.11-.07-2.12.11-2.11-.25-2.12.29-2.11-.24-2.11.1-2.11.09-2.11-.09-2.11.1-2.11-.02-2.1.06-2.11-.21-2.11-.08-2.11.01-2.11.24-2.11-.22-2.11.3-2.11-.22-2.11.02-2.11.12-2.12-.14-2.11.01-2.12.1-2.11.06-2.11-.28-2.11.29-2.11-.28-2.11.08-2.11.24-2.11-.12-2.12-.21-2.11.04-2.11.22-2.12-.07-2.11.05-2.12-.2-2.11.27-2.11.04-2.11-.32-2.12.04-2.11.05-2.11.1-2.12-.01-2.11-.09-2.12v-2.11l-.09-2.12.2-2.11.03-2.11-.18-2.12.1-2.11.12-2.12-.15-2.11-.08-2.12.02-2.11.15-2.12-.21-2.11-.02-2.12.04-2.11.23-2.12-.06-2.12.12-2.11-.03-2.12L4 61.35l.03-2.11.11-2.12-.08-2.11-.02-2.11.05-2.12.2-2.12-.11-2.11.04-2.11.01-2.12.02-2.12-.23-2.11.09-2.12.19-2.12-.14-2.11.13-2.12-.22-2.12.11-2.12-.05-2.11.21-2.12-.23-2.12-.04-2.12.24-2.12-.14-2.12-.15-2.12.17-2.12.05-2.13-.18-2.24z"/><path class="cls-2" d="M359.31 4.31l-1.57 1.51-1.72 1.35-1.33 1.74-1.66 1.41-1.42 1.65-1.58 1.49-1.53 1.55-1.48 1.6-1.66 1.42-1.53 1.55-1.59 1.48-1.49 1.6-1.69 1.4m-294.89-.02l2.13.03 2.12.19 2.12-.21 2.12.13 2.12-.12 2.12.05 2.12-.02 2.13-.06 2.12.13 2.12-.01 2.12.05 2.12-.06 2.12.16 2.12-.07 2.12-.07 2.12.14 2.12.02 2.12-.18 2.12.17 2.12-.02 2.12-.06h2.12l2.12.02 2.12.05 2.13-.12 2.12-.07 2.12-.08 2.12.01 2.12.23 2.12-.04 2.12.04 2.12.03 2.12-.09 2.12.01 2.12-.19 2.13.2 2.12-.07 2.12-.12 2.12.25 2.12-.02 2.13-.03 2.12-.12h2.12l2.12.02 2.12.09 2.12.08 2.12-.03 2.12-.03 2.12-.12 2.13.05 2.12.06 2.12-.19 2.12.22 2.12-.04 2.12-.02 2.12-.04 2.12.02 2.11.09 2.12.02 2.12-.06 2.11-.1 2.12.04 2.12.07 2.12-.19 2.12.01 2.12.03 2.12.09 2.12.07 2.12.05 2.13-.15 2.12.11 2.12-.17 2.12.16 2.12-.06 2.12-.04h2.12l2.12-.08 2.11.24 2.12-.1 2.13-.02 2.12.11 2.12-.18h2.13l2.12.18 2.12-.26 2.12.16 2.12-.05 2.12.1 2.12.02 2.13-.17 2.12.21 2.13-.09 2.12-.19 2.12.09 2.12.18 2.13-.07 2.12-.19 2.12.12 2.13.02 2.12-.15 2.12.23 2.13.01 2.12-.22 2.12-.01 2.13.05 2.12.19 2.13-.1 2.12-.05 2.13-.07 2.12.2 2.13.05 2.12-.13 2.13-.02 2.12-.07 2.13.17 2.12-.06h2.13l2.12.1 2.12-.2 2.12-.05 2.13.21 2.12-.19 2.13.06 2.12.16 2.13-.24 2.12.22 2.13-.25 2.13.25 2.12-.16 2.13-.07 2.13.04h4.25l2.13.19 2.13-.04 2.13-.2 2.13.07 2.13.14 2.14-.08.04 2.13-.03 2.13-.1 2.12-.03 2.13.04 2.13.18 2.13-.02 2.12-.1 2.13.04 2.12-.1 2.13.1 2.12-.15 2.12.06 2.12.08 2.12-.13 2.13.04 2.12-.04 2.12.26 2.12-.28 2.12.18 2.13-.09 2.12.07 2.13v2.12l-.17 2.13.15 2.13.01 2.13.04 2.12-.04 2.13-.12 2.12.04 2.13.09 2.12-.03 2.12.14 2.13-.03 2.12-.07 2.13.02 2.13.02 2.13-.16 2.12-.06 2.13.23 2.13-.03 2.12-.15 2.13-.04 2.12.23 2.13-.17 2.13.12 2.13-.05 2.12-.13 2.13.15 2.13.05 2.13-.15 2.12.15 2.13.02 2.13-.09 2.13-.02 2.13-.07 2.13.11 2.12.13 2.13-.08 2.13-.19 2.13.21 2.13-.22 2.13.06 2.13.15 2.13-.12 2.13.13 2.13-.04 2.13-.16 2.13.23 2.13-.21 2.13.22 2.12-.22 2.13.03 2.13.13 2.13-.13 2.12.05 2.13.04 2.13-.09 2.13-.02 2.13.16 2.13.07 2.13-.15 2.13-.04 2.14-.1 2.13.15 2.13.05 2.13-.05 2.14-.12 2.12.17 2.14-.01 2.13.1 2.13-.17 2.14-.06 2.14-.05 2.14"/></g></g></svg>