<svg xmlns="http://www.w3.org/2000/svg" viewBox="0 0 148.3 84.6"><defs><style>.cls-1{fill:#fff;fill-rule:evenodd}</style></defs><g id="Layer_2" data-name="Layer 2"><g id="レイヤー_1" data-name="レイヤー 1"><path class="cls-1" d="M38.72 65.61c-.42-.1-.5-.34-.53-.81-.06-1.07-.17-5.85-.14-6.72 0-.25 0-.51.43-.61a4.41 4.41 0 01.81-.14c.05 0 .05-.2 0-.23h-2.23a3.07 3.07 0 01-.28.84c-.61 1.36-2.58 5.47-2.83 5.93h-.05c-.21-.38-1.78-3.75-2.75-6a2.34 2.34 0 01-.27-.81h-2.4s-.06.19 0 .22a3.37 3.37 0 01.9.2.62.62 0 01.39.66c-.06 1.22-.36 5.38-.49 6.31s-.24 1.05-.69 1.14a4.72 4.72 0 01-.56.08v.23h3.05s.05-.2 0-.23a6.1 6.1 0 01-.76-.12c-.4-.1-.47-.42-.47-1 0-.93.2-4.89.3-6.06.38.95 2.77 6.28 3.13 7.53a1.13 1.13 0 00.26 0c.46-1.34 2.9-6.45 3.32-7.35h.05C37 59.81 37 64 37 64.9c0 .38-.08.6-.39.69a3.79 3.79 0 01-.66.12.26.26 0 000 .23h3.44a.3.3 0 000-.23 3.65 3.65 0 01-.67-.1zm11.08-.97c-.44-1.11-2-6-2.32-6.88l-.17-.63h-.79a6.54 6.54 0 01-.18.69c-.33.9-1.66 4.65-2.49 6.66-.43 1-.59 1.11-1.56 1.23v.23h2.98a.31.31 0 000-.23 3.2 3.2 0 01-.62-.11c-.46-.1-.44-.33-.41-.57a22.19 22.19 0 01.89-2.65.16.16 0 01.11-.1h2.46s.1.07.11.07c.26.77.78 2.22.94 2.83 0 .17 0 .29-.16.39a3.75 3.75 0 01-.7.14.36.36 0 000 .23h3.28s.06-.18 0-.23c-.92-.11-.99-.17-1.37-1.07zm-2.22-2.86h-2.15c-.15 0-.06 0-.06-.09.22-.63.88-2.59 1.12-3.25h.06l1 3.27c.08.03.05.07.03.07zm9.34 3.82c-.39-.1-.42-.37-.45-.79s0-1.85 0-3.4c0-1.24 0-2.67.05-3.22s.07-.67.39-.77l.6-.1a.28.28 0 000-.22h-3.24v.22a6.56 6.56 0 01.75.12c.31.09.31.38.36.71v6.8c0 .41-.09.59-.44.66a2.87 2.87 0 01-.64.1.26.26 0 000 .23h3.38a.26.26 0 000-.23 3.32 3.32 0 01-.76-.11zm10.74-2.05a6.63 6.63 0 01-.87 1.53 1 1 0 01-.79.43 11.1 11.1 0 01-2.4-.1c-.13 0-.23-.18-.25-.41v-6.94c0-.42 0-.54.38-.63l.59-.11c.05 0 0-.21 0-.22h-3.26a.28.28 0 000 .22c.17 0 .5.07.68.11.43.1.46.26.49.88v6.66c0 .39-.18.57-.48.64a6.29 6.29 0 01-.75.1.44.44 0 000 .23h1.76c.62 0 3.13.06 3.93.06.36 0 .5-.07.58-.17a12 12 0 00.67-2.17c-.06-.1-.24-.14-.28-.11zm8.97 1.62c-.2.2-.35.36-1.24.36a10.3 10.3 0 01-1.76-.09c-.15 0-.31-.17-.33-.5v-3.17s0-.12.07-.12h2.22a.58.58 0 01.58.5c0 .17 0 .24.1.5a.23.23 0 00.24 0v-1.2a9.81 9.81 0 01.1-1.29.39.39 0 00-.26 0 2.61 2.61 0 01-.12.5.61.61 0 01-.62.51h-2.23v-3.43c0-.07 0-.19.15-.2s1.78 0 2.14 0c.53 0 .64.23.74.55a3.77 3.77 0 01.16.91.36.36 0 00.25 0 12.19 12.19 0 01.18-1.87v-.05a12.43 12.43 0 01-1.51.06h-4.41a.19.19 0 000 .22 2.48 2.48 0 01.65.11c.36.09.42.22.45.75v6.63c0 .56-.16.73-.49.82a4.45 4.45 0 01-.92.11v.23h5.49c.71 0 .77 0 .85-.15a10.37 10.37 0 00.58-1.86.41.41 0 00-.21-.1 4.21 4.21 0 01-.85 1.27zm5.31-.53a.67.67 0 00-.46.2.72.72 0 00-.22.5.68.68 0 00.2.49.62.62 0 00.43.19.69.69 0 00.51-.21.72.72 0 00.18-.46.67.67 0 00-.21-.54.72.72 0 00-.43-.17zm11.87-.81a5.52 5.52 0 01-.94 1.32 2.42 2.42 0 01-1.71.58c-2.44 0-3.89-1.75-3.89-4.42s1.3-4.09 3.41-4.09a3.86 3.86 0 011.81.34c.48.24.67.6.8 1.69 0 .06.23 0 .27 0a13.72 13.72 0 01.26-2.06 23.74 23.74 0 00-2.66-.28 6.06 6.06 0 00-2.94.66A4.27 4.27 0 0086 61.44c0 3 1.81 4.72 4.9 4.72a7.29 7.29 0 002.07-.3A4.1 4.1 0 0094 64c0-.11-.15-.18-.19-.17zm8.19-6.95a4.43 4.43 0 00-4.6 4.57 5 5 0 001.22 3.37 4.32 4.32 0 003.16 1.34 4.47 4.47 0 003.71-1.88 4.94 4.94 0 00.84-2.92 4.19 4.19 0 00-4.33-4.48zm1.91 8.29a2.43 2.43 0 01-1.6.54 3.19 3.19 0 01-1.85-.54 5 5 0 01-1.79-4.05 3.92 3.92 0 011.5-3.47 2.77 2.77 0 011.38-.36 3.06 3.06 0 011.93.63 4.81 4.81 0 011.65 3.9 4.28 4.28 0 01-1.2 3.35zm6.5-.53a.69.69 0 00-.46.2.76.76 0 00-.21.5.68.68 0 00.2.49.62.62 0 00.43.19.65.65 0 00.5-.21.69.69 0 00.19-.46.67.67 0 00-.21-.54.72.72 0 00-.44-.17zm4.87-.46a3 3 0 00-.71.76 2.74 2.74 0 01.37 1 2.66 2.66 0 01-1 2V68c0 .06.11.09.19.09a3.89 3.89 0 001.63-3 1.45 1.45 0 00-.28-.9.23.23 0 00-.2-.01zm10.61-.63a6.25 6.25 0 01-.88 1.53 1 1 0 01-.79.43 11.16 11.16 0 01-2.4-.1.41.41 0 01-.24-.41v-6.94c0-.42 0-.54.37-.63l.59-.11c.06 0 0-.21 0-.22h-3.26v.22c0 .02.5.07.67.11.43.1.46.26.49.88v6.66c0 .39-.17.57-.47.64a6.29 6.29 0 01-.75.1v.23h1.75c.61 0 3.13.06 3.94.06.36 0 .5-.07.57-.17a11.26 11.26 0 00.68-2.17c-.06-.1-.23-.14-.27-.11zm8.97-6.41h-5.28a3 3 0 01-1.12-.21h-.07a21.18 21.18 0 01-.26 2.18.29.29 0 00.24 0 8 8 0 01.53-1.25.69.69 0 01.58-.37h2a.13.13 0 01.09.11v6.93c0 .63-.09 1-.51 1a8.26 8.26 0 01-.92.13.2.2 0 000 .21h3.78c.05 0 .06-.18 0-.21a4 4 0 01-.7-.12c-.3-.08-.46-.18-.5-1s-.06-4.89-.06-6.93c0 0 0-.12.07-.13h2.11a.6.6 0 01.56.42 4.13 4.13 0 01.21 1.16c0 .05.25.05.26 0a13.68 13.68 0 01.29-2.15h-.06a3.63 3.63 0 01-1.24.23zm12.14.92a4.53 4.53 0 00-3-1c-1.12 0-1.75.06-2.7.06h-1.65v.22a3.69 3.69 0 01.72.12c.34.1.4.25.43.78s0 2.15 0 3v3.62c-.05.55-.22.63-.45.71a3.46 3.46 0 01-.79.12v.23h1c1.28 0 1.84.06 2.7.06a5.44 5.44 0 003.23-.92 4.33 4.33 0 001.9-3.76 4.19 4.19 0 00-1.39-3.24zm-1 6.75a2.89 2.89 0 01-2.11.79 3.47 3.47 0 01-1.68-.3.67.67 0 01-.29-.52V57.8a.35.35 0 01.16-.3 3.42 3.42 0 01.76-.07 4.6 4.6 0 012.67.62 4 4 0 011.6 3.5 4.29 4.29 0 01-1.18 3.26zm-35-31.45c.36.66 1 .76 1 0s-1.57-1.09-1 0zm1.88-.71c.17-.28-.47-.32-.4 0s.6.37.6 0c0 .06-.21.02-.2 0zm-1.59 3.11c0 .18 0 .16.09.13s.26 0 .36-.07c.41-.37-.51-.65-.45-.06zM124.34 2a4.84 4.84 0 01.66 2.58c.29 2.77.46 3.38 2.44 4.46.25.13.87.26 1.05.05.61-.72-.27-2.91 0-3.21 1.11-.42 1 2.75 1.39 3.29.38 0 .5-.52.79-.67 3.15-1.5.06-6.16-1.47-7.15a8.15 8.15 0 00-2.27-1 7.77 7.77 0 00-2.4-.32 2.31 2.31 0 00-.46 0c-.41.06-.81.17-1.23.19a2 2 0 00-1.14.26c.99.52 2 .7 2.64 1.52zm10.85 6.26c.1.3-1.69 2.09-1.5 2.9.09.39.7.73 1.07.88a2.32 2.32 0 002-.06 7.38 7.38 0 002.49-3.06 13.17 13.17 0 012.51-3.79l.59-.32h.15c-.38-.53-3.12-1-4.15-1l-1.69.2a5.47 5.47 0 00-4.09 4 2.62 2.62 0 00.26 2c.22-.32 1.9-2.13 2.36-1.75zM119.6 13c2 .5 4.62 2 6.87.49.3-.19.75-.43.84-.81s0-.47 0-.7c-.53-.57-1.78-.41-2.47-.84 0-.84 2.27-.45 2.77-.27s0 0 0-.05c.08-.18-.65-.8-.76-.9a6.82 6.82 0 00-1.23-.9 5.16 5.16 0 00-2.24-.67 8.67 8.67 0 00-.89 0 5.56 5.56 0 00-1.9.26c-1.59.63-3.83 2.39-3.82 4.39a8.4 8.4 0 012.83 0zm21.5 7.34c-2.68-2.52-2.36-7.53-7.45-7.69l-.89.16c.08.35 2.09 2 1.51 2.69-.46.18-2.2-1.28-2.43-1.57a3.34 3.34 0 00-.53 2.13c0 3.44 3.81 4.9 7.55 4.51l2.26-.2z"/><path class="cls-1" d="M130.05 14.29c-.88-.12-2 1.49-2.35 2.06h-.22c-.55-.73.34-1.86.75-2.46h-.55a2 2 0 00-.82.15 5.68 5.68 0 00-1.23.78 5 5 0 00-1.19 2.18l-.38.18h-.07c-.08 0-.62.44-.7.47a33.09 33.09 0 00-4.13 3.24c-.55.51-1 1.26-1.56 1.71-.38.28-.94 1-1.29 1.3-1 .84-1.69 1.91-2.62 2.74-.08.07-2.26 2.73-2.32 2.82s-.19.34-.29.5a1.62 1.62 0 01-.32.32c-.13.12-.23.26-.36.37l-.23.27a2.63 2.63 0 00-1.15.52.74.74 0 00-.33.52 5.31 5.31 0 01-2.62.82c-1.7-.08-.85-3.09-1-4.25s-.77-2.24-3.24-1.62-7 3.7-7 3.7 1.7-2.85 2.24-3.94.92-1.93-.54-2.31-5.56 2.55-5.56 2.55 1.16-3.25 2.16-5.8.08-4-3.63-2.55A61.55 61.55 0 0080.09 24s4.18-7.26 4.87-8.73 3.86-6.94.77-9.73-10.58.54-10.58.54-5.71 2.08-22.32 14.82S18.93 54 18.93 54C11.13 63.07 1.63 76.89.32 81.76s1.85 2 1.85 2 .31-.31-.46-.39-.31-1.31-.31-1.31a136.12 136.12 0 0120.7-29.88c20.23-22 29.42-28.5 29.42-28.5s2.7-2.62 15.53-11.68 18.07-5.31 18.07-5.31C88.42 9 78.4 25.3 78.4 25.3c-1.24.85-14.75 13.06-17.15 20.16s1.6 2.79 1.6 2.79c7.33-6 16.32-22.17 16.32-22.17 2.4-2.17 8.83-5.18 10.5-6.08s2.22-.13 2 1.26-3.84 9.09-3.84 9.09c-1.29 1.34-8.88 9-9.57 12.36s.23 2.16 3.47-1.47A69.55 69.55 0 0088.59 31a41.76 41.76 0 014.79-4.17c1.47-.92 2.63-1.47 1.16 1.46s-5.79 7.9-6.33 8.71-2.32 2.7-.85 2.62 4.24-4.4 5.87-6 6.25-4.55 9.11-5-.41 4.34 2.86 5.17c1.6.41 3-.66 3.85-1.56h.19a.87.87 0 01.32 0c.16.05.22.19.41.19a1.23 1.23 0 00.44-.19 1.36 1.36 0 00.55-.75.09.09 0 00.07 0s.06-.09.09-.13l.24-.39c.15-.24.35-.46.5-.7s.44-.7.67-1c0-.08 2.23-2.73 2.3-2.79.7-.62 1.27-1.38 2-2s1.17-1.47 1.82-1.96 1.35-1.51 2.14-2.06l2.67-2c.23-.17.45-.36.7-.52a7.22 7.22 0 001.51 6.85h.11c.2-1.66 1.63-2.34 2.63-3.21a7.31 7.31 0 001.64-7.28zM68 40.42c-1.08 1.49-2.14 3.07-3.36 4.47-.37.42-2.4 2.13-2.1.5a9.36 9.36 0 012.25-4C67.53 37.94 75.07 30 75.71 29.15c-2.54 3.79-5.07 7.57-7.71 11.27z"/></g></g></svg>