<svg xmlns="http://www.w3.org/2000/svg" viewBox="0 0 698 28.01"><g id="Layer_2" data-name="Layer 2"><path fill="none" stroke="#fff" stroke-linecap="round" stroke-linejoin="round" stroke-width="8" d="M4 4.42L6.12 4l2.12.32 2.13.02 2.12.04 2.12.14 2.12.07 2.12-.55 2.12.54 2.12.01 2.13-.28 2.12.01 2.12-.08 2.12-.23 2.12.31h2.12l2.13.08 2.12-.22 2.12.02 2.13-.06 2.12.24 2.12-.2 2.13.46 2.12-.59 2.13.59 2.12.04 2.12-.19 2.12-.32 2.12.34 2.13-.05 2.12.17 2.12-.25 2.12.18 2.12-.13 2.13.05 2.12-.37h2.12l2.13-.06 2.12.43 2.13.17 2.12-.24 2.12.06 2.13.21 2.12-.24 2.12.09 2.13-.08 2.12-.03 2.12.26 2.12-.23 2.13-.35 2.12.2 2.12.34 2.13-.5 2.12-.05 2.13.21 2.12.22 2.12-.03 2.13-.35 2.12.06 2.12.27 2.13.02 2.12-.24 2.12.06 2.13.08 2.12-.27 2.13.31 2.12-.24 2.12-.11 2.12.39 2.13-.34 2.12.31 2.12-.08 2.12-.19 2.11-.02 2.12.27 2.12.04 2.12-.15 2.12.21 2.12-.19 2.12-.24 2.12.57 2.13-.01 2.12-.07h2.13l2.12-.17 2.13-.28 2.12.48 2.12-.22 2.12-.3 2.12.03 2.13.35 2.12-.07 2.12-.16 2.12.19 2.12.09 2.13-.47h2.12l2.13.28 2.13.01 2.12.34 2.12-.1 2.13-.14 2.12.03 2.12.15 2.13-.45 2.12.32 2.13.15 2.12-.38 2.13-.19 2.12-.05 2.13.14 2.12.25 2.13.17 2.12-.27 2.13-.18 2.13.36 2.12-.4 2.13.59 2.12-.43 2.13.15 2.13-.3 2.12.56 2.13-.44 2.13.08 2.13.13 2.12.03 2.13-.05 2.13-.28 2.12.43 2.13-.36 2.13.05 2.12.24 2.13.06 2.12-.53 2.13.67 2.12-.64 2.13-.02 2.13-.03 2.12.17 2.13.46 2.13-.01 2.13-.46 2.13-.02 2.13.5 2.13-.23 2.13-.38 2.13.53 2.12-.1 2.13.03 2.13-.35 2.14-.01 2.13.32 2.13.01 2.22-.31 1.5 1.68 1.69 1.39 1.15 1.93 1.58 1.48 1.47 1.6 1.56 1.52 1.62 1.45 1.54 1.54 1.6 1.48 1.54 1.53 1.74 1.35 1.59 1.49 1.34 1.42 1.69-1.05 1.18-1.89 1.76-1.32 1.57-1.49 1.62-1.45 1.37-1.71 1.42-1.65 1.45-1.63 1.78-1.3 1.54-1.54L366 7.52l1.61-1.48 1.3-1.91 2.21.38 2.13-.09 2.12.18 2.12-.23 2.12.05 2.12-.34 2.12.47 2.12-.06 2.13-.45 2.12.26 2.12.38 2.12-.01 2.12-.64 2.12-.02 2.12.42 2.13-.27 2.12-.09 2.12.34 2.13-.17 2.12.3 2.12-.04 2.13-.24 2.12.27 2.13.06h2.12l2.12.06 2.12-.33 2.12.08 2.13.19 2.12.05 2.12.05 2.12-.67h2.12l2.13-.01 2.12.08 2.12.45 2.13.04 2.12-.19 2.13-.3 2.12.48 2.12-.28 2.13-.24 2.12.05 2.12-.02 2.12-.07 2.13.03 2.12.41h2.12l2.13-.34 2.12.21 2.12.27 2.13-.26 2.12-.11 2.13-.13 2.12.03 2.12.08 2.13.28 2.12-.16 2.12.08 2.13-.24 2.12.42 2.12.07 2.13-.04 2.12-.34 2.13.35 2.12-.33 2.12.37 2.13-.09 2.12-.43 2.12.54 2.12-.18 2.12-.3 2.11.36 2.12-.34 2.12-.16 2.12.5 2.12.03 2.12-.39 2.12.16 2.12-.25 2.13.14 2.12.24 2.13-.08 2.12-.25 2.13-.02 2.12-.13h2.12l2.12.43L557.9 4l2.12.63 2.13-.21 2.12-.17 2.12.2 2.12-.13 2.13.18 2.12.04 2.13-.45 2.13.49 2.12-.23 2.12.27 2.13-.27 2.12-.09 2.12.17 2.13-.21 2.12.11 2.13.27 2.12-.17 2.13-.15 2.12.23 2.13.01 2.12.07 2.13-.29 2.12-.13 2.13.1 2.13.32 2.12-.44 2.13.31 2.12.15 2.13-.46 2.13.39 2.12-.35 2.13.19 2.13-.37 2.13.52 2.12-.22 2.13.27 2.13-.27 2.12-.31 2.13.68 2.13-.4 2.12-.16 2.13-.03 2.12.26 2.13-.1 2.12.15 2.13-.09 2.13-.19 2.12.21 2.13.27 2.13-.55 2.13.5 2.13-.49 2.13.62 2.13-.35 2.13.21 2.13-.05 2.12-.39 2.13.23 2.13.33 2.14-.58 2.13.19 2.13.39 2.14-.31" id="レイヤー_1" data-name="レイヤー 1"/></g></svg>