<svg xmlns="http://www.w3.org/2000/svg" viewBox="0 0 418.71 30.64"><defs><style>.cls-1{fill:#fff}</style></defs><g id="Layer_2" data-name="Layer 2"><g id="レイヤー_1" data-name="レイヤー 1"><path class="cls-1" d="M114.43 28.07h156.58c14.73 0 29.45 0 44.17-.14a.3.3 0 000-.6c-26.1-.23-52.2-.14-78.29-.13H114.43a.37.37 0 000 .73zm217.07 0l11.66.06c3.87 0 7.78.17 11.65-.12a.3.3 0 000-.6c-3.87-.3-7.78-.14-11.65-.12l-11.66.05a.37.37 0 000 .73zm-182.01 2.67h61.57c5.82 0 11.64 0 17.45-.14a.3.3 0 000-.6c-10.3-.23-20.6-.15-30.91-.13h-48.11a.37.37 0 000 .73zM.35 24.86h238.34q25.17 0 50.34-.12h5.08a.3.3 0 000-.59c-16.21 0-32.41-.16-48.62-.16H.35a.37.37 0 000 .73zm302.31 0h86.52c8.12 0 16.23 0 24.34-.15a.3.3 0 000-.59c-14.43-.23-28.88-.15-43.32-.13h-67.54a.37.37 0 000 .73zM49.48 21.9h215.46c16.89 0 33.79 0 50.68-.11h5.89a.3.3 0 000-.6q-25-.16-50-.15H49.48a.36.36 0 000 .72z" transform="translate(0 -.18)"/><path class="cls-1" d="M305.68 21.9h78.99c5.82 0 11.64 0 17.46-.12h1.81a.3.3 0 000-.6c-5.62-.1-11.23-.16-16.85-.15h-81.41a.36.36 0 000 .72zm-36.99-2.17h78.99c5.82 0 11.64 0 17.46-.12h1.81a.3.3 0 000-.6c-5.62-.1-11.23-.16-16.85-.15h-41.65L288 19h-19.26a.37.37 0 000 .73zm-186.89 0h117.51q11.33 0 22.66-.13h1.85a.3.3 0 000-.6c-7.09 0-14.18-.16-21.27-.16h-30.68L137.7 19H81.8a.37.37 0 000 .73zm164.8-2.19h79c5.82 0 11.64 0 17.46-.12h1.8a.3.3 0 000-.6q-8.42-.15-16.84-.15H246.6a.37.37 0 000 .73zm11.71-6h113.18c11.07 0 22.13 0 33.2-.09l4.75-.06a.3.3 0 000-.6c-11.44-.13-22.87-.15-34.3-.14H258.32a.37.37 0 000 .73zm35.07 2.67h61.57c5.82 0 11.63 0 17.45-.15a.3.3 0 000-.6c-10.3-.23-20.61-.14-30.91-.13h-48.11a.37.37 0 000 .73zm-56.14-5.89h138.38c12.2 0 24.4 0 36.6-.1l4.78.04a.3.3 0 000-.6q-18.5-.18-37-.15H237.27a.36.36 0 000 .72zm40.53-2.95h87.52c11 0 22 .1 33-.06l5.61-.08a.3.3 0 000-.59c-11.86-.17-23.71-.15-35.56-.15h-90.65a.37.37 0 000 .73zm-8.32-2.17h78.99c5.82 0 11.64 0 17.46-.12h1.8a.3.3 0 000-.6c-5.61-.1-11.23-.16-16.84-.15h-81.41a.37.37 0 000 .73zM390.49 1l19.06.07c2.19 0 4.38.05 6.56 0 .77 0 1.54-.08 2.31-.13a.3.3 0 000-.6 69.07 69.07 0 00-4.34-.16h-10.66l-12.93.09a.37.37 0 000 .73z" transform="translate(0 -.18)"/></g></g></svg>