<svg xmlns="http://www.w3.org/2000/svg" viewBox="0 0 329.17 599.17"><defs><style>.cls-2{fill:none;stroke:#fff;stroke-linecap:round;stroke-linejoin:round;stroke-width:8px}</style></defs><g id="Layer_2" data-name="Layer 2"><g id="レイヤー_2" data-name="レイヤー 2"><path fill="#eb6e50" d="M324.2 4.98l-1.73.04-2.12-.76-2.11.85-2.12-.53-2.12.49-2.11-.19-2.12.04-2.11.24-2.12-.49-2.12.04-2.11-.23-2.12.24-2.12-.63-2.11.29-2.12.26-2.12-.53L288.6 4l-2.12.72-2.12-.67-2.12.07-2.11.26-2.12.02-2.12-.11-2.12-.21-2.11.49-2.12.26-2.12.33-2.11-.03-2.12-.92-2.12.15-2.12-.12-2.11-.16-2.12.38-2.12-.06-2.12.78-2.12-.8-2.12.29-2.12.45-2.12-.97-2.11.08-2.12.09-2.12.48-2.12.01-2.11-.06-2.12-.38-2.12-.31-2.12.11-2.12.11-2.12.5-2.11-.21-2.12-.23-2.12.77-2.12-.9-2.12.16-2.12.09-2.12.17-2.11-.11-2.12-.35-2.12-.08-2.12.24-2.12.4-2.12-.15-2.12-.3-2.12.78-2.12-.04-2.11-.12-2.12-.37-2.11-.26-2.12-.22-2.11.6-2.12-.42-2.11.68-2.11-.66-2.12.26-2.11.15h-2.12l-2.11.33-2.12-.96-2.12.4-2.12.05-2.12-.42-2.12.7-2.12.03-2.12-.75-2.11 1.05-2.12-.64-2.12.21-2.11-.4-2.12-.09-2.12.68-2.11-.82-2.12.33-2.12.78-2.12-.35-2.12-.74-2.12.3-2.12.76-2.12-.5-2.12-.09-2.12.6-2.12-.89-2.11-.05-2.12.88-2.13.06-2.12-.22-2.12-.76-2.12.41-2.12.2-2.12.28-2.12-.83-2.12-.17-2.12.5-2.12.09-2.12.28-2.12-.69-2.12.26-2.12-.03-2.13-.39-2.12.82-2.12.17-2.12-.83-2.12.76-2.12-.26-2.13-.63-2.12.98-2.12-.88-2.12.99-2.12-1-2.12.65-2.12.27-2.12-.14-2.12-.03-2.12.03-2.12-.79-2.13.17-2.12.82-2.12-.3-2.12-.57-2.13.33-2.12.17-2.13-.15-2.12-.39-2.13-.12-2.12.18-2.12.71-2.13-.06-2.12-.42-2.13.16-2.13-.4-2.13.39-2.5-.46.12 2.48.3 2.12-.53 2.11.18 2.11-.15 2.12 1.03 2.11-1.12 2.12.71 2.11-.37 2.11.3 2.12.01 2.11-.69 2.11.62 2.11.01 2.11.15 2.11-.13 2.12-.49 2.11.16 2.11.36 2.11-.14 2.11.57 2.11-.11 2.11-.29 2.11.11 2.11.05 2.11-.63 2.11-.24 2.11.93 2.11-.15 2.11-.57 2.1-.17 2.11.91 2.11-.68 2.11.47 2.11-.19 2.11-.51 2.11.6 2.11.2 2.11-.59 2.11.57 2.11.12 2.11-.37 2.11-.1 2.11-.27 2.12.43 2.11.53 2.11-.33 2.11-.74 2.11.81 2.12-.86 2.11.24 2.11.58 2.12-.44 2.11.49 2.12-.14 2.11-.65 2.12.9 2.11-.82 2.12.86 2.11-.87 2.11.12 2.12.52 2.11-.52 2.11.2 2.12.15 2.11-.36 2.11-.08 2.11.65 2.11.28 2.12-.6 2.11-.15 2.11-.39 2.11.6 2.11.2 2.11-.21 2.11-.5 2.12.71 2.11-.06 2.11.4 2.11-.69 2.11-.22 2.11-.22 2.11.66 2.12-.22 2.11-.14 2.11-.18 2.11.33 2.12.43 2.11-.17 2.11.13 2.12-.53 2.11-.13 2.12.41 2.11-.29 2.12.73 2.12-.41 2.11-.48 2.12.58 2.11.13 2.11-.01 2.12-.21 2.11-.01 2.11.36 2.12-.29 2.11-.14 2.11.47 2.12-.59 2.11-.22 2.11.24 2.11.58 2.12L4 239.05l.21 2.11.77 2.11-.23 2.12-.48 2.11-.06 2.11.53 2.12.05 2.11.01 2.12-.47 2.11-.32 2.12.32 2.11-.03 2.12-.19 2.11.01 2.12.15 2.11.1 2.12.68 2.11-.03 2.12-.58 2.11.64 2.12-.97 2.11 1.03 2.11-.97 2.12.98 2.11-.38 2.11.1 2.12-.67 2.11.67 2.12-.17 2.11.01 2.11-.66 2.12.01 2.11.23 2.12-.22 2.12.75 2.11-.68 2.12.42 2.12.43 2.11-.95 2.11.07 2.12.33 2.12-.36 2.11.63 2.11-.51 2.12.8 2.11-.74 2.12.7 2.11-.12 2.12-.4 2.11.33 2.12-.18 2.11.3 2.12-.27 2.12-.13 2.11-.05 2.12.4 2.11-.29 2.12-.17 2.11-.35 2.12.64 2.11-.63 2.12.85 2.11-.53 2.12-.1 2.11.45 2.12-.31 2.12.11 2.11v2.12l-.14 2.12.69 2.11-.11 2.12-.91 2.11 1.09 2.12-.08 2.12.02 2.11-.27 2.12-.79 2.11.71 2.12-.47 2.11-.19 2.12.02 2.12.47 2.11-.02 2.12.19 2.11-.26 2.11.31 2.12-.49 2.11.72 2.11-.37 2.11-.23 2.11.04 2.11-.23 2.11.87 2.12-.04 2.11-.11 2.11-.51 2.12.04 2.12-.3 2.11.41 2.12.23 2.12-.32 2.11-.1 2.12.13 2.11.3 2.12-.68 2.11.54 2.11.29 2.12-.11 2.11.12 2.12-.34 2.11-.07 2.12-.47 2.12.16 2.12.11 2.11-.3 2.12.08 2.12.72 2.11.27 2.12-.35 2.11.34 2.12-.53 2.12.48 2.12-.45 2.11-.47 2.12.23 2.12.21 2.12.02 2.11-.5 2.12.97 2.12.05 2.12-.09 2.12-.31 2.11-.61 2.12.05 2.12.18 2.12-.34 2.12.03 2.12.26 2.12.09 2.12.19 2.12-.36 2.12.72 2.12-.25 2.12-.31 2.11-.17 2.12.01 2.12.43 2.11-.44 2.12.05 2.12-.1 2.12.39 2.12-.12 2.12-.24 2.11.03 2.13.02 2.12.09 2.12.81 2.12-.34 2.12-.32 2.12.53 2.13-.25 2.12-.36 2.12-.3 2.12.24 2.12.15 2.13.63 2.12-.33 2.13v1.93l1.92.66h2.11l2.12-.92 2.11.47 2.12-.18 2.12-.11 2.11.38 2.12.38 2.12-.49 2.11.41 2.12-.53 2.11-.44 2.12.91 2.12-.36 2.12.14 2.12.2 2.12-.29 2.11.14 2.12-.22 2.12-.26 2.12.64 2.12.24 2.11-.35 2.12-.63 2.12.78 2.12-.8 2.11-.1 2.12 1.09 2.12.02 2.12-.96 2.11.09 2.12.41 2.12-.56 2.12.63 2.11.02 2.12-.21 2.12.12 2.12.24 2.12-.66 2.12.32 2.12-.49 2.12.69 2.11.05 2.12-.85 2.12.37 2.12-.36 2.11 1.07 2.12-.43 2.12-.12 2.12-.12 2.12.7 2.12-1.11 2.12 1.02 2.12-.61 2.11-.37 2.12 1.09 2.12-.33 2.12.23 2.12-.7 2.12.33 2.12.27 2.12-.24 2.11-.24 2.12.39 2.12-.84 2.12.97 2.11-.79 2.12.33 2.11.29 2.12-.32 2.11.34 2.12-.07 2.11.2 2.11-.68 2.12-.27 2.11.04 2.12.79 2.12-.75 2.12 1.02 2.12-.75 2.11.09 2.12.4 2.12-.48 2.12.03 2.12.33 2.12.2 2.11-.92 2.12.94 2.11-.91 2.12.28 2.12.8 2.12-.42 2.12-.68 2.12.13 2.12.73 2.12-.25 2.12.16 2.12-.65 2.11.91 2.12.11 2.12-1.06 2.12.12 2.12.2 2.12.33 2.12-.04 2.12-.29 2.12-.02 2.12-.3 2.12.68 2.12.08 2.12-.61 2.13.37 2.12.39 2.12-.49 2.12-.27 2.12.05 2.12.51 2.12-.7 2.12-.07 2.12.13 2.13.76 2.12-.19 2.12.39 2.12-.08 2.12-1.04 2.13.09 2.12.38 2.12-.28 2.12-.05 2.12.15 2.12.68 2.12-.37 2.12.13 2.12.03 2.12.06 2.12-.77 2.13.31 2.12.63 2.12-.45 2.13.42 2.12-.74 2.13.36 2.12-.14 2.13.7 2.12-.78 2.12-.12 2.13.8 2.13-.47 2.13-.51 2.13.57 2.27.09.03-2.25.06-2.12-.51-2.11.68-2.12.17-2.11-.58-2.12-.3-2.11.39-2.11.49-2.12-.91-2.11.8-2.11-.44-2.11-.45-2.11.4-2.12.42-2.11-.59-2.11.41-2.11-.05-2.11-.14-2.11.22-2.11-.05-2.11.05-2.11-.35-2.11-.27-2.11.52-2.11-.71-2.11.79-2.11-.58-2.11.38-2.11-.52-2.11.95-2.11-.42-2.11-.37-2.11.18-2.11.11-2.1.3-2.11-.65-2.11.42-2.11.37-2.12-.37-2.11.05-2.11.08-2.11.06-2.11-.67-2.11.66-2.11-.61-2.11.06-2.11.85-2.12-.48-2.11-.52-2.11.04-2.12 1-2.11-.27-2.11.2-2.12.02-2.11-.57-2.12.24-2.11-.65-2.12.49-2.11.07-2.12-.07-2.11-.08-2.11-.12-2.12.03-2.11.7-2.11-.84-2.11.26-2.12-.2-2.11.12-2.11.09-2.11.11-2.11.08-2.11.07-2.11.25-2.12-.79-2.11.11-2.11.39-2.11-.18-2.11.26-2.11-.55-2.11.64-2.12-.92-2.11.41-2.11.44-2.11.15-2.11-.01-2.12.15-2.11-1.07-2.11.42-2.12.03-2.11-.25-2.12-.28-2.11.41-2.12-.25-2.11.51-2.12.47-2.11-.92-2.12.49-2.11-.18-2.12.48-2.11-.56-2.11-.35-2.12.62-2.11-.29-2.11v-2.12l.02-2.11-.32-2.11.43-2.11-.17-2.12.47-2.11.07-2.11-.71-2.11.9-2.12-.35-2.11.37-2.11-.98-2.12.58-2.11.41-2.11-1.16-2.12.15-2.11.59-2.12.37-2.11-.54-2.12-.36-2.12.6-2.11-.11-2.12.22-2.11-.57-2.12.23-2.11.13-2.12.07-2.11-.38-2.11.27-2.12-.11-2.11.19-2.11-.37-2.12.62-2.11-.6-2.11.66-2.12-.44-2.11.21-2.12-.37-2.11-.07-2.12.45-2.11-.07-2.12-.7-2.11.65-2.12.32-2.12-.66-2.11-.33-2.12.97-2.11-.2-2.12-.75-2.11.14-2.12.67-2.11-.55-2.11.65-2.12-.39-2.11.05-2.12-.25-2.11.34-2.12-.49-2.11v-2.12l.01-2.12-.16-2.11-.04-2.12.83-2.12-.74-2.11.52-2.12.28-2.11-.83-2.12 1.01-2.11-.58-2.12-.11-2.11.36-2.12.23-2.11-.11-2.12-.76-2.11.92-2.12-.81-2.12.83-2.12-.95-2.11.95-2.12.07-2.11-.23-2.12-.16-2.11-.13-2.12-.49-2.11.85-2.12.07-2.12.08-2.11-.92-2.12.43-2.12-.38-2.11-.04-2.11.42-2.12.24-2.11-.24-2.11-.05-2.11.02-2.11-.42-2.11.59-2.11-.6-2.12.84-2.11.13-2.11-.14-2.12-.27-2.11.18-2.12-.47-2.12.24-2.12-.17-2.11-.48-2.12.12-2.11.6-2.11.39-2.12-.82-2.11-.25-2.11.71-2.12-.41-2.11-.26-2.12.45-2.12-.33-2.12.49-2.11-.67-2.12.54-2.12-.2-2.11.48-2.12-.83-2.11.18-2.12-.08-2.12-.16-2.11.47-2.12.23-2.12.15-2.12-.15-2.12-.71-2.11.54-2.12.05-2.12.07-2.12.22-2.11.14-2.12-.95-2.12.92-2.12.01-2.12-.46-2.11v-2.13l-.13-2.11-.39-2.12.52-2.12.01-2.12.13-2.12-.37-2.12.04-2.12-.11-2.12.41-2.11-.35-2.12.8-2.12-1.01-2.12 1-2.11.07-2.12-.32-2.12-.55-2.12.58-2.12-.08-2.12.29-2.12-.44-2.12.31-2.12-.22-2.12.09-2.12-.63-2.13v-2.12l-.11-2.12.73-2.12.3-2.12-.4-2.12.1-2.13.35-2.12-.41-2.15-.55-1.72z"/><path class="cls-2" d="M324.2 4.98l-1.73.04-2.12-.76-2.11.85-2.12-.53-2.12.49-2.11-.19-2.12.04-2.11.24-2.12-.49-2.12.04-2.11-.23-2.12.24-2.12-.63-2.11.29-2.12.26-2.12-.53L288.6 4l-2.12.72-2.12-.67-2.12.07-2.11.26-2.12.02-2.12-.11-2.12-.21-2.11.49-2.12.26-2.12.33-2.11-.03-2.12-.92-2.12.15-2.12-.12-2.11-.16-2.12.38-2.12-.06-2.12.78-2.12-.8-2.12.29-2.12.45-2.12-.97-2.11.08-2.12.09-2.12.48-2.12.01-2.11-.06-2.12-.38-2.12-.31-2.12.11-2.12.11-2.12.5-2.11-.21-2.12-.23-2.12.77-2.12-.9-2.12.16-2.12.09-2.12.17-2.11-.11-2.12-.35-2.12-.08-2.12.24-2.12.4-2.12-.15-2.12-.3-2.12.78-2.12-.04-2.11-.12-2.12-.37-2.11-.26-2.12-.22-2.11.6-2.12-.42-2.11.68-2.11-.66-2.12.26-2.11.15h-2.12l-2.11.33-2.12-.96-2.12.4-2.12.05-2.12-.42-2.12.7-2.12.03-2.12-.75-2.11 1.05-2.12-.64-2.12.21-2.11-.4-2.12-.09-2.12.68-2.11-.82-2.12.33-2.12.78-2.12-.35-2.12-.74-2.12.3-2.12.76-2.12-.5-2.12-.09-2.12.6-2.12-.89-2.11-.05-2.12.88-2.13.06-2.12-.22-2.12-.76-2.12.41-2.12.2-2.12.28-2.12-.83-2.12-.17-2.12.5-2.12.09-2.12.28-2.12-.69-2.12.26-2.12-.03-2.13-.39-2.12.82-2.12.17-2.12-.83-2.12.76-2.12-.26-2.13-.63-2.12.98-2.12-.88-2.12.99-2.12-1-2.12.65-2.12.27-2.12-.14-2.12-.03-2.12.03-2.12-.79-2.13.17-2.12.82-2.12-.3-2.12-.57-2.13.33-2.12.17-2.13-.15-2.12-.39-2.13-.12-2.12.18-2.12.71-2.13-.06-2.12-.42-2.13.16-2.13-.4-2.13.39-2.5-.46.12 2.48.3 2.12-.53 2.11.18 2.11-.15 2.12 1.03 2.11-1.12 2.12.71 2.11-.37 2.11.3 2.12.01 2.11-.69 2.11.62 2.11.01 2.11.15 2.11-.13 2.12-.49 2.11.16 2.11.36 2.11-.14 2.11.57 2.11-.11 2.11-.29 2.11.11 2.11.05 2.11-.63 2.11-.24 2.11.93 2.11-.15 2.11-.57 2.1-.17 2.11.91 2.11-.68 2.11.47 2.11-.19 2.11-.51 2.11.6 2.11.2 2.11-.59 2.11.57 2.11.12 2.11-.37 2.11-.1 2.11-.27 2.12.43 2.11.53 2.11-.33 2.11-.74 2.11.81 2.12-.86 2.11.24 2.11.58 2.12-.44 2.11.49 2.12-.14 2.11-.65 2.12.9 2.11-.82 2.12.86 2.11-.87 2.11.12 2.12.52 2.11-.52 2.11.2 2.12.15 2.11-.36 2.11-.08 2.11.65 2.11.28 2.12-.6 2.11-.15 2.11-.39 2.11.6 2.11.2 2.11-.21 2.11-.5 2.12.71 2.11-.06 2.11.4 2.11-.69 2.11-.22 2.11-.22 2.11.66 2.12-.22 2.11-.14 2.11-.18 2.11.33 2.12.43 2.11-.17 2.11.13 2.12-.53 2.11-.13 2.12.41 2.11-.29 2.12.73 2.12-.41 2.11-.48 2.12.58 2.11.13 2.11-.01 2.12-.21 2.11-.01 2.11.36 2.12-.29 2.11-.14 2.11.47 2.12-.59 2.11-.22 2.11.24 2.11.58 2.12L4 239.05l.21 2.11.77 2.11-.23 2.12-.48 2.11-.06 2.11.53 2.12.05 2.11.01 2.12-.47 2.11-.32 2.12.32 2.11-.03 2.12-.19 2.11.01 2.12.15 2.11.1 2.12.68 2.11-.03 2.12-.58 2.11.64 2.12-.97 2.11 1.03 2.11-.97 2.12.98 2.11-.38 2.11.1 2.12-.67 2.11.67 2.12-.17 2.11.01 2.11-.66 2.12.01 2.11.23 2.12-.22 2.12.75 2.11-.68 2.12.42 2.12.43 2.11-.95 2.11.07 2.12.33 2.12-.36 2.11.63 2.11-.51 2.12.8 2.11-.74 2.12.7 2.11-.12 2.12-.4 2.11.33 2.12-.18 2.11.3 2.12-.27 2.12-.13 2.11-.05 2.12.4 2.11-.29 2.12-.17 2.11-.35 2.12.64 2.11-.63 2.12.85 2.11-.53 2.12-.1 2.11.45 2.12-.31 2.12.11 2.11v2.12l-.14 2.12.69 2.11-.11 2.12-.91 2.11 1.09 2.12-.08 2.12.02 2.11-.27 2.12-.79 2.11.71 2.12-.47 2.11-.19 2.12.02 2.12.47 2.11-.02 2.12.19 2.11-.26 2.11.31 2.12-.49 2.11.72 2.11-.37 2.11-.23 2.11.04 2.11-.23 2.11.87 2.12-.04 2.11-.11 2.11-.51 2.12.04 2.12-.3 2.11.41 2.12.23 2.12-.32 2.11-.1 2.12.13 2.11.3 2.12-.68 2.11.54 2.11.29 2.12-.11 2.11.12 2.12-.34 2.11-.07 2.12-.47 2.12.16 2.12.11 2.11-.3 2.12.08 2.12.72 2.11.27 2.12-.35 2.11.34 2.12-.53 2.12.48 2.12-.45 2.11-.47 2.12.23 2.12.21 2.12.02 2.11-.5 2.12.97 2.12.05 2.12-.09 2.12-.31 2.11-.61 2.12.05 2.12.18 2.12-.34 2.12.03 2.12.26 2.12.09 2.12.19 2.12-.36 2.12.72 2.12-.25 2.12-.31 2.11-.17 2.12.01 2.12.43 2.11-.44 2.12.05 2.12-.1 2.12.39 2.12-.12 2.12-.24 2.11.03 2.13.02 2.12.09 2.12.81 2.12-.34 2.12-.32 2.12.53 2.13-.25 2.12-.36 2.12-.3 2.12.24 2.12.15 2.13.63 2.12-.33 2.13v1.93l1.92.66h2.11l2.12-.92 2.11.47 2.12-.18 2.12-.11 2.11.38 2.12.38 2.12-.49 2.11.41 2.12-.53 2.11-.44 2.12.91 2.12-.36 2.12.14 2.12.2 2.12-.29 2.11.14 2.12-.22 2.12-.26 2.12.64 2.12.24 2.11-.35 2.12-.63 2.12.78 2.12-.8 2.11-.1 2.12 1.09 2.12.02 2.12-.96 2.11.09 2.12.41 2.12-.56 2.12.63 2.11.02 2.12-.21 2.12.12 2.12.24 2.12-.66 2.12.32 2.12-.49 2.12.69 2.11.05 2.12-.85 2.12.37 2.12-.36 2.11 1.07 2.12-.43 2.12-.12 2.12-.12 2.12.7 2.12-1.11 2.12 1.02 2.12-.61 2.11-.37 2.12 1.09 2.12-.33 2.12.23 2.12-.7 2.12.33 2.12.27 2.12-.24 2.11-.24 2.12.39 2.12-.84 2.12.97 2.11-.79 2.12.33 2.11.29 2.12-.32 2.11.34 2.12-.07 2.11.2 2.11-.68 2.12-.27 2.11.04 2.12.79 2.12-.75 2.12 1.02 2.12-.75 2.11.09 2.12.4 2.12-.48 2.12.03 2.12.33 2.12.2 2.11-.92 2.12.94 2.11-.91 2.12.28 2.12.8 2.12-.42 2.12-.68 2.12.13 2.12.73 2.12-.25 2.12.16 2.12-.65 2.11.91 2.12.11 2.12-1.06 2.12.12 2.12.2 2.12.33 2.12-.04 2.12-.29 2.12-.02 2.12-.3 2.12.68 2.12.08 2.12-.61 2.13.37 2.12.39 2.12-.49 2.12-.27 2.12.05 2.12.51 2.12-.7 2.12-.07 2.12.13 2.13.76 2.12-.19 2.12.39 2.12-.08 2.12-1.04 2.13.09 2.12.38 2.12-.28 2.12-.05 2.12.15 2.12.68 2.12-.37 2.12.13 2.12.03 2.12.06 2.12-.77 2.13.31 2.12.63 2.12-.45 2.13.42 2.12-.74 2.13.36 2.12-.14 2.13.7 2.12-.78 2.12-.12 2.13.8 2.13-.47 2.13-.51 2.13.57 2.27.09.03-2.25.06-2.12-.51-2.11.68-2.12.17-2.11-.58-2.12-.3-2.11.39-2.11.49-2.12-.91-2.11.8-2.11-.44-2.11-.45-2.11.4-2.12.42-2.11-.59-2.11.41-2.11-.05-2.11-.14-2.11.22-2.11-.05-2.11.05-2.11-.35-2.11-.27-2.11.52-2.11-.71-2.11.79-2.11-.58-2.11.38-2.11-.52-2.11.95-2.11-.42-2.11-.37-2.11.18-2.11.11-2.1.3-2.11-.65-2.11.42-2.11.37-2.12-.37-2.11.05-2.11.08-2.11.06-2.11-.67-2.11.66-2.11-.61-2.11.06-2.11.85-2.12-.48-2.11-.52-2.11.04-2.12 1-2.11-.27-2.11.2-2.12.02-2.11-.57-2.12.24-2.11-.65-2.12.49-2.11.07-2.12-.07-2.11-.08-2.11-.12-2.12.03-2.11.7-2.11-.84-2.11.26-2.12-.2-2.11.12-2.11.09-2.11.11-2.11.08-2.11.07-2.11.25-2.12-.79-2.11.11-2.11.39-2.11-.18-2.11.26-2.11-.55-2.11.64-2.12-.92-2.11.41-2.11.44-2.11.15-2.11-.01-2.12.15-2.11-1.07-2.11.42-2.12.03-2.11-.25-2.12-.28-2.11.41-2.12-.25-2.11.51-2.12.47-2.11-.92-2.12.49-2.11-.18-2.12.48-2.11-.56-2.11-.35-2.12.62-2.11-.29-2.11v-2.12l.02-2.11-.32-2.11.43-2.11-.17-2.12.47-2.11.07-2.11-.71-2.11.9-2.12-.35-2.11.37-2.11-.98-2.12.58-2.11.41-2.11-1.16-2.12.15-2.11.59-2.12.37-2.11-.54-2.12-.36-2.12.6-2.11-.11-2.12.22-2.11-.57-2.12.23-2.11.13-2.12.07-2.11-.38-2.11.27-2.12-.11-2.11.19-2.11-.37-2.12.62-2.11-.6-2.11.66-2.12-.44-2.11.21-2.12-.37-2.11-.07-2.12.45-2.11-.07-2.12-.7-2.11.65-2.12.32-2.12-.66-2.11-.33-2.12.97-2.11-.2-2.12-.75-2.11.14-2.12.67-2.11-.55-2.11.65-2.12-.39-2.11.05-2.12-.25-2.11.34-2.12-.49-2.11v-2.12l.01-2.12-.16-2.11-.04-2.12.83-2.12-.74-2.11.52-2.12.28-2.11-.83-2.12 1.01-2.11-.58-2.12-.11-2.11.36-2.12.23-2.11-.11-2.12-.76-2.11.92-2.12-.81-2.12.83-2.12-.95-2.11.95-2.12.07-2.11-.23-2.12-.16-2.11-.13-2.12-.49-2.11.85-2.12.07-2.12.08-2.11-.92-2.12.43-2.12-.38-2.11-.04-2.11.42-2.12.24-2.11-.24-2.11-.05-2.11.02-2.11-.42-2.11.59-2.11-.6-2.12.84-2.11.13-2.11-.14-2.12-.27-2.11.18-2.12-.47-2.12.24-2.12-.17-2.11-.48-2.12.12-2.11.6-2.11.39-2.12-.82-2.11-.25-2.11.71-2.12-.41-2.11-.26-2.12.45-2.12-.33-2.12.49-2.11-.67-2.12.54-2.12-.2-2.11.48-2.12-.83-2.11.18-2.12-.08-2.12-.16-2.11.47-2.12.23-2.12.15-2.12-.15-2.12-.71-2.11.54-2.12.05-2.12.07-2.12.22-2.11.14-2.12-.95-2.12.92-2.12.01-2.12-.46-2.11v-2.13l-.13-2.11-.39-2.12.52-2.12.01-2.12.13-2.12-.37-2.12.04-2.12-.11-2.12.41-2.11-.35-2.12.8-2.12-1.01-2.12 1-2.11.07-2.12-.32-2.12-.55-2.12.58-2.12-.08-2.12.29-2.12-.44-2.12.31-2.12-.22-2.12.09-2.12-.63-2.13v-2.12l-.11-2.12.73-2.12.3-2.12-.4-2.12.1-2.13.35-2.12-.41-2.15-.55-1.72z"/><path class="cls-2" d="M304.72 574.46l1.51 1.56 1.35 1.72 1.74 1.34 1.41 1.66 1.65 1.41 1.5 1.59 1.54 1.52 1.6 1.48 1.42 1.66 1.55 1.53 1.48 1.6 1.61 1.48 1.39 1.7M61.41 24.66l-2.16-.01-2.17-.11-2.16.12-2.16-.07-2.17.06-2.16-.02h-2.17l-2.16.04-2.17-.07-2.17.01-2.16-.04-2.16.04-2.17-.09-2.17.04-2.17.04-2.17-.08-2.23.01.08 2.16-.09 2.11v2.1l.04 2.1v2.1l-.01 2.1-.03 2.11.07 2.1.03 2.11.05 2.1-.01 2.11-.12 2.11.02 2.1-.02 2.1-.02 2.11.05 2.11-.01 2.11.11 2.11-.11 2.11"/></g></g></svg>