<svg xmlns="http://www.w3.org/2000/svg" viewBox="0 0 1458.43 75.11"><g id="Layer_2" data-name="Layer 2"><g id="レイヤー_1" data-name="レイヤー 1"><path d="M683.52 62.89l-1.28 1.77-1.71 1.36-1.76 1.25-1.9 1.06-2.04.78-2.06.78-2.22-.08-2.15.27-2.17.03-2.15-.42-2.15.17-1.97-.9-1.45-1.63-.5-2.08.06-2.09-.05-2.13 1.02-1.9.19-2.15 1.32-1.71.42-2.11 1.36-1.66.91-1.88.66-2.03.93-1.88 1.32-1.65 1.15-1.76 1.12-1.79.67-1.97.07-2.09-.61-1.95-1.08-1.68-1.61-1.16-1.63-1.23-1.96-.58-2.08-.13-2.13-.19-1.98.8-1.85.94-1.97.76-1.56 1.41-1.55 1.39-1.59 1.36-1.25 1.68-1.32 1.61-1.13 1.77-1.46 1.54-.87 1.92-1.26 1.7-.79 1.94-1.2 1.75-.38 2.14-.97 1.85-.99 1.86-.51 2.05-1.17 1.8-.37 2.08-.63 2-.9 1.89-.44 2.05-1.09 1.8 1.45-1.73.51-2.14.88-1.99.92-1.97.27-2.21.8-2.01.74-2.04.66-2.06.58-2.09.73-2.06.24-2.17.52-2.1.68-2.1.22-2.17-.28-2.18-.04-2.15-.28-2.13-.82-1.98-1.29-1.8-2.13-.57-2.07-.4-2.04.5-1.87.89-1.8.99-1.84.98-1.61 1.34-1.62 1.34-1.01 1.88-1.47 1.49-1.17 1.72-1.31 1.64-1.15 1.74-.81 1.94-1.09 1.77-1.06 1.8-1.18 1.74-.72 1.98-1.08 1.8-.35 2.14-.8 1.92-1.19 1.75-.74 1.96-.44 2.06-1.03 1.83-.65 1.93.97-1.95.86-2.02 1.07-1.95.56-2.15 1.15-1.96.42-2.19.44-2.18.49-2.17.38-2.15-.59-2.11-.57-2.01-1.07-1.85-1.72-1.3-1.86-1.12-2.1-.53-2.1-.52-2.07-.83-2.18-.15-2.17-.18-2.2.51-2.17-.15-2.18-.24-2.18.03-2.11.11-2.11-.05-2.11-.14-2.11.2-2.11.4-2.11-.47-2.11-.16-2.12.62-2.11-.2-2.11-.2-2.11-.22-2.11.38-2.11.12-2.11.09-2.11-.16-2.11-.12-2.11.2-2.12-.01-2.11-.34-2.11.54-2.11-.47-2.11.41-2.11-.5-2.11.58-2.12-.54-2.11.17-2.11-.12-2.12.39-2.11-.56-2.11.34-2.11.01-2.12-.18-2.11.23-2.11-.22-2.12-.03h-2.11l-2.11.01-2.12.25-2.11-.4-2.11.34-2.12-.23-2.11.03-2.12.15-2.1-.01-2.11.29-2.11-.54-2.11.43-2.1-.39-2.11.05-2.11.27-2.11-.21-2.11.07-2.11.02-2.11-.19-2.1.04-2.11.53-2.11-.1-2.11-.11-2.11-.28-2.11.05-2.11.35-2.11.06-2.11-.42-2.11-.1-2.11.43-2.11.07-2.11.01-2.11-.37-2.11.32-2.12.09-2.11-.57-2.11.42-2.11-.19-2.11.37-2.11-.51-2.12.07-2.11.33-2.11.04-2.11-.06-2.11-.16-2.12.07-2.11-.27-2.11.4-2.11-.01-2.12-.13-2.11-.15-2.11.35-2.11-.41-2.12-.11-2.11.53-2.11-.27-2.12-.27-2.11.33-2.11-.31-2.12.28-2.11.06-2.11-.02-2.11.11-2.11-.05-2.12-.16-2.11.11-2.11.17-2.11.03-2.11-.33-2.11-.03-2.11.24-2.11-.27-2.11.02-2.12.08-2.11.06-2.11-.02-2.11-.32-2.12.41-2.11-.01-2.11-.11-2.12-.34-2.11.01-2.11.6-2.12-.42-2.11-.1-2.12.3-2.11-.19-2.11.23-2.12.13-2.11.03-2.11-.18-2.12.12-2.11.03-2.11-.17-2.12-.21-2.11.03-2.12-.04-2.12.4-2.11-.45-2.12.3-2.11.18-2.12-.11-2.12-.31-2.11.32-2.12-.18-2.12-.38-2.12.41-2.11-.29-2.12.2-2.12.06-2.12-.1-2.12.35-2.12-.31-2.12.26-2.12.04-2.11-.16-2.12.11-2.12-.46-2.12.11-2.12-.19-2.11.48-2.12-.34-2.12.26-2.12.09-2.12-.52-2.11.47-2.12-.38-2.12.07-2.12-.12-2.12.47-2.12-.12-2.11.1-2.12-.08-2.12.13-2.12.05-2.12-.38-2.12.02-2.12-.03-2.12-.14-2.11.55-2.12-.32-2.12-.33-2.12.24-2.12.01-2.12-.04-2.12.02-2.12.13-2.11.07-2.12.19-2.12-.36-2.12.31-2.12.01-2.12-.03-2.12-.3-2.12.08-2.12.04-2.11.03-2.12-.04-2.12-.03-2.12.16-2.12.11-2.12-.17-2.12.03-2.12-.45-2.11.13-2.12.16-2.12-.18-2.12.31-2.12-.25-2.12.39-2.12-.22-2.11.16-2.12-.34-2.12.12-2.12-.32-2.11.1-2.12.25-2.12.28-2.12-.64-2.11.19-2.12-.04-2.12.22-2.12-.07-2.11-.1-2.12.39-2.12-.49-2.11.26-2.12.13-2.12-.18-2.11-.03-2.12-.18-2.11-.05-2.12.39-2.11-.39-2.12.14-2.12.36-2.11-.06-2.11-.29-2.12.14-2.11-.09-2.12.1-2.11-.32-2.11.12-2.12-.2-2.11.29-2.11-.15-2.11.17-2.12.07-2.11.26-2.11-.4-2.12.19-2.11-.36-2.12-.09-2.11.43-2.11-.3-2.12.18-2.11.05-2.12.1-2.11-.29-2.11.03-2.12.3-2.11-.25-2.11.07-2.11.02-2.12-.3-2.11.52-2.11-.42-2.12.43-2.12-.23-2.11.11-2.11.04-2.11-.42h-2.11l-2.11.32-2.11.08-2.11-.37-2.11.27-2.11.24-2.11-.46-1.99.07m717.36-8.34l-2.18.03-2.13-.38-2.16.02-2.16-.33-2.15.36-2.19-.16-2.14.38-2.17.28-2.1.62-2.09.62-1.92 1.07-2.04.78-1.54 1.62-2.11.8-1.54 1.56-1.12 1.89-1.17 1.79-1.21 1.77-1.15 1.86-.3 2.18-.66 2.05-.92 2.01.45 2.19-.47 2.12.18 2.15.53 2.09.55 2.1 1.45 1.65 1.31 1.67 1.53 1.54 1.98.93 2.2-.2 2.1.51 2.18-.12 2.06-.71 1.86-1.12 1.58-1.48 1.63-1.33 1.82-1.15 1.42-1.59 1.26-1.71 1.53-1.5 1.4-1.63 1.06-1.85.79-2.02 1.3-1.7.99-1.9.99-1.78-1.42 1.6-.72 2.06-.93 1.96-.32 2.19-.98 1.95-.92 2 .12 2.24-.45 2.13.21 2.2 1.2 1.81 1.68 1.44 2.2.32 2.21-.07 2.14-.42 2.07-.71 1.96-.95 2.1-.54 1.75-1.3 1.83-1.1 2.02-.88 1.4-1.68 1.91-1.14 1.51-1.57.98-1.99 1.13-1.84 1.64-1.51.8-2.04.73-2.06 1.28-1.77 1.02-1.9 1.1-1.88.44-2.16.83-2 .54-2.11 1-1.93 1.09-1.92.33-2.2-.87 1.99-.63 2.05-1.03 1.92.03 2.27-.69 2.02-.81 2-.94 1.97-.21 2.17-.16 2.16-.92 2.01.1 2.19-.77 2.07.45 2.19-.54 2.15.78 2.07.54 2.01.94 1.83 1.47 1.6 2.15.53 2.15-.38 2.01-.7 2.05-.59 1.92-.92 1.62-1.42 1.77-1.16 1.69-1.27 2.1-.75 1.33-1.74 1.57-1.44 1.59-1.39 1.52-1.48 1.79-1.2 1.73-1.27 1.27-1.75 1.43-1.57 1.51-1.5 1.36-1.63 1.34-1.65 1.7-1.34 1.13-1.84 1.7-1.35 1.37-1.63 1.12-1.83 1.04-1.88 1.59-1.47 1.26-1.72.96-1.92 1.35-1.65 1.34-1.67.78-2.03.89-1.93 1.21-1.75 1.44-1.66.49-2.12 1.23-1.81.04-2.22.85-1.99.11-2.2-1-1.99-1.65-1.49-2.19-.32-2.1.32-2.04.69-1.76 1.23-1.41 1.64-1.64 1.35-1.71 1.33-1.15 1.83-1.01 1.91-1.25 1.72-1.19 1.77-1.22 1.75-.95 1.91-1.18 1.79-.92 1.92-1.09 1.86-.82 1.97-.73 2.02-.74 2-.45 2.11-1.11 1.89-.47 2.09-.5 2.08-.77 2.04.26 2.21-.22 2.11-.16 2.12-.21 2.13.03 2.14.76 2.03.06 2.21 1.42 1.68.67 2.13 1.92 1.1 1.5 1.61 2.05.74 2.19.04 2.1.14 2.07.55 2.12.25 2.12.2 2.14-.11 2.1-.38 2.07-.53 2.07-.43 2-.68 2.14-.24 1.97-.78 1.89-.97 2.05-.68 1.61-1.43 1.6-1.38 1.83-1.11 1.31-1.69 1.29-1.66 1.3-1.68.74-1.98.67-2 .16-2.1.01-2.21-1.62-1.51-1.82-1.25-2.18-.22-2.19-.34-2.03.98-2.06.5-2 .79-1.5 1.55-1.79 1.27-.71 2.07-.56 2.02-.63 2.08.08 2.16.23 2.12-.25 2.27 1.22 1.87 1.21 1.81 1.54 1.58 2.17.55 1.97.8 2.09.49 2.14.23 2.16.02 2.17.09 2.12-.52 2.15-.2 2.2-.03 2.12-.49 2-.93 2.11-.52 2.12-.5 1.98-.63 2.08-.42 1.79-1.13 1.98-.69 1.7-1.23 1.6-1.34 1.64-1.25 1.78-1.12 1.55-1.4 1.6-1.36 1-1.91 1.58-1.38 1.36-1.57 1.61-1.33 1.58-1.32 1.44-1.53 1.81-1.04 1.88-.9 2-.58 1.85-.95 2.04-.38 1.87-1.12 2.04-.47 2.18.29 2.11-.15 2.1-.45 2.12.31 2.11-.12 2.11-.17 2.11-.15 2.12.23 2.11-.27 2.12.53 2.11-.23 2.12-.13h2.11l2.11.11 2.11-.54 2.11.1 2.12.21 2.11-.12 2.12.14 2.11-.23h2.11l2.12.53 2.11-.12 2.12.03 2.11-.69 2.11.14 2.12.29 2.11.03 2.12-.1 2.11.07 2.12.16 2.11-.22 2.12-.45 2.12.54 2.11.18 2.11-.71 2.12.24 2.12.22 2.11.25 2.12-.43 2.11-.13 2.12-.11 2.12.18 2.11.14 2.1-.23 2.11.01 2.11.39 2.11-.61 2.11.52 2.11-.46 2.11.56 2.12-.64 2.11.61 2.11-.2 2.11.13 2.11-.44 2.11.64 2.11-.39h2.11l2.12.2 2.11-.27 2.11.26 2.11.03h2.12l2.11-.01 2.11-.28 2.11.44 2.12-.37 2.11.26 2.11-.04 2.12-.17 2.11.02 2.11-.33 2.12.61 2.11-.48 2.12.44 2.11-.05 2.11-.31 2.12.24 2.11-.08 2.12-.02 2.11.21 2.12-.04 2.11-.59 2.11.11 2.12.13 2.11.31 2.12-.06 2.11-.39 2.12-.06 2.12.48 2.11.11 2.12-.49 2.11-.07 2.12-.01 2.11.42 2.12-.36 2.11-.09 2.11.63 2.12-.47 2.11.22 2.11-.41 2.11.57 2.12-.07 2.11-.38 2.11-.04 2.12.07 2.11.19 2.12-.08 2.11.31 2.12-.45 2.11.01 2.12.16 2.11.17 2.12-.4 2.11.48 2.12.12 2.11-.6 2.12.31 2.11.31 2.12-.37 2.12.35 2.11-.31 2.12-.06 2.11.02 2.12-.12 2.11.06 2.12.18 2.12-.12 2.12-.19 2.11-.03 2.12.39 2.12.03 2.11-.26 2.12.3 2.12-.02 2.12-.08 2.12-.07 2.12.03 2.12.36 2.12-.46 2.12.02 2.12.12 2.12.4 2.12-.01 2.12-.67 2.12.46 2.12.13 2.13-.34 2.12.22 2.12-.26 2.12-.13 2.12-.03 2.12.2 2.12-.13 2.12-.03 2.12.2 2.12.23 2.11-.02 2.13.05 2.12-.45 2.12.52 2.12-.34 2.12-.2 2.12.13 2.12.35 2.12-.36 2.12.21 2.12.44 2.12-.46 2.12.34 2.12-.23 2.12-.06 2.12.11 2.13-.39 2.12.36 2.12-.29 2.12-.04 2.12.18 2.12-.12 2.12.53 2.12-.12 2.12.22 2.12-.54 2.12.39 2.12-.29 2.13-.09 2.12.59 2.12-.53 2.12.44 2.12-.08 2.12.14 2.12-.52 2.12.14 2.12-.11 2.12.1 2.13-.15 2.12-.05 2.12.44 2.12-.02 2.12.04 2.12.17 2.12-.63 2.12.38 2.12.38 2.12-.27 2.12-.01 2.12.06 2.12-.02 2.12-.15 2.12-.07 2.12-.21 2.12.42 2.12-.36h2.12l2.12.04 2.11.34 2.12-.07 2.12-.05 2.12-.03 2.12.06 2.12.04 2.12-.18 2.12-.12 2.11.2 2.12-.03 2.12.51 2.12-.13 2.11-.18 2.12.21 2.12-.35 2.11.29 2.12-.43 2.12.25 2.11-.17 2.12.39 2.11-.14 2.12.38 2.11-.11 2.12-.28 2.11-.31 2.11.73 2.12-.2 2.12.04 2.11-.23 2.12.08 2.11.12 2.12-.44 2.12.56 2.11-.29 2.12-.13 2.12.2 2.11.05 2.12.21 2.11.05 2.12-.43 2.11.45 2.11-.15 2.12-.4 2.12.07 2.11.33 2.12-.15 2.12.11 2.11-.1 2.12.36 2.11-.13 2.11.24 2.12-.33 2.11.18 2.11-.18 2.11-.07 2.11-.29 2.11.46 2.23-.09" fill="none" stroke="#fff" stroke-linecap="round" stroke-linejoin="round" stroke-width="10"/><path d="M756.83 6.21c-.55 0-1 .43-1.51.57a6.44 6.44 0 00-1.56.32 6.61 6.61 0 00-1.36.9 6.34 6.34 0 00-1 1.3 6.48 6.48 0 00-.62 1.51 6.69 6.69 0 00-.06 1.62A6.18 6.18 0 00751 14a6.34 6.34 0 00.52 1.5 6.61 6.61 0 001 1.26 6.42 6.42 0 001.19 1.08 6.76 6.76 0 001.49.7 6.69 6.69 0 001.63.15 6.2 6.2 0 001.62-.19 6.58 6.58 0 001.44-.75 6.61 6.61 0 001.22-1 6.24 6.24 0 00.94-1.27 6.12 6.12 0 00.72-1.42 6.43 6.43 0 00.08-1.59 6.75 6.75 0 000-1.62 6.73 6.73 0 00-.73-1.44A6.19 6.19 0 00761 8.2a6.1 6.1 0 00-1.13-1.14 6.39 6.39 0 00-1.55-.37 5.92 5.92 0 00-1.49-.48z" fill="#fff"/></g></g></svg>