<svg version="1.1" id="Layer_1" xmlns="http://www.w3.org/2000/svg" x="0" y="0" viewBox="0 0 182.5 34.4" xml:space="preserve"><g id="Layer_2_00000116917749561623322820000004516242813054757262_"><path d="M2.1 13.3c-5.3 9 .9 21.1 2.9 21.1 36.6.1 148.6 0 175.4 0 6.7 0-4.4-6.4-8.3-6.6-9.5-.5-18.1 4.3-26.9-1.4-6.1-4-6.9-8.2-12.2-13.2-2.9-2.7-8.1-3.7-11-3-3.2.8-6.1 2.5-8.5 4.8-1.1 1.3-2.2 2.7-3.9 3.2s-3.5-.4-4.9-1.5c-5.4-4-9.7-9-15.2-12.7-9.1-6.3-18.1-4.4-27.5.3-3.5 1.8-7 6.4-11 6.6-3.5.2-6.2-2.8-8.8-5.2C38.3 2.3 33.4.3 28.3 0 19.1-.5 8 3.2 2.1 13.3z" fill="#fffeff" id="レイヤー_1"/></g></svg>