<svg version="1.1" id="Layer_1" xmlns="http://www.w3.org/2000/svg" x="0" y="0" viewBox="0 0 168.9 35.3" xml:space="preserve"><g id="Layer_2_00000070090709547187701660000015895015819609076895_"><path d="M94.6 18.8c20.3.1 58.3 0 73.2 0 3.7 0-2.5-3.5-4.6-3.7-5.3-.3-10 2.4-14.9-.8-3.4-2.2-3.8-4.5-6.8-7.3-1.7-1.4-3.9-2-6.1-1.6-1.8.4-3.4 1.4-4.7 2.7-.5.8-1.3 1.4-2.1 1.8-1 .2-2-.1-2.7-.8-2.9-2.2-5.9-4.6-8.9-6.7-5.1-3.5-10.7-2.9-15.8-.2-10.6 5.5-7.7 16.6-6.6 16.6zM1.1 23.9c-2.9 4.9.5 11.4 1.5 11.4 19.7.1 79.9 0 94.3 0 3.5 0-2.4-3.4-4.5-3.5-5.1-.3-9.7 2.3-14.5-.8-3.3-2.1-3.7-4.4-6.6-7.1-1.6-1.4-3.8-1.9-5.9-1.6-1.7.4-3.3 1.3-4.6 2.6-.5.8-1.2 1.4-2.1 1.7-1 .2-1.9-.1-2.7-.8-2.7-2.2-5.1-4.9-8-6.9-4.9-3.4-9.8-2.4-14.8.2-1.9 1-3.8 3.4-5.9 3.5-1.9.1-3.3-1.5-4.7-2.8-2.1-1.8-4.7-2.9-7.5-3-4.7-.2-10.7 1.7-14 7.1z" fill="#fffeff" id="レイヤー_1"/></g></svg>