<svg xmlns="http://www.w3.org/2000/svg" viewBox="0 0 182.47 34.49"><g id="Layer_2" data-name="Layer 2"><g id="Layer_1-2" data-name="Layer 1"><g id="Layer_2-2" data-name="Layer 2"><path d="M2.12 13.29C-3.22 22.31 3 34.42 5 34.42c36.6.13 148.64 0 175.39 0 6.69 0-4.42-6.39-8.31-6.59-9.54-.49-18.06 4.33-26.92-1.4-6.12-4-6.91-8.16-12.25-13.16-2.86-2.74-8.05-3.67-11-3a18.57 18.57 0 00-8.5 4.78c-1.13 1.28-2.17 2.75-3.89 3.21s-3.54-.37-4.94-1.48C99.4 12.72 95 7.72 89.57 4 80.43-2.28 71.43-.39 62 4.31c-3.49 1.77-7 6.41-11 6.59-3.51.16-6.21-2.85-8.83-5.18A23 23 0 0028.31.07C19.17-.48 8.07 3.16 2.12 13.29z" fill="#fffeff" id="レイヤー_1" data-name="レイヤー 1"/></g></g></g></svg>