<svg xmlns="http://www.w3.org/2000/svg" viewBox="0 0 43.35 28"><g id="Layer_2" data-name="Layer 2"><path d="M4.68 0a4.67 4.67 0 00-3.3 8l5.25 5.25a1.1 1.1 0 010 1.56L1.38 20a4.67 4.67 0 003.3 8A4.67 4.67 0 008 26.63l11.83-11.85a1.1 1.1 0 000-1.56L8 1.37A4.67 4.67 0 004.68 0zm23.2 0a4.67 4.67 0 00-3.3 8l5.25 5.25a1.1 1.1 0 010 1.56L24.58 20a4.67 4.67 0 003.3 8 4.67 4.67 0 003.3-1.37L43 14.78a1.1 1.1 0 000-1.56L31.18 1.37A4.67 4.67 0 0027.88 0z" fill="#eb6e50" id="レイヤー_1" data-name="レイヤー 1"/></g></svg>