<svg xmlns="http://www.w3.org/2000/svg" viewBox="0 0 77.67 74"><defs><style>.cls-1{fill:#ffdc64}</style></defs><g id="Layer_2" data-name="Layer 2"><g id="レイヤー_1" data-name="レイヤー 1"><path class="cls-1" d="M0 66.87h77.67V74H0z"/><path d="M27.15 18.41s7.08 1.41 16.29-7.79a85.24 85.24 0 007.08 8.49v8.5a16.29 16.29 0 10-23.37 0zm22.61 18.78c-1.15.63-10.92 22.09-10.92 22.09s-9.78-21.46-10.92-22.09c-11 4-11.5 12.87-11.5 26.83h44.83c0-13.96-.49-22.86-11.49-26.83z" fill="#fff"/><path class="cls-1" d="M33.96 36.23v6.5l4.88-1.65 4.87 1.65v-6.5l-4.87 1.66-4.88-1.66z"/></g></g></svg>