<svg xmlns="http://www.w3.org/2000/svg" viewBox="0 0 74.52 80"><defs><style>.cls-1{fill:#f7d666}.cls-2{fill:#ffdc64}</style></defs><g id="Layer_2" data-name="Layer 2"><g id="レイヤー_1" data-name="レイヤー 1"><path class="cls-1" d="M41.59 12.11a6.07 6.07 0 116.6-5.48 6.07 6.07 0 01-6.6 5.48z"/><path class="cls-2" d="M19.68 60.66a2.75 2.75 0 01-3.8-.21l-.07-.08a2.73 2.73 0 01.08-3.8l7-7.82L25.5 40a6.25 6.25 0 00.38.61A7.8 7.8 0 0031.6 44l1.07.07L30 50.61a12.77 12.77 0 01-2.36 2.87z"/><path class="cls-1" d="M43.86 55a2.79 2.79 0 003.34-2L51 40.13a4.3 4.3 0 00-3.74-5.48L39.64 34l3.14-9 4.57 3a3.87 3.87 0 003.37 0l8.59-4a2.29 2.29 0 001.16-1.3 2.24 2.24 0 00-.11-1.74l-.07-.15a2.26 2.26 0 00-2.95-1.07l-7.12 2.56-11-8.42a8.86 8.86 0 00-8.37-1.31L23 15.35a3.7 3.7 0 00-2.09 1.36L16.06 23a2.06 2.06 0 00-.38.79l-.3-.08a1.24 1.24 0 00-1.49.9l-.4 1.63-2.86-.7a1.24 1.24 0 00-1.52.92l-1.93 7.82a1.26 1.26 0 00.92 1.53l12.14 3a1.26 1.26 0 001.52-.92l1.93-7.81a1.27 1.27 0 00-.93-1.53l-2.85-.71.4-1.62a1.23 1.23 0 00-.26-1.06L25 20.41l6.16-.34-3.63 13.08-.43 1.46a5.45 5.45 0 004.85 7l11.47.8-1.74 9.33a2.79 2.79 0 002.08 3.21zM15.75 25a2.2 2.2 0 00.7 1h.05a2.09 2.09 0 002.64 0l-.39 1.58-4.11-1 .4-1.62h.06z"/><path d="M39.87 60.61l4.22-2.55V80H30.42V56.89l1.61-.86 7.84 4.58zM27.81 80H14.13V65.53l13.68-7.26V80zM11.52 66.92V80H0v-6.97l11.52-6.11zM60.38 80H46.71V56.48l13.67-8.25V80z" fill="#fff"/><path class="cls-2" d="M74.52 80H63V46.65l11.52-6.96V80z"/></g></g></svg>