<svg xmlns="http://www.w3.org/2000/svg" viewBox="0 0 100 100"><g id="Layer_2" data-name="Layer 2"><g id="レイヤー_1" data-name="レイヤー 1"><path d="M85.35 14.64A50 50 0 10100 50a49.86 49.86 0 00-14.65-35.36zM78 22a39.62 39.62 0 11-28-11.63A39.47 39.47 0 0178 22z" fill="#ffdc64"/><path d="M47.41 64.32a5 5 0 105 5 5 5 0 00-5-5zM36 34l3.42 2.74a1.87 1.87 0 002.37-.05 4.63 4.63 0 011.73-1.51 11 11 0 015.61-1.36 8.48 8.48 0 015.52 2 6.23 6.23 0 011.46 1.78 3.2 3.2 0 01.43 1.4 6.18 6.18 0 01-.63 2.9 5.87 5.87 0 01-1.12 1.5 12.6 12.6 0 01-2.72 2c-1.07.6-2.23 1.13-3.39 1.77a10.53 10.53 0 00-3.78 3.39 9.11 9.11 0 00-1.19 2.63 11.17 11.17 0 00-.37 3v2a1.84 1.84 0 001.84 1.85h4.46a1.84 1.84 0 001.84-1.85v-2a3.1 3.1 0 01.09-.8.92.92 0 01.24-.45 3.07 3.07 0 01.82-.6c.67-.38 1.75-.88 3-1.54a19.82 19.82 0 005.9-4.58 13.55 13.55 0 002.32-4 14.63 14.63 0 00.83-5.22 11.38 11.38 0 00-1.34-5.26 14.86 14.86 0 00-5.65-5.81 16.84 16.84 0 00-8.55-2.31 19.25 19.25 0 00-9.65 2.43A10.68 10.68 0 0036 31.12a1.83 1.83 0 00-.64 1.43A1.85 1.85 0 0036 34z" fill="#fff"/></g></g></svg>