<svg xmlns="http://www.w3.org/2000/svg" viewBox="0 0 98.54 100"><g id="Layer_2" data-name="Layer 2"><g id="レイヤー_1" data-name="レイヤー 1"><path d="M41.26 49.12V78.7H31c0 4.54 3.41 8.22 7.62 8.22h54.6c.07 0-.06 0 0 0v-37.8A2.19 2.19 0 0091 46.93H43.45a2.19 2.19 0 00-2.19 2.19zM74 52.69c0 2.65-2.36 5.3-5 4.72 0 0 .32-4.72 5-4.72zm-9.1 6c1.85-.59 3.88.2 4.23 1.29.37-1.08 2.42-1.83 4.25-1.19A5.27 5.27 0 0175.34 60a5.22 5.22 0 00.25 9.58 8 8 0 01-14.5-4.81 5.78 5.78 0 013.84-6.04z" fill="#fff"/><path d="M38.91 29.7a14.85 14.85 0 10-14.85-14.85A14.85 14.85 0 0038.91 29.7zM0 90.94h98.54V100H0zm19.56-13.12l.24 9.1h11.12a11.49 11.49 0 01-3.41-8.22v-3h10.23V49.12A5.21 5.21 0 0143 43.91h26c-8.12-6.81-21.18-7.3-28.38-7.3-10.54 0-29.73 1-31.47 21.42L6.64 86.92h10.81z" fill="#ffdc64"/></g></g></svg>