<svg xmlns="http://www.w3.org/2000/svg" viewBox="0 0 333.94 3109.95"><g id="Layer_2" data-name="Layer 2"><path fill="none" stroke="#fff" stroke-linecap="round" stroke-linejoin="round" stroke-width="8" d="M102.91 4l-1.49 1.49L99.8 6.8l-1.66 1.28-1.71 1.2-1.63 1.3-1.49 1.46-1.7 1.22-1.65 1.29-1.42 1.55-1.77 1.15-1.64 1.32-1.45 1.51-1.31 1.66-1.88 1.07-1.4 1.57-1.15 1.8-1.49 1.46-1.56 1.43-1.34 1.61-1.02 1.85-1.14 1.75-1.02 1.82-1.09 1.81-.73 2.01.09 2.15.69 2.02 1.39 1.65 1.81 1.13 2.02.68 2.12.15 1.94-.78 1.73-1.01 1.62-1.31.67-1.98 1.01-1.89-.5-2.09.05-2.14-1.36-1.65-1.1-1.73-1.61-1.3-1.62-1.36-2.06-.48-1.98-.64-2.05-.38-2.05-.55-2.17.1-2.07.54-2.06.54-1.83 1.14-2.07.57-1.77 1.17-1.72 1.24-2.07.68-1.76 1.19-1.64 1.34-1.82 1.1-1.49 1.54-1.83 1.1-1.36 1.67-1.86 1.08-1.34 1.68-1.6 1.38-1.68 1.3-1.39 1.6-1.55 1.44-1.35 1.63-1.54 1.46-1.46 1.53-1.41 1.58-1.2 1.75-1.45 1.54-1.38 1.61-1.43 1.58-.98 1.9-1.5 1.54-.82 2-1.39 1.62-1.18 1.76-.89 1.93-1.2 1.75-.98 1.88-.98 1.87-1.02 1.86-.58 2.07-.91 1.9-1.26 1.77-.24 2.18-.76 1.96-.66 2.01-.76 1.97-.96 1.93-.15 2.15-.68 2.02-.49 2.07-.3 2.1-.01 2.13-.19 2.11v2.12L4 114.2l.21 2.11-.14 2.13.58 2.07.09 2.12.25 2.1.46 2.07.41 2.08 1.05 1.89.65 2 .71 1.99.58 2.04.93 1.91.84 1.95 1.23 1.74 1.22 1.73 1.02 1.86 1.19 1.75 1.34 1.64 1.45 1.55 1.11 1.83 1.64 1.37 1.58 1.42 1.46 1.52 1.59 1.39 1.46 1.54 1.59 1.39 1.49 1.52 1.73 1.23 1.74 1.22 1.63 1.36 1.78 1.16 1.97.85 1.86 1.01 1.71 1.26 1.92.91 1.7 1.29 1.98.79 1.79 1.14 1.79 1.14 1.96.82 1.95.84 1.9.92 1.78 1.17 2.13.49 1.91.92 1.87.98 1.82 1.1 1.75 1.23 1.91.92 1.93.87 1.81 1.12 1.9.94 1.95.84 1.91.91 1.93.88 1.79 1.13 2.06.62 1.82 1.09 1.81 1.11 1.84 1.05 1.88.97 1.98.77 1.77 1.19 1.89.95 1.85 1.03 1.97.8 1.84 1.04 1.82 1.1 1.88.98 1.88.98 1.89.96 2.07.62 1.78 1.16 1.78 1.15 2 .75 1.79 1.13 1.78 1.17 1.78 1.15 1.91.9 1.9.95 2.02.73 1.77 1.17 1.88.99 1.66 1.37 1.85 1.04 2.09.61 1.73 1.25 1.89.97 1.88.99 1.74 1.22 1.75 1.23 1.97.83 1.73 1.25 1.98.82 1.95.87 1.59 1.49 1.93.91 1.79 1.14 1.78 1.18 1.9.95 1.78 1.16 1.88 1 1.89.99 1.63 1.39 1.75 1.22 1.9.97 1.98.84 1.58 1.48 2.01.78 1.82 1.1 1.48 1.64 1.77 1.16 2.05.74 1.74 1.22 1.64 1.36 1.92.95 1.57 1.47 1.73 1.22 1.8 1.12 1.69 1.29 1.64 1.34 1.92.98 1.59 1.41 1.85 1.08 1.45 1.59 1.64 1.35 1.92.99 1.5 1.52 1.73 1.25 1.2 1.83 1.7 1.29 1.55 1.45 1.52 1.48 1.13 1.82 1.8 1.27.82 2.03 1.38 1.63 1.1 1.84.07 2.17.46 2.03-.06 2.07.13 2.11-.79 1.95-1.12 1.73-1.25 1.65-1.55 1.4-1.89.9-1.71 1.28-2.14.27-1.87 1.02-2.06.38-2.06.35-2 .62-2.08.28-2.03.48-2.07.36-1.95.84-1.98.67-2 .57-2.11.28-1.79 1.15-2.12.42-1.61 1.4-1.71 1.17-1.69 1.26-1.15 1.76-1.11 1.75-1.01 1.84-.69 1.98.12 2.14-.65 2.04.51 2.08.03 2.08-.12 2.13.62 2.02.84 1.95.5 2.02.19 2.14.61 2.02.3 2.08.66 2.03-.23 2.15.13 2.1.68 2.06.01 2.12-.08 2.11-.2 2.1-.04 2.11.06 2.11-.13 2.1-.01 2.12-.55 2.07-.26 2.09.08 2.13-.45 2.07-.48 2.06-.04 2.13-.17 2.1-.34 2.08-.58 2.04.03 2.14-.29 2.09-.4 2.07-.72 2.02-.21 2.1-.51 2.06-.25 2.09.25 2.16-.33 2.08-.49 2.07-.15 2.11-.27 2.09-.38 2.08-.66 2.03-.12 2.12-.38 2.08-.33 2.08-.35 2.08.08 2.15-.49 2.06-.65 2.03-.1 2.12-.55 2.05.05 2.15-.52 2.05-.27 2.09-.71 2.03.06 2.15-.28 2.09-.76 2.01-.11 2.12-.09 2.13-.65 2.03-.43 2.06-.35 2.08-.39 2.08-.1 2.12-.71 2.02-.45 2.06-.07 2.14-.21 2.1-.57 2.04-.62 2.04.1 2.16-.78 2-.15 2.12-.14 2.12-.58 2.04-.59 2.04-.07 2.13-.59 2.04-.34 2.08-.3 2.09-.49 2.05-.36 2.08-.4 2.08-.19 2.1-.24 2.11-.64 2.04.01 2.16-.76 2.03-.04 2.15-.53 2.08-.06 2.14-.81 2.03-.1 2.14-.11 2.14-.4 2.09-.36 2.1-.45 2.09.05 2.16-.5 2.08-.48 2.08-.09 2.14-.3 2.11-.32 2.11-.3 2.1.08 2.16-.61 2.06.05 2.15-.3 2.11-.7 2.06-.02 2.14.02 2.15-.28 2.11-.78 2.05-.11 2.13-.36 2.1-.27 2.11.05 2.15-.38 2.1.09 2.16-.51 2.08-.29 2.12-.21 2.12-.21 2.12-.19 2.13-.26 2.12-.62 2.08.19 2.17-.38 2.1-.15 2.14-.32 2.11-.29 2.12-.31 2.11-.3 2.12-.28 2.11-.39 2.11.16 2.17-.31 2.11-.46 2.1-.17 2.13-.39 2.1.03 2.15-.6 2.07.22 2.18-.48 2.08-.5 2.09-.35 2.1-.27 2.12-.35 2.1.28 2.19-.5 2.08-.3 2.11-.16 2.13-.15 2.13-.51 2.08-.18 2.12-.58 2.07-.57 2.06.15 2.18-.58 2.02-.26 2.08-.61 2.02-.08 2.11-.21 2.09-.71 1.99-.26 2.08-.41 2.05-.42 2.04-.25 2.08-.64 2.01-.31 2.06-.64 2-.42 2.05v2.12l-.82 1.98-.14 2.09-.51 2.03.22 2.14-.57 2.03-.46 2.05.37 2.14-.29 2.08-.52 2.04-.44 2.05.02 2.1-.09 2.09-.6 2.03-.24 2.08-.39 2.05v2.1l-.39 2.05-.32 2.06-.27 2.07v2.09l-.31 2.07-.07 2.08-.17 2.08.17 2.09-.28 2.09.42 2.07-.18 2.1.48 2.05.22 2.08.61 2 .53 2.01.36 2.07.7 1.97 1.1 1.8.53 2.06.77 1.96 1.31 1.69 1.22 1.71.71 2.03 1.3 1.66 1.59 1.43 1.26 1.67 1.11 1.82 1.64 1.34 1.22 1.75 1.64 1.32 1.51 1.46 1.64 1.32 1.46 1.51 1.76 1.18 1.61 1.34 1.61 1.34 1.67 1.26 1.64 1.31 1.35 1.67 1.87 1.03 1.45 1.55 1.51 1.46 1.88 1.04 1.22 1.79 1.76 1.18 1.57 1.4 1.36 1.6 1.37 1.59 1.47 1.5 1.72 1.31 1.07 1.89 1.76 1.28 1.12 1.85 1.82 1.21 1.09 1.89 1.44 1.57 1.56 1.45 1.54 1.47 1.53 1.48 1.67 1.34 1.17 1.83 1.47 1.54 1.46 1.54 1.85 1.16 1.35 1.66 1.65 1.35 1.53 1.48 1.36 1.64 1.43 1.58 1.61 1.39 1.54 1.46 1.52 1.49 1.68 1.32 1.32 1.7 1.75 1.24 1.23 1.79 1.49 1.52 1.59 1.42 1.64 1.37 1.47 1.53 1.71 1.29 1.45 1.56 1.6 1.4 1.72 1.28 1.49 1.52 1.32 1.69 1.4 1.62 1.83 1.15 1.63 1.38 1.27 1.74 1.68 1.32 1.63 1.38 1.36 1.65 1.61 1.42 1.18 1.82 1.53 1.55.87 1.98 1.07 1.87.61 2.07 1.13 1.87.54 2.08.57 2.08.55 2.08.17 2.15.27 2.13.3 2.13.46 2.09.79 2.02.2 2.15.52 2.07.61 2.06.64 2.05.82 2 1.45 1.65.74 2.06 1.29 1.73 1.6 1.45 1.52 1.5 1.63 1.28 1.79 1.06 1.56 1.38 1.74 1.11 1.75 1.13 1.89.86 1.8 1.03 1.85.94 1.73 1.16 1.93.79 1.66 1.32 2.09.46 1.63 1.4 1.85.95 1.94.76 2 .65 1.74 1.18 1.89.86 1.8 1.04 1.97.7 1.79 1.05 1.91.82 1.83.98 1.98.67 1.89 1.05 1.9 1.05 1.64 1.47 1.7 1.33 1.86 1.09 1.64 1.4 1.41 1.62 1.48 1.54.68 1.96-.77 1.78-1.94.78-2.14-.07-2.14.07-2.18-.01-2.08-.66-2.06-.76-2.21.17h-2.15l-2.16.05-2.15.38-1.94 1.05-1.2 1.8-.46 1.99.52 2.08 1.42 1.68 1.86 1.13 1.86 1.1 1.88 1.01 2 .77 1.73 1.26 1.95.88 1.87 1.03 1.61 1.44 1.93.95 1.55 1.48 1.72 1.25 1.73 1.26 1.55 1.47 1.26 1.74 1.22 1.73 1.03 1.85-.3 1.97-1.66 1.1-2.14.25-2-.86-2.04-.53-2.09-.56-2.09-.54-2.14-.35-2.17-.19-2.05-.81-2.17-.13-2.17.02-2.14-.18-2.15-.32-2.15.33-1.54 1.26.79 1.91 1.59 1.48 1.96.85 1.76 1.12 1.67 1.28 1.82 1.04 1.69 1.28 1.89.92 1.89.9 1.82 1.05 1.73 1.2 1.98.78 1.53 1.46 1.49 1.45 1.63 1.34 1.12 1.82.18 2.19-.94 1.96-1.57 1.44-1.93.57-2.07-.09-2.03-.65-1.76-1.22-2.06-.59-1.76-1.29-2.16-.2-2.07-.41-2.09.34-2.18-.06-1.84 1.14-1.88.96-1.86 1.04-1.82 1.09-1.8 1.14-1.7 1.32-2.03.76-1.67 1.37-1.85 1.06-1.94.9-1.86 1.04-1.59 1.5-2.14.57-1.54 1.58-1.83 1.1-1.82 1.11-1.91.95-2.04.73-1.83 1.1-1.62 1.44-1.83 1.1-2.06.71-1.73 1.27-1.66 1.38-2.08.68-1.79 1.18-1.85 1.06-1.67 1.37-1.82 1.1-1.97.84-1.83 1.09-1.68 1.36-1.89.98-1.73 1.27-2.08.67-1.79 1.16-1.86 1.03-1.81 1.13-1.77 1.2-1.82 1.11-1.78 1.18-1.82 1.12-1.69 1.33-1.79 1.17-1.8 1.16-2.08.7-1.58 1.51-1.97.88-1.84 1.1-1.87 1.04-1.7 1.32-1.74 1.26-1.75 1.24-1.96.89-1.81 1.14-1.86 1.06-1.84 1.08-1.58 1.5-1.98.86-1.74 1.23-1.86 1.02-1.65 1.35-1.77 1.15-1.56 1.46-1.97.87-1.69 1.28-1.46 1.57-1.84 1.08-1.89 1-1.67 1.3-1.31 1.76-1.65 1.32-1.88 1.04-1.47 1.54-1.57 1.41-1.81 1.14-1.5 1.5-1.77 1.19-1.55 1.44-1.42 1.58-1.72 1.26-1.58 1.41-1.53 1.45-1.56 1.44-1.31 1.69-1.54 1.44-1.61 1.38-1.51 1.49-1.49 1.5-1.02 1.95-1.44 1.55-1.42 1.56-1.47 1.52-1.71 1.31-1.42 1.56-1.25 1.72-1.16 1.78-1.69 1.34-1.16 1.79-1.17 1.78-1.35 1.61-1.3 1.67-1.25 1.7-1.31 1.66-1.57 1.46-1.27 1.69-1.01 1.89-1.4 1.59-1.43 1.57-1.03 1.87-1.14 1.78-1.1 1.81-1.21 1.73-1.24 1.71-1.38 1.62-1.03 1.85-1.21 1.74-.95 1.9-1.45 1.59-1.16 1.76-1.08 1.83-.83 1.96-1.35 1.66-.82 1.97-1.34 1.66-.98 1.88-.71 2.03-1.45 1.61-.88 1.93-.77 1.99-1.29 1.71-.72 2.01-.85 1.94-1.37 1.67-.99 1.87-.63 2.05-1.07 1.83-.73 1.99-1.03 1.85-1.1 1.82-.84 1.94-.69 2.01-.87 1.92-.77 1.98-.86 1.92-1.21 1.78-.48 2.1-1.36 1.71-.65 2.02-.68 2.01-.98 1.89-.69 2-.94 1.9-.82 1.95-.4 2.11-1.17 1.81-.57 2.05-.98 1.89-.51 2.07-.66 2.01-.86 1.93-.54 2.06-.81 1.95-.92 1.92-.56 2.04-.55 2.05-.87 1.94-.68 2-.72 1.99-.4 2.09-.53 2.05-.72 1.99-.91 1.94-.24 2.13-.88 1.95-.73 1.99-.21 2.14-.93 1.93-.28 2.13-.74 1.99-.25 2.12-1.01 1.92-.37 2.09-.78 1.98-.31 2.11-.26 2.12-1.12 1.9-.17 2.13-.37 2.09-.48 2.06-.73 2-.41 2.08-.61 2.03-.4 2.08-.3 2.1-.66 2.02-.69 2.01.03 2.18-.88 1.97-.02 2.16-.97 1.96-.12 2.14-.61 2.03-.37 2.09-.06 2.14-.6 2.04-.69 2.02.13 2.18-.55 2.05-.72 2.02-.1 2.13-.48 2.07-.22 2.1-.09 2.14-.53 2.05-.13 2.12-.81 2.01-.01 2.14-.25 2.1-.45 2.08-.43 2.07-.23 2.1-.62 2.05.2 2.17-.25 2.1-.58 2.05.03 2.14-.25 2.1-.28 2.09-.74 2.04.2 2.16-.49 2.07-.48 2.07-.07 2.12-.1 2.12-.54 2.07.26 2.15-.64 2.06.13 2.14-.45 2.08-.29 2.09-.08 2.11.17 2.14-.57 2.07-.26 2.1-.01 2.12-.06 2.12-.17 2.1.09 2.12-.14 2.11-.6 2.07.37 2.14-.45 2.09-.19 2.11-.08 2.11-.11 2.11v2.11l-.47 2.09-.07 2.12.15 2.12-.24 2.1.02 2.12-.2 2.11-.1 2.12.23 2.12-.18 2.11.27 2.12-.24 2.11-.32 2.1.47 2.12-.54 2.1.36 2.12-.27 2.11-.13 2.11.57 2.11-.14 2.12-.05 2.11-.26 2.12.03 2.11.31 2.1.01 2.11.16 2.11-.14 2.11.01 2.12.53 2.08-.04 2.12.32 2.08-.42 2.15.57 2.06.33 2.07.1 2.14 1.3 1.7 1 1.87 1.95.83 1.89 1.07 2.14-.15 1.98-.75 2.06-.42 1.71-1.21 1.76-1.17 1.03-1.84.54-2.05-.54-2.12-1.79-1.22-1.51-1.5-1.88-1-2.06-.52-2.01-.68-2.12-.12-2.08-.54-2.12.26-2.08.39-2.09.45-1.79 1.18-2.02.73-1.55 1.49-1.78 1.15-1.33 1.67-1.87 1.13-1.06 1.88-1.39 1.61-.93 1.92-1.18 1.75-1.14 1.79-.97 1.89-.83 1.96-.5 2.07-.73 2-.59 2.04-.34 2.09-.33 2.1-.07 2.12-.2 2.1-.05 2.11-.31 2.11-.15 2.12.35 2.1.29 2.1-.05 2.13.66 2.04.35 2.08.24 2.11.51 2.05.83 1.96.27 2.13.86 1.94.46 2.09.75 1.98 1.09 1.84 1.06 1.83.92 1.9.8 1.97.88 1.92 1.26 1.72.79 1.99 1.11 1.81 1.38 1.62 1.16 1.77 1.13 1.79 1.11 1.82 1.29 1.68 1.32 1.66 1.44 1.56 1.28 1.69 1.33 1.65 1.53 1.47 1.34 1.65 1.4 1.59 1.88 1.13 1.11 1.88 1.59 1.4 1.81 1.18 1.21 1.8 1.59 1.41 1.6 1.39 1.92 1.03 1.52 1.48 1.51 1.51 1.54 1.46 1.73 1.23 1.67 1.32 1.5 1.5 1.49 1.53 1.9 1.05 1.52 1.49 1.37 1.66 1.78 1.19 1.5 1.5 1.61 1.39 1.47 1.54 1.5 1.5 1.92 1.05 1.35 1.67 1.4 1.61 1.57 1.42 1.56 1.44 1.9 1.07 1.53 1.48 1.29 1.72 1.75 1.24 1.53 1.48 1.67 1.32 1.45 1.56 1.5 1.51 1.61 1.39 1.51 1.5 1.58 1.42 1.31 1.71 1.64 1.37 1.75 1.25 1.53 1.48 1.29 1.73 1.77 1.22 1.41 1.61 1.4 1.61 1.76 1.24 1.46 1.55 1.76 1.24 1.44 1.57 1.45 1.56 1.77 1.22 1.49 1.53 1.37 1.64 1.66 1.35 1.46 1.55 1.5 1.52 1.42 1.6 1.68 1.31 1.82 1.17 1.22 1.81 1.68 1.32 1.54 1.47 1.73 1.26 1.46 1.56 1.44 1.57 1.82 1.17 1.41 1.62 1.57 1.43 1.5 1.52 1.7 1.28 1.68 1.32 1.51 1.5 1.85 1.11 1.35 1.69 1.78 1.2 1.39 1.64 1.7 1.29 1.68 1.3 1.5 1.52 1.92 1.02 1.69 1.28 1.6 1.4 1.5 1.53 1.73 1.24 1.72 1.24 1.51 1.53 1.78 1.16 1.74 1.23 1.78 1.16 1.55 1.47 1.72 1.26 1.95.91 1.82 1.09 1.81 1.11 1.46 1.65 2.07.7 1.53 1.56 1.94.9 1.87 1 1.94.87 1.75 1.23 2 .74 1.88.99 1.93.87 1.72 1.33 2.11.47 1.81 1.18 2.13.37 1.89 1.03 2.06.53 2.05.56 2 .72 2.11.32 2.13.15 2.08.44 2.1.28 2.12-.1 2.1.4 2.1.07 2.09.15 2.12-.14 2.09.26 2.12-.04 2.08.28 2.08.36 2.11.11 2.04.57 2.11.12 1.99.81 2.09.28 2.09.29 1.93.92 2.19.06 1.9.97 1.85 1.01 1.99.69 1.88.91 1.84 1.03 1.62 1.34 1.67 1.32.93 1.91.98 1.92-.38 2.13-.71 2.02-1.55 1.47-1.67 1.28-1.94.79-1.75 1.24-1.99.7-2.13.17-2.03.55-2.12.01-2.06.36-2.1.01-2.09.23-2.12.22-2.13-.29-2.15-.04-2.15-.28-2.15.36-2.14.19-2.15-.11-2.12.5-2.14.17-2.13.19-2.18-.08-2.12.36-2.05.71-2.17.09-2.09.49-2.04.7-2.05.6-2.16.27-1.92 1.04-2.04.63-1.95.9-1.94.89-1.91.98-1.67 1.35-1.8 1.16-1.58 1.45-1.4 1.64-1.21 1.8-.64 2.08-.24 2.13-.41 2.15.39 2.15 1.05 1.92.86 1.94.61 2.11.78 1.88.12 2.1.44 2.1-.44 2.11.02 2.11.09 2.12-.28 2.1.16 2.14-.58 2.07.2 2.15-.55 2.07-.2 2.1-.29 2.1.02 2.14-.33 2.09-.38 2.08-.33 2.09-.55 2.06-.19 2.11-.1 2.12-.18 2.12-.89 2-.03 2.14-.33 2.09-.62 2.04.22 2.18-.35 2.09-.47 2.07-.44 2.07-.5 2.06-.18 2.12-.19 2.12-.88 1.99-.32 2.09-.19 2.11-.14 2.12-.88 1.98-.38 2.08-.1 2.13-.7 2.02-.24 2.1-.09 2.14-.36 2.08-.33 2.09-.47 2.06-.53 2.05-.57 2.04-.13 2.13-.82 1.99.19 2.19-.56 2.05-.79 2-.17 2.12-.56 2.04-.29 2.1-.36 2.09-.32 2.09-.58 2.04-.5 2.06.06 2.16-.61 2.04-.45 2.07-.69 2.02-.44 2.06-.24 2.12-.63 2.03-.45 2.07-.18 2.12-.62 2.03-.46 2.07.05 2.17-.82 1.99-.28 2.1-.18 2.13-.41 2.07-.72 2.02-.37 2.08-.73 2.01-.18 2.13-.59 2.04-.45 2.06-.02 2.17-.67 2.02-.38 2.08-.6 2.04-.56 2.04-.25 2.11-.52 2.05-.33 2.09-.31 2.09-.36 2.09-.83 1.98-.14 2.14-.46 2.06-.56 2.04-.25 2.11-.6 2.04-.32 2.09-.43 2.08-.92 1.96-.09 2.15-.76 2-.15 2.13-.7 2.01-.5 2.06-.33 2.1-.36 2.09-.4 2.08-.18 2.13-.69 2.01-.78 2-.13 2.14-.49 2.06-.72 2.01-.01 2.16-.39 2.08-.99 1.96-.02 2.16-.43 2.07-.76 2-.4 2.09-.25 2.11-.48 2.06-.49 2.07-.4 2.08-.5 2.06-.48 2.07-.55 2.04-.81 2-.04 2.16-.51 2.06-.37 2.09-.68 2.02-.29 2.11-.94 1.97-.47 2.07-.06 2.16-.49 2.06-.48 2.07-.52 2.06-.64 2.03-.27 2.12-.36 2.1-.48 2.07-.45 2.07-.59 2.05-.5 2.06-.26 2.12-.91 1.96-.21 2.13-.84 1.99-.18 2.13-.33 2.1-.86 1.99-.22 2.12-.26 2.12-.98 1.95-.26 2.12-.6 2.04-.25 2.12-.41 2.08-.72 2.01-.56 2.05-.59 2.05-.18 2.13-.8 2-.21 2.13-.62 2.03-.65 2.03-.35 2.1-.48 2.06-.2 2.14-.8 1.99-.25 2.12-.62 2.04-.71 2.01-.49 2.06-.47 2.07-.54 2.06-.37 2.09-.05 2.17-.97 1.95-.3 2.11-.67 2.02-.03 2.17-1.08 1.93-.27 2.12-.63 2.03-.33 2.1-.46 2.07-.54 2.06-.42 2.08-.81 1.98-.1 2.16-.5 2.06-.36 2.1-.68 2.02-.82 1.98-.19 2.14-.81 1.98-.36 2.1-.62 2.03-.15 2.15-.73 2-.35 2.1-.63 2.03-.31 2.1-.87 1.97-.27 2.12-.39 2.09-.39 2.08-.93 1.96-.51 2.05-.14 2.15-.74 2-.28 2.11-.66 2.02-.9 1.96-.15 2.15-.67 2.01-.64 2.03-.35 2.09-.59 2.04-.71 2-.49 2.07-.51 2.05-.35 2.1-.64 2.02-.15 2.15-.49 2.07-.72 2.01-.49 2.06-.42 2.09-.55 2.05-.6 2.03-.76 1.99-.31 2.11-.56 2.04-.67 2.01-.84 1.97-.1 2.17-.78 1.98-.42 2.08-.69 2.01-.33 2.11-.73 1.99-.62 2.03-.46 2.07-.49 2.06-.71 2-.73 1.99-.51 2.06-.56 2.04-.86 1.95-.63 2.01-.65 2.01-.58 2.05-1.27 1.74-.58 2.06-1.37 1.64-.74 1.99-1.33 1.66-1.08 1.8-.66 2.07-1.4 1.6-.96 1.89-1.12 1.78-1.11 1.78-1.6 1.46-.79 2-1.16 1.75-1.3 1.67-.93 1.9-1.09 1.8-1.46 1.58-1.04 1.83-1.01 1.85-1.09 1.81-1.12 1.79-.92 1.89-1.07 1.83-.84 1.94-.63 2.02-1.18 1.79-.58 2.04-.69 2-.84 1.94-.23 2.13-.87 1.96-.33 2.09-.43 2.07.32 2.15-.34 2.09.26 2.09-.12 2.11-.02 2.14.95 1.96.52 2.02.69 1.98.79 1.94.71 1.99 1.13 1.77.93 1.91 1.22 1.72 1.58 1.43 1.19 1.77 1.34 1.64 1.54 1.45 1.69 1.27 1.61 1.37 1.93.95 1.53 1.46 1.86 1.01 1.63 1.36 1.78 1.13 1.84 1.04 2.01.72 1.84 1.02 1.86.99 1.88.95 1.74 1.24 1.75 1.17 1.79 1.16 1.55 1.47 1.36 1.63 1.16 1.79 1.34 1.63 1.27 1.69 1.15 1.77 1.18 1.77.87 1.93 1.37 1.67.87 1.94.89 1.91 1.03 1.86.72 2 1.01 1.87.57 2.06 1.02 1.87.67 2.01.64 2.02.68 2.01.63 2.02.81 1.96.91 1.93.46 2.07.43 2.09.75 1.98 1.02 1.91.62 2.02.48 2.07.15 2.16 1.11 1.89.35 2.1.5 2.06.31 2.11.6 2.03.81 1.98.19 2.14.57 2.04.71 2.01.26 2.11.89 1.97.4 2.08.22 2.13.38 2.08.64 2.03.3 2.09.83 1.98.43 2.08.01 2.15.47 2.06.76 2.01.03 2.15.71 2.01.54 2.05.02 2.15.6 2.04.15 2.12.55 2.05.7 2.02v2.15l.49 2.06.39 2.08.52 2.06.31 2.09.18 2.12.33 2.09.51 2.06.18 2.11.44 2.08.52 2.06-.1 2.15.67 2.04.12 2.13.17 2.11.73 2.03-.12 2.16.43 2.07.44 2.08.58 2.05.3 2.1-.12 2.16.73 2.03-.17 2.17.41 2.08.69 2.04.36 2.09.06 2.13.22 2.1.25 2.11.32 2.09.14 2.12.6 2.06.18 2.11.32 2.1-.1 2.15.45 2.07.31 2.1.08 2.13.18 2.1.52 2.07.09 2.12.18 2.11.33 2.09.5 2.07.29 2.1.1 2.12.07 2.13.76 2.04.27 2.1.02 2.13.47 2.08-.28 2.16.27 2.1.27 2.1.48 2.08.01 2.13.36 2.09.09 2.12.41 2.09.25 2.1-.09 2.14.69 2.06.2 2.11-.23 2.16.49 2.08-.03 2.13.25 2.11.53 2.08.27 2.1.11 2.12-.1 2.14.22 2.11.51 2.08-.15 2.15.16 2.11.26 2.11.34 2.1.06 2.12.3 2.11.57 2.07.18 2.12.16 2.12.25 2.11-.13 2.14.26 2.11.08 2.12.54 2.09-.22 2.15.19 2.12.45 2.09-.11 2.14.67 2.08-.37 2.16.73 2.07-.11 2.14.11 2.12.46 2.09-.3 2.15.62 2.08.03 2.13.04 2.13.04 2.13.48 2.09-.24 2.14.62 2.09.08 2.12.03 2.13.04 2.12.41 2.1.18 2.12-.19 2.14.75 2.08.13 2.12-.22 2.14.19 2.12.34 2.1.1 2.12.23 2.12.17 2.11-.27 2.15.59 2.09-.03 2.13.27 2.11-.08 2.14.39 2.1-.22 2.14.63 2.09.12 2.12-.29 2.15.11 2.12.64 2.08-.13 2.14.16 2.12.32 2.11.27 2.11-.12 2.13-.16 2.14.45 2.1-.18 2.14.25 2.11.56 2.09-.41 2.16.57 2.09-.03 2.13-.03 2.13.55 2.09-.12 2.13.31 2.11-.01 2.13-.26 2.14.14 2.12.71 2.08.02 2.13-.1 2.13.22 2.11.32 2.11.05 2.12-.14 2.14.07 2.12.39 2.1-.35 2.14.16 2.12.49 2.1-.01 2.12-.16 2.14.44 2.09-.05 2.13.3 2.11.02 2.12.14 2.11.03 2.13.26 2.1.11 2.12.14 2.11.21 2.12.14 2.11-.45 2.14.61 2.09.07 2.12-.15 2.13.03 2.12.38 2.1-.15 2.13.09 2.11-.01 2.12.47 2.11.15 2.11.15 2.11.08 2.12-.45 2.14.68 2.09-.07 2.13-.27 2.13.29 2.11.27 2.1-.05 2.13.09 2.11.07 2.12.16 2.11-.26 2.13.45 2.11-.18 2.13.41 2.1-.33 2.13.21 2.11.2 2.11-.06 2.12.38 2.1-.18 2.13.2 2.11.22 2.1-.16 2.12.22 2.2-1.59 1.37-1.01 1.86-1.54 1.4-1.36 1.56-1.22 1.69-1.55 1.39-1.15 1.75-1.36 1.57-1.34 1.58-1.44 1.51-1.59 1.51 2.23.08 2.1-.59 2.12-.03 2.12-.15 2.12-.01 2.13.19 2.11-.23 2.11-.33 2.14.26 2.11-.41 2.12-.06 2.15.4 1.93-.25-1.64.88-1.68 1.2-1.82.96-1.91.79-1.91.8-1.67 1.2-1.73 1.13-1.81.97-1.76 1.07-2.02.59-1.73 1.13-1.67 1.24-1.84.94-1.69.75 1.97.45 2.19.17 2.18.35 2.21-.02 2.19.22 2.21-.03 2.2.22 2.15.6 2.25-.3 2.17.5 1.96.39.04 1.94-.59 2.04-.4 2.09-.64 2.03-.1 2.15-.43 2.08-1 1.96-.21 2.12-.58 2.05.01 2.17-.67 2.04-.26 2.11-.84 2-.02 2.17-.62 2.03-.23 2.13-.48 2.07-.51 2.06-.24 2.13-.5 2.07-.53 2.07" id="レイヤー_2" data-name="レイヤー 2"/></g></svg>