<svg xmlns="http://www.w3.org/2000/svg" viewBox="0 0 918.1 1253.58"><g id="Layer_2" data-name="Layer 2"><path fill="none" stroke="#fff" stroke-linecap="round" stroke-linejoin="round" stroke-width="8" d="M67.53 4l-.54 2.18-1.62 1.48-1.18 1.75-1.18 1.77-1.32 1.67-1.22 1.74-.24 2.33-1.92 1.32-1.09 1.82-.64 2.08-1.07 1.83-.93 1.91-.69 2.05-1.51 1.58-1.04 1.85-1.14 1.79-.67 2.05-1.04 1.85-.89 1.93-1.37 1.67-.65 2.05-1.72 1.5v2.38L41.96 48l-1.01 1.87-.63 2.06-.39 2.16-1.47 1.65-.82 1.96-1.17 1.8-.46 2.12-1.17 1.8-.64 2.04-.93 1.9-.23 2.21-.81 1.95-.71 2-1.51 1.67-1.07 1.86-.38 2.13-.85 1.94-1.09 1.86-.33 2.15-.86 1.95-.56 2.05-.64 2.03-1.11 1.87-.25 2.15-.01 2.22-.95 1.92-1.18 1.88.29 2.28-.45 2.07-.88 1.97-.88 1.97-.44 2.08.17 2.21-.53 2.05-.86 2-.4 2.09.08 2.16-.41 2.08-.41 2.09.25 2.16-.74 2.06.26 2.14.07 2.12-.77 2.1.58 2.13-.53 2.12.22 2.12.47 2.09.2 2.11-.24 2.16.22 2.11.64 2.05.06 2.16.83 1.98.99 1.92-.32 2.33.76 2.01.93 1.93.91 1.93 1.26 1.75 1.49 1.59.42 2.25 1.55 1.52 1.72 1.33 1.32 1.63 1 1.97 1.59 1.39 1.73 1.23 1.35 1.65 1.53 1.47 2.19.61 1.7 1.2 1.47 1.59 1.81 1.08 1.58 1.53 2.01.73 2.07.55 2 .7 2 .79 2.21-.47 2.05.76 2.14.26 2.04-.9 1.95-.76 1.91-.73 1.96-.64 2.02-.7 1.86-1.08 1.17-1.84 1.03-1.83 1.67-1.42.29-2.19 1.76-1.59-.19-2.25.64-2.02-.35-2.13 1.05-2.09-.91-2.06-.14-2.09-.31-2.11-.8-1.98-1.19-1.78-1.68-1.35-.9-2.07-2.02-.91-1.64-1.31-1.55-1.51-1.82-1.11-2.31-.04-1.52-1.9-2.38.43-2.01-.52-2.05-.37-2.02-.63-2.03-1.03-2.14-.07-2.11.86-2.09.17-2.21-.61-2.02.79-1.88 1.17-2.3-.28-1.92.93-1.97.81-1.58 1.54-1.78 1.1-2.07.7-1.7 1.29-1.2 1.83-1.7 1.26-1.16 1.79-2.13.96-1.2 1.77-1.37 1.64-1.1 1.83-.89 1.95-1.01 1.87-.77 1.98-.85 1.95-.34 2.14-.61 2.01-.6 2.02-1.57 1.72.31 2.28-1.08 1.9-.56 2.05-.63 2.03.04 2.16-.05 2.13-.06 2.12-.87 2.02-.24 2.11-.39 2.09-.33 2.1.69 2.16-.81 2.09.1 2.12-.37 2.12.39 2.13-.04 2.12.77 2.06-.6 2.2.46 2.09 1.25 1.89.1 2.15v2.24l.76 2.01L9 237.56l.92 1.88.33 2.21 1.5 1.57 1.27 1.69.71 2.07 1.51 1.52.91 1.99 1.45 1.56 1.75 1.27 1.12 1.86 1.46 1.56 1.55 1.45 1.53 1.49 2 .92 1.56 1.44 1.47 1.57 1.66 1.33 1.69 1.31 2.43.19 1.76 1.17 1.78 1.13 1.73 1.22 1.4 1.79 1.8 1.12 2.02.74 2.12.52 1.48 1.75 2.11.53 2.09.55 1.86 1 1.93.87 1.97.77 1.91.91 1.65 1.51 1.95.84 2.19.24 1.82 1.16 1.79 1.24 2.14.32 2.05.57 2.07.51 1.97.78 1.95.84 1.83 1.18 2.1.41 1.96.81 2.14.24 1.78 1.37 1.99.75 2.04.56 2.2.03 1.85 1.21 2.2.01 1.85 1.23 2.08.41 2.25-.17 1.79 1.48 2.13.23 2.18.01 1.89 1.16 2.2-.07 2.13.21 1.84 1.38 2.05.55 2.22-.2 2 .75 2.16.03 2.01.71 1.98.87 2.1.31 2.17-.01 2.08.41 2.12.19 2.07.42 1.93 1.17 2.23-.37 1.87 1.51 2.15.01 2.14.1 2.02.72 2.13.14 2.03.68 2.08.43 2.22-.42 1.95 1.2 2.16-.06 2.01.83 2.17-.16 2.12.17 2.05.62 2.16-.06 2.07.51 2.02.78 2.15.01 2.14.01 2.04.71 2.1.3 2.09.42 2.18-.26 2.13.04 2.08.45 2.04.83 2.2-.53 2.04.8 2.08.5 2.2-.57 2.03.94 2.18-.4 2.08.57 2.18-.45 2.01 1.15 2.16-.18 2.06.69 2.16-.27 2.17-.36 2 1.41 2.18-.53 2.14-.11 2.11.13 2.08.65h2.13l2.09.44 2.13-.01 2.14-.19 2.09.55 2.08.62 2.19-.84 2.05 1.04 2.18-.74 2.04 1.24 2.16-.51 2.09.52 2.12.02 2.16-.6 2.09.52 2.09.7 2.17-.95 2.1.44 2.08.79 2.14-.48 2.11.31 2.12-.2 2.14-.47 2.1.45 2.13-.38 2.09 1.02 2.13-.59 2.13-.11 2.11.29 2.12.29 2.12-.14 2.11.66 2.12-.99 2.12-.07 2.12.6 2.11-.64 2.11-.07h2.11l2.14.92 2.09-.96 2.13.42 2.13.4 2.11-.44 2.09-.36 2.14.49 2.05-1.09 2.16.71 2.07-.82 2.14.38 2.12.05 2.1-.35 2.07-.86 2.16.66 2.12.03 2.09-.45 2.1-.33 2.11-.1 2.08-.63 2.11-.13 2.17.79 2.05-1.13 2.15.51 2.12.01 2.1-.21 2.1-.14 2.1-.34 2.15.62 2.11-.19 2.08-.59 2.12.18 2.1-.31 2.12.13 2.12-.05 2.07-.7 2.13.13 2.07-.76 2.13.28 2.14.44 2.05-1.12 2.17.92 2.07-.86 2.14.4 2.12.13 2.05-1.25 2.13.19 2.12.04 2.14.44 2.11-.1 2.08-.65 2.12-.02 2.1-.3 2.13.3 2.12.04 2.07-.97 2.12.2 2.09-.5 2.18 1.05 2.07-.89 2.1-.28 2.15.67 2.07-1.07 2.15.74 2.08-.85 2.16.94 2.09-.53 2.08-.89 2.14.54 2.1-.48 2.14.49 2.1-.4 2.12.22 2.12.2 2.06-1.17 2.15.73 2.12.11 2.09-.49 2.12.18 2.08-.76 2.14.53 2.1-.44 2.11-.13 2.12.31 2.08-.84 2.15.6 2.07-.82 2.14.34 2.08-.73 2.16 1.08 2.08-.87 2.13.22 2.09-.64 2.12.18 2.13.28 2.12.11 2.12-.02 2.1-.54 2.12.15 2.12.03 2.1-.31 2.11-.15 2.1-.52 2.11-.08 2.11-.22 2.13.43 2.13.28 2.09-.57 2.11-.3 2.14.51 2.09-.79 2.11-.03 2.14.33 2.11-.08 2.1-.65 2.14.66 2.1-.47 2.14.5 2.12-.01 2.1-.65 2.1-.49 2.12-.07 2.13.29 2.13.21 2.11-.56 2.14.6 2.12-.04 2.1-.61h2.12l2.13.15 2.13.29 2.12-.07 2.12-.11 2.11-.31 2.13.15 2.13.1 2.11-.39 2.13.21 2.12.09 2.1-1.2 2.15 1.05 2.11-.28 2.11-.84 2.14.94 2.12-.1 2.12-.08 2.09-1.02 2.13.25 2.13.33 2.12.19 2.11-.42 2.12-.22 2.12.27 2.13.31 2.1-.96 2.12.2 2.13.63 2.11-.62 2.12.2 2.12-.1 2.12.28 2.12.16 2.11-1.05 2.13.62 2.12.45 2.12-.05 2.12-.03 2.11-1.03 2.12.08 2.12.74 2.12-.59 2.11.05 2.12-.36 2.12.27 2.12.14 2.12-.2 2.11.12 2.12-.1 2.12.68 2.12-.28 2.12-.59 2.11.05 2.12.75 2.12-.66 2.11.41 2.11.43 2.13-.59 2.12.25 2.14-.59 2.11.34 2.12.3 2.14-.62 2.11.23 2.11.54 2.13-.27 2.12.32 2.11.22 2.11.46 2.13-.32 2.14-.69 2.08 1.06 2.13-.25 2.11.17 2.14-.41 2.1.43 2.09.49 2.15-.61 2.08.63 2.11.16 2.09.39 2.13-.2 2.13-.11 2.09.43 2.17-.6 2.04.97 2.15-.32 2.04.9 2.12-.01 2.12.06 2.05.66 2.21-.6 2.12.14 2.07.47 2.01.86 2.11.17 2.1.25 1.94 1.02 2.11.19 2.06.45 2.07.43 1.81 1.26 1.96.82 2.25.13 2.06.61 2.02.75 1.41 1.98 2.36.06 1.36 1.94 2.06.7 1.88 1 1.99.9 1.43 1.66 2.02.91 1.57 1.46 1.64 1.4.78 2.22 2.02 1.04.72 2.17 1.91 1.22.61 2.16 1.3 1.69 1.08 1.83.56 2.09 1.12 1.82 1.22 1.81.46 2.1.56 2.06 1.04 1.9-.01 2.23.65 2.03.55 2.06 1.17 1.87.52 2.07 1.19 1.81.76 1.97.8 1.97 1.47 1.54.99 1.93 1.88 1.05 1.29 1.89 2.07.72 2.1.4 1.77 1.41 2.32-.57 1.92 1.03 2 .89 2.14-.08 2.11.08 2.12-.06 2.1.24 2.1-.47 2.11.55 2.09-.78 2.12.4 2.08-.54 2.12.26 2.1-.13 2.13.41 2.08-.98 2.16.03 1.2 1.49-.99 1.74-1.98.87-1.5 1.48-1.85 1.02-1.54 1.47-1.52 1.55-2.06.68-1.85 1.01-2.13.48-1.57 1.55-1.79 1.14-2.09.51-1.61 1.55-1.93.86-1.96.8-2.2.22-1.88.96-1.59 1.56-2.14.41-1.46 1.43 1.5.8 2 .39 1.94 1.05 2.17-.45 2.06.49 2.11.12 2.08.35 2.08.43 2.14-.16 2.05.66 2.08.37 2.07.39 2.06.53h2.13l2.13.01 1.94 1.12 2.08.3 2.25-.41 2.06.5 1.69 1.59 1.98.57.64 1.39-.92 1.81-2.26.11-1.91.92-1.87 1.12-2.1.47-1.79 1.33-2.27-.02-1.74 1.5-2.22.11-1.99.8-2.02.68-1.8 1.3-2.03.65-2.06.62-2.01.73-2.17.37-1.87 1.07-1.76 1.3-1.77 1.21-2.43.02-1.53 1.64-1.72 1.26-1.97 1.12.12 2.31.58 1.47 1.47 1.32 1.86.97 1.96.9 2.18.09 2.14-.11 2.1 1.14 2.17-.12 2.14-.51 2.08-.68 2.27.75 2.14-.35 2.04-.93 2.24.22 2.06-.71 1.98-1.05 2.09-.52 2.09-.57 2.15-.29 2.17-.12 2.18.04 2.11-.66 1.78 1.21 1.62 1.42-1.13 2.02-1.77 1.4-.79 2.02-1.47 1.55-1.05 1.86-1.17 1.77-1.11 1.82-1.54 1.49-1.42 1.6-.5 2.28-1.59 1.45-1.34 1.66-1.74 1.34-1.33 1.66-1 1.91-1.62 1.43-1.35 1.64-.91 1.98-1.61 1.44-1.35 1.63-.55 2.27-1.93 1.18-1.07 1.86-.9 1.99-1.28 1.7-1.77 1.31-1.22 1.75-1.79 1.29-.89 1.99-1.56 1.46-1.33 1.65-.64 2.2-1.7 1.36-1.22 1.74-1.56 1.47-1.52 1.5-1 1.91-1.45 1.56-1.13 1.82-1.11 1.83-1.18 1.78-1.96 1.17-.83 2.05-1.35 1.65-1.5 1.53-1.01 1.92-1.56 1.47-1.12 1.83-1.29 1.69-2.08 1.07-.75 2.12-1.83 1.26-.84 2.06-1.72 1.35-1.39 1.6-1.13 1.83-1.17 1.78-1.23 1.74-.88 2.02-1.71 1.35-1.83 1.26-.8 2.07-1.38 1.63-1.75 1.32-.6 2.24-1.21 1.75-2.17 1-.61 2.23-1.28 1.7-1.8 1.28-1.21 1.75-.99 1.93-1.33 1.66-1.37 1.63-1.21 1.75-1.35 1.63-1.33 1.66-1.45 1.56-1.85 1.25-.47 2.13-.24 2.05.03 2.12-.61 2.08.17 2.14-1.15 2.01-.2 2.11.61 2.19-.26 2.1-.25 2.11-.34 2.09-.6 2.06.17 2.15-.02 2.14-.29 2.09-.23 2.11-.51 2.07-.36 2.09.15 2.16-1.2 1.97.23 2.17-1.05 1.98.27 2.19-.03 2.13-1.11 1.97.18 2.17.09 2.16-1.37 1.91.08 2.16-.62 2.04.07 2.17-.25 2.11-.87 1.99-.57 2.04-.63 2.04.2 2.2-1.08 1.94.12 2.19-.71 2.01-.78 2-.21 2.12-.45 2.07.1 2.2-1.12 1.92-.02 2.17-.76 2-.96 1.94-.53 2.05-.48 2.06-.65 2.02-.32 2.11.34 2.29-1.54 1.78-.19 2.14-.95 1.93.32 2.31-1.76 1.68-.17 2.16-.9 1.94-.32 2.12-.58 2.04-.75 1.99-.53 2.06-1.3 1.79.08 2.28-.72 1.99-.44 2.1-1.09 1.87-1.38 1.74-.15 2.22-1.36 1.74-.52 2.08-1.03 1.86-.16 2.24-1.25 1.77-.56 2.08-1.1 1.83-.5 2.11-1.59 1.6-.45 2.13-.71 2.02-.73 2.01-1.73 1.5-.97 1.89-.32 2.23-1.44 1.64-.61 2.09-1.33 1.69-1.75 1.43-.44 2.21-1.4 1.63-1.33 1.66-.88 1.96-1.29 1.68-1.52 1.53-1.16 1.77-1.24 1.71-.98 1.92-1.48 1.53-.72 2.14-1.29 1.7-1.68 1.37-1.33 1.66-1.26 1.74-1.49 1.52-1.58 1.43-1.84 1.16-1.21 1.81-1.61 1.4-1.78 1.19-2.01.89-1.08 2.06-1.97.91-1.56 1.48-1.9.99-1.52 1.57-1.99.83-1.88.99-1.75 1.24-1.81 1.14-2.03.7-2.05.62-1.86 1.03-1.9.94-2.14.36-1.93.85-1.94.86-1.84 1.09-2.33-.16-1.68 1.52-2.28-.05-1.74 1.36-2.19.18-1.97.76-1.63 1.72-2.21.1-1.85 1.13-1.97.75-1.98.77-2.34-.35-1.73 1.49-2.03.62-2.13.29-1.87 1.09-2.01.67-2.26-.17-1.99.7-1.99.74-2.06.48-2.1.35-1.99.72-2.1.3-2 .72-1.9 1.07-2.24-.21-1.94.93-2.03.58-2.15.13-1.88 1.19-2.23-.23-2.02.63-2.11.26-1.82 1.53-2.17-.02-1.96.93-2.18-.07-2.19-.14-1.84 1.51-2.08.39-2.06.48-2.08.39-2.16-.05-2.03.63-2.17-.1-2.08.37-1.96 1.05-2.18-.17-2.14.03-2.07.41-2.02.7-2.1.28-1.93 1.22-2.18-.22-2.02.78-2.17-.18-2.09.28-2.08.4-1.98 1-2.1.26-2.1.23-2.1.25-2.17-.19-2.08.38-2.02.79-2.09.31-2.12.09-2.17-.21-2.07.45-2.07.44-2.1.27-2.07.45-2.15-.13-1.99 1.09-2.13.03-2.1.18-2.07.53-2.14-.07-2.05.63-2.16-.27-2.04.74-2.12.04-2.13.01-2.11.14-2.12.09-2.08.48-2.04.73-2.14-.18-2.16-.22-2.07.49-2 1.07-2.1.27-2.13-.02-2.19-.67-1.98 1.36-2.15-.21-2.11.11-2.15-.26-2.09.38-2.04.8-2.17-.46-2.08.36-2.06.62-2.15-.26-2.02 1.05-2.12.06-2.15-.33-2.12.03-2.07.57-2.13-.11-2.03.99-2.1.17-2.18-.66-2.1.26-2.04.87-2.18-.61-2.05.8-2.08.44-2.17-.6-2.07.58-2.14-.32-2.08.51-2.06.81-2.17-.61-2.08.38-2.11.2-2.08.45-2.12.06-2.13-.22-2.11.1-2.09.45-2.13-.2-2.09.33-2.09.51-2.16-.76-2.07.81-2.13-.31-2.13-.19-2.06.95-2.16-.78-2.09.34-2.1.37-2.08.65-2.11.08-2.15-.75-2.07.96-2.16-.86-2.09.33-2.08.89-2.1.24-2.13-.4-2.12-.04h-2.11l-2.11.17-2.12-.22-2.09.72-2.12-.11-2.11.16-2.13-.67-2.1.43-2.11.13-2.12-.3-2.12-.11-2.09.58-2.12-.3-2.12-.09-2.1.18-2.11.56-2.11.11-2.11-.25-2.12-.34-2.1 1.08-2.11.09-2.12-.42-2.1.5-2.13-1.03-2.11.09-2.11.08-2.11.53-2.11-.44-2.11.27-2.13-.28-2.13.39-2.12.05-2.13-.6-2.12.95-2.13-.03-2.14-.89-2.12.55-2.13-.46-2.13.08-2.12.67-2.13.13-2.13-.16-2.14-.61-2.12.06-2.12.65-2.14-.68-2.14-.04-2.12.15-2.13.34-2.13-.23-2.13.26-2.1.8-2.13.05-2.13-.02-2.12.2-2.16-.57-2.12.22-2.14-.12-2.09.8-2.17-.72-2.13.11-2.1.65-2.15-.49-2.07 1.11-2.2-.98-2.05 1.25-2.16-.43h-2.14l-2.08.73-2.2-.77-2.05 1.05-2.14-.1-2.15-.08-2.14-.06-2.06.84-2.21-.61-2.02 1.13-2.14.05-2.14-.03h-2.15l-2.05.77-2.11.3-2.21-.43-1.94 1.47-2.12.23-2.22-.43-2.09.38-2.05.69-2.12.24-2.07.51-2.09.4-2.25-.46-1.93 1.24-2.16.06-2.04.65-2.18-.03-1.99.9-2.24-.27-1.86 1.43-2.09.41-2.27-.35-2.05.43-1.8 1.45-2.17-.03-2.03.53-1.94.86-1.97.77h-2.16l-2.18-.06-1.88 1.14-2.19-.07-1.96.78-1.8 1.36-2.32-.48-1.77 1.44-2.11.25-2.11.3-1.76 1.42-2.15.14-1.89.99-2.08.4-2.23-.06-1.99.7-1.59 1.81-2.04.52-2.12.33-1.89.93-1.8 1.15-2 .65-2.13.34-1.97.74-1.69 1.37-2.3.03-1.87.98-1.55 1.61-1.98.74-2.12.5-1.54 1.58-1.98.76-1.63 1.37-1.89.94-1.74 1.18-1.85 1.02-1.56 1.44-1.71 1.21-1.64 1.3-1.53 1.45-1.59 1.36-2.33.49-.92 2.14-1.58 1.37-1.88 1.07-1.58 1.39-1.06 1.9-1.79 1.21-1.39 1.58-1.51 1.49-.72 2.1-1.16 1.74-1.13 1.77-1.19 1.72-2.06 1.19-.08 2.42-1.31 1.67-1.63 1.52-.6 2.07-.57 2.06-1.13 1.81-.8 1.95-.81 1.95-.59 2.03-1.33 1.77.04 2.24-1.11 1.87.05 2.2-1.32 1.84-.24 2.12-.23 2.11-.69 2.02.21 2.19-.85 1.99-.07 2.13.01 2.12-.72 2.04.16 2.14-.8 2.04.75 2.18-.64 2.08-.13 2.12.29 2.13-.59 2.11.53 2.13-.02 2.11.06 2.12-.17 2.12-.47 2.14-.11 2.14 1.12 2.05.05 2.12.31 2.1.07 2.12-.31 2.17.58 2.06.78 2.02-.33 2.2 1 1.97.35 2.09-.5 2.27.53 2.06.82 1.99 1.02 1.92.52 2.05.2 2.15.23 2.16 1.17 1.85 1.01 1.89.72 1.99.96 1.89-.01 2.3 1.15 1.82 1.42 1.68.81 1.95 1.01 1.86.29 2.24 1.07 1.84.82 1.98 1.47 1.6 1.12 1.81 1.54 1.52 1.17 1.76.55 2.21 2.07 1.11.81 2.04.82 2.05 2.18.97 1.12 1.82 1.44 1.55 1.1 1.86 1.94 1.09 1.45 1.53.68 2.31 1.84 1.17 1.33 1.68 2.18.77 1.26 1.76 1.84 1.11 1.08 2.01 2.19.68 1.42 1.61 1.94.95 1.64 1.34 1.62 1.37 1.96.89 1.67 1.28 1.66 1.33 1.86 1.02 1.26 1.98 1.9.96 1.96.86 2.17.48 1.74 1.23 1.69 1.32 2.12.53 1.51 1.68 2.03.69 1.64 1.48 2.28.15 1.75 1.27 1.88.99 2.06.58 1.75 1.31 2.05.63 1.88 1.01 1.99.76 2.2.19 1.76 1.32 2.29-.07 1.83 1.12 1.84 1.09 2.21.16 2.04.58 1.7 1.45 2.09.45 1.84 1.11 2.18.21 2.06.54 1.58 1.76 2.16.26 2.12.39 1.65 1.58 1.95.82 1.99.71 2.33-.18 1.64 1.63 2.32-.15 1.74 1.37 2.02.63 1.79 1.25 2.05.54 2.23.07 1.69 1.52 2.32-.2 1.63 1.7h2.25l1.8 1.23 2.03.62 2.03.59 2.12.33 1.98.72 1.9.99 2.06.49 1.86 1.06 1.95.81 2.01.66 2.3-.15 1.72 1.46 1.87 1.04 1.99.72 2 .68 2.12.32 2.1.4 1.93.89 2.02.62 1.94.92 2 .75 2.1.37 2.05.55 2.16.06 2.11.22 2.1.25 2.06.57 2.14-.16 2.09.65 2.13-.31 2.09-.48 2.16.34 1.99-.96 2.11-.16 2.07-.47 1.73-1.35 2.23-.14 2.07-.69 1.66-1.32 1.24-1.82 2.04-.82 1.19-1.77 1.66-1.3 1.44-1.53.55-2.21 1.24-1.65 1.78-1.31.87-1.91 1.58-1.48.49-2.25 1.34-1.77.45-2.17-.14-2.15.56-2.16-1.27-1.77-1.75-.91-1.66-1.54-2.07.97-2.07.03-1.95.69-2.01.66-1.79 1.13-1.72 1.25-.91 2.04-1.48 1.44-1.48 1.53-.75 1.97-.72 1.95-.8 1.97.1 2.12.13 2.07.13 2.09.56 2.02.51 2.04 1.37 1.62.72 1.98 1.26 1.65 1.4 1.52 1.53 1.38 1.49 1.42 1.43 1.5 1.57 1.34 1.78 1.07 2.04.6 1.47 1.56 1.97.68 2 .58 1.67 1.26 1.96.79 1.86 1.01 2 .7 2.07.53 1.86 1.03 1.77 1.26 2.28-.01 1.89.94 1.71 1.44 1.91.92 2 .67 2.37-.28 1.88.99 1.75 1.37 2.02.63 2.24-.01 1.9.95 2.05.55 1.94.86 1.77 1.33 2.05.55 2.29-.22 1.97.78 1.91.95 1.81 1.28 2.2.05 2.16.15 1.96.8 1.85 1.17 2.23-.09 2 .71 1.78 1.41 2.14.23 1.96.83 2.05.49 2.05.51 1.92.99 2.11.29 2.15.17 1.89 1.08 2.1.34 2.24-.21 1.89 1.11 1.96.88 2.06.45 2.26-.3 1.84 1.35 2.16.07 2.01.64 1.95.94 2.07.43 2.16.05 2.11.27 1.97.85 2.13.16 2.08.36 1.99.79 2.16.01 1.92 1.11 2.09.35 2.18-.07 1.9 1.16 2.14.13 2.08.35 1.93 1.09 2.2-.2 1.93 1.09 2.25-.42 2.07.44 2.14.08 1.89 1.29 2.2-.2 2.01.7 2.01.75 2.17-.09 1.93 1.16 2.08.37 2.24-.48 2.02.71 2.05.53 2.13.14 2.05.54 2.03.61 2.06.5 2.18-.15 2.09.3 2 .8 2.06.48 2.03.62 2.07.43 2.11.24 2.14.04 2.09.3 2.13.12 1.9 1.31 2.06.45 2.06.48 2.14.05 2.09.33 2.04.52 2.17-.16 1.98.88 2.07.42 2.04.61 2.26-.62 1.91 1.29 2.18-.21 2.13.11 2.09.35 2.01.7 2.13.1 1.95 1.06 2.21-.34 2.04.6 2.05.54 2.08.37 2.06.43 1.93 1.17 2.18-.17 1.99.89 2.23-.47 2.1.27 2.08.35 2.06.47 1.91 1.32 2.26-.66 2 .79 2.15-.02 2.06.49 2.02.71 2.18-.21 2.02.73 1.97.98 2.15-.05 2 .81 2.08.37 2.25-.61 2.03.67 1.95 1.14 2.26-.73 1.93 1.25h2.14l2.19-.25 2 .83 2.03.69 2.04.6 2.24-.65 2.07.44 2.01.78 2.18-.24 2.05.59 2.03.64 2.15-.09 2.07.44 2.04.63 2.07.48 2.18-.37 2.01.88 2.12.1 2.09.31 2.18-.39 2.07.44 1.98 1.19 2.18-.45 2.02.89 2.11.15 2.16-.25 2.08.4 2.09.23 2.11.22 2.02.84 2.16-.26 2.07.49 2.13-.08 2.12.08 2.01 1.06 2.12.07 2.15-.38 2.11.13 2.13-.09 2.02 1.1 2.17-.56 2.08.49 2.04.87 2.16-.4 2.1.23 2.07.54 2.14-.24 2.15-.51 2.09.33 2.05 1.02 2.12.02 2.09.32 2.12-.03 2.16-.91 2.07.9 2.09.49 2.16-.89 2.07.95 2.15-.87 2.09.42 2.13-.36 2.08.88 2.12-.2 2.1.57 2.13-1.11 2.11.53 2.11.08 2.11-.32 2.11.05 2.11.01 2.11-.01 2.11.57 2.11-.56 2.12.84 2.11-.2 2.09-1.01 2.14.98 2.1-.3 2.12.04 2.08-.79 2.12.18 2.14.58 2.1-.32 2.07-.94 2.16.84 2.08-.65 2.08-.41 2.1-.35 2.12.15 2.09-.41 2.18.79 2.11-.2 2.07-.55 2.09-.28 2.1-.3 2.04-.77 2.1-.18 2.2.65" id="レイヤー_2" data-name="レイヤー 2"/></g></svg>