<svg xmlns="http://www.w3.org/2000/svg" viewBox="0 0 331.86 69.38"><g id="Layer_2" data-name="Layer 2"><g id="レイヤー_1" data-name="レイヤー 1"><path d="M159.62 23.74c-3.9-2-8.17-2.51-12 .14-2.29 1.57-4.62 3.37-6.79 5.08a2.49 2.49 0 01-2.09.63 3.82 3.82 0 01-1.64-1.36 7.78 7.78 0 00-3.58-2 5.81 5.81 0 00-4.64 1.24c-2.25 2.13-2.58 3.88-5.17 5.55-3.73 2.42-7.33.38-11.35.59-1.64.09-6.31 2.78-3.5 2.78 11.28 0 40.26.06 55.7 0 .81-.01 3.05-8.48-4.94-12.65zM320.27 0a9.45 9.45 0 00-5.69 2.31c-1.07 1-2.18 2.19-3.61 2.12-1.63-.07-3.08-2-4.52-2.7-3.82-1.92-7.51-2.69-11.26-.12-2.22 1.52-4 3.57-6.13 5.23a2.41 2.41 0 01-2 .6 3.53 3.53 0 01-1.59-1.31 7.77 7.77 0 00-3.49-2 5.64 5.64 0 00-4.49 1.21c-2.19 2.07-2.51 3.76-5 5.39-3.62 2.34-7.11.37-11 .57-1.6.08-6.13 2.69-3.4 2.7h71.78c.82 0 3.36-5 1.18-8.65A11.58 11.58 0 00320.27 0zm-95.33 34.89a9.45 9.45 0 00-5.69 2.31c-1.08 1-2.18 2.19-3.62 2.13-1.62-.08-3.07-2-4.51-2.7-3.82-1.92-7.51-2.7-11.26-.13-2.23 1.52-4 3.57-6.13 5.23a2.39 2.39 0 01-2 .61 3.6 3.6 0 01-1.62-1.34 7.57 7.57 0 00-3.48-2 5.57 5.57 0 00-4.49 1.21c-2.19 2.06-2.51 3.76-5 5.38-3.62 2.35-7.11.37-11 .57-1.6.09-6.13 2.69-3.41 2.7h71.79c.82 0 3.36-5 1.17-8.65a11.56 11.56 0 00-10.75-5.32z" fill="#fffeff"/><path d="M129.87 62.14H24.57a52.65 52.65 0 01105.3 0zM.33 64.73h75.02c5.49 0 11 0 16.45-.11h1.75a.29.29 0 000-.57c-5.37-.05-10.68-.05-16-.05H.33a.35.35 0 000 .69zm85.37 1.99h34.04c4.18 0 8.36 0 12.54-.13a.29.29 0 000-.57c-6.46-.23-12.92-.13-19.39-.12l-14.64.1H85.7a.35.35 0 000 .69zm12.75-1.99h34.04c4.18 0 8.36 0 12.54-.13a.29.29 0 000-.57c-6.46-.23-12.92-.13-19.39-.12L111 64H98.45a.35.35 0 000 .69zm-57.88 4.58H74.6c4.19 0 8.36 0 12.55-.14a.28.28 0 000-.56c-6.46-.24-12.93-.14-19.39-.12H40.57a.35.35 0 000 .69z" fill="#ffdc64"/></g></g></svg>