<svg xmlns="http://www.w3.org/2000/svg" viewBox="0 0 325.22 39.88"><g id="Layer_2" data-name="Layer 2"><g id="レイヤー_1" data-name="レイヤー 1"><path d="M132.41 33.33l-.67.94-.88.76-.92.7-1.07.44-1.04.5-1.14.21-1.13.25-1.15-.01-1.16.11-1.16-.05-1.09-.24-.99-.5-.7-.83-.37-1.02-.03-1.1.12-1.1.33-1.06.33-1.06.43-1.02.39-1.04.49-1 .54-.98.61-.93.55-.98.49-.99.6-.94.43-1.01.37-1.02.13-1.06-.21-1.05-.59-.89-.82-.68-.95-.5-1-.39-1.11-.05-1.12-.02-1.07.31-1.01.46-.95.56-.95.58-.84.73-.75.82-.73.83-.68.88-.64.91-.56.96-.56.95-.61.94-.55.96-.41 1.04-.55.97-.41 1.04-.45 1.02-.43 1.02-.38 1.05-.45 1.02-.35 1.05-.39 1.04-.26 1.09-.35 1.04.4-1.02.51-.97.33-1.05.39-1.03.44-1.01.38-1.03.33-1.04.32-1.05.34-1.05.28-1.06.21-1.08.26-1.07.29-1.07.1-1.1.16-1.09-.05-1.1-.1-1.09-.2-1.07-.45-.99-.73-.82-1.03-.38-1.1-.12-1.11.14-1.01.48-.96.53-.92.6-.86.7-.79.77-.66.89-.66.89-.69.86-.62.91-.61.93-.6.93-.49 1-.52.98-.53.97-.51.98-.51.99-.35 1.06-.55.97-.35 1.05-.47 1.01-.43 1.02-.37 1.04-.37 1.03.68-.97.51-1.06.41-1.1.41-1.11.38-1.11.29-1.14.22-1.16.26-1.15.14-1.15-.01-1.15-.38-1.09-.64-.97-.96-.65-.99-.58-1.08-.41-1.13-.22-1.14-.15-1.14-.23-1.15-.05h-1.16l-1.16.01-1.15-.04h-1.16l-1.13.09-1.13.05-1.13.01-1.13-.03-1.12-.01-1.13.03-1.13.04-1.13-.04-1.13-.05-1.14.01-1.13.08-1.13-.06-1.13-.01-1.13.07-1.13.03-1.14-.09-1.13.06-1.13.01-1.13-.01-1.13.02-1.13.01-1.13-.04-1.12-.02-1.13-.04-1.13.11-1.13-.01-1.13-.07-1.14.05-1.12-.04-1.13-.06-1.13.05h-1.14l-1.13.04-1.13.01-1.14-.1-1.13.04-1.14.03-1.14.01-1.14-.03-1.14-.02-1.14.04-1.13.03-1.14-.05-1.13-.07-1.14.01h-1.13l-1.13-.02-1.14-.01-1.13.1-1.13-.08-1.14.08-1.13-.04-1.13.03-1.14.01-1.13-.12h-1.13l-1.14.03-1.13.02-1.14.03-1.13-.05-1.13.06h-1.14L9.44 21l-1.14.04-1.13-.07-1.13-.02-1.13.07-1.13.03-1.12-.06m150.42-4.57l-1.14-.12-1.16.02-1.14-.15h-1.15l-1.15.09-1.14.19-1.14.09-1.12.3-1.1.29-1.09.37-1.1.35-.98.6-1.02.53-.88.75-.88.73-.74.87-.69.92-.66.95-.38 1.09-.39 1.08-.39 1.1-.04 1.14-.27 1.12.08 1.14.12 1.13.32 1.08.24 1.12.55 1 .8.83.86.75 1.07.41 1.11.22 1.13.04 1.1-.28 1.11-.25.99-.54.96-.61.85-.74.86-.74.82-.77.8-.81.62-.94.69-.9.69-.91.49-1.03.57-.97.51-1.02.55-.99-.56.99-.58 1-.45 1.06-.41 1.07-.29 1.12-.42 1.08-.19 1.15v1.15l.18 1.13.52.98.91.65 1.12.15h1.16l1.12-.27 1.14-.17 1.06-.45 1.06-.43 1.09-.4.9-.73 1.01-.56.8-.83.88-.74.77-.85.71-.91.7-.91.56-1 .61-.98.59-.99.36-1.1.57-1 .51-1.03.44-1.06.4-1.08.39-1.08.35-1.1.38-1.09.4-1.08-.37 1.08-.43 1.05-.27 1.11-.47 1.05-.36 1.08-.26 1.12-.36 1.08-.24 1.12-.23 1.12-.13 1.13-.19 1.13-.3 1.11-.06 1.15.18 1.14.01 1.14.4 1.06.42 1.08.99.59 1.09.32 1.13-.17 1.09-.23 1.04-.44.97-.57 1.05-.46.93-.63.87-.73.9-.67.94-.64.8-.8.88-.71.87-.73.82-.77.73-.86.77-.83.92-.69.71-.88.75-.85.76-.83.73-.86.74-.86.75-.84.76-.85.62-.95.77-.84.68-.9.55-1 .74-.86.54-1 .71-.88.64-.93.51-1.02.48-1.03.52-1 .53-1 .41-1.05.27-1.09.27-1.09.06-1.13-.56-.95-.82-.75-1.07-.27-1.1.16-1.05.41-.94.62-.86.73-.85.75-.69.9-.84.78-.64.94-.63.95-.62.95-.67.92-.45 1.05-.55.99-.62.96-.43 1.05-.5 1.03-.41 1.06-.32 1.1-.48 1.03-.27 1.11-.35 1.08-.15 1.14-.35 1.08-.21 1.12-.17 1.13.08 1.15-.06 1.14.04 1.14.31 1.09.29 1.09.45 1.04.62.95.76.86.97.62 1.08.39 1.11.28 1.13.05 1.12.16 1.12.02 1.13-.08 1.13.04 1.12-.09 1.11-.2 1.09-.28 1.09-.27 1.09-.25 1.09-.33.99-.54 1-.52.94-.62.87-.71.94-.63.72-.86.71-.87.64-.93.37-1.06.42-1.04.15-1.11-.16-1.15-.75-.89-1.08-.4-1.08-.37h-1.16l-1.14.16-1.07.42-1.06.45-.81.82-.86.75-.51 1.03-.36 1.08-.2 1.13-.11 1.15.16 1.14.26 1.11.36 1.09.66.95.93.67.99.58 1.05.49 1.15.13 1.14.15 1.15-.05 1.15.02 1.15-.05 1.14-.17 1.13-.23 1.13-.27 1.09-.38 1.14-.23 1.14-.23 1.02-.44 1.05-.36 1.02-.42.96-.57.96-.56.92-.6.92-.62.8-.76.88-.68.75-.82.71-.85.74-.83.79-.77.74-.81.79-.78.89-.65.98-.51.92-.6 1-.49 1.09-.23 1.03-.38 1.08-.23 1.08-.27 1.11-.22 1.13.01 1.13-.17h1.13l1.13.01 1.13.03 1.13-.01 1.12-.18 1.13.11 1.13-.11 1.13.06 1.13-.07 1.13.02 1.14.04h1.12l1.13-.07 1.13.01 1.13.04 1.13-.11 1.13.04 1.13.04 1.14.04 1.12-.15 1.13.12 1.12-.03 1.13-.07 1.13-.02 1.12.13 1.13.01 1.13-.06 1.13-.07 1.13.07h1.13l1.12-.01 1.13-.04 1.13.02 1.13.13 1.14-.1 1.13.06 1.13.03 1.13.01 1.14-.09 1.13.12 1.14-.12 1.14.07 1.13.08 1.14-.05 1.13-.04 1.13.02 1.14.02 1.13-.04 1.13.12 1.14.05 1.13-.05 1.13.05 1.14-.09h2.26l1.13.03 1.13.18 1.14-.17 1.13.04 1.13.04 1.13-.05 1.13.18 1.13-.04 1.14-.09 1.13.14 1.13-.01 1.13.03 1.13.08 1.13-.02 1.14-.09 1.13.11 1.13-.08 1.13.05 1.13-.04 1.12.14 1.04-.03" fill="none" stroke="#fff" stroke-linecap="round" stroke-linejoin="round" stroke-width="5.31"/><path d="M171.38 3.21a2.91 2.91 0 00-.82.26 3.21 3.21 0 00-.84.18 3.68 3.68 0 00-.7.53 3.41 3.41 0 00-.48.71 3.2 3.2 0 00-.22.82 3.3 3.3 0 00-.21.82 3.3 3.3 0 00.21.82 3.16 3.16 0 00.33.75 3.24 3.24 0 00.52.64 3.31 3.31 0 00.58.6 3.78 3.78 0 00.82.2 3.2 3.2 0 00.81.2 3 3 0 00.8-.2 3.32 3.32 0 00.79-.25 3 3 0 00.64-.53 2.92 2.92 0 00.52-.64 3.06 3.06 0 00.45-.73 3.13 3.13 0 000-.86 3.25 3.25 0 00-.07-.83 3.83 3.83 0 00-.21-.84c-.14-.25-.48-.34-.68-.54s-.3-.54-.54-.69a3.24 3.24 0 00-.84-.22 3.25 3.25 0 00-.86-.2z" fill="#fff"/></g></g></svg>