<svg xmlns="http://www.w3.org/2000/svg" viewBox="0 0 418.11 62.46"><g id="Layer_2" data-name="Layer 2"><g id="レイヤー_1" data-name="レイヤー 1"><path d="M171.28 52.26l-1.05 1.44-1.29 1.25-1.51.99-1.62.77-1.69.56-1.68.68-1.78.36-1.82-.16-1.79.12-1.79-.22-1.72-.17-1.57-.71-1.12-1.29-.63-1.61.18-1.73.1-1.71.54-1.65.43-1.67.61-1.62.67-1.61.85-1.52.96-1.45.6-1.65.97-1.45.98-1.43.83-1.53.68-1.59.62-1.57.19-1.69-.4-1.64-.76-1.53-1.34-1.08-1.6-.58-1.6-.42-1.69-.21-1.73-.11-1.71.38-1.6.68-1.54.82-1.37 1.08-1.21 1.25-1.22 1.22-1.1 1.33-1 1.41-1.02 1.39-.96 1.44-1 1.42-.76 1.56-.95 1.45-.77 1.56-.62 1.62-.74 1.57-.85 1.52-.52 1.67-.75 1.57-.43 1.69-.67 1.6-.4 1.69-.68 1.59-.52 1.64.83-1.6.47-1.75.68-1.66.61-1.69.72-1.65.49-1.73.56-1.7.82-1.63.49-1.73.26-1.8.45-1.74.54-1.73.26-1.79.03-1.8.24-1.79-.27-1.79-.14-1.79-.9-1.55-1.08-1.37-1.66-.61-1.7-.22-1.73.12-1.61.68-1.46.9-1.48.91-1.25 1.19-1.16 1.27-1.1 1.32-1.26 1.2-.82 1.54-.93 1.45-1.04 1.38-.94 1.45-.77 1.55-.74 1.56-.86 1.5-.68 1.59-.98 1.44-.65 1.61-.58 1.64-.74 1.56-.68 1.58-.48 1.67-.65 1.59-.72 1.72 1-1.71.72-1.68.84-1.64.52-1.77.61-1.73.5-1.77.55-1.75.4-1.81.04-1.81-.07-1.8-.46-1.76-1.14-1.41-1.39-1.15-1.66-.67-1.63-.78-1.79-.24-1.75-.42-1.78-.27-1.8-.21-1.81.22-1.8-.02-1.81-.22-1.8.03-1.77.19-1.76.01-1.77-.1-1.76.3-1.77-.1-1.76-.06-1.76.16-1.77-.1-1.76-.08-1.77.03-1.77-.07-1.77.29-1.76-.21-1.77.06-1.76-.05-1.77.17-1.77-.14-1.76-.11-1.77.03-1.77-.03-1.76.16-1.77.09-1.77-.22-1.77-.01-1.77.24-1.78-.24h-1.77l-1.78.15-1.78-.03-1.76.08-1.78-.05-1.76-.13-1.78.02-1.77-.01-1.77.04-1.77-.17h-1.77l-1.77.18-1.77-.14-1.77.21-1.77-.01-1.77-.23-1.77.15-1.78-.14-1.77-.01-1.77-.06-1.76-.07-1.77.05-1.76-.04m199.44-6.99l-1.81-.01-1.78-.07-1.78-.3-1.8-.03-1.79.18-1.78.23-1.79.17-1.74.45-1.69.58-1.73.46-1.66.68-1.57.84-1.51.94-1.48.99-1.23 1.3-1.46 1.1-.81 1.63-1.06 1.45-.57 1.71-.7 1.66-.6 1.7-.33 1.75-.08 1.78.08 1.77-.05 1.79.45 1.74.96 1.52.61 1.66 1.15 1.36 1.48.96 1.59.71 1.69.45 1.75-.1 1.74-.23 1.7-.47 1.65-.66 1.4-1.11 1.29-1.2 1.4-1.07 1.36-1.14 1.11-1.38 1.16-1.33 1.06-1.42.67-1.67.91-1.51 1.19-1.35.49-1.74.8-1.71-.88 1.69-.62 1.69-.61 1.69-.8 1.61-.56 1.71-.18 1.8-.53 1.72.02 1.78-.08 1.81.83 1.64 1.67.66 1.69.57 1.77-.3 1.77-.3 1.74-.41 1.77-.35 1.64-.75 1.65-.72 1.49-1 1.36-1.18 1.4-1.1 1.16-1.36 1.5-1.07.82-1.63 1.2-1.34 1.04-1.46.84-1.58 1.01-1.5.45-1.78 1.11-1.46.64-1.68.69-1.65.38-1.78.64-1.67.93-1.57.49-1.73.63-1.56-.63 1.54-.86 1.58-.45 1.73-.63 1.66-.31 1.77-.43 1.72-.45 1.72-.78 1.64-.42 1.73-.13 1.79-.43 1.74-.27 1.77-.09 1.8.12 1.78.16 1.79.61 1.67.83 1.55 1.36 1.19 1.77.42 1.78-.26 1.68-.5 1.58-.76 1.55-.82 1.53-.85 1.65-.71 1.25-1.27 1.53-.91 1.31-1.18 1.32-1.16 1.37-1.11 1.42-1.06 1.29-1.19.97-1.53 1.24-1.25 1.41-1.09 1.28-1.22 1-1.47 1.14-1.34 1.36-1.15 1.07-1.41 1.07-1.4 1.04-1.42 1.12-1.36 1.33-1.2.83-1.58 1.05-1.42 1.15-1.35 1.03-1.43.7-1.65 1.13-1.37.72-1.62 1.12-1.4.88-1.54.32-1.79.64-1.62.53-1.66.76-1.64-.22-1.78-.56-1.7-1.38-1.2-1.79-.5-1.73.54-1.62.66-1.53.88-1.42 1.07-1.26 1.26-1.19 1.31-.89 1.56-1.17 1.33-.96 1.48-1.08 1.41-.84 1.56-1.09 1.42-.74 1.62-.84 1.56-.78 1.59-.62 1.67-.78 1.6-.41 1.74-.49 1.7-.86 1.59-.54 1.69-.29 1.76-.2 1.77-.24 1.75-.45 1.73.13 1.79-.37 1.77.49 1.75-.02 1.8.82 1.61.45 1.74 1.02 1.48 1.48 1.02 1.47.93 1.59.74 1.7.5 1.73.37 1.75.19 1.78-.35 1.75.22 1.75-.12 1.77-.01 1.7-.5 1.75-.19 1.7-.44 1.65-.58 1.75-.36 1.47-1.01 1.7-.54 1.43-1.06 1.38-1.08 1.25-1.23 1.34-1.14.9-1.52.94-1.45.81-1.54.75-1.61.06-1.77-.38-1.71-.94-1.56-1.71-.63-1.76-.26-1.78-.32-1.75.43-1.65.68-1.64.69-1.44 1.06-.97 1.49-1.14 1.38-.48 1.72-.45 1.75.07 1.81.26 1.77-.04 1.84 1.13 1.47.79 1.61 1.47 1.04 1.56.85 1.66.64 1.72.57 1.82-.21 1.78.11 1.79-.05 1.79-.1 1.78-.23 1.77-.29 1.71-.61 1.76-.34 1.75-.41 1.69-.65 1.7-.33 1.59-.68 1.71-.39 1.45-.99 1.39-1.02 1.45-.91 1.54-.82 1.39-1.05.96-1.49 1.19-1.24 1.16-1.27 1.35-1.12 1.05-1.37 1.4-1.03 1.15-1.29 1.46-.92L319 36.3l1.53-.8 1.67-.47 1.49-.95 1.68-.42 1.75-.12 1.63-.65 1.75-.1 1.72-.32 1.77.26 1.72-.25 1.73-.21 1.75.19 1.74.05 1.73-.49 1.74.02 1.74.07 1.74.01 1.74.06 1.75.1 1.74-.02 1.74-.36 1.74.39 1.74-.3 1.74.35 1.74-.3 1.74.17 1.74-.25 1.74.17 1.75.04 1.74.29 1.75-.43 1.75.22 1.74.09 1.75.05 1.76-.26 1.74.44 1.74-.16 1.75.16 1.75-.18 1.74-.15 1.75.26 1.74.15 1.75-.06 1.74.06 1.75-.1 1.74.3 1.75-.26 1.74.29 1.74-.22 1.76-.07 1.73.48 1.75-.12 1.74-.22 1.73.45 1.57-.15" fill="none" stroke="#fff" stroke-linecap="round" stroke-linejoin="round" stroke-width="8.29"/><path d="M232.12 5.59a4.67 4.67 0 00-1.3 0 4.5 4.5 0 00-1.15.6 5.34 5.34 0 00-1.19.61 5.21 5.21 0 00-.68 1.2 4.74 4.74 0 00-.52 1.2 5 5 0 000 1.29c0 .45-.28.94-.17 1.35a5.51 5.51 0 00.65 1.19 5.17 5.17 0 00.77 1.08 5.26 5.26 0 001.08.79 5.16 5.16 0 001.21.57 5.28 5.28 0 001.33.1 5.39 5.39 0 001.34-.06 5.06 5.06 0 001.17-.67 4.94 4.94 0 001-.86 5.17 5.17 0 00.93-.94 4.82 4.82 0 00.58-1.21 5.38 5.38 0 00.07-1.34 4.89 4.89 0 00-.34-1.26 5 5 0 00-.48-1.23 5 5 0 00-.77-1 5.11 5.11 0 00-1-.87 5.74 5.74 0 00-1.26-.37 4.93 4.93 0 00-1.27-.17z" fill="#fff"/></g></g></svg>