<svg xmlns="http://www.w3.org/2000/svg" viewBox="0 0 395.99 242.48"><g id="Layer_2" data-name="Layer 2"><path d="M53.56 56.62a8.65 8.65 0 011.56-.13 13.43 13.43 0 014.13.61 16.53 16.53 0 015.35 2.77 17.62 17.62 0 012.5 2.4 16.85 16.85 0 011.09 1.43c.19.32.32.34-.1 0l-.19-.11c-.32-.15 0 0-.08 0a1.94 1.94 0 00-.34-.11 1 1 0 00-.23 0 1.41 1.41 0 00-.57.07c-.17.07-.08 0 0 0l.65-.49a15.45 15.45 0 011.49-1 18.11 18.11 0 018.94-2.62 14.35 14.35 0 014.13.47 10.33 10.33 0 011.48.5l-1.47.45c-.92.28-2.18.7-3.62 1.27a35.34 35.34 0 00-4.59 2.27c-.78.47-1.57 1-2.34 1.53l-1.12.86-.62.49a4.5 4.5 0 01-1.34.79 3.34 3.34 0 01-1.36.2l-.43-.06a3 3 0 01-.48-.31l-.27-.12a3.13 3.13 0 01-.36-.22 4.29 4.29 0 01-1.11-1.26c-.25-.39-.49-.79-.77-1.17-.55-.75-1.12-1.47-1.72-2.15A27.71 27.71 0 0058 59.54c-1.22-.92-2.34-1.65-3.15-2.14zm23 175.64a8.45 8.45 0 011.53-.27 13.37 13.37 0 014.18.22 16.76 16.76 0 015.58 2.27 17.36 17.36 0 013.93 3.52c.22.3.35.31-.11 0l-.19-.1c-.33-.12 0 0-.09 0a1.52 1.52 0 00-.35-.08.91.91 0 00-.23 0 1.29 1.29 0 00-.56.12c-.17.09-.08.06 0 0l.6-.55c.36-.34.94-.79 1.39-1.13a17.78 17.78 0 012.93-1.76 17.45 17.45 0 015.73-1.67 14.38 14.38 0 014.15.08 10.38 10.38 0 011.53.36l-1.43.59c-.88.36-2.11.9-3.48 1.6a33.88 33.88 0 00-4.33 2.54c-.74.55-1.48 1.12-2.19 1.75l-1 .95-.57.55a5 5 0 01-1.27.91 3.34 3.34 0 01-1.34.32 3.24 3.24 0 01-.43 0 4.43 4.43 0 01-.55-.11l-.27-.1a1.93 1.93 0 01-.38-.19 4.26 4.26 0 01-1.22-1.15c-.29-.37-.57-.74-.88-1.09-.61-.7-1.25-1.36-1.91-2a27.14 27.14 0 00-4-3.08 34.71 34.71 0 00-3.33-1.84zM393.67 41.34a22 22 0 00-6.36-.32 27.74 27.74 0 00-13.44 4.9c-.63.44-1.39 1-2 1.49-.23-.26-.44-.53-.68-.78a26.54 26.54 0 00-4.07-3.43 25.39 25.39 0 00-8.45-3.72 20.87 20.87 0 00-6.39-.53 13.32 13.32 0 00-2.37.36l2.11 1.07a53.86 53.86 0 015 3 46.15 46.15 0 016 4.9c5 4.82 7 8.59 8.81 8.2 1.23-.26 4.48-3.83 9.65-7.42a52.73 52.73 0 016.8-3.93c2.13-1 4-1.79 5.41-2.3L396 42a15.27 15.27 0 00-2.33-.66zM27.55 98.68a13.81 13.81 0 00-4-.72 17.43 17.43 0 00-5.8.74 16.81 16.81 0 00-3.12 1.3c-.44.23-1 .52-1.37.78-.12-.18-.24-.37-.37-.55a16.63 16.63 0 00-2.29-2.5 16.44 16.44 0 00-5.06-3 13.21 13.21 0 00-4-.85 8.7 8.7 0 00-1.53 0l1.25.85A33.72 33.72 0 014.19 97a28.91 28.91 0 013.42 3.59c2.78 3.47 3.72 6 4.92 5.92.81-.07 3.15-2.06 6.72-3.92a34.72 34.72 0 014.64-1.94c1.43-.46 2.7-.8 3.61-1l1.5-.39a9.37 9.37 0 00-1.45-.58zm290-41.34a9 9 0 00-2.47-.58 10.88 10.88 0 00-3.64.27 10.7 10.7 0 00-2 .68c-.28.13-.62.3-.88.44l-.21-.35a10.81 10.81 0 00-1.35-1.64 10 10 0 00-3-2.06 8.17 8.17 0 00-2.46-.66 5.34 5.34 0 00-1 0l.75.57a22.09 22.09 0 011.76 1.53 17.91 17.91 0 012 2.35c1.61 2.24 2.11 3.86 2.86 3.84.51 0 2-1.18 4.32-2.21a21.46 21.46 0 012.94-1c.91-.24 1.71-.41 2.29-.51l.92-.17a7 7 0 00-.8-.5zm58.71-53.5a19.34 19.34 0 012.31.68 17 17 0 012.91 1.35 16.66 16.66 0 011.46 1c.24.17.46.37.69.55a2.51 2.51 0 00.91.55 1.1 1.1 0 00.26.06L385 8h.62a2 2 0 00.78-.38 2.87 2.87 0 00.66-.73l.28-.43.51-.73c.35-.48.73-.94 1.11-1.38a22.17 22.17 0 012.33-2.26c.75-.62 1.44-1.12 1.94-1.47l.8-.56a7.06 7.06 0 00-1 0 9 9 0 00-2.58.52 11.42 11.42 0 00-3.31 1.82 11.07 11.07 0 00-1.57 1.5 9.22 9.22 0 00-.71.89l-.29.42c0 .08-.1.11 0 0a1.15 1.15 0 01.33-.15h.14a.58.58 0 01.23 0h.19c.32.13.25.15.07 0a9.84 9.84 0 00-.94-.65 10.49 10.49 0 00-5.74-1.59 8.58 8.58 0 00-2.61.43 5.36 5.36 0 00-.91.38z" fill="#fffeff" id="レイヤー_1" data-name="レイヤー 1"/></g></svg>