<svg xmlns="http://www.w3.org/2000/svg" viewBox="0 0 868.39 252.96"><g id="Layer_2" data-name="Layer 2"><path d="M61.66 241a11 11 0 011.9-.43 16.51 16.51 0 015.19.07 20.49 20.49 0 017.06 2.51 22.46 22.46 0 013.49 2.54c.54.5 1.09 1 1.59 1.58.29.37.44.37-.14 0l-.25-.11c-.41-.14 0 0-.1 0a1.51 1.51 0 00-.44-.08 1.4 1.4 0 00-.29 0 1.79 1.79 0 00-.69.17c-.21.12-.1.09 0-.05l.72-.72a20.38 20.38 0 011.69-1.48A22.51 22.51 0 0192 240.24a17.59 17.59 0 015.17-.11 12.7 12.7 0 011.91.37l-1.74.8c-1.08.49-2.58 1.23-4.24 2.17a42.38 42.38 0 00-5.3 3.53c-.89.72-1.78 1.47-2.63 2.28l-1.24 1.24-.68.72a5.56 5.56 0 01-1.52 1.2 4.2 4.2 0 01-1.64.47 4.86 4.86 0 01-.54 0 6.71 6.71 0 01-.69-.11l-.35-.11c-.17-.06-.33-.14-.48-.21a5.27 5.27 0 01-1.58-1.38c-.38-.43-.74-.89-1.15-1.3-.8-.84-1.63-1.63-2.48-2.36a33.87 33.87 0 00-5.16-3.62 48.15 48.15 0 00-4.23-2.11zM325.78 22a10.88 10.88 0 011.93-.17 16.76 16.76 0 015.14.77 20.45 20.45 0 016.66 3.45 21.24 21.24 0 013.11 3 19.9 19.9 0 011.38 1.81c.24.4.39.42-.13 0l-.23-.14c-.4-.19-.05 0-.1-.06a2.71 2.71 0 00-.43-.14h-.29a1.75 1.75 0 00-.7.09c-.22.09-.11.07 0-.05l.8-.62c.5-.38 1.26-.87 1.86-1.23a22.34 22.34 0 0111.13-3.26 17.72 17.72 0 015.13.58 12.61 12.61 0 011.85.62l-1.84.56c-1.14.35-2.72.88-4.5 1.58a43.67 43.67 0 00-5.71 2.83c-1 .58-2 1.21-2.91 1.9l-1.39 1.07-.77.62a6.11 6.11 0 01-1.68 1 4.14 4.14 0 01-1.69.24 3.35 3.35 0 01-.53-.07 4.48 4.48 0 01-.67-.21l-.33-.15a4.92 4.92 0 01-.45-.28 5.07 5.07 0 01-1.37-1.57c-.32-.49-.62-1-1-1.45-.68-.93-1.39-1.83-2.14-2.68a35.4 35.4 0 00-4.62-4.28 48.644 48.644 0 00-3.91-2.66zm298 216.83a10.83 10.83 0 011.91-.34 16.76 16.76 0 015.19.28 20.56 20.56 0 016.94 2.82 21.11 21.11 0 013.38 2.69 19.8 19.8 0 011.52 1.64c.27.38.43.38-.13 0l-.25-.12c-.41-.15 0 0-.11-.05a2.24 2.24 0 00-.43-.09 1.46 1.46 0 00-.29 0 1.71 1.71 0 00-.69.15c-.21.11-.11.08 0-.05l.74-.69c.46-.43 1.17-1 1.73-1.4a22.68 22.68 0 0110.78-4.28 17.62 17.62 0 015.17.11 12.84 12.84 0 011.9.45l-1.78.72c-1.1.45-2.62 1.12-4.33 2a42.66 42.66 0 00-5.43 3.35c-.92.67-1.84 1.39-2.72 2.16l-1.29 1.19-.71.69a5.91 5.91 0 01-1.58 1.13 4.16 4.16 0 01-1.65.4 5 5 0 01-.54 0 3.9 3.9 0 01-.68-.15l-.35-.12a4.12 4.12 0 01-.47-.23 5.33 5.33 0 01-1.52-1.44c-.36-.45-.7-.92-1.09-1.35-.76-.87-1.56-1.7-2.38-2.47a33.53 33.53 0 00-5-3.83 45.33 45.33 0 00-4.14-2.29zM749 3a26.82 26.82 0 00-8-.35 33.91 33.91 0 00-11 2.87 34.36 34.36 0 00-5.69 3.21c-.78.55-1.73 1.25-2.44 1.86-.29-.32-.55-.66-.85-1a33 33 0 00-5-4.27A31.43 31.43 0 00705.45.73a25.62 25.62 0 00-7.94-.66 17.13 17.13 0 00-3 .44l2.62 1.33a69.4 69.4 0 016.26 3.69 57.61 57.61 0 017.49 6.09c6.22 6 8.67 10.69 11 10.21 1.54-.33 5.58-4.77 12-9.24a67.89 67.89 0 018.46-4.89c2.66-1.25 5-2.22 6.73-2.86l2.75-1A18.62 18.62 0 00749 3zM293.41 74.38a17.09 17.09 0 00-5-.89A22 22 0 00277.33 76c-.54.28-1.2.65-1.7 1-.16-.22-.3-.46-.46-.68a20.87 20.87 0 00-2.86-3.12 20.16 20.16 0 00-6.31-3.83 16.34 16.34 0 00-5-1.06 11.7 11.7 0 00-1.9 0l1.55 1.06a44.38 44.38 0 013.67 2.85 36.14 36.14 0 014.25 4.48c3.46 4.31 4.63 7.48 6.12 7.36 1-.08 3.92-2.57 8.37-4.88a43.71 43.71 0 015.76-2.41c1.79-.58 3.36-1 4.5-1.26l1.83-.44a12.38 12.38 0 00-1.74-.69zM654.27 23a10.66 10.66 0 00-3.07-.72 13.35 13.35 0 00-4.52.33 14.08 14.08 0 00-2.46.85c-.35.16-.77.36-1.09.55-.09-.15-.17-.3-.26-.44a13.47 13.47 0 00-1.67-2 12.62 12.62 0 00-3.79-2.56 9.92 9.92 0 00-3.07-.83 6.59 6.59 0 00-1.18 0l.93.71a27 27 0 012.18 1.89 22.73 22.73 0 012.5 2.93c2 2.79 2.62 4.81 3.56 4.78.62 0 2.52-1.46 5.36-2.75a26.86 26.86 0 013.67-1.31c1.13-.3 2.12-.51 2.84-.64l1.15-.2a7.35 7.35 0 00-1.08-.59zM21.67 174.82a10.63 10.63 0 00-3.16-.11 13.81 13.81 0 00-6.62 2.51 11.76 11.76 0 00-1 .75c-.12-.13-.22-.26-.34-.38a13.2 13.2 0 00-2-1.67 12.39 12.39 0 00-4.21-1.79 10 10 0 00-3.17-.22 6.84 6.84 0 00-1.17.19l1.05.52a25.92 25.92 0 012.51 1.43 23.49 23.49 0 013 2.39c2.5 2.35 3.5 4.21 4.41 4 .61-.14 2.2-1.92 4.73-3.74a27.17 27.17 0 013.35-2c1.05-.51 2-.91 2.66-1.17l1.09-.43a8 8 0 00-1.13-.28zM93.09 199a28.41 28.41 0 012.51 1.64 21.27 21.27 0 014.37 4.32c.22.3.42.61.63.91a3.18 3.18 0 00.89 1 2 2 0 00.29.17l.21.09a2.35 2.35 0 00.42.13h.34a2.68 2.68 0 001.07-.18 3.7 3.7 0 001.05-.64l.48-.4.87-.69c.59-.45 1.21-.86 1.82-1.25a28.8 28.8 0 013.59-1.86c1.12-.47 2.11-.82 2.83-1l1.15-.38a8 8 0 00-1.18-.37 11.15 11.15 0 00-3.26-.31 14.15 14.15 0 00-4.6 1 14.75 14.75 0 00-2.41 1.22c-.37.24-.85.56-1.16.81l-.5.4c-.09.08-.16.09 0 0a1 1 0 01.44-.06h.18a1.2 1.2 0 01.28.08s-.19-.08.06 0l.15.09c.34.28.24.27.08 0a10.73 10.73 0 00-.88-1.11 13 13 0 00-6.27-4 10.21 10.21 0 00-3.26-.42 6.93 6.93 0 00-1.23.12zM846.3 97.07a29.17 29.17 0 012.88.85 21.4 21.4 0 013.62 1.68c.61.36 1.22.77 1.81 1.2.3.21.57.46.86.69a3.57 3.57 0 001.14.68l.32.08h.23a3.21 3.21 0 00.44 0l.34-.06a2.58 2.58 0 001-.48 3.65 3.65 0 00.82-.91l.34-.53.64-.91c.44-.6.91-1.17 1.38-1.71a26.17 26.17 0 012.9-2.82c.94-.77 1.78-1.4 2.41-1.83l1-.69a9.16 9.16 0 00-1.23 0 11.31 11.31 0 00-3.2.69 14.17 14.17 0 00-4.13 2.26 13.72 13.72 0 00-2 1.87 11 11 0 00-.87 1.07l-.37.52c-.06.1-.12.14 0 0a1.11 1.11 0 01.41-.19h.18a1.28 1.28 0 01.28 0h.24c.41.17.31.19.09 0-.38-.29-.77-.55-1.17-.8a13.11 13.11 0 00-7.14-2 10.83 10.83 0 00-3.25.54 6.51 6.51 0 00-1.14.48z" fill="#fffeff" id="レイヤー_1" data-name="レイヤー 1"/></g></svg>