<svg xmlns="http://www.w3.org/2000/svg" viewBox="0 0 103.78 62.21"><defs><style>.cls-1{fill:#fffeff;}</style></defs><g id="Layer_2" data-name="Layer 2"><g id="レイヤー_1" data-name="レイヤー 1"><path class="cls-1" d="M66.65.16A11.7,11.7,0,0,1,68.58,0a16.7,16.7,0,0,1,5.14.76,20.64,20.64,0,0,1,6.66,3.45A21.5,21.5,0,0,1,84.85,9c.24.4.39.42-.13,0l-.23-.14c-.4-.18,0,0-.1-.05A2,2,0,0,0,84,8.62a1,1,0,0,0-.29,0,1.81,1.81,0,0,0-.7.08c-.22.09-.11.07,0-.05l.8-.61c.5-.39,1.26-.87,1.85-1.24A22.51,22.51,0,0,1,89.5,4.91,22.18,22.18,0,0,1,96.79,3.5a17.69,17.69,0,0,1,5.14.59,12.61,12.61,0,0,1,1.85.62l-1.84.56c-1.14.34-2.72.87-4.5,1.58a41.28,41.28,0,0,0-5.71,2.83c-1,.58-2,1.21-2.91,1.9l-1.39,1.06-.77.62a5.86,5.86,0,0,1-1.68,1,4.3,4.3,0,0,1-1.69.25,5.24,5.24,0,0,1-.53-.08,4.58,4.58,0,0,1-.67-.2l-.33-.16a3.35,3.35,0,0,1-.45-.27,5.2,5.2,0,0,1-1.37-1.57c-.32-.49-.62-1-1-1.45a33.5,33.5,0,0,0-2.14-2.68A34.07,34.07,0,0,0,72.21,3.8,43.84,43.84,0,0,0,68.3,1.14Z"/><path class="cls-1" d="M34.28,52.5a17.38,17.38,0,0,0-5-.9,21.84,21.84,0,0,0-7.22.93A21.52,21.52,0,0,0,18.2,54.1c-.54.29-1.2.65-1.7,1-.16-.23-.3-.47-.46-.68a20.39,20.39,0,0,0-2.86-3.12,20.2,20.2,0,0,0-6.29-3.79,16.41,16.41,0,0,0-5-1.07,10.83,10.83,0,0,0-1.9,0l1.55,1.06a42.29,42.29,0,0,1,3.67,2.85,36.74,36.74,0,0,1,4.25,4.47c3.46,4.31,4.63,7.49,6.12,7.37,1-.09,3.92-2.57,8.37-4.88a41.16,41.16,0,0,1,5.76-2.41c1.79-.58,3.36-1,4.5-1.27l1.83-.43A13.09,13.09,0,0,0,34.28,52.5Z"/></g></g></svg>