<svg xmlns="http://www.w3.org/2000/svg" viewBox="0 0 37.39 13.15"><defs><style>.cls-1{fill:#fffeff;}</style></defs><g id="Layer_2" data-name="Layer 2"><g id="レイヤー_1" data-name="レイヤー 1"><path class="cls-1" d="M0,.43A10.83,10.83,0,0,1,1.91.09,16.75,16.75,0,0,1,7.1.37a20.52,20.52,0,0,1,7,2.82,21.53,21.53,0,0,1,3.37,2.68,18.34,18.34,0,0,1,1.52,1.65c.27.37.43.38-.13,0l-.25-.13c-.41-.14,0,0-.1,0a2.24,2.24,0,0,0-.44-.1,1.43,1.43,0,0,0-.29,0,1.76,1.76,0,0,0-.69.15c-.21.11-.1.08,0-.06l.75-.68a21.49,21.49,0,0,1,1.73-1.41A22.56,22.56,0,0,1,30.33,1a18,18,0,0,1,5.16.1,12.41,12.41,0,0,1,1.9.45l-1.77.73c-1.11.45-2.63,1.12-4.34,2a42.45,42.45,0,0,0-5.42,3.34C24.94,8.25,24,9,23.13,9.74l-1.28,1.19-.71.68a5.85,5.85,0,0,1-1.58,1.14,4.21,4.21,0,0,1-1.66.4l-.54,0a4.48,4.48,0,0,1-.68-.14l-.34-.12a4.12,4.12,0,0,1-.47-.23,5.33,5.33,0,0,1-1.52-1.44c-.36-.46-.71-.92-1.1-1.36a32.61,32.61,0,0,0-2.38-2.46,34.1,34.1,0,0,0-5-3.84A44.84,44.84,0,0,0,1.73,1.25Z"/></g></g></svg>