<svg xmlns="http://www.w3.org/2000/svg" viewBox="0 0 115.61 79.09"><defs><style>.cls-1{fill:#fffeff;}</style></defs><g id="Layer_2" data-name="Layer 2"><g id="レイヤー_1" data-name="レイヤー 1"><path class="cls-1" d="M61.66,67.14a11,11,0,0,1,1.9-.43,16.51,16.51,0,0,1,5.19.07,20.49,20.49,0,0,1,7.06,2.51,22.46,22.46,0,0,1,3.49,2.54c.54.5,1.09,1,1.59,1.58.29.37.44.37-.14,0l-.25-.11c-.41-.14,0,0-.1,0a1.51,1.51,0,0,0-.44-.08,1.4,1.4,0,0,0-.29,0,1.79,1.79,0,0,0-.69.17c-.21.12-.1.09,0,0l.72-.72a20.38,20.38,0,0,1,1.66-1.47A22.51,22.51,0,0,1,92,66.37a17.59,17.59,0,0,1,5.17-.11,12.7,12.7,0,0,1,1.91.37l-1.74.8c-1.08.49-2.58,1.23-4.24,2.17a42.38,42.38,0,0,0-5.28,3.57c-.89.72-1.78,1.47-2.63,2.28l-1.24,1.24-.68.72a5.56,5.56,0,0,1-1.52,1.2,4.2,4.2,0,0,1-1.64.47,4.86,4.86,0,0,1-.54,0,4.76,4.76,0,0,1-.69-.11l-.35-.11c-.17-.06-.33-.14-.48-.21a5.27,5.27,0,0,1-1.58-1.38c-.38-.43-.74-.89-1.15-1.3-.8-.84-1.63-1.63-2.48-2.36A33.87,33.87,0,0,0,67.66,70c-1.65-.93-3.16-1.64-4.23-2.11Z"/><path class="cls-1" d="M21.67,1A10.63,10.63,0,0,0,18.51.84a13.81,13.81,0,0,0-6.62,2.51,11.76,11.76,0,0,0-1,.75c-.12-.13-.22-.26-.34-.38a13.2,13.2,0,0,0-2-1.67A12.39,12.39,0,0,0,4.34.26,10,10,0,0,0,1.17,0,6.84,6.84,0,0,0,0,.23L1.05.75A25.92,25.92,0,0,1,3.56,2.18a23.49,23.49,0,0,1,3,2.39c2.5,2.35,3.5,4.21,4.41,4,.61-.13,2.2-1.92,4.73-3.74a27.17,27.17,0,0,1,3.35-2c1.05-.51,2-.91,2.66-1.17l1.09-.43A8,8,0,0,0,21.67,1Z"/><path class="cls-1" d="M93.09,25.1a28.41,28.41,0,0,1,2.51,1.64,20.45,20.45,0,0,1,3,2.66A18.93,18.93,0,0,1,100,31.07c.22.29.42.6.63.9a3.18,3.18,0,0,0,.89,1,2,2,0,0,0,.29.17l.21.09a2.35,2.35,0,0,0,.42.13l.34,0a2.68,2.68,0,0,0,1.07-.18,3.7,3.7,0,0,0,1.05-.64l.48-.4.87-.69c.59-.45,1.21-.86,1.82-1.25a28.8,28.8,0,0,1,3.59-1.86c1.12-.47,2.11-.82,2.83-1.05l1.15-.38a8,8,0,0,0-1.18-.37,11.15,11.15,0,0,0-3.26-.31,14.15,14.15,0,0,0-4.6,1,14.75,14.75,0,0,0-2.41,1.22c-.37.24-.85.56-1.16.81l-.5.4c-.09.08-.16.09,0,0a1,1,0,0,1,.44-.06l.18,0a1.2,1.2,0,0,1,.28.08s-.19-.08.06,0l.15.08c.34.28.24.27.08,0a10.73,10.73,0,0,0-.88-1.11,13,13,0,0,0-6.27-4,10.21,10.21,0,0,0-3.26-.42A6.93,6.93,0,0,0,92,24.5Z"/></g></g></svg>