<svg xmlns="http://www.w3.org/2000/svg" viewBox="0 0 23.28 9.98"><defs><style>.cls-1{fill:#fffeff;}</style></defs><g id="Layer_2" data-name="Layer 2"><g id="レイヤー_1" data-name="レイヤー 1"><path class="cls-1" d="M1.19,4.77a28.33,28.33,0,0,1,2.87.85A21,21,0,0,1,7.68,7.3,21,21,0,0,1,9.49,8.5c.3.21.58.46.87.69a3.31,3.31,0,0,0,1.13.68l.33.08.23,0h.44l.33-.06a2.63,2.63,0,0,0,1-.48,3.86,3.86,0,0,0,.82-.91L15,8l.63-.91c.44-.6.91-1.17,1.39-1.71a26.17,26.17,0,0,1,2.9-2.82c.93-.77,1.78-1.4,2.4-1.83l1-.69A9.27,9.27,0,0,0,22,0a11.37,11.37,0,0,0-3.21.65,14,14,0,0,0-4.12,2.26,14.34,14.34,0,0,0-2,1.87,10.83,10.83,0,0,0-.87,1.11l-.37.52c-.06.1-.13.14,0,0a1.11,1.11,0,0,1,.41-.19l.18,0h.35l.17,0c.4.17.3.19.08,0s-.77-.55-1.16-.8a13.11,13.11,0,0,0-7.14-2A10.77,10.77,0,0,0,1.14,4,7.65,7.65,0,0,0,0,4.51Z"/></g></g></svg>