<svg xmlns="http://www.w3.org/2000/svg" viewBox="0 0 75.54 18.86"><defs><style>.cls-1{fill:#fffeff;}</style></defs><g id="Layer_2" data-name="Layer 2"><g id="レイヤー_1" data-name="レイヤー 1"><path class="cls-1" d="M67.87,2.22C62.74-.46,57.14-1.07,52.06,2.4c-3,2.06-6.07,4.43-8.92,6.68a3.25,3.25,0,0,1-2.74.82,4.92,4.92,0,0,1-2.15-1.78,10.28,10.28,0,0,0-4.71-2.65,7.65,7.65,0,0,0-6.09,1.64c-2.95,2.79-3.39,5.09-6.78,7.28-4.91,3.18-9.63.51-14.91.78-2.16.11-8.29,3.64-4.61,3.65,14.82,0,52.88.07,73.16,0C75.42,18.82,78.36,7.69,67.87,2.22Z"/></g></g></svg>