<svg xmlns="http://www.w3.org/2000/svg" viewBox="0 0 98.07 18.51"><defs><style>.cls-1{fill:#fffeff;}</style></defs><g id="Layer_2" data-name="Layer 2"><g id="レイヤー_1" data-name="レイヤー 1"><path class="cls-1" d="M82.84,0a12.39,12.39,0,0,0-7.47,3C74,4.33,72.51,6,70.63,5.86c-2.14-.1-4-2.59-5.93-3.54-5-2.53-9.86-3.54-14.79-.17-2.92,2-5.28,4.69-8,6.87a3.2,3.2,0,0,1-2.66.8,4.74,4.74,0,0,1-2.08-1.73,10,10,0,0,0-4.58-2.57,7.38,7.38,0,0,0-5.9,1.59c-2.87,2.71-3.3,4.94-6.59,7.07-4.76,3.08-9.34.49-14.46.75-2.09.11-8,3.54-4.47,3.54,14.37,0,74.6.07,94.27,0,1.08,0,4.41-6.51,1.54-11.35C93.72,1.7,87.75-.26,82.84,0Z"/></g></g></svg>