<svg xmlns="http://www.w3.org/2000/svg" viewBox="0 0 98.05 18.52"><defs><style>.cls-1{fill:#fffeff;}</style></defs><g id="Layer_2" data-name="Layer 2"><g id="Layer_1-2" data-name="Layer 1"><g id="Layer_2-2" data-name="Layer 2"><g id="レイヤー_1" data-name="レイヤー 1"><path class="cls-1" d="M1.14,7.14C-1.73,12,1.6,18.49,2.68,18.49c19.67.07,79.9,0,94.27,0,3.53,0-2.38-3.43-4.47-3.54-5.12-.26-9.7,2.33-14.46-.75-3.29-2.13-3.72-4.36-6.59-7.07a7.44,7.44,0,0,0-5.9-1.59A10,10,0,0,0,61,8.11a4.6,4.6,0,0,1-2.08,1.72A3.16,3.16,0,0,1,56.21,9c-2.72-2.18-5.08-4.87-8-6.87-4.93-3.37-9.79-2.36-14.79.17-1.93,1-3.79,3.44-5.93,3.54C25.61,6,24.12,4.35,22.75,3a12.43,12.43,0,0,0-7.47-3C10.37-.24,4.4,1.72,1.14,7.14Z"/></g></g></g></g></svg>