<svg xmlns="http://www.w3.org/2000/svg" viewBox="0 0 190.81 78.64"><defs><style>.cls-1{fill:#ffdc64;}</style></defs><g id="Layer_2" data-name="Layer 2"><g id="レイヤー_1" data-name="レイヤー 1"><path class="cls-1" d="M170.55,69.14H32.27a69.14,69.14,0,0,1,138.28,0Z"/><path class="cls-1" d="M.44,72.54l21,0,25.17,0,26.67,0,25.58,0c7.21,0,14.41,0,21.62-.14l2.26,0a.37.37,0,0,0,0-.74q-10.53-.19-21-.19l-25.16,0-26.67,0-25.59,0-21.61,0H.44a.46.46,0,0,0,0,.91Z"/><path class="cls-1" d="M112.54,75.15l25.49,0,19.28,0c5.47,0,10.93,0,16.4-.17a.38.38,0,0,0,0-.75c-8.49-.31-17-.17-25.49-.16L129,74.2l-16.41,0a.46.46,0,0,0,0,.91Z"/><path class="cls-1" d="M129.28,72.54l25.49,0,19.28,0c5.47,0,10.93,0,16.4-.18a.37.37,0,0,0,0-.74c-8.49-.31-17-.18-25.49-.16l-19.27,0-16.41,0a.46.46,0,0,0,0,.91Z"/><path class="cls-1" d="M53.27,78.54l25.49.06,19.27,0c5.48,0,10.94,0,16.41-.18a.37.37,0,0,0,0-.74c-8.49-.31-17-.18-25.49-.16l-19.27,0-16.41,0a.45.45,0,0,0,0,.9Z"/></g></g></svg>