<svg xmlns="http://www.w3.org/2000/svg" viewBox="0 0 153.03 28.88"><defs><style>.cls-1{fill:#fffeff;}</style></defs><g id="Layer_2" data-name="Layer 2"><g id="レイヤー_1" data-name="レイヤー 1"><path class="cls-1" d="M129.27.06A19.26,19.26,0,0,0,117.62,4.8c-2.2,2-4.47,4.48-7.41,4.34-3.34-.15-6.3-4-9.26-5.53C93.13-.32,85.57-1.91,77.88,3.35c-4.55,3.12-8.24,7.32-12.56,10.73a5,5,0,0,1-4.15,1.24c-1.38-.38-2.31-1.62-3.25-2.7a15.61,15.61,0,0,0-7.14-4,11.55,11.55,0,0,0-9.21,2.48c-4.48,4.23-5.14,7.71-10.28,11-7.43,4.81-14.57.77-22.57,1.18-3.26.17-12.56,5.51-7,5.53,22.43,0,116.4.1,147.1,0,1.68,0,6.89-10.16,2.4-17.73C146.24,2.65,136.93-.4,129.27.06Z"/></g></g></svg>