<svg xmlns="http://www.w3.org/2000/svg" viewBox="0 0 60 60"><defs><style>.cls-1{fill:#ffdc64;}</style></defs><g id="Layer_2" data-name="Layer 2"><g id="レイヤー_1" data-name="レイヤー 1"><path class="cls-1" d="M51.21,8.79A30,30,0,1,0,60,30,29.91,29.91,0,0,0,51.21,8.79Zm-4.4,4.4A23.76,23.76,0,1,1,30,6.22,23.66,23.66,0,0,1,46.81,13.19Z"/><path class="cls-1" d="M28.45,38.59a3,3,0,1,0,3,3A3,3,0,0,0,28.45,38.59Z"/><path class="cls-1" d="M21.61,20.37,23.66,22a1.12,1.12,0,0,0,1.42,0,2.74,2.74,0,0,1,1-.91,6.49,6.49,0,0,1,3.36-.81,5,5,0,0,1,3.32,1.18,3.76,3.76,0,0,1,.87,1.07,1.86,1.86,0,0,1,.25.89,3.62,3.62,0,0,1-.37,1.73,3.57,3.57,0,0,1-.67.9,7.25,7.25,0,0,1-1.64,1.17c-.64.37-1.33.69-2,1.07a6.26,6.26,0,0,0-2.27,2,5.38,5.38,0,0,0-.71,1.58A6.56,6.56,0,0,0,26,33.66v1.19A1.11,1.11,0,0,0,27.11,36h2.67a1.11,1.11,0,0,0,1.11-1.11V33.66a2.24,2.24,0,0,1,.05-.48.63.63,0,0,1,.14-.26,2.16,2.16,0,0,1,.5-.37c.4-.22,1.05-.52,1.77-.92a11.86,11.86,0,0,0,3.54-2.74,8.18,8.18,0,0,0,1.39-2.4,8.74,8.74,0,0,0,.53-3.08A6.8,6.8,0,0,0,38,20.25a8.94,8.94,0,0,0-3.39-3.49,10,10,0,0,0-5.13-1.38,11.42,11.42,0,0,0-5.78,1.46,6.39,6.39,0,0,0-2.13,1.83,1.1,1.1,0,0,0,0,1.7Z"/></g></g></svg>