<svg xmlns="http://www.w3.org/2000/svg" viewBox="0 0 60 60"><defs><style>.cls-1{fill:#ffdc64;}</style></defs><g id="Layer_2" data-name="Layer 2"><g id="レイヤー_1" data-name="レイヤー 1"><path class="cls-1" d="M37.06,40.93a1.94,1.94,0,0,0-2.59-.13l-3.65,2.94a1.94,1.94,0,0,1-2.47,0,49.12,49.12,0,0,1-6.54-5.52,49.12,49.12,0,0,1-5.52-6.54,1.94,1.94,0,0,1,0-2.47l2.94-3.65a1.92,1.92,0,0,0-.14-2.59l-7-7a2,2,0,0,0-2.62-.12L.69,23.2a2,2,0,0,0-.46,2.41S1.41,28,2.5,29.85a87.22,87.22,0,0,0,12.25,15.4A87.22,87.22,0,0,0,30.15,57.5c1.84,1.09,4.25,2.27,4.25,2.27a2,2,0,0,0,2.4-.46l7.36-8.77A1.94,1.94,0,0,0,44,47.92Z"/><path class="cls-1" d="M38.78,31.56l2.91-.46A15.46,15.46,0,0,0,28.9,18.31l-.46,2.91A12.5,12.5,0,0,1,38.78,31.56Z"/><path class="cls-1" d="M50.48,9.52A33.81,33.81,0,0,0,31.79,0l-.46,2.91A31,31,0,0,1,57.09,28.67L60,28.21A33.81,33.81,0,0,0,50.48,9.52Z"/><path class="cls-1" d="M30.34,9.15l-.45,2.91a21.69,21.69,0,0,1,18,18.06l2.91-.46A24.63,24.63,0,0,0,30.34,9.15Z"/></g></g></svg>