<svg xmlns="http://www.w3.org/2000/svg" viewBox="0 0 16 16"><defs><style>.cls-1{fill:#eb6e50;}</style></defs><g id="Layer_2" data-name="Layer 2"><g id="レイヤー_1" data-name="レイヤー 1"><path class="cls-1" d="M13.66,2.34A8,8,0,1,0,16,8,8,8,0,0,0,13.66,2.34ZM12.48,3.52A6.33,6.33,0,1,1,8,1.66,6.31,6.31,0,0,1,12.48,3.52Z"/><path class="cls-1" d="M7.07,4h0a1.34,1.34,0,0,0-.94,2.28l1.5,1.5a.3.3,0,0,1,0,.44l-1.5,1.5A1.34,1.34,0,0,0,7.07,12h0A1.34,1.34,0,0,0,8,11.61L11.4,8.22a.3.3,0,0,0,0-.44L8,4.39A1.34,1.34,0,0,0,7.07,4Z"/></g></g></svg>