<svg xmlns="http://www.w3.org/2000/svg" viewBox="0 0 60 60"><defs><style>.cls-1{fill:#ffdc64}</style></defs><g id="Layer_2" data-name="Layer 2"><g id="レイヤー_1" data-name="レイヤー 1"><path class="cls-1" d="M51.21 8.79A30 30 0 1060 30a29.91 29.91 0 00-8.79-21.21zm-4.4 4.4A23.76 23.76 0 1130 6.22a23.66 23.66 0 0116.81 6.97z"/><path class="cls-1" d="M28.45 38.59a3 3 0 103 3 3 3 0 00-3-3zm-6.84-18.22L23.66 22a1.12 1.12 0 001.42 0 2.74 2.74 0 011-.91 6.49 6.49 0 013.36-.81 5 5 0 013.32 1.18 3.76 3.76 0 01.87 1.07 1.86 1.86 0 01.25.89 3.62 3.62 0 01-.37 1.73 3.57 3.57 0 01-.67.9 7.25 7.25 0 01-1.64 1.17c-.64.37-1.33.69-2 1.07a6.26 6.26 0 00-2.27 2 5.38 5.38 0 00-.71 1.58 6.56 6.56 0 00-.22 1.79v1.19A1.11 1.11 0 0027.11 36h2.67a1.11 1.11 0 001.11-1.11v-1.23a2.24 2.24 0 01.05-.48.63.63 0 01.14-.26 2.16 2.16 0 01.5-.37c.4-.22 1.05-.52 1.77-.92a11.86 11.86 0 003.54-2.74 8.18 8.18 0 001.39-2.4 8.74 8.74 0 00.53-3.08 6.8 6.8 0 00-.81-3.16 8.94 8.94 0 00-3.39-3.49 10 10 0 00-5.13-1.38 11.42 11.42 0 00-5.78 1.46 6.39 6.39 0 00-2.13 1.83 1.1 1.1 0 000 1.7z"/></g></g></svg>