<svg xmlns="http://www.w3.org/2000/svg" viewBox="0 0 182.46 34.44"><g id="Layer_2" data-name="Layer 2"><path d="M154.12.07a23 23 0 00-13.89 5.65c-2.62 2.33-5.32 5.34-8.83 5.18-4-.18-7.51-4.82-11-6.59C111-.39 102-2.28 92.86 4c-5.44 3.72-9.83 8.72-15 12.78-1.4 1.11-3.22 1.94-4.94 1.48s-2.76-1.93-3.89-3.21a18.6 18.6 0 00-8.5-4.78c-2.95-.67-8.14.26-11 3-5.34 5-6.13 9.2-12.25 13.16-8.86 5.73-17.38.91-26.92 1.4-3.89.2-15 6.57-8.31 6.59 26.75.05 138.79.13 175.39 0 2 0 8.21-12.11 2.87-21.13C174.36 3.16 163.26-.48 154.12.07z" fill="#fffeff" id="レイヤー_1" data-name="レイヤー 1"/></g></svg>