<svg xmlns="http://www.w3.org/2000/svg" viewBox="0 0 60 60"><defs><style>.cls-1{fill:#ffdc64}</style></defs><g id="Layer_2" data-name="Layer 2"><g id="レイヤー_1" data-name="レイヤー 1"><path class="cls-1" d="M37.06 40.93a1.94 1.94 0 00-2.59-.13l-3.65 2.94a1.94 1.94 0 01-2.47 0 49.12 49.12 0 01-6.54-5.52 49.12 49.12 0 01-5.52-6.54 1.94 1.94 0 010-2.47l2.94-3.65a1.92 1.92 0 00-.14-2.59l-7-7a2 2 0 00-2.62-.12L.69 23.2a2 2 0 00-.46 2.41S1.41 28 2.5 29.85a87.22 87.22 0 0012.25 15.4 87.22 87.22 0 0015.4 12.25c1.84 1.09 4.25 2.27 4.25 2.27a2 2 0 002.4-.46l7.36-8.77a1.94 1.94 0 00-.16-2.62zm1.72-9.37l2.91-.46A15.46 15.46 0 0028.9 18.31l-.46 2.91a12.5 12.5 0 0110.34 10.34zm11.7-22.04A33.81 33.81 0 0031.79 0l-.46 2.91a31 31 0 0125.76 25.76l2.91-.46a33.81 33.81 0 00-9.52-18.69z"/><path class="cls-1" d="M30.34 9.15l-.45 2.91a21.69 21.69 0 0118 18.06l2.91-.46A24.63 24.63 0 0030.34 9.15z"/></g></g></svg>