<svg xmlns="http://www.w3.org/2000/svg" viewBox="0 0 16 16"><defs><style>.cls-1{fill:#eb6e50}</style></defs><g id="Layer_2" data-name="Layer 2"><g id="レイヤー_1" data-name="レイヤー 1"><path class="cls-1" d="M13.66 2.34A8 8 0 1016 8a8 8 0 00-2.34-5.66zm-1.18 1.18A6.33 6.33 0 118 1.66a6.31 6.31 0 014.48 1.86z"/><path class="cls-1" d="M7.07 4a1.34 1.34 0 00-.94 2.28l1.5 1.5a.3.3 0 010 .44l-1.5 1.5A1.34 1.34 0 007.07 12a1.34 1.34 0 00.93-.39l3.4-3.39a.3.3 0 000-.44L8 4.39A1.34 1.34 0 007.07 4z"/></g></g></svg>