<svg xmlns="http://www.w3.org/2000/svg" viewBox="0 0 204.21 145.18"><defs><style>.cls-3{fill:#eb6e50;fill-rule:evenodd}</style></defs><g id="Layer_2" data-name="Layer 2"><g id="レイヤー_1" data-name="レイヤー 1"><text transform="translate(40.9 124.26)" fill="#eb6e50" font-size="20" font-family="NotoSansCJKjp-Bold-90ms-RKSJ-H,Noto Sans CJK JP">MAIL<tspan x="48.06" y="0" letter-spacing=".25em">E</tspan><tspan x="65.36" y="0">株式会社</tspan></text><path class="cls-3" d="M53.32 90.35c-.58-.14-.69-.47-.73-1.13-.08-1.46-.24-8-.2-9.25a.71.71 0 01.59-.83 5.74 5.74 0 011.13-.2c.06-.06.06-.27 0-.31-.81 0-1.37.06-3.08.06a4 4 0 01-.38 1.14c-.85 1.88-3.56 7.53-3.9 8.17h-.08c-.27-.52-2.45-5.16-3.77-8.21a2.89 2.89 0 01-.38-1.1c-2 0-2.74-.06-3.3-.06-.06 0-.08.25 0 .29a5.35 5.35 0 011.25.28.86.86 0 01.53.91c-.08 1.68-.49 7.41-.67 8.7-.16 1.14-.34 1.44-1 1.56-.24.06-.51.08-.77.12 0 0-.06.28 0 .32.35 0 1.22-.06 2.19-.06s1.55.06 2 .06c0 0 .08-.28 0-.32a8 8 0 01-1-.18c-.55-.14-.65-.57-.65-1.42 0-1.29.28-6.74.41-8.35h.06c.52 1.3 3.82 8.64 4.32 10.35a1 1 0 00.35 0c.63-1.83 4-8.87 4.57-10.12a.06.06 0 01.08 0c0 1.62.12 7.36.1 8.62 0 .54-.1.83-.54 1a4.48 4.48 0 01-.91.18c-.06 0 0 .3 0 .32.46 0 1.29-.06 2.34-.06s2 .06 2.41.06a.44.44 0 000-.32 7.41 7.41 0 01-.97-.22zM68.57 89c-.59-1.53-2.77-8.29-3.18-9.47l-.24-.87h-1.09a7 7 0 01-.26.94c-.45 1.25-2.27 6.41-3.42 9.18-.59 1.38-.81 1.52-2.15 1.7-.06 0-.06.3 0 .32.37 0 1-.06 1.86-.06s1.81.06 2.25.06a.45.45 0 000-.32 4.61 4.61 0 01-.85-.16c-.63-.14-.61-.45-.57-.79a34.37 34.37 0 011.22-3.64.22.22 0 01.16-.14h3.34s.14.1.16.1c.36 1 1.07 3 1.29 3.9.07.23.07.39-.22.53a5.31 5.31 0 01-1 .2.58.58 0 000 .32c.47 0 1.54-.06 2.33-.06.61 0 1.7 0 2.2.06a.36.36 0 000-.32c-1.2-.15-1.3-.23-1.83-1.48zm-3-3.94h-2.92c-.18 0-.08 0-.08-.12.29-.87 1.21-3.57 1.54-4.48h.08L65.56 85c.02 0-.02.07-.04.07zm12.81 5.27c-.54-.14-.58-.51-.62-1.09s0-2.55 0-4.68v-4.43c0-.75.1-.93.54-1.07l.83-.14a.37.37 0 000-.29c-.44 0-1 .06-2.08.06s-1.93-.06-2.39-.06c0 0-.06.25 0 .29a8.21 8.21 0 011 .18c.43.12.43.51.49 1v4c0 1.8 0 4.79-.06 5.36s-.11.81-.61.91a5 5 0 01-.87.14.36.36 0 000 .32c1 0 1.37-.06 2.51-.06.89 0 1.58.06 2.14.06a.39.39 0 000-.32 5.76 5.76 0 01-.88-.18zm14.79-2.83A8.57 8.57 0 0192 89.62a1.42 1.42 0 01-1.08.59 15.38 15.38 0 01-3.31-.14.59.59 0 01-.33-.57c0-.93-.06-3.32 0-5.1s0-3.87 0-4.45 0-.75.51-.87c.24-.06.42-.08.81-.16.08 0 .06-.27 0-.29-.37 0-1.14.06-2.19.06-1.21 0-1.84-.06-2.3-.06 0 0-.06.27 0 .29.24 0 .7.1.93.16.6.14.64.36.68 1.21v3.74c0 4.23 0 4.9-.06 5.43s-.24.79-.66.89c-.27.06-.55.08-1 .14a.44.44 0 000 .32c.47 0 1.56-.06 2.41-.06s4.31.08 5.41.08c.5 0 .7-.1.8-.24a16.89 16.89 0 00.93-3c-.08-.07-.32-.13-.38-.09zm12.36 2.24c-.28.27-.5.49-1.72.49a14.63 14.63 0 01-2.42-.12c-.21 0-.43-.23-.45-.69 0-1.16-.06-3.83 0-4.37 0 0 0-.16.1-.16h3.06a.78.78 0 01.79.7 6.28 6.28 0 01.14.69.3.3 0 00.34 0v-1.64a12.57 12.57 0 01.14-1.78.55.55 0 00-.36 0 3.88 3.88 0 01-.18.69.81.81 0 01-.85.69c-.57 0-2.57.06-3.06 0 0 0-.08-.08-.08-.16v-4.56a.28.28 0 01.2-.28 28.77 28.77 0 012.94 0c.73 0 .89.32 1 .75a5.5 5.5 0 01.22 1.27.5.5 0 00.34 0 17.22 17.22 0 01.35-2.59l-.06-.06a19.14 19.14 0 01-2.08.08h-3.77c-1.07 0-1.78-.06-2.24-.06a.27.27 0 000 .29 4.09 4.09 0 01.89.16c.5.12.58.3.62 1v9.09c-.06.77-.22 1-.67 1.13a6.72 6.72 0 01-1.27.16.44.44 0 000 .32c.83 0 1.44-.06 2.71-.06 2.75 0 3.62.06 4.8.06 1 0 1 0 1.17-.22a14.31 14.31 0 00.79-2.55.47.47 0 00-.28-.14 5.88 5.88 0 01-1.11 1.87zm7.3-.74a1 1 0 00-.64.27 1.05 1.05 0 00-.29.69 1 1 0 00.27.68.84.84 0 00.6.25.93.93 0 00.69-.27 1 1 0 00.26-.64.91.91 0 00-.3-.75 1.07 1.07 0 00-.59-.23zm16.34-1.1a7.9 7.9 0 01-1.28 1.82 3.38 3.38 0 01-2.36.79c-3.36 0-5.35-2.41-5.35-6.09s1.78-5.63 4.68-5.63a5.23 5.23 0 012.49.47c.68.34.93.83 1.11 2.33 0 .08.32 0 .38 0a18 18 0 01.35-2.85 36.61 36.61 0 00-3.66-.37 8.28 8.28 0 00-4 .91 5.86 5.86 0 00-3.08 5.36c0 4.17 2.49 6.5 6.74 6.5a10.37 10.37 0 002.85-.41 5.79 5.79 0 001.48-2.63c-.07-.1-.29-.22-.35-.2zm11.31-9.57a6.1 6.1 0 00-6.33 6.29 6.92 6.92 0 001.68 4.64 5.94 5.94 0 004.35 1.84 6.11 6.11 0 005.1-2.59 6.79 6.79 0 001.17-4c0-3.27-2.04-6.18-5.97-6.18zm2.63 11.41a3.36 3.36 0 01-2.2.75 4.4 4.4 0 01-2.55-.75 6.85 6.85 0 01-2.47-5.58c0-2 .64-3.89 2.08-4.78a3.8 3.8 0 011.9-.5 4.19 4.19 0 012.64.87 6.61 6.61 0 012.28 5.38 5.92 5.92 0 01-1.68 4.61zM152 89a1 1 0 00-.63.27 1 1 0 00-.3.69 1 1 0 00.28.68.82.82 0 00.59.25.94.94 0 00.7-.27 1 1 0 00.25-.64.93.93 0 00-.29-.75 1.07 1.07 0 00-.6-.23zm6.74-.63a4.24 4.24 0 00-1 1 3.83 3.83 0 01.51 1.41 3.68 3.68 0 01-1.4 2.74.06.06 0 000 .08s.16.12.25.12a5.33 5.33 0 002.26-4.15 2 2 0 00-.4-1.25.33.33 0 00-.22.05zm14.61-.87a8.57 8.57 0 01-1.21 2.12 1.44 1.44 0 01-1.09.59 15.32 15.32 0 01-3.3-.14c-.18-.06-.31-.25-.33-.57 0-.93-.06-3.32 0-5.1s0-3.87 0-4.45 0-.75.51-.87c.24-.06.42-.08.81-.16.08 0 .06-.27 0-.29-.37 0-1.15.06-2.19.06-1.21 0-1.84-.06-2.3-.06 0 0-.06.27 0 .29.24 0 .69.1.93.16.6.14.63.36.68 1.21v3.74c0 4.23 0 4.9-.06 5.43s-.23.79-.65.89c-.27.06-.55.08-1 .14a.44.44 0 000 .32c.48 0 1.57-.06 2.42-.06s4.31.08 5.41.08c.5 0 .7-.1.79-.24a15.39 15.39 0 00.93-3c-.06-.07-.29-.13-.35-.09zm12.36-8.81h-7.28a4.1 4.1 0 01-1.54-.3h-.1a27.07 27.07 0 01-.36 3 .46.46 0 00.34 0 9.76 9.76 0 01.73-1.72 1 1 0 01.79-.51h2.75a.18.18 0 01.12.14c0 3.16 0 8.68-.06 9.55s-.12 1.3-.7 1.4a11.53 11.53 0 01-1.26.18c-.06 0-.06.22 0 .3.57 0 1.54-.06 2.81-.06.77 0 1.84.06 2.45.06.06 0 .08-.26 0-.3a6.46 6.46 0 01-1-.16c-.41-.12-.63-.26-.69-1.36s-.08-6.75-.08-9.55a.21.21 0 01.1-.18h2.91a.81.81 0 01.76.57 6.41 6.41 0 01.3 1.6c0 .06.34.06.36 0a19.86 19.86 0 01.39-3h-.08a4.84 4.84 0 01-1.66.34zM202.37 80a6.24 6.24 0 00-4.19-1.34c-1.54 0-2.41.08-3.72.08-.51 0-1.8 0-2.27-.06 0 0-.06.25 0 .29a4.92 4.92 0 011 .18c.47.14.55.34.59 1.07s0 3 0 4.19c0 2 0 3.78-.06 5-.06.75-.3.87-.61 1a5.15 5.15 0 01-1.09.18c-.06 0-.06.3 0 .32h1.42c1.76 0 2.53.07 3.72.07a7.5 7.5 0 004.45-1.26 6 6 0 002.61-5.18 5.76 5.76 0 00-1.85-4.54zM201 89.24a4 4 0 01-3 1.09 4.74 4.74 0 01-2.31-.41.9.9 0 01-.4-.72v-9.6a.48.48 0 01.22-.42 4.39 4.39 0 011-.1 6.46 6.46 0 013.68.85 5.6 5.6 0 012.19 4.83 5.87 5.87 0 01-1.38 4.48zm-48.13-43.31c.5.92 1.38 1.06 1.44 0s-2.24-1.5-1.44 0zm2.57-.93c.23-.38-.65-.43-.55 0s.82.51.82.07c0-.07-.29-.07-.27-.07zm-2.19 4.24c0 .25.06.22.12.18s.36 0 .49-.1c.58-.51-.69-.89-.61-.08zm17.97-46.48c.7.89.79 2.07.95 3.55.39 3.81.64 4.65 3.35 6.13.35.19 1.2.37 1.45.08.84-1-.37-4 0-4.42 1.54-.58 1.35 3.79 1.91 4.52.52 0 .69-.72 1.09-.91 4.34-2.08.08-8.49-2-9.85a11.06 11.06 0 00-3.18-1.41 11.24 11.24 0 00-3.31-.45 4.48 4.48 0 00-.64.07c-.56.09-1.11.23-1.69.27a2.85 2.85 0 00-1.57.36c1.36.69 2.75.92 3.64 2.06zm14.94 8.62c.14.41-2.33 2.87-2.07 4 .13.55 1 1 1.48 1.22a3.19 3.19 0 002.7-.09c1.57-.86 2.6-2.69 3.42-4.21 1-1.89 1.83-3.72 3.46-5.22l.81-.43.21-.06c-.52-.74-4.3-1.33-5.71-1.34l-2.33.28a7.54 7.54 0 00-5.64 5.55 3.66 3.66 0 00.36 2.72c.36-.46 2.68-2.95 3.31-2.42zm-21.46 6.48c2.78.68 6.36 2.71 9.45.68.41-.27 1-.6 1.15-1.13v-1c-.74-.78-2.46-.57-3.4-1.15 0-1.15 3.12-.62 3.82-.37v-.07c.11-.25-.89-1.11-1-1.24a9.3 9.3 0 00-1.69-1.24 7 7 0 00-3.09-.92h-1.22a7.43 7.43 0 00-2.61.36c-2.31.93-5.36 3.29-5.34 6a11.66 11.66 0 013.93.08zM194.29 28C190.6 24.54 191 17.64 184 17.41l-1.23.23c.11.48 2.88 2.74 2.08 3.71-.63.24-3-1.77-3.35-2.17a4.54 4.54 0 00-.74 2.93c0 4.74 5.24 6.75 10.41 6.22l3.1-.28.02-.05z"/><path class="cls-3" d="M179.08 19.68c-1.21-.16-2.72 2.06-3.24 2.83h-.31c-.75-1 .48-2.57 1-3.38h-.75a2.66 2.66 0 00-1.13.21 7.43 7.43 0 00-1.65 1.04 6.76 6.76 0 00-1.64 3l-.51.26h-.1c-.11 0-.86.61-1 .64a47.14 47.14 0 00-5.69 4.46c-.75.71-1.33 1.74-2.14 2.36-.52.38-1.3 1.37-1.78 1.79-1.31 1.16-2.32 2.62-3.61 3.78-.11.09-3.11 3.75-3.19 3.87s-.26.47-.4.7a2.62 2.62 0 01-.44.44c-.18.15-.32.35-.5.51l-.32.37a3.69 3.69 0 00-1.57.71c-.2.16-.47.43-.45.72a7.42 7.42 0 01-3.66 1.17c-2.34-.11-1.17-4.25-1.38-5.85s-1.07-3.08-4.47-2.23-9.68 5.1-9.68 5.1 2.34-3.93 3.08-5.42 1.28-2.66-.74-3.19-7.66 3.51-7.66 3.51 1.6-4.47 3-8 .1-5.53-5-3.51S110.29 33 110.29 33 116 23 117 21s5.32-9.57 1.07-13.4-14.57.74-14.57.74-7.87 2.87-30.74 20.42S26.07 74.3 26.07 74.3C15.33 86.85 2.25 105.88.44 112.58S3 115.35 3 115.35s.43-.43-.64-.54-.42-1.8-.42-1.8a187.2 187.2 0 0128.5-41.16C58.29 41.54 71 32.61 71 32.61S74.67 29 92.32 16.55s24.89-7.33 24.89-7.33c4.54 3.11-9.25 25.62-9.25 25.62-1.71 1.17-20.31 18-23.61 27.76s2.19 3.84 2.19 3.84C96.64 58.15 109 35.91 109 35.91c3.3-3 12.12-7.13 14.46-8.4s3.06-.19 2.74 1.73-5.29 12.52-5.29 12.52c-1.77 1.83-12.23 12.33-13.19 17s.32 3 4.79-2 9.46-14 9.46-14a58.69 58.69 0 016.61-5.76c2-1.27 3.62-2 1.6 2s-8 10.85-8.72 11.91-3.19 3.72-1.17 3.62 5.85-6.06 8.08-8.19 8.62-6.27 12.55-6.91-.56 6 3.94 7.12c2.21.56 4.14-.91 5.3-2.14h.26a1.12 1.12 0 01.44 0c.22.07.31.26.57.25a1.38 1.38 0 00.6-.25 1.91 1.91 0 00.77-1 .18.18 0 00.1 0c.06 0 .07-.12.12-.18s.22-.36.33-.53c.21-.33.48-.64.68-1 .3-.48.61-1 .92-1.44.07-.11 3.08-3.75 3.17-3.84 1-.85 1.75-1.9 2.71-2.76s1.6-1.78 2.54-2.49 1.86-2.05 3-2.85c.36-.25 3.31-2.46 3.67-2.73s.63-.49 1-.72a9.93 9.93 0 002.08 9.43h.15c.27-2.29 2.25-3.24 3.63-4.42 2.02-1.94 3.47-6.36 2.18-10.2zm-85.48 36c-1.5 2.06-3 4.24-4.63 6.16-.52.59-3.31 2.93-2.9.69a13.05 13.05 0 013.1-5.56c3.82-4.7 14.2-15.62 15.08-16.8-3.49 5.18-6.98 10.39-10.65 15.48z"/></g></g></svg>