<svg xmlns="http://www.w3.org/2000/svg" viewBox="0 0 190.81 78.64"><g id="Layer_2" data-name="Layer 2"><path d="M170.55 69.14H32.27a69.14 69.14 0 01138.28 0zM.44 72.54h98.42c7.21 0 14.41 0 21.62-.14h2.26a.37.37 0 000-.74q-10.53-.19-21-.19H.44a.46.46 0 000 .91zm112.1 2.61h44.77c5.47 0 10.93 0 16.4-.17a.38.38 0 000-.75c-8.49-.31-17-.17-25.49-.16L129 74.2h-16.41a.46.46 0 000 .91zm16.74-2.61h44.77c5.47 0 10.93 0 16.4-.18a.37.37 0 000-.74c-8.49-.31-17-.18-25.49-.16h-35.68a.46.46 0 000 .91zm-76.01 6l25.49.06h19.27c5.48 0 10.94 0 16.41-.18a.37.37 0 000-.74c-8.49-.31-17-.18-25.49-.16H53.27a.45.45 0 000 .9z" fill="#ffdc64" id="レイヤー_1" data-name="レイヤー 1"/></g></svg>